<svg xmlns="http://www.w3.org/2000/svg" width="15" height="15" viewBox="0 0 15 15"><path fill="#878787" d="M13.264 8.519l-.814-.47a5.06 5.06 0 0 0 0-1.097l.814-.47a1.004 1.004 0 0 0 .36-1.374l-.99-1.716a.999.999 0 0 0-1.37-.375l-.815.47A4.976 4.976 0 0 0 9.5 2.94V2a1.004 1.004 0 0 0-1.01-1H6.51a.999.999 0 0 0-1.01.998v.94a4.976 4.976 0 0 0-.95.55l-.814-.47a1.004 1.004 0 0 0-1.37.374l-.99 1.716a.999.999 0 0 0 .36 1.373l.815.47a5.06 5.06 0 0 0 0 1.097l-.815.47a1.004 1.004 0 0 0-.36 1.374l.99 1.716a.999.999 0 0 0 1.37.375l.815-.47a4.976 4.976 0 0 0 .949.548v.94A1.004 1.004 0 0 0 6.51 14h1.98a.999.999 0 0 0 1.01-.998v-.94a4.976 4.976 0 0 0 .95-.55l.814.47a1.004 1.004 0 0 0 1.37-.374l.99-1.716a.999.999 0 0 0-.36-1.373zm-1.5 2.598l-.815-.47-.566-.328-.527.388a3.972 3.972 0 0 1-.758.439l-.598.262v.653s.002.939-.01.939l-1.99.002v-1.594l-.598-.262a3.972 3.972 0 0 1-.758-.439l-.527-.388-.566.327s-.813.472-.819.462l-.996-1.723.814-.47.566-.327-.071-.649a4.056 4.056 0 0 1 0-.878l.07-.649-.565-.326s-.814-.468-.809-.478l.994-1.725.816.47.566.328.527-.388a3.972 3.972 0 0 1 .758-.439l.598-.262v-.653S6.497 2 6.51 2l1.99-.002v1.594l.598.262a3.972 3.972 0 0 1 .758.439l.527.388.566-.327s.813-.472.819-.462l.996 1.723-.814.47-.566.327.071.649a4.056 4.056 0 0 1 0 .878l-.07.649.565.326s.814.468.809.478z"/><path fill="#878787" d="M7.5 5.5a2 2 0 1 0 2 2 2 2 0 0 0-2-2zm0 3a1 1 0 1 1 1-1 1 1 0 0 1-1 1z"/></svg>