<svg xmlns="http://www.w3.org/2000/svg" width="24" height="23" viewBox="0 0 24 23">
  <g fill="none" fill-rule="evenodd">
    <path fill="#AFAFAF" d="M0 7.00276C0 5.8966664.8935426 5 2.00276 5h8.99448C12.1033336 5 13 5.8935426 13 7.00276v8.99448C13 17.1033336 12.1064574 18 10.99724 18H2.00276C.8966664 18 0 17.1064574 0 15.99724V7.00276z"/>
    <path fill="#FFF" d="M1 7.00276v8.99448C1 16.5528523 1.44763 17 2.00276 17h8.99448C11.5528523 17 12 16.55237 12 15.99724V7.00276C12 6.4471477 11.55237 6 10.99724 6H2.00276C1.4471477 6 1 6.44763 1 7.00276z"/>
    <path fill="#5C5C5C" d="M7 11V8H6v3H3v1h3v3h1v-3h3v-1H7z"/>
    <path fill="#AFAFAF" d="M13 11h11v1H13z"/>
  </g>
</svg>
