<svg xmlns="http://www.w3.org/2000/svg" width="21" height="14" viewBox="0 0 21 14" xmlns:xlink="http://www.w3.org/1999/xlink">
  <defs>
    <path id="a" d="M1 2h19v1H1V2zm0 2h19v1H1V4zm0 2h19v1H1V6zm0 2h19v1H1V8zm0 2h19v1H1v-1zm0 2h19v1H1v-1z"/>
  </defs>
  <g fill="none" fill-rule="evenodd">
    <path fill="#DDD" d="M1 1v12h19V1H1zm0-1h20v14H0V0h1z"/>
    <path fill="#DF504D" d="M1 1h19v12H1z"/>
    <use fill="#D8D8D8" xlink:href="#a"/>
    <use fill="#FFF" xlink:href="#a"/>
    <path fill="#345ACD" d="M1 1h10v6H1z"/>
    <path fill="#FFF" d="M2 2.5c0-.276142.231934-.5.5-.5.276142 0 .5.231934.5.5 0 .276142-.231934.5-.5.5-.276142 0-.5-.231934-.5-.5zm0 2c0-.276142.231934-.5.5-.5.276142 0 .5.231934.5.5 0 .276142-.231934.5-.5.5-.276142 0-.5-.231934-.5-.5zm1-1c0-.276142.231934-.5.5-.5.276142 0 .5.231934.5.5 0 .276142-.231934.5-.5.5-.276142 0-.5-.231934-.5-.5zm0 2c0-.276142.231934-.5.5-.5.276142 0 .5.231934.5.5 0 .276142-.231934.5-.5.5-.276142 0-.5-.231934-.5-.5zm1-3c0-.276142.231934-.5.5-.5.276142 0 .5.231934.5.5 0 .276142-.231934.5-.5.5-.276142 0-.5-.231934-.5-.5zm0 2c0-.276142.231934-.5.5-.5.276142 0 .5.231934.5.5 0 .276142-.231934.5-.5.5-.276142 0-.5-.231934-.5-.5zm1-1c0-.276142.231934-.5.5-.5.276142 0 .5.231934.5.5 0 .276142-.231934.5-.5.5-.276142 0-.5-.231934-.5-.5zm0 2c0-.276142.231934-.5.5-.5.276142 0 .5.231934.5.5 0 .276142-.231934.5-.5.5-.276142 0-.5-.231934-.5-.5zm1-3c0-.276142.231934-.5.5-.5.276142 0 .5.231934.5.5 0 .276142-.231934.5-.5.5-.276142 0-.5-.231934-.5-.5zm0 2c0-.276142.231934-.5.5-.5.276142 0 .5.231934.5.5 0 .276142-.231934.5-.5.5-.276142 0-.5-.231934-.5-.5zm1-1c0-.276142.231934-.5.5-.5.276142 0 .5.231934.5.5 0 .276142-.231934.5-.5.5-.276142 0-.5-.231934-.5-.5zm0 2c0-.276142.231934-.5.5-.5.276142 0 .5.231934.5.5 0 .276142-.231934.5-.5.5-.276142 0-.5-.231934-.5-.5zm1-3c0-.276142.231934-.5.5-.5.276142 0 .5.231934.5.5 0 .276142-.231934.5-.5.5-.276142 0-.5-.231934-.5-.5zm0 2c0-.276142.231934-.5.5-.5.276142 0 .5.231934.5.5 0 .276142-.231934.5-.5.5-.276142 0-.5-.231934-.5-.5zm1-1c0-.276142.231934-.5.5-.5.276142 0 .5.231934.5.5 0 .276142-.231934.5-.5.5-.276142 0-.5-.231934-.5-.5zm0 2c0-.276142.231934-.5.5-.5.276142 0 .5.231934.5.5 0 .276142-.231934.5-.5.5-.276142 0-.5-.231934-.5-.5z"/>
  </g>
</svg>
