<svg xmlns="http://www.w3.org/2000/svg" width="21" height="14" viewBox="0 0 21 14">
  <g fill="none" fill-rule="evenodd">
    <path fill="#DDD" d="M1 1v12h19V1H1zm0-1h20v14H0V0h1z"/>
    <path fill="#059AC4" d="M1 1h19v4H1z"/>
    <path fill="#FFF" d="M1 5h19v4H1z"/>
    <path fill="#15B139" d="M1 9h19v4H1z"/>
    <path fill="#FF1C08" d="M1 5h19v1H1V5zm0 4h19v1H1V9z"/>
    <path fill="#FFF" d="M2.5 3c.276142 0 .5-.223858.5-.5S2.776142 2 2.5 2s-.5.223858-.5.5.223858.5.5.5zm1 1c.276142 0 .5-.223858.5-.5S3.776142 3 3.5 3s-.5.223858-.5.5.223858.5.5.5zm1-1c.276142 0 .5-.223858.5-.5S4.776142 2 4.5 2s-.5.223858-.5.5.223858.5.5.5zm1 1c.276142 0 .5-.223858.5-.5S5.776142 3 5.5 3s-.5.223858-.5.5.223858.5.5.5zm1-1c.276142 0 .5-.223858.5-.5S6.776142 2 6.5 2s-.5.223858-.5.5.223858.5.5.5zm1 1c.276142 0 .5-.223858.5-.5S7.776142 3 7.5 3s-.5.223858-.5.5.223858.5.5.5z"/>
  </g>
</svg>
