<svg xmlns="http://www.w3.org/2000/svg" width="21" height="14" viewBox="0 0 21 14"><path fill="#fff" d="M0 0h21v14H0z"/><path fill="#ddd" d="M1 13h19V1H1zM0 0h21v14H0z"/><path fill="#212121" d="M15.793 2.086l2.121 2.121-.707.707-2.121-2.121zm0 9.828l-.707-.707 2.121-2.121.707.707zm-10.5-9.828L6 2.793 3.879 4.914l-.707-.707zm0 9.828L3.172 9.793l.707-.707L6 11.207z"/><path fill="#1761b5" d="M6.525 6.553A4.044 4.044 0 0 0 6.5 7a4 4 0 0 0 8 0l-.001-.09a2.53 2.53 0 0 0-4.038.15c-2 2.497-3.878-.063-3.878-.063l-.058-.444z"/><path fill="#d71331" d="M6.525 6.553a4 4 0 0 1 7.974.357 2.53 2.53 0 0 0-4.038.15c-2 2.497-3.878-.063-3.878-.063l-.058-.444z"/></svg>