<svg xmlns="http://www.w3.org/2000/svg" width="21" height="14" viewBox="0 0 21 14">
  <g fill="none" fill-rule="evenodd">
    <path fill="#DDD" d="M1 1v12h19V1H1zm0-1h20v14H0V0h1z"/>
    <path fill="#EB1D2F" d="M1 1h19v12H1z"/>
    <path fill="#FFED00" d="M8.5 4c.276142 0 .5-.223858.5-.5S8.776142 3 8.5 3s-.5.223858-.5.5.223858.5.5.5zm0 2c.276142 0 .5-.223858.5-.5S8.776142 5 8.5 5s-.5.223858-.5.5.223858.5.5.5zm-1 2c.276142 0 .5-.223858.5-.5S7.776142 7 7.5 7s-.5.223858-.5.5.223858.5.5.5zm-2 1c.276142 0 .5-.223858.5-.5S5.776142 8 5.5 8s-.5.223858-.5.5.223858.5.5.5zm-1-3.25l-1.469463.772542.280642-1.63627-1.18882-1.158814 1.642906-.23873L4.5 2l.734732 1.48873 1.64291.238728L5.68882 4.88627l.28064 1.636272"/>
  </g>
</svg>
