<svg xmlns="http://www.w3.org/2000/svg" width="21" height="14" viewBox="0 0 21 14">
  <g fill="none" fill-rule="evenodd">
    <path fill="#DDD" d="M1 1v12h19V1H1zm0-1h20v14H0V0h1z"/>
    <path fill="#0083B1" d="M1 1h19v12H1z"/>
    <path fill="#FFED00" d="M2.5 3c.276142 0 .5-.223858.5-.5S2.776142 2 2.5 2s-.5.223858-.5.5.223858.5.5.5zm0 2c.276142 0 .5-.223858.5-.5S2.776142 4 2.5 4s-.5.223858-.5.5.223858.5.5.5zm0 2c.276142 0 .5-.223858.5-.5S2.776142 6 2.5 6s-.5.223858-.5.5.223858.5.5.5zm0 2c.276142 0 .5-.223858.5-.5S2.776142 8 2.5 8s-.5.223858-.5.5.223858.5.5.5zm0 2c.276142 0 .5-.223858.5-.5s-.223858-.5-.5-.5-.5.223858-.5.5.223858.5.5.5zm1-7c.276142 0 .5-.223858.5-.5S3.776142 3 3.5 3s-.5.223858-.5.5.223858.5.5.5zm0 2c.276142 0 .5-.223858.5-.5S3.776142 5 3.5 5s-.5.223858-.5.5.223858.5.5.5zm0 2c.276142 0 .5-.223858.5-.5S3.776142 7 3.5 7s-.5.223858-.5.5.223858.5.5.5zm0 2c.276142 0 .5-.223858.5-.5S3.776142 9 3.5 9s-.5.223858-.5.5.223858.5.5.5zm0 2c.276142 0 .5-.223858.5-.5s-.223858-.5-.5-.5-.5.223858-.5.5.223858.5.5.5zm9-1.704704l-.781417 1.13634-.34564-1.33507-1.122943.800548.131824-1.37277-1.329024.3682.59339-1.244896-1.374807-.108557.983384-.966866L8 7l1.254767-.572222-.983384-.96687 1.374807-.108556-.59339-1.244896 1.329024.3682L10.25 3.102886l1.122942.800548.34564-1.33507L12.5 3.704704l.781417-1.13634.34564 1.33507L14.75 3.102887l-.131824 1.37277 1.329024-.3682-.59339 1.244896 1.374807.108557-.983384.966867L17 7l-1.254767.572222.983384.96687-1.374807.108556.59339 1.244896-1.329024-.3682.131824 1.37277-1.122942-.800548-.34564 1.33507"/>
    <circle cx="12.5" cy="7" r="2.5" fill="#FFED00" stroke="#0083B1" stroke-width=".5"/>
  </g>
</svg>
