<svg xmlns="http://www.w3.org/2000/svg" width="21" height="14" viewBox="0 0 21 14">
  <g fill="none" fill-rule="evenodd">
    <path fill="#DDD" d="M1 1v12h19V1H1zm0-1h20v14H0V0h1z"/>
    <path fill="#FC3F3B" d="M1 1h19v12H1z"/>
    <path fill="#FFF" d="M2.5 3c.276142 0 .5-.223858.5-.5S2.776142 2 2.5 2s-.5.223858-.5.5.223858.5.5.5zm0 2c.276142 0 .5-.223858.5-.5S2.776142 4 2.5 4s-.5.223858-.5.5.223858.5.5.5zm0 2c.276142 0 .5-.223858.5-.5S2.776142 6 2.5 6s-.5.223858-.5.5.223858.5.5.5zm0 2c.276142 0 .5-.223858.5-.5S2.776142 8 2.5 8s-.5.223858-.5.5.223858.5.5.5zm0 2c.276142 0 .5-.223858.5-.5s-.223858-.5-.5-.5-.5.223858-.5.5.223858.5.5.5zm1-7c.276142 0 .5-.223858.5-.5S3.776142 3 3.5 3s-.5.223858-.5.5.223858.5.5.5zm0 2c.276142 0 .5-.223858.5-.5S3.776142 5 3.5 5s-.5.223858-.5.5.223858.5.5.5zm0 2c.276142 0 .5-.223858.5-.5S3.776142 7 3.5 7s-.5.223858-.5.5.223858.5.5.5zm0 2c.276142 0 .5-.223858.5-.5S3.776142 9 3.5 9s-.5.223858-.5.5.223858.5.5.5zm0 2c.276142 0 .5-.223858.5-.5s-.223858-.5-.5-.5-.5.223858-.5.5.223858.5.5.5z"/>
    <path fill="#1AA63E" d="M5 9h15v4H5z"/>
  </g>
</svg>
