<svg xmlns="http://www.w3.org/2000/svg" width="21" height="14" viewBox="0 0 21 14">
  <g fill="none" fill-rule="evenodd">
    <path fill="#DDD" d="M1 0h20v14H0V0h1z"/>
    <path fill="#EB1D2F" d="M1 1v12h19V1H1z"/>
    <path fill="#FFF" d="M8 11c-2.20914 0-4-1.79086-4-4s1.79086-4 4-4c1.45388 0 2.726594.775663 3.426892 1.935737C10.880202 4.35941 10.107074 4 9.25 4c-1.656854 0-3 1.343146-3 3s1.343146 3 3 3c.857074 0 1.630203-.35941 2.176892-.935737C10.726594 10.224337 9.45388 11 8 11zm5-3.39536l-.881678.608885.306632-1.02668-.85154-.65037 1.071188-.02564L13 5.5l.355398 1.010836 1.071187.02564-.85154.650368.306633 1.02668"/>
  </g>
</svg>
