<svg xmlns="http://www.w3.org/2000/svg" width="21" height="14" viewBox="0 0 21 14">
  <g fill="none" fill-rule="evenodd">
    <path fill="#DDD" d="M1 0h20v14H0V0h1z"/>
    <path fill="#FFF" d="M1 1v12h19V1H1z"/>
    <path fill="#007FCD" d="M1 2h19v1H1V2zm0 9h19v1H1v-1z"/>
    <path fill="#007FCD" d="M10.098076 11.09123l1.159065-1.986274 2.29911-.010302-1.14347-1.996578L13.55625 5.1015h-2.29911l-1.159064-1.99658L8.94165 5.1015H6.639902l1.140762 1.99899-1.140762 1.994164 2.301748.003418 1.156426 1.99316z"/>
    <path fill="#FFF" d="M10.098076 9.405766l.669837-1.14789 1.32868-.005955-.660823-1.153843.660824-1.153845h-1.32868l-.669838-1.153844-.66831 1.153845h-1.33021l.65926 1.155242-.65926 1.15245 1.330208.001975.66831 1.15187z"/>
  </g>
</svg>
