<svg xmlns="http://www.w3.org/2000/svg" width="21" height="14" viewBox="0 0 21 14">
  <g fill="none" fill-rule="evenodd">
    <path fill="#DDD" d="M1 1v12h19V1H1zm0-1h20v14H0V0h1z"/>
    <path fill="#EB1D2F" d="M1 1h19v12H1z"/>
    <path fill="#FFED00" d="M10.5 10.35694l-.336285 1.130477-.16404-1.16797-.50102 1.06773.01187-1.179376-.65456.98114.187513-1.16443-.793478.87261.358968-1.12348-.914672.74461.522405-1.05743-1.01543.599967.67417-.96776-1.09351.441924.81088-.85647-1.14716.274008.929478-.72605-1.17519.09997 1.0273-.579407-1.176963-.0763 1.102186-.41983L6 7l1.152446-.250864L6.05026 6.32931l1.176965-.0763-1.027303-.579408 1.17519.09997-.929472-.72605 1.147164.274008-.810878-.85647 1.093512.441922-.67417-.96776L8.2167 4.53919l-.522404-1.057432.914672.744608L8.25 3.102886l.793478.872615-.187513-1.16443.65456.98113-.01187-1.17937.50102 1.06773.16404-1.16797L10.5 3.64306l.336285-1.130477.16404 1.16797.50102-1.06773-.01187 1.179376.65456-.98114-.187513 1.16443.793478-.87261-.358968 1.12348.914672-.74461-.522405 1.05743 1.01543-.599967-.67417.96776 1.09351-.441924-.81088.85647 1.14716-.274008-.929478.72605 1.17519-.09997L13.77276 6.253l1.176965.0763-1.102186.419828L15 7l-1.152446.250864 1.102185.419826-1.17697.0763 1.0273.579408-1.17519-.09997.92947.72605-1.14717-.274008.81088.85647-1.09351-.441922.67417.96776-1.01543-.599968.5224 1.057432-.91467-.744608.35897 1.12348-.79348-.872615.187514 1.16443-.65456-.98113.01187 1.17937-.50102-1.06773-.16404 1.16797"/>
    <circle cx="10.5" cy="7" r="2.5" fill="#FFED00" stroke="#EB1D2F" stroke-width=".5"/>
    <path fill="#EB1D2F" d="M10.498657 6.82054c-.131772.0893-.259728.183328-.383894.281754-.372708.295447-.687776.6119-.946207.927696-.153387.187434-.252655.33094-.29897.40855-.070756.118563-.22423.15732-.342793.086563-.118564-.070756-.15732-.22423-.086564-.342793.05842-.097895.17161-.261524.34138-.468978.28016-.34235.62035-.68404 1.02255-1.002864.07564-.059965.15261-.118426.23089-.175316-.44252-.246173-.92321-.441746-1.44289-.576478-.13366-.03465-.21391-.171087-.17926-.30474.03465-.133652.17109-.21391.30474-.179258.64963.168423 1.24297.424814 1.78101.751784.53804-.32697 1.13137-.58336 1.78101-.751784.13365-.03465.27009.045606.30474.179258.03465.133653-.04561.27009-.17926.30474-.51968.134732-1.00037.330305-1.44289.576478.07828.05689.15525.11535.23089.175316.402194.318823.74239.660513 1.02255 1.002864.16977.207454.28296.371083.34138.468978.070756.118564.032.272037-.086563.342793-.11856.070756-.272035.032-.34279-.086564-.046317-.07761-.145586-.22112-.29897-.40855-.258434-.3158-.5735-.63225-.94621-.9277-.124165-.09843-.25212-.19246-.383894-.28176z"/>
  </g>
</svg>
