<svg xmlns="http://www.w3.org/2000/svg" width="168" height="23" viewBox="0 0 168 23"><title>Group 4</title><path d="M35.06091,2.77a2.23967,2.23967,0,0,0-2.01221,1.05371h-.08887l-.27295-.92041H31.11267V13.123h1.936V10.24756q0-.13962-.10156-1.02832h.10156a2.35349,2.35349,0,0,0,1.96143.90771,2.432,2.432,0,0,0,1.44727-.438,2.76923,2.76923,0,0,0,.949-1.27588A5.32689,5.32689,0,0,0,37.73962,6.439a4.49189,4.49189,0,0,0-.71094-2.69775A2.303,2.303,0,0,0,35.06091,2.77Zm-.59668,5.78906A1.212,1.212,0,0,1,33.38831,8.064a2.98945,2.98945,0,0,1-.3396-1.6377V6.2168A2.53241,2.53241,0,0,1,33.39148,4.76a1.22234,1.22234,0,0,1,1.04736-.44116,1.09415,1.09415,0,0,1,1.0061.52368,3.064,3.064,0,0,1,.32056,1.571Q35.7655,8.55911,34.46423,8.55908Z" fill="#ff2d21"/><path d="M12.72516,2.75732a5.76924,5.76924,0,0,0-2.7168.64111l.64111,1.30762A5.0335,5.0335,0,0,1,12.649,4.19189.96517.96517,0,0,1,13.75348,5.271v.311L12.522,5.62012a4.57917,4.57917,0,0,0-2.38354.59351,1.87272,1.87272,0,0,0-.79028,1.66626A2.24277,2.24277,0,0,0,9.93536,9.543a2.18121,2.18121,0,0,0,1.60913.584,3.25122,3.25122,0,0,0,1.34888-.238,2.8591,2.8591,0,0,0,1.0061-.85376h.05078L14.32477,10h1.35205V5.271a2.299,2.299,0,0,0-.76172-1.8916A3.384,3.384,0,0,0,12.72516,2.75732ZM13.75348,7.2959a1.35991,1.35991,0,0,1-.40308,1.02832,1.48781,1.48781,0,0,1-1.07593.38721q-.93942,0-.93945-.81885a.95708.95708,0,0,1,.4126-.85059,2.39841,2.39841,0,0,1,1.25684-.30469l.749-.02539Z" fill="#ff2d21"/><polygon points="23.348 4.357 25.677 4.357 25.677 10 27.614 10 27.614 4.357 29.937 4.357 29.937 2.903 23.348 2.903 23.348 4.357" fill="#ff2d21"/><path d="M44.02533,3.21436A3.581,3.581,0,0,0,42.2226,2.77a3.33342,3.33342,0,0,0-2.55176.96484,3.79254,3.79254,0,0,0-.90771,2.7041A4.31922,4.31922,0,0,0,39.18207,8.394a2.97779,2.97779,0,0,0,1.19971,1.2854,3.56066,3.56066,0,0,0,1.80273.44751,3.31433,3.31433,0,0,0,2.54541-.97754A3.81348,3.81348,0,0,0,45.644,6.439,4.27929,4.27929,0,0,0,45.225,4.49023,2.96553,2.96553,0,0,0,44.02533,3.21436Zm-.70142,4.821a1.21745,1.21745,0,0,1-1.114.53638,1.23728,1.23728,0,0,1-1.12671-.53955A2.9784,2.9784,0,0,1,40.73724,6.439,2.92868,2.92868,0,0,1,41.08,4.85522a1.45746,1.45746,0,0,1,2.24072.00317A2.9314,2.9314,0,0,1,43.66351,6.439,3.02156,3.02156,0,0,1,43.32391,8.0354Z" fill="#ff2d21"/><polygon points="5.811 4.357 2.136 4.357 2.136 0.72 0.168 0.72 0.168 10 2.136 10 2.136 5.995 5.811 5.995 5.811 10 7.772 10 7.772 0.72 5.811 0.72 5.811 4.357" fill="#ff2d21"/><path d="M20.5788,4.33154a2.73994,2.73994,0,0,1,.78711.11743q.39359.11746.85059.30151l.57129-1.498A4.92553,4.92553,0,0,0,20.5788,2.77a3.38115,3.38115,0,0,0-2.5835.95532,3.87957,3.87957,0,0,0-.90137,2.7644q0,3.63721,3.31348,3.63721a5.33685,5.33685,0,0,0,1.20923-.11426,3.1198,3.1198,0,0,0,.949-.4126V7.94336a3.73444,3.73444,0,0,1-.95215.46655,3.44526,3.44526,0,0,1-1.03467.14917q-1.5108,0-1.51074-2.082Q19.06805,4.33151,20.5788,4.33154Z" fill="#ff2d21"/><polygon points="81.218 2.903 79.085 2.903 76.368 6.35 76.368 2.903 74.432 2.903 74.432 10 76.368 10 76.368 6.401 79.269 10 81.465 10 78.406 6.306 81.218 2.903" fill="#ff2d21"/><path d="M103.05194,3.21436A3.58118,3.58118,0,0,0,101.24921,2.77a3.33324,3.33324,0,0,0-2.55176.96484,3.79254,3.79254,0,0,0-.90771,2.7041A4.31922,4.31922,0,0,0,98.20868,8.394a2.97779,2.97779,0,0,0,1.19971,1.2854,3.56066,3.56066,0,0,0,1.80273.44751,3.31452,3.31452,0,0,0,2.54541-.97754,3.81348,3.81348,0,0,0,.91406-2.71045,4.27929,4.27929,0,0,0-.41895-1.94873A2.96553,2.96553,0,0,0,103.05194,3.21436Zm-.70142,4.821a1.21758,1.21758,0,0,1-1.114.53638,1.23722,1.23722,0,0,1-1.12671-.53955A2.9784,2.9784,0,0,1,99.76385,6.439a2.92868,2.92868,0,0,1,.34277-1.58374,1.45746,1.45746,0,0,1,2.24072.00317,2.9314,2.9314,0,0,1,.34277,1.58057A3.02156,3.02156,0,0,1,102.35052,8.0354Z" fill="#ff2d21"/><polygon points="121.374 2.903 119.242 2.903 116.525 6.35 116.525 2.903 114.589 2.903 114.589 10 116.525 10 116.525 6.401 119.426 10 121.622 10 118.562 6.306 121.374 2.903" fill="#ff2d21"/><path d="M48.82574,7.87988q.14594-1.72659.146-2.1709V2.90332H47.09918V10h2.32324l3.2627-4.96387q-.127,1.37741-.127,2.13281V10h1.87256V2.90332H52.10114Z" fill="#ff2d21"/><path d="M127.49506,2.90332l-3.27539,4.97656q.14594-1.72659.146-2.1709V2.90332H122.4931V10h2.32324l3.2627-4.96387q-.127,1.37741-.127,2.13281V10h1.87256V2.90332Z" fill="#ff2d21"/><polygon points="110.766 5.633 108.062 5.633 108.062 2.903 106.126 2.903 106.126 10 108.062 10 108.062 7.074 110.766 7.074 110.766 10 112.702 10 112.702 2.903 110.766 2.903 110.766 5.633" fill="#ff2d21"/><polygon points="55.6 4.357 57.93 4.357 57.93 10 59.866 10 59.866 4.357 62.189 4.357 62.189 2.903 55.6 2.903 55.6 4.357" fill="#ff2d21"/><path d="M69.09052,6.166a4.46828,4.46828,0,0,0-2.4248-.52051H65.301V2.90332h-1.936V10h3.377q3.13577,0,3.13574-2.25977A1.75933,1.75933,0,0,0,69.09052,6.166ZM66.653,8.66064H65.301V6.98486h1.32666a2.072,2.072,0,0,1,.98389.18408.63146.63146,0,0,1,.33008.59668Q67.94159,8.66064,66.653,8.66064Z" fill="#ff2d21"/><path d="M90.63116,6.24536a7.09208,7.09208,0,0,1-.438,1.73608q-.24435.52048-.6062.52051a1.6348,1.6348,0,0,1-.62207-.127V9.92383a2.60076,2.60076,0,0,0,1.10449.20312,1.65455,1.65455,0,0,0,1.27271-.52368,3.88372,3.88372,0,0,0,.77759-1.69482,24.56512,24.56512,0,0,0,.49512-3.55151H94.3985V10h1.936V2.90332H90.96442Q90.8248,5.02982,90.63116,6.24536Z" fill="#ff2d21"/><path d="M86.90674,3.21436A3.58118,3.58118,0,0,0,85.104,2.77a3.33324,3.33324,0,0,0-2.55176.96484,3.79254,3.79254,0,0,0-.90771,2.7041A4.31922,4.31922,0,0,0,82.06348,8.394a2.97779,2.97779,0,0,0,1.19971,1.2854,3.56066,3.56066,0,0,0,1.80273.44751,3.31442,3.31442,0,0,0,2.54541-.97754A3.81348,3.81348,0,0,0,88.52539,6.439a4.27929,4.27929,0,0,0-.41895-1.94873A2.96553,2.96553,0,0,0,86.90674,3.21436Zm-.70142,4.821a1.21758,1.21758,0,0,1-1.114.53638,1.23722,1.23722,0,0,1-1.12671-.53955A2.9784,2.9784,0,0,1,83.61865,6.439a2.92868,2.92868,0,0,1,.34277-1.58374,1.45746,1.45746,0,0,1,2.24072.00317A2.9314,2.9314,0,0,1,86.54492,6.439,3.02156,3.02156,0,0,1,86.20532,8.0354Z" fill="#ff2d21"/><path d="M137.93555,7.07031s19.32813-.67578,25.46484,13.71484" fill="none" stroke="#ff382d" stroke-linecap="round" stroke-linejoin="round" stroke-width="1.5"/><polyline points="156.236 20.635 164.273 22.287 166.646 15.493" fill="none" stroke="#ff382d" stroke-linecap="round" stroke-linejoin="round" stroke-width="1.5"/></svg>