<svg xmlns="http://www.w3.org/2000/svg" width="141" height="97" viewBox="0 0 141 97"><defs><mask id="a" width="147" height="103" x="-3" y="-3" maskUnits="userSpaceOnUse"><path fill="#fff" d="M0 78.139A18.852 18.852 0 0 0 18.846 97h92.537a29.647 29.647 0 0 0 13.22-56.169q.127-1.538.128-3.109a38.006 38.006 0 0 0-72.879-14.827A27.159 27.159 0 0 0 16.27 48.5a26.709 26.709 0 0 0 2.258 10.78A18.858 18.858 0 0 0 0 78.14z"/></mask></defs><g mask="url(#a)"><path fill="#fff" stroke="#80c173" stroke-width="6" d="M0 78.139A18.852 18.852 0 0 0 18.846 97h92.537a29.647 29.647 0 0 0 13.22-56.169q.127-1.538.128-3.109a38.006 38.006 0 0 0-72.879-14.827A27.159 27.159 0 0 0 16.27 48.5a26.709 26.709 0 0 0 2.258 10.78A18.858 18.858 0 0 0 0 78.14z"/><path fill="#80c173" d="M88.803 43.146a4 4 0 0 0-5.657.05l-24.253 24.69-9.957-10.761a4 4 0 1 0-5.872 5.433L55.87 76.399a4 4 0 0 0 5.79.087l27.194-27.683a4 4 0 0 0-.05-5.657z"/></g></svg>