<svg xmlns="http://www.w3.org/2000/svg" width="141" height="97" viewBox="0 0 141 97"><defs><mask id="a" width="147" height="103" x="-3" y="-3" maskUnits="userSpaceOnUse"><path fill="#fff" d="M0 78.139A18.852 18.852 0 0 0 18.846 97h92.537a29.647 29.647 0 0 0 13.22-56.169q.127-1.538.128-3.109a38.006 38.006 0 0 0-72.879-14.827A27.159 27.159 0 0 0 16.27 48.5a26.709 26.709 0 0 0 2.258 10.78A18.858 18.858 0 0 0 0 78.14z"/></mask></defs><g mask="url(#a)"><path fill="#fff" stroke="#e7433a" stroke-width="6" d="M0 78.139A18.852 18.852 0 0 0 18.846 97h92.537a29.647 29.647 0 0 0 13.22-56.169q.127-1.538.128-3.109a38.006 38.006 0 0 0-72.879-14.827A27.159 27.159 0 0 0 16.27 48.5a26.709 26.709 0 0 0 2.258 10.78A18.858 18.858 0 0 0 0 78.14z"/><path fill="#e7433a" d="M72.597 65.55L61.854 76.485a4 4 0 0 1-5.707-5.607L66.99 59.841 56.146 48.803a4 4 0 1 1 5.707-5.606l10.744 10.936L83.34 43.197a4 4 0 1 1 5.707 5.606L78.204 59.841 89.047 70.88a4 4 0 0 1-5.707 5.607L72.597 65.549z"/></g></svg>