<?xml version="1.0" encoding="utf-8"?>
<!-- Generator: Adobe Illustrator 19.2.1, SVG Export Plug-In . SVG Version: 6.00 Build 0)  -->
<svg version="1.1" id="Layer_1" xmlns="http://www.w3.org/2000/svg" xmlns:xlink="http://www.w3.org/1999/xlink" x="0px" y="0px"
	 width="40.2px" height="41px" viewBox="0 0 40.2 41" style="enable-background:new 0 0 40.2 41;" xml:space="preserve">
<style type="text/css">
	.st0{fill:#CCCCCC;fill-opacity:0;}
	.st1{fill:#BCB9B4;}
	.st2{fill:#E1DDD8;}
	.st3{fill:#333333;}
	.st4{filter:url(#Adobe_OpacityMaskFilter);}
	.st5{fill:#FFFFFF;}
	.st6{mask:url(#mask-2);fill:#413F3B;}
	.st7{fill:#CECAC5;}
	.st8{fill:#A6A39F;}
	.st9{filter:url(#Adobe_OpacityMaskFilter_1_);}
	.st10{mask:url(#mask-4);fill:#7D7669;}
	.st11{fill:#00AD58;}
	.st12{fill:#1BBB6C;}
</style>
<g id="SVG_set">
	<g id="cms-s3" transform="translate(-281.000000, -363.000000)">
		<g transform="translate(281.000000, 363.000000)">
			<rect id="bg" y="0" class="st0" width="40.2" height="41"/>
			<g id="Logo.CMS">
				<path id="depth" class="st1" d="M1.7,35c0.5,1.9,2.3,4,3.9,4l28.9,0c1.6,0,3.2-2.1,3.7-4l0.6-2.2H1.2L1.7,35z"/>
				<path id="platform" class="st2" d="M34.3,18.1l4.4,11.7c1.1,3-0.7,5.2-3.9,5.2H5c-3.2,0-4.7-2.2-3.6-5.2l4.6-11.7
					c0.6-1.7,2.6-3.1,4.5-3.1h19.5C31.7,15,33.7,16.4,34.3,18.1z"/>
				<g id="M" transform="translate(7.325926, 17.471605)">
					<g id="Mask">
						<path id="path-1_1_" class="st3" d="M19,0.5H6.2c-1.4,0-2.9,0.9-3.3,2.1l-2.8,9.5c-0.4,1.3,0.4,2.3,1.7,2.3H2
							c1.5,0,2.9-1.2,3.2-2.7l1.1-6.1c0.2-1.1,1.3-2.1,2.5-2.1c1,0,1.8,0.8,1.7,1.8l-0.3,6.3c-0.1,1.5,1.1,2.7,2.6,2.7h0.1
							c1.5,0,2.6-1.2,2.6-2.7l-0.3-6.3c-0.1-1,0.7-1.8,1.7-1.8c1.2,0,2.3,0.9,2.5,2.1l1.1,6.1c0.3,1.5,1.7,2.7,3.2,2.7h0.1
							c1.3,0,2.1-1,1.7-2.3l-2.8-9.5C22.2,1.2,20.5,0.5,19,0.5z"/>
					</g>
					<defs>
						<filter id="Adobe_OpacityMaskFilter" filterUnits="userSpaceOnUse" x="0.6" y="1.2" width="24.2" height="13.8">
							<feColorMatrix  type="matrix" values="1 0 0 0 0  0 1 0 0 0  0 0 1 0 0  0 0 0 1 0"/>
						</filter>
					</defs>
					<mask maskUnits="userSpaceOnUse" x="0.6" y="1.2" width="24.2" height="13.8" id="mask-2">
						<g class="st4">
							<path id="path-1" class="st5" d="M19,0.5H6.2c-1,0-3,1.1-3.3,2.1l-2.8,9.5c-0.4,1.3,0.4,2.3,1.7,2.3H2c1.5,0,2.9-1.2,3.2-2.7
								l1.1-6.1c0.2-1.1,1.3-2.1,2.5-2.1c1,0,1.8,0.8,1.7,1.8l-0.3,6.3c-0.1,1.5,1.1,2.7,2.6,2.7h0.1c1.5,0,2.6-1.2,2.6-2.7
								l-0.3-6.3c-0.1-1,0.7-1.8,1.7-1.8c1.2,0,2.3,0.9,2.5,2.1l1.1,6.1c0.3,1.5,1.7,2.7,3.2,2.7h0.1c1.3,0,2.1-1,1.7-2.3l-2.8-9.5
								C22.2,1.2,20,0.5,19,0.5z"/>
						</g>
					</mask>
					<path id="Rectangle-91-Copy" class="st6" d="M18.7,1.2h-12c-1.7,0-3,0.9-3.5,2.6l-2.6,8.9C0.4,13.9,1.1,15,2.5,15H2.3
						c1.5,0,2.9-1.2,3.2-2.7l1-5.6C6.7,5.6,7.8,4.7,9,4.7H8.8c1,0,1.8,0.8,1.7,1.8l-0.3,5.8c-0.1,1.5,1.1,2.7,2.6,2.7h-0.1
						c1.5,0,2.6-1.2,2.6-2.7l-0.3-5.8c-0.1-1,0.7-1.8,1.7-1.8h-0.2c1.2,0,2.3,0.9,2.5,2.1l1,5.6c0.3,1.5,1.7,2.7,3.2,2.7H23
						c1.3,0,2.1-1,1.7-2.3l-2.6-8.9C21.7,2.1,20.4,1.2,18.7,1.2z"/>
				</g>
				<g id="Lever" transform="translate(13.651852, 0.000000)">
					<ellipse id="Oval-27" class="st7" cx="6.3" cy="22.5" rx="1.2" ry="0.7"/>
					<ellipse id="Oval-27-Copy" class="st7" cx="6.3" cy="22.4" rx="1.8" ry="1.1"/>
					<g id="Mask_1_">
						<path id="path-3_1_" class="st8" d="M6.3,22.9c0.8,0,1-0.3,1-0.3s0.1-0.1,0.1-0.2C7.7,19.3,8.1,13,8.1,13H4.5l0.7,9.4
							c0,0.1,0.1,0.2,0.1,0.2S5.5,22.9,6.3,22.9z"/>
					</g>
					<defs>
						<filter id="Adobe_OpacityMaskFilter_1_" filterUnits="userSpaceOnUse" x="4.5" y="13" width="3.7" height="3.6">
							<feColorMatrix  type="matrix" values="1 0 0 0 0  0 1 0 0 0  0 0 1 0 0  0 0 0 1 0"/>
						</filter>
					</defs>
					<mask maskUnits="userSpaceOnUse" x="4.5" y="13" width="3.7" height="3.6" id="mask-4">
						<g class="st9">
							<path id="path-3" class="st5" d="M6.3,22.9c0.8,0,1-0.3,1-0.3s0.1-0.1,0.1-0.2C7.7,19.3,8.1,13,8.1,13H4.5l0.7,9.4
								c0,0.1,0.1,0.2,0.1,0.2S5.5,22.9,6.3,22.9z"/>
						</g>
					</mask>
					<path id="Mask_2_" class="st10" d="M4.5,13.1L8.1,13v3.6L4.5,13.1z"/>
					<path id="Oval-25" class="st11" d="M6.7,13.4c3.7,0,6.7-3,6.7-6.7S10.4,0,6.7,0S0,3,0,6.7S3,13.4,6.7,13.4z"/>
					<path id="Oval-25-Copy" class="st12" d="M6.7,1.5c-2.9,0-5.2,2.3-5.2,5.2c0,1.6,0.7,3,1.8,3.9l7.3-7.3C9.7,2.2,8.3,1.5,6.7,1.5
						z"/>
				</g>
			</g>
		</g>
	</g>
</g>
</svg>
