<svg data-name="Layer 1" xmlns="http://www.w3.org/2000/svg" width="119.85488" height="41.24707" viewBox="0 0 119.85488 41.24707">
  <path d="M.74116 35.02a4.36246 4.36246 0 0 0 3.77 3.37h28.9a4.5062 4.5062 0 0 0 3.85-3.37l.59-2.19h-37.64z" fill="#bcb9b4"/>
  <path d="M33.24116 17.57l4.5 12.3c1.09 2.97-.59 5.37-3.75 5.37h-29.9c-3.16 0-4.85-2.4-3.76-5.37l4.5-12.3a5.08035 5.08035 0 0 1 4.46-3.11h19.5a5.07791 5.07791 0 0 1 4.45 3.11z" fill="#e1ddd8"/>
  <path d="M25.48116 17.47h-12.82a3.84381 3.84381 0 0 0-3.47 2.6l-2.77 9.55a1.70825 1.70825 0 0 0 1.74 2.31h.13a3.34956 3.34956 0 0 0 3.19-2.67l1.09-6.06a2.60337 2.60337 0 0 1 2.48-2.08 1.69652 1.69652 0 0 1 1.72 1.8l-.34 6.3a2.54271 2.54271 0 0 0 2.57 2.71h.14a2.54271 2.54271 0 0 0 2.57-2.71l-.33-6.3a1.70232 1.70232 0 0 1 1.72-1.8 2.60337 2.60337 0 0 1 2.48 2.08l1.08 6.06a3.34956 3.34956 0 0 0 3.19 2.67h.13a1.7057 1.7057 0 0 0 1.74-2.31l-2.77-9.55a3.84382 3.84382 0 0 0-3.47-2.6z" fill="#333"/>
  <path d="M25.05116 18.68h-11.96a3.80632 3.80632 0 0 0-3.46 2.6l-2.58 8.86a1.7091 1.7091 0 0 0 1.74 2.31h-.11a3.35909 3.35909 0 0 0 3.18-2.66l.99-5.56a2.621 2.621 0 0 1 2.48-2.08h-.17a1.69147 1.69147 0 0 1 1.71 1.81l-.3 5.79a2.53777 2.53777 0 0 0 2.56 2.7h-.12a2.5515 2.5515 0 0 0 2.57-2.7l-.31-5.79a1.70509 1.70509 0 0 1 1.72-1.81h-.17a2.60112 2.60112 0 0 1 2.47 2.08l.99 5.55a3.34729 3.34729 0 0 0 3.18 2.67h-.11a1.7091 1.7091 0 0 0 1.74-2.31l-2.58-8.86a3.80631 3.80631 0 0 0-3.46-2.6z" fill="#413f3b"/>
  <path d="M19.00116 23.21a1.10527 1.10527 0 0 0 1.25-.73 1.10527 1.10527 0 0 0-1.25-.73 1.10527 1.10527 0 0 0-1.25.73 1.10527 1.10527 0 0 0 1.25.73z" fill="#cecac5"/>
  <path d="M18.98116 22.89a1.28333 1.28333 0 0 0 1.04-.3.6385.6385 0 0 0 .1-.16c.22-3.16.67-9.48.67-9.48h-3.62l.67 9.44a.51533.51533 0 0 0 .1.2 1.25847 1.25847 0 0 0 1.04.3z" fill="#a6a39f"/>
  <path d="M16.87616 12.66667l3.915.28333-.25711 3.62z" fill="#7d7669"/>
  <path d="M19.35116 13.39a6.695 6.695 0 1 0-6.7-6.7 6.69827 6.69827 0 0 0 6.7 6.7z" fill="#00ad58"/>
  <path d="M19.35116 1.49a5.2038 5.2038 0 0 0-3.41 9.14l7.34-7.34a5.15063 5.15063 0 0 0-3.93-1.8z" fill="#1bbb6c"/>
  <path d="M60.93116 26.82h-3.5l2.58-12.07a1.93184 1.93184 0 0 1 2.07-1.63h1.71a1.79492 1.79492 0 0 1 1.96 1.63l1.24 8.21a.171.171 0 0 0 .13.15.16124.16124 0 0 0 .18-.09l4.68-8.27a2.91473 2.91473 0 0 1 2.82-1.63h1.71a1.36155 1.36155 0 0 1 1.56 1.63l-2.58 12.07h-3.52l1.83-8.59a.17.17 0 0 0-.1-.2.1765.1765 0 0 0-.21.08l-4.24 7.47a2.22041 2.22041 0 0 1-2.07 1.24h-1.71a1.28557 1.28557 0 0 1-1.24-1.24l-1.11-7.44a.16166.16166 0 0 0-.16-.14.16375.16375 0 0 0-.17.13l-1.86 8.69zm24.97-2.74h-7.6l-.58 2.74h9.04c3.65 0 5.76-6.17 1.61-7.53l-4.37-1.43a1.02509 1.02509 0 0 1 .43-2h7.55l.58-2.74h-9.57c-3.02 0-4.92 6.18-1.55 7.3l4.89 1.63a1.03912 1.03912 0 0 1-.43 2.03zm-27.79-10.96h-5.65c-3.65 0-6.12 1.46-6.9 5.11l-.74 3.48c-.68 3.17 1.47 5.11 4.71 5.11h5.66l.59-2.74-4.59-.01c-1.86-.01-3.19-.76-2.85-2.36l.75-3.48c.35-1.68 1.97-2.36 3.85-2.36h4.59l.58-2.75z" fill="#444"/>
  <path d="M108.36116 14.6l.32-1.48h-8.09c-3.96 0-5.09 5.52-2.18 6.56l5.05 1.8c2.36.84.87 3.85-.74 3.85h-7.65l-.32 1.49h8.17c3.43 0 5.66-5.31 1.46-6.81l-4.81-1.72c-1.84-.66-.98-3.69 1.03-3.69h7.76zm-15.27 12.22h-1.66l.33-1.49h1.66l-.33 1.49zm23.16-12.22h-5.67l.32-1.48h6.12c1.72 0 3.13.83 2.78 2.44l-.57 2.71a2.06278 2.06278 0 0 1-1.61 1.62l-.04.21a1.35026 1.35026 0 0 1 .92 1.57l-.58 2.7c-.38 1.83-1.58 2.45-3.25 2.45h-6.7l.32-1.49h5.39c1.32 0 2.22-.36 2.5-1.63l.28-1.35c.2-.93-.01-1.64-.91-1.64h-6.27l.31-1.48h5.68a2.07242 2.07242 0 0 0 2.21-1.64l.29-1.35c.24-1.15-.4-1.64-1.52-1.64z" fill="#01b35b"/>
  <text transform="translate(47 38)" style="isolation:isolate" font-size="10" fill="#7c7c7c" font-family="Arial">
    ver 3.44
  </text>
</svg>
