<svg width="26" height="26" viewBox="0 0 26 26" fill="none" xmlns="http://www.w3.org/2000/svg">
<path fill-rule="evenodd" clip-rule="evenodd" d="M19.2787 9.51019C20.6009 9.51019 22.0406 10.5086 22.4949 11.7421L25.7618 19.9312C26.0109 20.6074 26.0582 21.243 25.9337 21.7954C25.9321 21.807 25.9298 21.819 25.927 21.8312C25.9216 21.8545 25.916 21.8783 25.9104 21.9026C25.6019 23.2336 24.9606 26 23.0316 26H3.08446C1.0743 26 0.431912 23.341 0.103542 21.9818C0.0909371 21.9296 0.0787946 21.8793 0.0670552 21.8312C0.0588241 21.7975 0.0545103 21.7659 0.0535356 21.7363C-0.0545735 21.1979 -0.00188064 20.5835 0.238391 19.9312L3.47097 11.7421C3.92501 10.5094 5.36484 9.51019 6.68718 9.51019H19.2787Z" fill="white"/>
<path fill-rule="evenodd" clip-rule="evenodd" d="M22.4949 11.7421C22.0406 10.5086 20.6009 9.51019 19.2787 9.51019H6.68718C5.36484 9.51019 3.92501 10.5094 3.47097 11.7421L0.238391 19.9312C-0.00188064 20.5835 -0.0545735 21.1979 0.0535356 21.7363C0.0545103 21.7659 0.0588241 21.7975 0.0670552 21.8312L0.103542 21.9818C0.431912 23.341 1.0743 26 3.08446 26H23.0316C24.9606 26 25.6019 23.2336 25.9104 21.9026L25.927 21.8312C25.9298 21.819 25.9321 21.807 25.9337 21.7954C26.0582 21.243 26.0109 20.6074 25.7618 19.9312L22.4949 11.7421ZM24.8047 20.1081L21.7854 12.165C21.3998 11.1183 20.3938 10.2485 19.279 10.2485H6.9351C5.82058 10.2485 4.56651 11.1188 4.18169 12.1634L1.19898 20.1005C0.53319 21.908 1.50757 23.2927 3.44508 23.2927H22.5557C24.4924 23.2927 25.4673 21.9072 24.8047 20.1081Z" fill="url(#paint0_linear)"/>
<path fill-rule="evenodd" clip-rule="evenodd" d="M13.0204 21.0863C13.0539 21.0863 13.0873 21.0854 13.1208 21.0834C14.0764 21.0283 14.8062 20.2136 14.7508 19.2637L14.5227 15.3553C14.5216 15.3356 14.521 15.3159 14.521 15.2962C14.521 14.7325 14.9808 14.2755 15.548 14.2755H15.6318C16.2172 14.2755 16.7226 14.683 16.8433 15.2523L17.6839 19.2178C17.8528 20.0149 18.5604 20.5854 19.38 20.5854H19.8036C19.9433 20.5854 20.0822 20.5635 20.2151 20.5205C20.9126 20.2946 21.2938 19.5495 21.0665 18.8562L19.4779 14.0098C19.0794 12.7941 17.939 11.9714 16.6526 11.9714H9.34836C8.06151 11.9714 6.9209 12.7947 6.52274 14.011L4.93625 18.8573C4.89308 18.9892 4.87109 19.127 4.87109 19.2657C4.87109 19.9946 5.46558 20.5854 6.19891 20.5854H6.62086C7.44053 20.5854 8.14815 20.0148 8.31701 19.2175L9.15685 15.2525C9.27747 14.6831 9.78291 14.2755 10.3684 14.2755H10.4521C10.4719 14.2755 10.4917 14.276 10.5115 14.2772C11.0778 14.3098 11.5102 14.7925 11.4773 15.3553L11.2492 19.2637C11.2473 19.297 11.2463 19.3302 11.2463 19.3635C11.2463 20.315 12.0224 21.0863 12.9797 21.0863H13.0204Z" fill="#444444"/>
<path fill-rule="evenodd" clip-rule="evenodd" d="M11.1514 7.54126L12.0443 15.9859C12.0811 16.4417 12.5021 16.8009 13.0002 16.8009C13.4984 16.8009 13.9194 16.4417 13.9562 15.9859L14.8491 7.54126H11.1514Z" fill="url(#paint1_linear)"/>
<path fill-rule="evenodd" clip-rule="evenodd" d="M13.0283 9.75189C10.3456 9.75189 8.1709 7.56886 8.1709 4.87595C8.1709 2.18304 10.3456 0 13.0283 0C15.7109 0 17.8857 2.18304 17.8857 4.87595C17.8857 7.56886 15.7109 9.75189 13.0283 9.75189Z" fill="url(#paint2_linear)"/>
<defs>
<linearGradient id="paint0_linear" x1="0" y1="9.51019" x2="0" y2="26" gradientUnits="userSpaceOnUse">
<stop stop-color="#DAD8D8"/>
<stop offset="1" stop-color="#979797"/>
</linearGradient>
<linearGradient id="paint1_linear" x1="14.4413" y1="14.7584" x2="14.4413" y2="7.54126" gradientUnits="userSpaceOnUse">
<stop stop-color="#D6D6D6"/>
<stop offset="1" stop-color="#969696"/>
</linearGradient>
<linearGradient id="paint2_linear" x1="7.61818" y1="3.7969" x2="12.3102" y2="8.98767" gradientUnits="userSpaceOnUse">
<stop stop-color="#00D691"/>
<stop offset="1" stop-color="#00AD58"/>
</linearGradient>
</defs>
</svg>
