<svg xmlns="http://www.w3.org/2000/svg" width="467" height="100" viewBox="0 0 467 100"><defs><mask id="a" width="467" height="100" x="0" y="0" maskUnits="userSpaceOnUse"><path fill="#fff" d="M0 0h467v100H0z"/></mask></defs><g opacity=".9"><g mask="url(#a)"><g opacity=".7"><rect width="16" height="16" x="246" y="54" fill="#a8bec7" rx="4" ry="4"/><rect width="16" height="16" x="246" y="74" fill="#fff" rx="4" ry="4"/><path fill="#788293" d="M248 77.996v8.008A1.986 1.986 0 0 0 249.996 88h8.008A1.986 1.986 0 0 0 260 86.004v-8.008A1.986 1.986 0 0 0 258.004 76h-8.008A1.986 1.986 0 0 0 248 77.996zm-2 0A3.986 3.986 0 0 1 249.996 74h8.008A3.986 3.986 0 0 1 262 77.996v8.008A3.986 3.986 0 0 1 258.004 90h-8.008A3.986 3.986 0 0 1 246 86.004z"/><path fill="#f6fef3" d="M250.818 61.335a1 1 0 1 0-1.493 1.33l2.937 3.299a1 1 0 0 0 1.471.024l5.003-5.25a1 1 0 0 0-1.448-1.38l-4.254 4.465z"/><path fill="#788293" d="M266 60h22v4h-22zM266 70h22v4h-22zM266 80h22v4h-22z"/></g><rect width="24" height="19" x="206" y="42" fill="#fff" rx="2" ry="2"/><path fill="#7da877" d="M207 43.997v15.006a1 1 0 0 0 1.005.997h19.99a1 1 0 0 0 1.005-.997V43.997a1 1 0 0 0-1.005-.997h-19.99a1 1 0 0 0-1.005.997zm-1 0A2 2 0 0 1 208.005 42h19.99A1.999 1.999 0 0 1 230 43.997v15.006A2 2 0 0 1 227.995 61h-19.99A1.999 1.999 0 0 1 206 59.003z"/><path fill="#b4e4ad" d="M207 49h22v4h-22z"/><path fill="#7ba574" d="M209 45h14v2h-14zm0 5h12v2h-12zm0 5h14v2h-14z"/><path fill="#9dd295" d="M203.792 40.85q-1.205-.55-2.418-1.09a.75.75 0 1 0-.608 1.371q1.205.536 2.402 1.082a.742.742 0 0 0 .311.068.75.75 0 0 0 .312-1.432zM197.813 39.846a.737.737 0 0 0 .294.06.75.75 0 0 0 .295-1.44 239.62 239.62 0 0 0-6.247-2.566.75.75 0 1 0-.551 1.396c2.07.816 4.16 1.675 6.209 2.55zM165.983 27.238a262.404 262.404 0 0 0-68.51-8.988A258.079 258.079 0 0 0 8.233 33.83a.75.75 0 1 0 .517 1.407A256.577 256.577 0 0 1 97.474 19.75a260.891 260.891 0 0 1 68.117 8.936.75.75 0 0 0 .392-1.448zM5.409 34.886q-1.757.67-3.497 1.364a.75.75 0 0 0 .556 1.393q1.729-.69 3.475-1.356a.75.75 0 0 0-.534-1.401zM189.325 36.356a.75.75 0 0 0 .267-1.45 247.97 247.97 0 0 0-19.946-6.647.75.75 0 1 0-.414 1.442 246.763 246.763 0 0 1 19.826 6.606.744.744 0 0 0 .267.05zM142.391 11.123q.96.181 1.919.37a.738.738 0 0 0 .145.014.75.75 0 0 0 .144-1.486q-.963-.19-1.929-.372a.75.75 0 1 0-.279 1.474zM210.616 31.046a302.783 302.783 0 0 0-63.102-20.438.75.75 0 0 0-.304 1.469A301.322 301.322 0 0 1 210 32.413a.75.75 0 0 0 .992-.375.75.75 0 0 0-.376-.992zM223.47 37.212a300.321 300.321 0 0 0-10.122-4.918.75.75 0 0 0-.63 1.361 298.644 298.644 0 0 1 10.072 4.894.75.75 0 0 0 .68-1.337zM227.35 39.224q-.9-.476-1.803-.944a.75.75 0 0 0-.691 1.33q.899.467 1.794.94a.75.75 0 0 0 .7-1.326zM194.344 50.976a247.36 247.36 0 0 0-22.453-7.646.75.75 0 1 0-.415 1.441 245.907 245.907 0 0 1 22.317 7.6.742.742 0 0 0 .275.052.75.75 0 0 0 .276-1.447zM200.317 53.43q-1.265-.54-2.54-1.067a.75.75 0 0 0-.572 1.387q1.267.524 2.524 1.06a.75.75 0 1 0 .588-1.38z"/><g opacity=".5"><rect width="24" height="9" x="183" y="68" fill="#fff" rx="2" ry="2"/><path fill="#788293" d="M184 69.997v5.006a1.002 1.002 0 0 0 1.005.997h19.99a1 1 0 0 0 1.005-.997v-5.006a1.002 1.002 0 0 0-1.005-.997h-19.99a1 1 0 0 0-1.005.997zm-1 0A2 2 0 0 1 185.005 68h19.99A2.002 2.002 0 0 1 207 69.997v5.006A2 2 0 0 1 204.995 77h-19.99A2.002 2.002 0 0 1 183 75.003z"/><path fill="#9eabbe" d="M198 69h6.999A1.001 1.001 0 0 1 206 70.001v4.998A1.001 1.001 0 0 1 204.999 76H198z"/><path fill="#fff" d="M200 72h4l-2 2.5-2-2.5z"/></g><g opacity=".2"><rect width="24" height="9" x="146" y="49" fill="#fff" rx="2" ry="2"/><path fill="#788293" d="M147 50.997v5.006a1.002 1.002 0 0 0 1.005.997h19.99a1 1 0 0 0 1.005-.997v-5.006a1.002 1.002 0 0 0-1.005-.997h-19.99a1 1 0 0 0-1.005.997zm-1 0A2 2 0 0 1 148.005 49h19.99A2.002 2.002 0 0 1 170 50.997v5.006A2 2 0 0 1 167.995 58h-19.99A2.002 2.002 0 0 1 146 56.003z"/><path fill="#9eabbe" d="M148 51h1v5h-1z"/></g><g opacity=".2"><rect width="24" height="9" x="276" y="37" fill="#fff" rx="2" ry="2"/><path fill="#788293" d="M277 38.997v5.006a1.002 1.002 0 0 0 1.005.997h19.99a1 1 0 0 0 1.005-.997v-5.006a1.002 1.002 0 0 0-1.005-.997h-19.99a1 1 0 0 0-1.005.997zm-1 0A2 2 0 0 1 278.005 37h19.99A2.002 2.002 0 0 1 300 38.997v5.006A2 2 0 0 1 297.995 46h-19.99A2.002 2.002 0 0 1 276 44.003z"/><path fill="#9eabbe" d="M278 39h1v5h-1z"/></g><path fill="#fff" d="M236.651 76.923l2.401-.968-3.224-7.288 5.093-.24c.556-.026.691-.355.283-.751L229.866 56.66c-.4-.388-.722-.248-.72.3l.072 16.396c.003.554.312.673.684.275l3.795-4.064z"/><path fill="#212121" d="M241.901 66.959l-11.338-11.016a1.362 1.362 0 0 0-2.416 1.02l.072 16.398a1.338 1.338 0 0 0 2.414.952l2.722-2.914 2.368 5.896a1 1 0 0 0 1.302.555l2.4-.967a1 1 0 0 0 .542-1.332l-2.634-5.954 3.635-.171a1.374 1.374 0 0 0 .933-2.467zm-.98 1.468l-5.093.24 3.224 7.288-2.4.968-2.955-7.356-3.795 4.064c-.372.398-.681.279-.683-.275l-.072-16.397c-.003-.547.32-.687.72-.299l11.337 11.016c.408.396.273.725-.283.75z"/><path fill="#d2d2d2" d="M236.651 76.923l1.182-.516-8.142-19.293c-.215-.508-.389-.476-.389.072v16.008c0 .549.302.676.687.271l3.708-3.898z"/></g><rect width="22" height="20" x="235" y="18" fill="#fff" rx="2" ry="2"/><path fill="#c9ced7" d="M255 38.5h-18a2.503 2.503 0 0 1-2.5-2.5V20a2.503 2.503 0 0 1 2.5-2.5h18a2.503 2.503 0 0 1 2.5 2.5v16a2.503 2.503 0 0 1-2.5 2.5zm-18-20a1.502 1.502 0 0 0-1.5 1.5v16a1.502 1.502 0 0 0 1.5 1.5h18a1.502 1.502 0 0 0 1.5-1.5V20a1.502 1.502 0 0 0-1.5-1.5z"/><path fill="#788293" d="M240 22v3h1.37l.63-2h3v11h-2v1h6v-1h-2V23h3l.63 2H252v-3h-12z"/></g></svg>