<?xml version="1.0" encoding="utf-8"?>
<!-- Generator: Adobe Illustrator 20.0.0, SVG Export Plug-In . SVG Version: 6.00 Build 0)  -->
<svg version="1.1" id="Layer_1" xmlns="http://www.w3.org/2000/svg" xmlns:xlink="http://www.w3.org/1999/xlink" x="0px" y="0px"
	 width="149px" height="149px" viewBox="0 0 149 149" style="enable-background:new 0 0 149 149;" xml:space="preserve">
<style type="text/css">
	.st0{fill:#80C173;}
	.st1{fill:#FFFFFF;}
</style>
<title>drop-circle</title>
<desc>Created with Sketch.</desc>
<g id="SVG_set">
	<g id="Artboard-4" transform="translate(-388.000000, -325.000000)">
		<g id="Drag_x27_n_x27_Drop-icon-_x2B_-text-Copy-2" transform="translate(359.000000, 290.000000)">
			<g id="drop-circle" transform="translate(29.000000, 35.000000)">
				<path id="Oval-16-Copy-3" class="st0" d="M74.5,149c41.1,0,74.5-33.4,74.5-74.5S115.6,0,74.5,0S0,33.4,0,74.5S33.4,149,74.5,149
					z"/>
				<path class="st1" d="M96.6,78.8L79.1,62.9c-1.3-1.2-3-1.6-4.7-1.4c-1.6-0.2-3.4,0.2-4.7,1.4L52.2,78.8c-2.3,2.1-2.3,5.5,0,7.5
					c2.1,1.9,5.5,1.9,7.6,0l9.1-8.2v39.7c0,2.9,2.5,5.2,5.5,5.2c3,0,5.5-2.3,5.5-5.2V78.1l9.1,8.2c2.1,1.9,5.5,1.9,7.6,0
					C98.9,84.3,98.9,80.8,96.6,78.8z"/>
			</g>
		</g>
	</g>
</g>
</svg>
