<svg version="1.1" id="Layer_1" xmlns="http://www.w3.org/2000/svg" xmlns:xlink="http://www.w3.org/1999/xlink" x="0px" y="0px"
	 width="66px" height="83px" viewBox="0 0 66 83" style="enable-background:new 0 0 66 83;" xml:space="preserve">
<style type="text/css">
	.st0{filter:url(#filter-2);}
	.st2{fill:#A3A3A3;fill-opacity:0.2;}
</style>
<filter  filterUnits="objectBoundingBox" height="200%" id="filter-2" width="200%" x="-50%" y="-50%">
	<feOffset  dx="0" dy="2" in="SourceAlpha" result="shadowOffsetOuter1"></feOffset>
	<feGaussianBlur  in="shadowOffsetOuter1" result="shadowBlurOuter1" stdDeviation="1"></feGaussianBlur>
	<feColorMatrix  in="shadowBlurOuter1" type="matrix" values="0 0 0 0 0   0 0 0 0 0   0 0 0 0 0  0 0 0 0.202587183 0">
		</feColorMatrix>
</filter>

<g>
	<g transform="translate(-358.000000, -319.000000)">
		<g transform="translate(360.000000, 290.000000)">
			<g transform="translate(0.000000, 28.000000)">
				<g id="Mask">
					<g class="st0">
						<path d="M0,11C0,5.5,4.5,1,10,1h30l22,20v49c0,5.5-4.5,10-10,10H10C4.5,80,0,75.5,0,70V11z"/>
					</g>
					<g>
						<path fill="#fcfcfc" d="M0,11C0,5.5,4.5,1,10,1h30l22,20v49c0,5.5-4.5,10-10,10H10C4.5,80,0,75.5,0,70V11z"/>
					</g>
				</g>
				<path class="st2" d="M40,1l21.9,19.5v14.9L44,21.2c-2.2-1.7-3.9-5.3-3.9-8.1V1z"/>
				<path fill="#D2D2D2" d="M40,1l22,20H47c-3.9,0-7-3.1-7-7V1z"/>
				<g transform="translate(11.000000, 22.000000)">
					<path fill="#D2D2D2" d="M36.9,13.1L36.9,13.1c0-0.1,0-0.1,0-0.2h0C35.8,6.4,30.5,1.4,23.9,0.7v0c0,0,0,0-0.1,0c-0.1,0-0.2,0-0.2,0
						c-0.3,0-0.6,0-0.9-0.1h-0.3c0,0-0.1,0-0.1,0c-0.1,0-0.3,0-0.4,0v14.3h13.2h0.1h1.9C37.1,14.3,37,13.7,36.9,13.1z M23.9,12.9
						V2.7c5.5,0.7,9.9,4.8,10.9,10.2H23.9z"/>
					<g fill="#D2D2D2">
						<path d="M19.4,33c8,0,14.5-6.5,14.5-14.5c0-0.2,0-0.3,0-0.5h-15V4c-7.8,0.3-14,6.7-14,14.5
							C4.9,26.5,11.4,33,19.4,33z"/>
						<rect x="0.9" y="39" width="37" height="2"/>
						<rect x="0.9" y="43" width="37" height="2"/>
					</g>
				</g>
			</g>
		</g>
	</g>
</g>
</svg>
