<svg xmlns="http://www.w3.org/2000/svg" width="45" height="45" viewBox="0 0 45 45">
    <path d="M0,3.99335A3.996,3.996,0,0,1,3.99345-.0001H45l-45,45V3.99335Z" style="fill: #f35241"/>
    <path d="M13.4922,22.94868L7.41826,16.87474,8.222,16.071l2.49421,2.49421,3.15712-3.15712-2.49421-2.49421,0.80378-.80378L18.25689,18.184l-0.80378.80378-2.863-2.863L11.433,19.28195l2.863,2.863-0.80378.80378h0Zm0.7955-11.22808L13.43005,10.863l0.74578-.74578,0.85764,0.85764-0.74578.74578h0ZM19.504,16.93689l-4.40008-4.40008,0.74578-.74578,4.40008,4.40008-0.74578.74578h0Zm2.84224-4.17635,0.76649,0.551a3.91208,3.91208,0,0,1-.49718.62977,1.804,1.804,0,0,1-.75821.50133,1.01705,1.01705,0,0,1-.65255-0.02279,3.77619,3.77619,0,0,1-.97158-0.78928l-2.5315-2.5315-0.5469.5469-0.58-.58,0.5469-.5469L16.032,9.42941l0.29417-1.1891,1.53713,1.53713,0.74992-.74992,0.58,0.58-0.74992.74992,2.57293,2.57293a1.83808,1.83808,0,0,0,.44954.37082,0.43925,0.43925,0,0,0,.27345.01657,0.70164,0.70164,0,0,0,.30867-0.20094,3.431,3.431,0,0,0,.29831-0.35632h0Z" style="fill: #fff"/>
</svg>