<svg xmlns="http://www.w3.org/2000/svg" width="26" height="26" viewBox="0 0 26 26"><path fill="#f0f0f0" d="M21.974 20.554a2.002 2.002 0 0 0-.005-2.83l-1.413-1.412a2.003 2.003 0 0 0-2.829.003l-.707.707c-.78.78-2.697-.22-5.481-3.003S7.756 9.316 8.535 8.537l.707-.707a1.995 1.995 0 0 0 .004-2.829L7.833 3.59a2 2 0 0 0-2.83-.005L2.171 6.416c-.779.779 1.063 5.478 6.277 10.693 2.707 2.706 9.827 6.824 10.993 5.818z"/><path fill="#9eabbe" d="M19.998 22.597A33.024 33.024 0 0 1 9.515 15.84C6.73 13.056 2.979 9.283 2.979 5.405l-.808 1.01c-.779.78 1.063 5.48 6.277 10.694 2.707 2.706 9.827 6.824 10.993 5.818 0 0 .086.194.557-.33z"/><path fill="#788293" d="M21.974 20.554a2.002 2.002 0 0 0-.005-2.83l-1.413-1.412a2.003 2.003 0 0 0-2.829.003l-.707.707c-.78.78-2.697-.22-5.481-3.003S7.756 9.316 8.535 8.537l.707-.707a1.995 1.995 0 0 0 .004-2.829L7.833 3.59a2 2 0 0 0-2.83-.005L2.171 6.416c-.779.779 1.063 5.478 6.277 10.693 2.707 2.706 9.827 6.824 10.993 5.818zm.707.707l-2.587 2.424c-1.71 1.474-9.02-2.537-12.353-5.869C2.795 12.87-.137 7.31 1.464 5.71l2.832-2.832a3 3 0 0 1 4.245.005l1.412 1.412a2.995 2.995 0 0 1-.004 4.243l-.707.707a3.026 3.026 0 0 0 .338.806 15.855 15.855 0 0 0 2.666 3.261 15.867 15.867 0 0 0 3.261 2.667 2.962 2.962 0 0 0 .806.337l.707-.707a3.003 3.003 0 0 1 4.243-.003l1.413 1.412a3.002 3.002 0 0 1 .005 4.244z"/></svg>