<svg xmlns="http://www.w3.org/2000/svg" width="26" height="26" viewBox="0 0 26 26"><rect width="17" height="14" x="6" y="9" fill="#f1f1f1" rx="2" ry="2"/><path fill="#788293" d="M21 9H8a2 2 0 0 0-2 2.006v9.988A2.002 2.002 0 0 0 8 23h13a2 2 0 0 0 2-2.006v-9.988A2.002 2.002 0 0 0 21 9zm1 11.994A1 1 0 0 1 21 22H8a1.002 1.002 0 0 1-1-1.006v-9.988A1 1 0 0 1 8 10h13a1.002 1.002 0 0 1 1 1.006z"/><path fill="#788293" d="M9 19h2v1H9zm6 0h2v1h-2zm-3 0h2v1h-2z"/><path fill="#a5b1c4" d="M18 19h2v1h-2zm3-9H8a1 1 0 0 0-1 1v2.995l.005.005H22v-3a1 1 0 0 0-1-1z"/><rect width="17" height="15" x="2" y="3" fill="#f1f1f1" rx="2" ry="2"/><path fill="#a5b1c4" d="M14 10h2v2h-2zm0 3h2v2h-2zm3-9H4a1 1 0 0 0-1 1v3h15V5a1 1 0 0 0-1-1z"/><path fill="#788293" d="M17 3h-2V2h-2v1H8V2H6v1H4a1.993 1.993 0 0 0-2 1.992v11.016A1.997 1.997 0 0 0 4 18h13a1.993 1.993 0 0 0 2-1.992V4.992A1.997 1.997 0 0 0 17 3zm1 13.008A.993.993 0 0 1 17 17H4a.997.997 0 0 1-1-.992V4.992A.993.993 0 0 1 4 4h2v2h2V4h5v2h2V4h2a.997.997 0 0 1 1 .992z"/><path fill="#788293" d="M5 10h2v2H5zm6 0h2v2h-2zm-3 3h2v2H8zm-3 0h2v2H5zm3-3h2v2H8zm3 3h2v2h-2z"/></svg>