<svg xmlns="http://www.w3.org/2000/svg" width="26" height="26" viewBox="0 0 26 26"><path fill="#788293" d="M11 7h11v2H11zm0 5h11v2H11zm0 5h11v2H11z"/><path fill="#f1f1f1" d="M5 14a4 4 0 0 1 4 4 4 4 0 0 1-4 4 4 4 0 0 1-4-4 4 4 0 0 1 4-4z"/><path fill="#788293" d="M5 16a2 2 0 1 1-2 2 2.002 2.002 0 0 1 2-2m0-2a4 4 0 1 0 4 4 4 4 0 0 0-4-4z"/><path fill="#8fa3c1" d="M5 4a4 4 0 0 1 4 4 4 4 0 0 1-4 4 4 4 0 0 1-4-4 4 4 0 0 1 4-4z"/><path fill="#fff" d="M5 6.5A1.5 1.5 0 0 1 6.5 8 1.5 1.5 0 0 1 5 9.5 1.5 1.5 0 0 1 3.5 8 1.5 1.5 0 0 1 5 6.5z"/></svg>