<svg xmlns="http://www.w3.org/2000/svg" width="26" height="26" viewBox="0 0 26 26"><rect width="24" height="19" x="1" y="4" fill="#f1f1f1" rx="2" ry="2"/><path fill="#788293" d="M22.995 4H3.005A2 2 0 0 0 1 5.997v15.006A2 2 0 0 0 3.005 23h19.99A2 2 0 0 0 25 21.003V5.997A2 2 0 0 0 22.995 4zM24 21.003a1 1 0 0 1-1.005.997H3.005A1 1 0 0 1 2 21.003V5.997A1 1 0 0 1 3.005 5h19.99A1 1 0 0 1 24 5.997z"/><path fill="#a5b1c4" d="M2 11h22v4H2z"/><path fill="#788293" d="M4 7h14v2H4zm0 5h12v2H4zm0 5h14v2H4z"/></svg>