<svg xmlns="http://www.w3.org/2000/svg" width="26" height="26" viewBox="0 0 26 26"><path fill="#f1f1f1" d="M22.995 7H3.005A2.006 2.006 0 0 0 1 9.009v7.982a5.804 5.804 0 0 0 1.369 3.458s1.513 2.442 5.675 2.442A8.317 8.317 0 0 0 14.796 19h8.212A1.998 1.998 0 0 0 25 16.991V9.01A2.008 2.008 0 0 0 22.995 7z"/><path fill="#9eabbe" d="M6 7h1v1H6zM12 7h1v1h-1zM8 7h1v1H8zM14 7h1v1h-1zM16 7h1v1h-1zM1 13h1v1H1zM1 11h1v1H1zM17 18h1v1h-1zM4 7h1v1H4zM1 9h1v1H1zM2 7h1v1H2zM10 7h1v1h-1zM24 14h1v1h-1zM24 12h1v1h-1zM24 16h1v1h-1zM24 8h1v1h-1zM24 10h1v1h-1zM19 18h1v1h-1zM23 18h1v1h-1zM20 7h1v1h-1zM18 7h1v1h-1zM22 7h1v1h-1zM21 18h1v1h-1z"/><path fill="#788293" d="M12.658 15.49l-.72.722q.212.138.415.289A3.993 3.993 0 0 1 14 18.5a3.993 3.993 0 0 1-1.647 2A7.416 7.416 0 0 1 8 22a6.697 6.697 0 0 1-1.642-.21l-.806.806A7.8 7.8 0 0 0 8 23c3.866 0 7-3.028 7-4.5 0-.791-.905-2.031-2.342-3.01z"/><path fill="#788293" d="M8 21a2.502 2.502 0 0 0 2.389-3.24L7.26 20.89A2.5 2.5 0 0 0 8 21zM13.02 12l-2.444 2.445A7.884 7.884 0 0 0 8 14c-3.866 0-7 3.059-7 4.5 0 .793.952 2.076 2.45 3.07L1 24.02l.707.708 12.02-12.02zm-9.372 8.489A4.068 4.068 0 0 1 2 18.5a4.068 4.068 0 0 1 1.648-1.989A7.395 7.395 0 0 1 8 15a6.795 6.795 0 0 1 1.772.248l-.906.907a2.5 2.5 0 0 0-3.211 3.211l-1.48 1.48a7.95 7.95 0 0 1-.527-.357z"/></svg>