<svg xmlns="http://www.w3.org/2000/svg" width="26" height="26" viewBox="0 0 26 26"><rect width="23" height="20" x="1" y="3" fill="#f1f1f1" rx="2" ry="2"/><path fill="#cbcfd6" d="M2 5v1h21V5a1 1 0 0 0-1-1H3a1 1 0 0 0-1 1z"/><path fill="#788293" d="M5 22h1v1H5zM4 3h1v1H4zM11 22h1v1h-1zM6 3h1v1H6zM7 22h1v1H7zM9 22h1v1H9zM10 3h1v1h-1zM8 3h1v1H8zM2 3h1v1H2zM3 22h1v1H3zM1 17h1v1H1zM1 15h1v1H1zM1 21h1v1H1zM12 3h1v1h-1zM1 11h1v1H1zM1 7h1v1H1zM1 13h1v1H1zM1 9h1v1H1zM1 5h1v1H1zM1 19h1v1H1zM23 15h1v1h-1zM23 17h1v1h-1zM23 13h1v1h-1zM23 19h1v1h-1zM23 11h1v1h-1zM23 5h1v1h-1zM23 7h1v1h-1zM23 9h1v1h-1zM22 3h1v1h-1zM23 21h1v1h-1zM16 3h1v1h-1zM17 22h1v1h-1zM15 22h1v1h-1zM14 3h1v1h-1zM21 22h1v1h-1zM13 22h1v1h-1zM20 3h1v1h-1zM18 3h1v1h-1zM19 22h1v1h-1zM12 10h1v1h-1zM12 12h1v1h-1zM12 8h1v1h-1zM12 6h1v1h-1zM12 18h1v1h-1zM12 14h1v1h-1zM12 20h1v1h-1zM12 16h1v1h-1z"/></svg>