<svg xmlns="http://www.w3.org/2000/svg" width="26" height="26" viewBox="0 0 26 26"><rect width="24" height="20" x="1" y="3" fill="#f1f1f1" rx="2" ry="2"/><path fill="#cbd0d6" d="M2 6h22V5a1 1 0 0 0-1-1H2.998A.997.997 0 0 0 2 4.995z"/><path fill="#788293" d="M1 13h1v1H1zM14 3h1v1h-1zM1 11h1v1H1zM15 22h1v1h-1zM12 3h1v1h-1zM17 22h1v1h-1zM11 22h1v1h-1zM1 7h1v1H1zM16 3h1v1h-1zM13 22h1v1h-1zM5 22h1v1H5zM3 22h1v1H3zM4 3h1v1H4zM1 5h1v1H1zM10 3h1v1h-1zM2 3h1v1H2zM8 3h1v1H8zM9 22h1v1H9zM6 3h1v1H6zM7 22h1v1H7zM1 9h1v1H1zM24 14h1v1h-1zM24 16h1v1h-1zM24 18h1v1h-1zM24 12h1v1h-1zM24 10h1v1h-1zM24 20h1v1h-1zM24 4h1v1h-1zM24 6h1v1h-1zM24 8h1v1h-1zM1 21h1v1H1zM21 22h1v1h-1zM20 3h1v1h-1zM19 22h1v1h-1zM23 22h1v1h-1zM1 19h1v1H1zM1 17h1v1H1zM22 3h1v1h-1zM18 3h1v1h-1zM1 15h1v1H1zM9 16h1v1H9zM9 10h1v1H9zM9 8h1v1H9zM9 12h1v1H9zM9 14h1v1H9zM9 18h1v1H9zM9 20h1v1H9zM9 6h1v1H9zM17 6h1v1h-1zM17 12h1v1h-1zM17 10h1v1h-1zM17 8h1v1h-1zM17 16h1v1h-1zM17 18h1v1h-1zM17 20h1v1h-1zM17 14h1v1h-1z"/></svg>