<svg xmlns="http://www.w3.org/2000/svg" width="26" height="26" viewBox="0 0 26 26"><path fill="#f1f1f1" d="M9 5h10.001L23 9v12H9V5z"/><path fill="#c9ced7" d="M19.001 5H9v16h14V9zM22 20H10V6h8.587L22 9.414z"/><path fill="#f1f1f1" d="M7 3h10.001L21 7v12H7V3z"/><path fill="#788293" d="M17.001 3H7v16h14V7zM20 18H8V4h8.587L20 7.414z"/><path fill="#89909c" d="M17 3l4 4.036V8h-4V3z"/><path fill="#a5b1c4" d="M9.5 11a6.5 6.5 0 0 1 6.5 6.5A6.5 6.5 0 0 1 9.5 24 6.5 6.5 0 0 1 3 17.5 6.5 6.5 0 0 1 9.5 11z"/><path fill="#fff" d="M9.517 15L6 18h2.5v2h2v-2H13l-3.483-3z"/></svg>