<svg xmlns="http://www.w3.org/2000/svg" width="26" height="26" viewBox="0 0 26 26"><rect width="8" height="8" x="1" y="4" fill="#8fa3c1" rx="2" ry="2"/><rect width="8" height="8" x="1" y="14" fill="#f1f1f1" rx="2" ry="2"/><path fill="#788293" d="M2 15.998v4.004a.993.993 0 0 0 .998.998h4.004A.993.993 0 0 0 8 20.002v-4.004A.993.993 0 0 0 7.002 15H2.998a.993.993 0 0 0-.998.998zm-1 0A1.993 1.993 0 0 1 2.998 14h4.004A1.993 1.993 0 0 1 9 15.998v4.004A1.993 1.993 0 0 1 7.002 22H2.998A1.993 1.993 0 0 1 1 20.002z"/><path fill="#fff" d="M7.35 6.662a.5.5 0 0 0-.706.017L4.517 8.911 3.409 7.667a.5.5 0 1 0-.747.665l1.47 1.65a.5.5 0 0 0 .735.012l2.5-2.625a.5.5 0 0 0-.016-.707z"/><path fill="#788293" d="M11 7h11v2H11zm0 5h11v2H11zm0 5h11v2H11z"/></svg>