<svg xmlns="http://www.w3.org/2000/svg" width="26" height="26" viewBox="0 0 26 26"><rect width="22" height="18" x="2" y="4" fill="#f1f1f1" rx="2" ry="2"/><path fill="#a5b1c4" d="M19 13h2v2h-2zm0 3h2v2h-2zM4.064 5h17.872A1.064 1.064 0 0 1 23 6.064V9H3V6.064A1.064 1.064 0 0 1 4.064 5z"/><path fill="#788293" d="M10 13h2v2h-2zm0 3h2v2h-2zm-3 0h2v2H7zm0-3h2v2H7zm6 3h2v2h-2zm3-3h2v2h-2zm-3 0h2v2h-2zm3 3h2v2h-2z"/><path fill="#788293" d="M22.009 4H18V3h-2v1h-6V3H8v1H3.991A1.992 1.992 0 0 0 2 5.995v14.01A1.993 1.993 0 0 0 3.991 22H22.01A1.992 1.992 0 0 0 24 20.005V5.995A1.993 1.993 0 0 0 22.009 4zM23 20.005a.992.992 0 0 1-.991.995H3.99a.993.993 0 0 1-.99-.995V5.995A.992.992 0 0 1 3.991 5H8v2h2V5h6v2h2V5h4.009a.993.993 0 0 1 .991.995z"/></svg>