<svg xmlns="http://www.w3.org/2000/svg" width="26" height="26" viewBox="0 0 26 26"><rect width="22" height="20" x="2" y="3" fill="#f1f1f1" rx="2" ry="2"/><path fill="#c9ced7" d="M22.009 3H3.99A1.99 1.99 0 0 0 2 4.99v16.02A1.995 1.995 0 0 0 3.991 23H22.01A1.99 1.99 0 0 0 24 21.01V4.99A1.995 1.995 0 0 0 22.009 3zM23 21.01a.99.99 0 0 1-.991.99H3.99a.995.995 0 0 1-.99-.99V4.99A.99.99 0 0 1 3.991 4H22.01a.995.995 0 0 1 .991.99z"/><path fill="#788293" d="M11 8l1 1-.405-2.027L10 7H6v.008l-.547.004L5 9l1-1h2v4.514l-.963.963L7 14h3l.037-.523-1-1H9V8h2z"/><path fill="#9eabbe" d="M15.01 9H21v1h-5.99zm0 2H21v1h-5.99zm0 2H21v1h-5.99zm0 2H21v1h-5.99zM5 17h16v1H5zm0 2h16v1H5z"/></svg>