<svg xmlns="http://www.w3.org/2000/svg" width="26" height="26" viewBox="0 0 26 26"><rect width="24" height="9" x="1" y="8" fill="#f1f1f1" rx="2" ry="2"/><path fill="#788293" d="M22.995 8H3.005A2 2 0 0 0 1 9.997v5.006A2.002 2.002 0 0 0 3.005 17h19.99A2 2 0 0 0 25 15.003V9.997A2.002 2.002 0 0 0 22.995 8zM24 15.003a1 1 0 0 1-1.005.997H3.005A1.002 1.002 0 0 1 2 15.003V9.997A1 1 0 0 1 3.005 9h19.99A1.002 1.002 0 0 1 24 9.997z"/><path fill="#9eabbe" d="M23.004 9H16v7h7.004a.996.996 0 0 0 .996-.996V9.996A.996.996 0 0 0 23.004 9z"/><path fill="#fff" d="M18 12l2 2.5 2-2.5h-4z"/></svg>