<svg xmlns="http://www.w3.org/2000/svg" width="26" height="26" viewBox="0 0 26 26"><rect width="24" height="16" x="1" y="5" fill="#f1f1f1" rx="2" ry="2"/><path fill="#9eabbe" d="M1 7a2.002 2.002 0 0 1 2.005-2h19.99A1.998 1.998 0 0 1 25 7v2l-12 5L1 9z"/><path fill="#89909c" d="M22.995 5H3.005A2 2 0 0 0 1 6.994v12.012A2 2 0 0 0 3.005 21h19.99A2 2 0 0 0 25 19.006V6.994A2 2 0 0 0 22.995 5zM24 19.006a1 1 0 0 1-1.005.994H3.005A1 1 0 0 1 2 19.006V6.994A1 1 0 0 1 3.005 6h19.99A1 1 0 0 1 24 6.994z"/></svg>