<svg width="30" height="30" viewBox="0 0 30 30" fill="none" xmlns="http://www.w3.org/2000/svg">
    <path fill-rule="evenodd" clip-rule="evenodd" d="M4.95972 25.9596L25.9597 4.95963C26.2136 4.70578 26.2136 4.29423 25.9597 4.04039C25.7059 3.78655 25.2943 3.78655 25.0405 4.04039L4.04048 25.0404C3.78664 25.2942 3.78664 25.7058 4.04048 25.9596C4.29432 26.2135 4.70588 26.2135 4.95972 25.9596Z" fill="black"/>
    <path fill-rule="evenodd" clip-rule="evenodd" d="M25.0405 25.9596L4.04048 4.95963C3.78664 4.70578 3.78664 4.29423 4.04048 4.04039C4.29432 3.78655 4.70588 3.78655 4.95972 4.04039L25.9597 25.0404C26.2136 25.2942 26.2136 25.7058 25.9597 25.9596C25.7059 26.2135 25.2943 26.2135 25.0405 25.9596Z" fill="black"/>
</svg>
