<svg xmlns="http://www.w3.org/2000/svg" width="17" height="17" viewBox="0 0 31.177 31.177"><path d="M30.23 1.775H.946c-.49 0-.887-.398-.887-.888S.456 0 .945 0H30.23c.49 0 .888.398.888.888s-.398.887-.888.887zM30.23 9.126H12.07c-.49 0-.89-.398-.89-.888s.4-.888.89-.888h18.16c.49 0 .888.397.888.888 0 .49-.398.888-.888.888zM30.23 16.477H.946c-.49 0-.887-.398-.887-.888s.397-.89.886-.89H30.23c.49 0 .888.398.888.89 0 .49-.398.887-.888.887zM30.23 23.826H12.07c-.49 0-.89-.396-.89-.887 0-.49.4-.89.89-.89h18.16c.49 0 .888.398.888.89 0 .49-.398.886-.888.886zM30.23 31.177H.946c-.49 0-.887-.396-.887-.887 0-.49.397-.888.886-.888H30.23c.49 0 .888.398.888.888s-.398.887-.888.887z" fill="#828282"/></svg>