<svg xmlns="http://www.w3.org/2000/svg" width="17" height="17" viewBox="0 0 31.177 31.177"><path d="M30.252 1.775H.97C.48 1.775.08 1.377.08.887S.48 0 .97 0h29.283c.49 0 .887.398.887.888s-.397.887-.888.887zM24.692 9.126H6.53c-.49 0-.887-.398-.887-.888s.397-.888.887-.888h18.162c.49 0 .887.397.887.888 0 .49-.398.888-.888.888zM30.252 16.477H.97c-.49 0-.888-.398-.888-.888s.397-.89.887-.89h29.283c.49 0 .887.398.887.89 0 .49-.397.887-.888.887zM24.692 23.826H6.53c-.49 0-.887-.396-.887-.887 0-.49.397-.89.887-.89h18.162c.49 0 .887.398.887.89 0 .49-.398.886-.888.886zM30.208 31.177H.924c-.49 0-.887-.396-.887-.887 0-.49.397-.888.887-.888h29.284c.49 0 .888.398.888.888s-.398.887-.888.887z" fill="#828282"/></svg>