<svg xmlns="http://www.w3.org/2000/svg" width="17" height="17" data-name="Layer 1" viewBox="0 0 17 17">
<path fill="none" d="M0 0h17v17H0z"/>
<path fill="#828282" d="M6.02415 2.95928a2.804 2.804 0 0 1 4.95171 0l5.22223 7.98694C17.53974 12.99816 16.45768 15 13.99987 15H3.00013C.55182 15-.53419 12.98967.80192 10.94622zm.837.54725l-5.22226 7.98694C.73945 12.86908 1.3432 14 3.00013 14h10.99974c1.66616 0 2.26637-1.12221 1.36124-2.50653l-5.22222-7.98694a1.81508 1.81508 0 0 0-3.27777 0z"/>
<path fill="#828282" d="M8 4.491a.50008.50008 0 0 1 1 0v5.018a.50008.50008 0 0 1-1 0V4.491zM8.5 13a1 1 0 1 0-1-1 1 1 0 0 0 1 1z" data-name="!"/>
</svg>