<svg xmlns="http://www.w3.org/2000/svg" width="17" height="17" viewBox="0 0 31.177 31.177"><path d="M30.23 1.775H.947c-.49 0-.887-.397-.887-.888C.06.397.456 0 .947 0H30.23c.49 0 .887.398.887.888s-.396.887-.887.887zM19.11 9.126H.946c-.49 0-.888-.397-.888-.888 0-.49.396-.888.887-.888H19.11c.488 0 .886.398.886.888s-.398.888-.887.888zM30.23 16.477H.947c-.49 0-.887-.398-.887-.888s.397-.89.887-.89H30.23c.49 0 .887.4.887.89s-.396.887-.887.887zM19.11 23.826H.946c-.49 0-.888-.396-.888-.887s.396-.89.887-.89H19.11c.488 0 .886.4.886.89s-.398.886-.887.886zM30.23 31.177H.947c-.49 0-.887-.396-.887-.887s.397-.888.887-.888H30.23c.49 0 .887.398.887.888s-.396.887-.887.887z" fill="#828282"/></svg>