<svg xmlns="http://www.w3.org/2000/svg" width="24" height="24" data-name="Layer 1" viewBox="0 0 24 24">
  <g data-name="ic apps">
    <path fill="none" d="M0 0h24v24H0z"/>
    <path fill="#838383" d="M15.99591 3H7.99072A1.99254 1.99254 0 0 0 6 4.99744v15.00512A2.00085 2.00085 0 0 0 8.00854 22h7.98291A2.00476 2.00476 0 0 0 18 20.00256V4.99744A1.99864 1.99864 0 0 0 15.99591 3zM12 21a1 1 0 1 1 1-1 1 1 0 0 1-1 1zm5-3.76276A.9134.9134 0 0 1 15.99146 18H8.00854A.90972.90972 0 0 1 7 17.23724V5.76276A.89807.89807 0 0 1 7.99072 5h8.00519A.90667.90667 0 0 1 17 5.76276v11.47448z"/>
  </g>
</svg>
