<svg height="12" width="16" xmlns:xlink="http://www.w3.org/1999/xlink" xmlns="http://www.w3.org/2000/svg" viewBox="0 0 16 12">
    <path fill="#b3b3b3" fill-rule="evenodd" d="M 1.73 4.37 L 1.73 4.37 L 1.74 4.37 L 3.14 4.34 L 3.14 4.34 L 0.78 6.82 L 0.77 6.81 L 0.72 5.43 L 0.73 5.42 L 6.75 10.99 L 5.36 11.01 L 14.48 1.88 L 14.49 1.89 L 14.5 3.27 L 14.49 3.28 L 12.19 1.04 L 13.6 1.03 L 6.77 7.87 L 6.08 8.56 L 5.37 7.88 L 1.73 4.37 Z M 6.07 7.16 L 12.89 0.33 L 15.2 2.58 L 6.07 11.72 L 0.04 6.14 L 2.42 3.65 L 6.07 7.16 Z M 6.07 7.16" />
</svg>