<svg xmlns="http://www.w3.org/2000/svg" width="6" height="20" viewBox="0 0 6 20">
  <path fill="#000" fill-rule="evenodd" d="M1 8c.5522848 0 1-.4477152 1-1s-.4477152-1-1-1c-.5522847 0-1 .4477152-1 1s.4477153 1 1 1zm0-6c.5522848 0 1-.4477152 1-1 0-.5522847-.4477152-1-1-1-.5522847 0-1 .4477153-1 1 0 .5522848.4477153 1 1 1zm0 12c.5522848 0 1-.4477153 1-1s-.4477152-1-1-1c-.5522847 0-1 .4477153-1 1s.4477153 1 1 1zm0 6c.5522848 0 1-.4477153 1-1s-.4477152-1-1-1c-.5522847 0-1 .4477153-1 1s.4477153 1 1 1zM5 5c.5522848 0 1-.4477152 1-1s-.4477152-1-1-1-1 .4477152-1 1 .4477152 1 1 1zm0 6c.5522848 0 1-.4477153 1-1 0-.5522848-.4477152-1-1-1s-1 .4477152-1 1c0 .5522847.4477152 1 1 1zm0 6c.5522848 0 1-.4477153 1-1s-.4477152-1-1-1-1 .4477153-1 1 .4477152 1 1 1z"/>
</svg>
