<svg xmlns="http://www.w3.org/2000/svg" width="17" height="17" viewBox="0 0 17 17"><path fill="#828282" d="M12.786 3.289A5.09 5.09 0 0 0 8.5.5C5.467.5 3 3.864 3 8c0 3.058 1.334 5.781 3.4 6.938.036.02.064.041.098.062H4v1h4v-4H7v2.142c-.039-.023-.073-.055-.112-.077C5.161 13.098 4 10.66 4 8c0-3.584 2.019-6.5 4.5-6.5a4.123 4.123 0 0 1 3.425 2.297.5.5 0 0 0 .861-.508z"/><path fill="#828282" d="M7 8h1v1H7zM1 8h1v1H1zM9 8h1v1H9zM5 8h1v1H5z"/><path fill="#4c4c4c" d="M12.736 8.431L11 11h.742l1.386-2.065L14.472 11h.812l-1.757-2.569 1.652-2.429h-.742l-1.302 1.953-1.246-1.953h-.798l1.645 2.429z"/></svg>