<svg xmlns="http://www.w3.org/2000/svg" width="13" height="13" data-name="Layer 1" viewBox="0 0 13 13">
  <g data-name="ic ol exp">
    <path fill="#afafaf" d="M0 2.00276A2.00076 2.00076 0 0 1 2.00276 0h8.99448A2.00076 2.00076 0 0 1 13 2.00276v8.99448A2.00076 2.00076 0 0 1 10.99724 13H2.00276A2.00076 2.00076 0 0 1 0 10.99724V2.00276z"/>
    <path fill="#fff" d="M1 2.00276v8.99448A1.00077 1.00077 0 0 0 2.00276 12h8.99448A1.00077 1.00077 0 0 0 12 10.99724V2.00276A1.00077 1.00077 0 0 0 10.99724 1H2.00276A1.00077 1.00077 0 0 0 1 2.00276z"/>
    <path fill="#5c5c5c" d="M7 6V3H6v3H3v1h3v3h1V7h3V6H7z"/>
  </g>
</svg>
