<svg xmlns="http://www.w3.org/2000/svg" width="17" height="17" viewBox="0 0 17 17"><path fill="#828282" d="M1.989 3.547h2L4 1H2l-.011 2.547zm.008 2.948h2V16h-2zM7.002 1h2v8.518h-2zM7 16h2l.012-3.512h-2L7 16zm4.999-15h2v3.516h-2zm-.002 6.566h2V16h-2z"/><path fill="#777676" d="M3 2.7A2.3 2.3 0 1 0 5.3 5 2.3 2.3 0 0 0 3 2.7zM3 6a1 1 0 1 1 1-1 1 1 0 0 1-1 1zm10-2.3A2.3 2.3 0 1 0 15.3 6 2.3 2.3 0 0 0 13 3.7zM13 7a1 1 0 1 1 1-1 1 1 0 0 1-1 1zM8 8.7a2.3 2.3 0 1 0 2.3 2.3A2.3 2.3 0 0 0 8 8.7zM8 12a1 1 0 1 1 1-1 1 1 0 0 1-1 1z"/></svg>