<svg xmlns="http://www.w3.org/2000/svg" width="17" height="17" viewBox="0 0 17 17"><path fill="#ffc754" d="M8.5 12.982L4.748 14.98c-.488.26-.808.024-.717-.513l.719-4.245-3.045-3.006c-.39-.385-.263-.762.294-.844l4.183-.615 1.882-3.862c.24-.494.634-.49.872 0l1.882 3.862L15 6.372c.552.082.68.463.294.844l-3.045 3.006.719 4.245c.092.543-.229.773-.717.513z"/><path fill="#e5a92e" d="M15.074 5.878L11.15 5.3 9.385 1.676a.928.928 0 0 0-1.77 0L5.849 5.3l-3.923.578a.94.94 0 0 0-.572 1.694l2.86 2.823-.676 3.988a.934.934 0 0 0 1.445 1.038L8.5 13.548l3.517 1.873a.933.933 0 0 0 1.445-1.038l-.676-3.988 2.86-2.823a.942.942 0 0 0-.572-1.694zm-3.36 4.17l.762 4.502c.022.133-3.976-2.135-3.976-2.135L4.513 14.54c-.12.063.773-4.49.773-4.49L2.056 6.86c-.094-.093 4.46-.647 4.46-.647l1.998-4.1c.056-.116 1.97 4.1 1.97 4.1l4.444.654c.146.021-3.214 3.182-3.214 3.182z"/></svg>