<svg xmlns="http://www.w3.org/2000/svg" width="17" height="17" viewBox="0 0 17 17"><path fill="#5987fc" d="M11.592 13.408L10 15h5v-5l-1.725 1.725c-1.272-1.64-2.327-2.607-4.775-2.607-2.722 0-4.646 3.641-4.646 3.641s2.195-1.843 4.217-1.68c1.673.135 2.627 1.302 3.52 2.33z"/><path fill="#828282" d="M2 5h1v1H2zm2 9h1v1H4zM2 3h1v1H2zm2 0h1v1H4zm-2 8h1v1H2zm0-4h1v1H2zm4 7h1v1H6zm-4 0l1 1v-2H2v1zm0-5h1v1H2zm4-6h1v1H6zm8 6h1v1h-1zm0-2h1v1h-1zm0-2h1v1h-1zm-2 0h1v1h-1zm-2 0h1v1h-1zm-2 9h1v1H8zM9 4h1v1H9zM8 3h1v1H8z"/></svg>