<svg xmlns="http://www.w3.org/2000/svg" width="17" height="17" viewBox="0 0 17 17"><path fill="#828282" d="M2 14l1 1v-2H2v1zm0-7h1v1H2zm2-4h1v1H4zM2 9h1v1H2zm0 2h1v1H2zm8-6h1v1h-1zM6 3h1v1H6zm6 2h1v1h-1zM9 4h1v1H9zM8 3h1v1H8zm0 11h1v1H8zm6-5h1v1h-1zm0-2h1v1h-1zm0-2h1v1h-1zM2 5h1v1H2zm2 9h1v1H4zM2 3h1v1H2zm4 11h1v1H6z"/><path fill="#828282" d="M8.5 9.118c-2.722 0-4.646 3.641-4.646 3.641s2.195-1.843 4.217-1.68c1.673.135 2.627 1.302 3.52 2.33L10 15h5v-5l-1.725 1.725c-1.272-1.64-2.327-2.607-4.775-2.607z"/></svg>