<svg xmlns="http://www.w3.org/2000/svg" width="17" height="17" viewBox="0 0 17 17"><path fill="#15c" d="M16.7 8.9c-.1-.2-.2-.6-.4-1.1a9.41 9.41 0 0 0-1.2-2.2 7.71 7.71 0 0 0-6.6-3.3 7.71 7.71 0 0 0-6.6 3.3A8.46 8.46 0 0 0 .6 7.8a3.632 3.632 0 0 0-.3 1.1l-.1.2.1.2a8.003 8.003 0 0 0 .5 1.1c.4.8.9 1.5 1.4 2.3a8.079 8.079 0 0 0 6.3 3.4 7.931 7.931 0 0 0 6.3-3.4 10.887 10.887 0 0 0 1.4-2.3c.2-.5.4-.8.5-1.1l.1-.2zm-3.1 2.8a6.385 6.385 0 0 1-5.1 2.8 6.385 6.385 0 0 1-5.1-2.8 13.735 13.735 0 0 1-1.3-2 4.875 4.875 0 0 0-.3-.7 1.421 1.421 0 0 1 .2-.6 7.24 7.24 0 0 1 1.1-1.9 6.41 6.41 0 0 1 5.4-2.7 6.284 6.284 0 0 1 5.4 2.7A18.576 18.576 0 0 1 15 8.4a3.933 3.933 0 0 1 .2.6 4.875 4.875 0 0 0-.3.7 8.577 8.577 0 0 1-1.3 2z"/><path fill="#15c" d="M8.5 5.6a.5.5 0 0 0 0 1 2.5 2.5 0 0 1 0 5A2.54 2.54 0 0 1 6 9.1a.472.472 0 0 0-.5-.5.472.472 0 0 0-.5.5 3.543 3.543 0 0 0 3.5 3.5 3.5 3.5 0 0 0 0-7z"/></svg>