<svg xmlns="http://www.w3.org/2000/svg" width="41" height="41" viewBox="0 0 41 41"><path fill="#FFF" fill-rule="evenodd" d="M26.716 8.702V5.41a3.749 3.749 0 0 0-3.751-3.748h-4.93a3.748 3.748 0 0 0-3.751 3.748v3.292l.461-.692a14.59 14.59 0 0 0-2.628 1.424l.799-.03L9.86 7.64a3.748 3.748 0 0 0-5.122 1.375l-2.465 4.269a3.749 3.749 0 0 0 1.37 5.123l2.875 1.66.375-.65-.746-.073a13.31 13.31 0 0 0 0 2.586l.746-.073-.375-.65-2.874 1.66a3.749 3.749 0 0 0-1.37 5.123l2.464 4.269a3.748 3.748 0 0 0 5.122 1.375l3.056-1.764-.799-.03a14.59 14.59 0 0 0 2.628 1.424l-.461-.692v3.292a3.749 3.749 0 0 0 3.751 3.748h4.93a3.748 3.748 0 0 0 3.751-3.748v-3.292l-.461.692a14.59 14.59 0 0 0 2.628-1.424l-.799.03 3.056 1.764a3.748 3.748 0 0 0 5.122-1.375l2.465-4.269a3.749 3.749 0 0 0-1.37-5.123l-2.875-1.66-.375.65.746.073a13.31 13.31 0 0 0 0-2.586l-.746.073.375.65 2.874-1.66a3.749 3.749 0 0 0 1.37-5.123l-2.464-4.269A3.748 3.748 0 0 0 31.14 7.64l-3.056 1.764.799.03a14.59 14.59 0 0 0-2.628-1.424l.461.692zm-1.5 0v.5l.462.193a13.09 13.09 0 0 1 2.358 1.278l.39.266.408-.236L31.89 8.94a2.248 2.248 0 0 1 3.073.826l2.465 4.269a2.249 2.249 0 0 1-.822 3.074l-2.874 1.66-.418.241.047.481a11.81 11.81 0 0 1 0 2.294l-.047.48.418.242 2.874 1.66a2.249 2.249 0 0 1 .822 3.074l-2.465 4.269a2.248 2.248 0 0 1-3.073.826l-3.056-1.764-.408-.236-.39.266a13.09 13.09 0 0 1-2.358 1.278l-.462.193v3.792a2.248 2.248 0 0 1-2.251 2.248h-4.93a2.249 2.249 0 0 1-2.251-2.248v-3.792l-.462-.193a13.09 13.09 0 0 1-2.358-1.278l-.39-.266-.408.236-3.056 1.764a2.248 2.248 0 0 1-3.073-.826L3.572 27.24a2.249 2.249 0 0 1 .822-3.074l2.874-1.66.418-.241-.047-.481a11.81 11.81 0 0 1 0-2.294l.047-.48-.418-.242-2.874-1.66a2.249 2.249 0 0 1-.822-3.074l2.465-4.269a2.248 2.248 0 0 1 3.073-.826l3.056 1.764.408.236.39-.266a13.09 13.09 0 0 1 2.358-1.278l.462-.193V5.41a2.248 2.248 0 0 1 2.251-2.248h4.93a2.249 2.249 0 0 1 2.251 2.248v3.292zm-10.06 9.28a5.957 5.957 0 1 0 3.145-2.887l.55 1.395a4.457 4.457 0 1 1-2.354 2.162l-1.342-.67z"/></svg>