<svg xmlns="http://www.w3.org/2000/svg" width="41" height="41" viewBox="0 0 41 41"><path fill="#fff" d="M38.196 14.01c0-7.945-6.211-12.76-13.493-12.76-7.93 0-13.614 5.155-13.614 12.76.133 3.988 2.301 6.665 5.764 8.237a16.258 16.258 0 0 0 3.842 1.17c.457.082.881.14 1.264.179.234.024.405.036.502.04-.005 0 .054.005.134.009a10.088 10.088 0 0 0 4.665-.876c2.837-1.294 4.64-3.881 4.87-7.969.319-5.622-3.258-8.039-7.896-7.977-4.039.054-7.124 2.236-7.124 6.552a4.988 4.988 0 0 0 2.926 4.726 7.693 7.693 0 0 0 1.913.647 6.532 6.532 0 0 0 .893.126c-.035-.002.023.005.098.012a4.653 4.653 0 0 0 2.165-.32c1.485-.611 2.39-1.992 2.402-4.179a3.197 3.197 0 0 0-2.512-3.463 5.343 5.343 0 0 0-1.94-.08c-.15.02-.264.041-.334.057l.323 1.464c.03-.006.102-.02.207-.033a3.906 3.906 0 0 1 1.393.05c.892.215 1.37.776 1.363 1.997-.009 1.59-.554 2.422-1.473 2.8a3.21 3.21 0 0 1-1.466.212 1.498 1.498 0 0 1-.073-.007 5.792 5.792 0 0 1-.749-.106 6.214 6.214 0 0 1-1.54-.519 3.505 3.505 0 0 1-2.096-3.384c0-3.357 2.335-5.008 5.644-5.052 3.875-.052 6.638 1.814 6.38 6.393-.2 3.526-1.661 5.623-3.996 6.688a8.462 8.462 0 0 1-2.455.677 8.679 8.679 0 0 1-1.51.066 9.21 9.21 0 0 1-.563-.043 15.235 15.235 0 0 1-1.15-.163 14.789 14.789 0 0 1-3.487-1.06c-2.983-1.355-4.773-3.564-4.884-6.897a11.799 11.799 0 0 1 .768-4.254 9.363 9.363 0 0 0 2.284 4.97.5.5 0 0 0 .737-.675 9.06 9.06 0 0 1-2.172-6.012c2.017-3.28 5.78-5.263 10.497-5.263a14.223 14.223 0 0 1 3.12.35 7.212 7.212 0 0 0-3.855 2.103.5.5 0 1 0 .709.705c1.227-1.236 2.361-1.778 5.213-2.158a10.677 10.677 0 0 1 6.806 10.26c0 .154-.014.303-.018.457a7.27 7.27 0 0 0-3.732-3.198.5.5 0 1 0-.366.93 6.415 6.415 0 0 1 3.924 4.414c-.876 6.094-4.817 10.384-10.177 11.11a8.756 8.756 0 0 0 .741-.514 8.593 8.593 0 0 0 2.663-3.52.5.5 0 0 0-.923-.385 7.597 7.597 0 0 1-2.355 3.116 7.867 7.867 0 0 1-2.144 1.188c-.204.075-.382.13-.535.174-5.776-.485-9.1-3.026-11.168-6.952l-1.327.7a15.073 15.073 0 0 0 2.565 3.56L1.404 36.603l-.573.53.552.55 2.452 2.454 1.061-1.061-1.901-1.901L14.93 26.129l.945.768-9.801 9.801 1.06 1.06L17.29 27.605a18 18 0 0 0 7.411 1.735v.005l.042-.002c.045.001.087.006.132.007v-.014c7.736-.097 13.322-6.5 13.322-15.326z"/></svg>