<svg xmlns="http://www.w3.org/2000/svg" width="41" height="41" viewBox="0 0 41 41"><path fill="#FFF" fill-rule="evenodd" d="M5.26 19.477L5.176 4.63c0-.25.211-.46.46-.46h10.558c.28 0 .54.24.54.464v4.752h1.5V4.633c0-1.08-.958-1.964-2.04-1.964H5.636a1.967 1.967 0 0 0-1.959 1.964l.082 14.852 1.5-.008zm30.25 2.273H5.493c-.958 0-1.743.789-1.743 1.754V36.44c0 .969.778 1.754 1.743 1.754H35.51c.958 0 1.743-.789 1.743-1.754V23.504c0-.969-.778-1.754-1.743-1.754zm-23.226-2.642l5.397-5.398 5.398-5.398 2.454-2.453a.465.465 0 0 1 .646-.01l6.83 6.83c.179.18.178.458-.01.646l-2.904 2.904-1.996 1.996 1.06 1.061 1.997-1.996 2.904-2.904a1.947 1.947 0 0 0 .01-2.768l-6.83-6.83a1.965 1.965 0 0 0-2.768.01L22.02 7.252 16.62 12.65l-5.398 5.397 1.06 1.061zM35.51 23.25c.133 0 .243.11.243.254V36.44a.254.254 0 0 1-.243.254H5.493a.247.247 0 0 1-.243-.254V23.504c0-.139.115-.254.243-.254H35.51zM14.75 24v12h1.5V24h-1.5zm11 0v12h1.5V24h-1.5zM8.5 35a1.5 1.5 0 1 0 0-3 1.5 1.5 0 0 0 0 3z"/></svg>