<svg xmlns="http://www.w3.org/2000/svg" width="17" height="17" viewBox="0 0 17 17"><path fill="#9456a1" d="M9 7.9L1.5.5A.785.785 0 0 0 .4.5a.785.785 0 0 0 0 1.1L7.9 9H6.5a.5.5 0 0 0 0 1h3a1.007 1.007 0 0 0 .3-.1.758.758 0 0 0 .2-.4v-3a.5.5 0 0 0-1 0zm5.8 5.9a8.179 8.179 0 0 0 1.9-5.3A8.173 8.173 0 0 0 8.5.3c-.4-.1-.7.3-.7.7a.789.789 0 0 0 .8.8 6.8 6.8 0 1 1-6.8 6.8.789.789 0 0 0-.8-.8.713.713 0 0 0-.8.7 7.911 7.911 0 0 0 1.9 5.2L.9 15A.778.778 0 0 0 2 16.1l1.2-1.2a8.179 8.179 0 0 0 5.3 1.9 8.381 8.381 0 0 0 5.3-1.9l1.2 1.2a.778.778 0 1 0 1.1-1.1c-.4-.4-.4-.4-1.3-1.2zm-6.3-.3a4.951 4.951 0 0 0 5-5 4.951 4.951 0 0 0-5-5A.472.472 0 0 0 8 4a.472.472 0 0 0 .5.5 4 4 0 1 1-4 4A.472.472 0 0 0 4 8a.472.472 0 0 0-.5.5 4.951 4.951 0 0 0 5 5z"/></svg>