<svg xmlns="http://www.w3.org/2000/svg" width="17" height="17" viewBox="0 0 17 17">
  <path fill="none" d="M0 0h17v17H0z"/>
  <path fill="#828282" d="M16 8.5a2.50089 2.50089 0 0 0-2-2.45V5h.5A1.5 1.5 0 1 0 13 3.5V4h-1.08533a1.5 1.5 0 1 0-2.82934 0H7.91467a1.5 1.5 0 1 0-2.82934 0H4v-.5A1.5 1.5 0 1 0 2.5 5H3v1.05a2.50064 2.50064 0 0 0 0 4.9V12h-.5A1.5 1.5 0 1 0 4 13.5V13h1.08533a1.5 1.5 0 1 0 2.82935 0h1.17065a1.5 1.5 0 1 0 2.82935 0H13v.5a1.5 1.5 0 1 0 1.5-1.5H14v-1.05a2.50089 2.50089 0 0 0 2-2.45zm-1 0a1.48916 1.48916 0 0 1-1 1.3916V7.1084A1.48916 1.48916 0 0 1 15 8.5zm-1-5a.5.5 0 1 1 .5.5H14v-.5zm-3.9718.16681a.5.5 0 1 1 .9436 0L10.85406 4h-.70812zm-4 0a.5.5 0 1 1 .9436 0L6.85406 4h-.70812zM2.5 4a.5.5 0 1 1 .5-.5V4h-.5zM2 8.5a1.48916 1.48916 0 0 1 1-1.3916v2.7832A1.48916 1.48916 0 0 1 2 8.5zm1 5a.5.5 0 1 1-.5-.5H3v.5zm3.9718-.16681a.5.5 0 1 1-.9436 0L6.14594 13h.70812zm4 0a.5.5 0 1 1-.9436 0L10.14594 13h.70813zM4 12V5h9v7H4zm10.5 1a.5.5 0 1 1-.5.5V13h.5z"/>
</svg>
