<svg xmlns="http://www.w3.org/2000/svg" width="17" height="17" viewBox="0 0 17 17"><g fill="#828282"><path d="M8.5 10a12.557 12.557 0 0 0 5.637-1.19L15 8.25V4.5C15 2.97 12.089 2 8.5 2S2 2.97 2 4.5v9.306h.043C2.405 15.157 5.157 16 8.5 16a17.485 17.485 0 0 0 2.5-.171v-1.016A16.12 16.12 0 0 1 8.5 15a13.515 13.515 0 0 1-4.085-.56C3.483 14.129 3 13.748 3 13.5v-1.607A11.422 11.422 0 0 0 8.5 13a17.485 17.485 0 0 0 2.5-.171v-1.016A16.12 16.12 0 0 1 8.5 12a13.515 13.515 0 0 1-4.085-.56C3.483 11.129 3 10.748 3 10.5V8.893A11.422 11.422 0 0 0 8.5 10zM4.415 3.56A13.515 13.515 0 0 1 8.5 3a13.515 13.515 0 0 1 4.085.56c.932.311 1.415.692 1.415.94s-.483.629-1.415.94A13.515 13.515 0 0 1 8.5 6a13.515 13.515 0 0 1-4.085-.56C3.483 5.129 3 4.748 3 4.5s.483-.629 1.415-.94zM3 5.893A11.422 11.422 0 0 0 8.5 7 11.422 11.422 0 0 0 14 5.893V7.5c0 .248-.483.629-1.415.94A13.515 13.515 0 0 1 8.5 9a13.515 13.515 0 0 1-4.085-.56C3.483 8.129 3 7.748 3 7.5V5.893z"/><path d="M16.174 12.706L12.8 10.168c-.441-.332-.799-.15-.799.408v5.022c0 .568.373.761.832.456l3.309-2.195a.662.662 0 0 0 .033-1.153z"/></g></svg>