<svg xmlns="http://www.w3.org/2000/svg" width="11" height="13" viewBox="0 0 11 13">
	<path fill="#9A4CBD" d="M10,6 L10,3.99994 C9.84898573,1.73478735 7.95759711,-0.0195178104 5.6875,3.77763142e-16 L5.35419,3.77763142e-16 C3.07552679,-0.0223699237 1.17061319,1.72756293 1,3.99994 L1,6 L8.46897422e-17,6 L8.46897422e-17,10.99408 C-0.00380017589,11.5248264 0.204402726,12.0351359 0.578397733,12.4117443 C0.95239274,12.7883528 1.46123999,13.0001042 1.992,13 L9.008,13 C10.1107631,12.9932164 11.0008957,12.0968636 11,10.99408 L11,6 L10,6 Z M7.99978792,5.99978792 L3,5.99978792 L3,4.49989396 C3,3.11924065 4.11924065,2 5.49989396,2 C6.88054727,2 7.99978792,3.11924065 7.99978792,4.49989396 L7.99978792,5.99978792 Z M4,9 L4,8 L7,8 L7,9 L6,9 L6,11 L5,11 L5,9 L4,9 Z"/>
</svg>
