<svg xmlns="http://www.w3.org/2000/svg" width="17" height="17" viewBox="0 0 17 17"><path fill="#b1b1b1" d="M8 14h1v1H8v-1zm4.987-5H8V4h1v4h3.987v1zM2 8h1v1H2V8zm12 0h1v1h-1V8zM9 2v1H8V2h1z"/><path fill="#828282" d="M8.597 1.001a7.501 7.501 0 0 1 3.072.7 7.57 7.57 0 0 1 3.51 3.385 7.475 7.475 0 0 1 .748 4.462 7.488 7.488 0 0 1-2.253 4.38 7.536 7.536 0 0 1-2.34 1.517 7.5 7.5 0 0 1-8.008-1.517 7.488 7.488 0 0 1-2.253-4.38 7.475 7.475 0 0 1 .748-4.462 7.57 7.57 0 0 1 3.51-3.385 7.501 7.501 0 0 1 3.072-.7h.194zm-.181 1a6.499 6.499 0 0 0-2.661.606 6.562 6.562 0 0 0-2.97 2.796A6.49 6.49 0 0 0 3.96 13.15a6.483 6.483 0 0 0 4.456 1.849 6.498 6.498 0 0 0 2.466-.45 6.54 6.54 0 0 0 3.442-3.162 6.46 6.46 0 0 0 .601-1.897 6.54 6.54 0 0 0-.027-2.14 6.451 6.451 0 0 0-.609-1.808 6.564 6.564 0 0 0-2.902-2.866 6.412 6.412 0 0 0-2.636-.671 7.466 7.466 0 0 0-.335-.004z"/></svg>