<svg xmlns="http://www.w3.org/2000/svg" width="17" height="17" viewBox="0 0 17 17">
  <path fill="none" d="M0 0h17v17H0z"/>
  <path fill="#828282" d="M15.17944 3H2.52667L2.2384 1.88751a.5.5 0 0 0-.484-.37457H.90405a.5.5 0 0 0-.5.5.98478.98478 0 0 0 .58655.843l.46191-.00574.28315 1.08736c.00232.00964.18048.693.18048.693.00165.00644 2.26033 7.83611 2.26033 7.83611a.18107.18107 0 0 0 .144.11671A1.495 1.495 0 1 0 6.9082 14h2.1836a1.5 1.5 0 1 0 0-1H6.9082a1.47011 1.47011 0 0 0-1.77448-.94971L4.79425 11h8.76019a1.26879 1.26879 0 0 0 1.20386-.981l1.22186-6.038A.78156.78156 0 0 0 15.17944 3zM10.5 13a.5.5 0 1 1-.5.5.50057.50057 0 0 1 .5-.5zm-5 0a.5.5 0 1 1-.5.5.50057.50057 0 0 1 .5-.5zm9.25256-7.99475H9l.20831 1h5.34192L14.34894 7h-3.97248l.26935 1h3.50079l-.3684 1.82068A.2807.2807 0 0 1 13.55444 10H4.671a.389.389 0 0 1-.25317-.16486s-.04265-.08414-.06804-.12194L2.8186 4.12665 2.78577 4H14.956z"/>
</svg>
