<svg xmlns="http://www.w3.org/2000/svg" width="17" height="17" viewBox="0 0 17 17"><path fill="#afafaf" d="M10 5V2H9v4h4V5h-3z"/><path fill="#828282" d="M3 12.994V3.006A.997.997 0 0 1 3.998 2H9.58L13 5.49V8h1V5.082L10 1H3.998A1.997 1.997 0 0 0 2 3.006v9.988A2.007 2.007 0 0 0 4.009 15H6v-1H4.009A1.007 1.007 0 0 1 3 12.994z"/><path fill="#828282" d="M5 7h6v1H5zM5 9h4v1H5zM16.796 13.527L12.47 9.202a.694.694 0 0 0-.98 0l-4.324 4.325c-.27.27.865.47.865.47H10v2.006h4v-2.005h1.996s1.068-.203.8-.471z"/></svg>