<svg xmlns="http://www.w3.org/2000/svg" width="17" height="17" viewBox="0 0 17 17"><path fill="#777" d="M7.646 1.646L4.5 4.793 3.109 3.402a.5.5 0 0 0-.707.707l1.744 1.745a.5.5 0 0 0 .708 0l3.5-3.5a.5.5 0 0 0-.708-.708zm8.708 8a.5.5 0 0 0-.708 0L12.5 12.793l-1.395-1.395a.5.5 0 0 0-.707.707l1.748 1.749a.5.5 0 0 0 .708 0l3.5-3.5a.5.5 0 0 0 0-.708z"/><path fill="#828282" d="M14.51 1h-4.02A1.496 1.496 0 0 0 9 2.49v4.02A1.496 1.496 0 0 0 10.49 8h4.02A1.496 1.496 0 0 0 16 6.51V2.49A1.496 1.496 0 0 0 14.51 1zM15 6.51a.496.496 0 0 1-.49.49h-4.02a.496.496 0 0 1-.49-.49V2.49a.496.496 0 0 1 .49-.49h4.02a.496.496 0 0 1 .49.49zM6.51 9H2.49A1.496 1.496 0 0 0 1 10.49v4.02A1.496 1.496 0 0 0 2.49 16h4.02A1.496 1.496 0 0 0 8 14.51v-4.02A1.496 1.496 0 0 0 6.51 9zM7 14.51a.496.496 0 0 1-.49.49H2.49a.496.496 0 0 1-.49-.49v-4.02a.496.496 0 0 1 .49-.49h4.02a.496.496 0 0 1 .49.49zM7.5 4.5A.5.5 0 0 0 7 5v1.498A.502.502 0 0 1 6.51 7H2.49A.496.496 0 0 1 2 6.51V2.49A.5.5 0 0 1 2.494 2H5a.5.5 0 0 0 0-1H2.494A1.5 1.5 0 0 0 1 2.49v4.02A1.496 1.496 0 0 0 2.49 8h4.02A1.501 1.501 0 0 0 8 6.498V5a.5.5 0 0 0-.5-.5zm8 8a.5.5 0 0 0-.5.5v1.498a.502.502 0 0 1-.49.502h-4.02a.496.496 0 0 1-.49-.49v-4.02a.5.5 0 0 1 .494-.49H13a.5.5 0 0 0 0-1h-2.506A1.5 1.5 0 0 0 9 10.49v4.02A1.496 1.496 0 0 0 10.49 16h4.02A1.501 1.501 0 0 0 16 14.498V13a.5.5 0 0 0-.5-.5z"/></svg>