<svg xmlns="http://www.w3.org/2000/svg" width="17" height="17" viewBox="0 0 17 17"><path fill="#828282" d="M15.967 6.469l-1.039-3.176a1.837 1.837 0 0 0-1.217-1.216L10.592.987a1.947 1.947 0 0 0-1.683.467L1.14 9.223a2.006 2.006 0 0 0 .001 2.838l3.752 3.858a2.004 2.004 0 0 0 2.838.002l7.77-7.77a1.957 1.957 0 0 0 .466-1.682zm-1.174.976l-7.77 7.769a1.004 1.004 0 0 1-1.423-.002l-3.751-3.858a1.006 1.006 0 0 1-.002-1.424l7.77-7.77a.98.98 0 0 1 .73-.203l3.035 1.064a.902.902 0 0 1 .577.517l1.057 3.241a1.044 1.044 0 0 1-.223.666z"/><path fill="#828282" d="M8.654 5.677l-4.981 4.786-.361.346.693.721.361-.346 4.98-4.786.361-.346-.693-.721-.36.346zM8.154 9.139l-3.008 3.007-.353.354.707.707.354-.353 3.007-3.008.354-.354-.707-.707-.354.354z"/><circle cx="11.5" cy="5.5" r="1" fill="#828282"/></svg>