<svg xmlns="http://www.w3.org/2000/svg" width="17" height="17" data-name="Layer 1" viewBox="0 0 17 17">
  <g data-name="ic ol hide">
    <path fill="none" d="M0 0h17v17H0z"/>
    <g fill="#797878">
      <path d="M3 8.5a4.06835 4.06835 0 0 1 1.64813-1.98883A7.395 7.395 0 0 1 9 5a7.02273 7.02273 0 0 1 2.63617.53284L12.395 4.774A8.09025 8.09025 0 0 0 9 4C5.134 4 2 7.05884 2 8.5c0 .91388 1.26025 2.47827 3.16827 3.50067l.74219-.74213a7.92391 7.92391 0 0 1-1.26233-.76971A4.06835 4.06835 0 0 1 3 8.5zM9 11a2.502 2.502 0 0 0 2.38873-3.23981l-3.12854 3.12854A2.49913 2.49913 0 0 0 9 11z"/>
      <path d="M10.59454 6.57446a2.50006 2.50006 0 0 0-3.52008 3.52008zm3.06379-1.08386l-.72119.72113q.213.13779.41632.28888A3.99269 3.99269 0 0 1 15 8.5a3.99269 3.99269 0 0 1-1.64655 1.99939A7.41579 7.41579 0 0 1 9 12a6.697 6.697 0 0 1-1.64191-.20923l-.80566.80573A7.80065 7.80065 0 0 0 9 13c3.866 0 7-3.02759 7-4.5 0-.79114-.90479-2.03119-2.34167-3.0094z"/>
    </g>
    <path fill="#828282" d="M1.9999946 14.0208142L14.02081 1.999999l.7071067.7071068L2.7071014 14.727921z"/>
  </g>
</svg>
