<svg xmlns="http://www.w3.org/2000/svg" width="17" height="17" data-name="Layer 1" viewBox="0 0 17 17">
  <g data-name="ic ol source">
    <path fill="none" d="M0 0h17v17H0z"/>
    <path fill="#555" d="M4.60925 4.4743a.74994.74994 0 0 0-1.04913.15582L.64752 8.55884a.75.75 0 0 0 .05591.96016l2.89307 3.0791a.75.75 0 0 0 1.0932-1.0271l-2.464-2.62238 2.53938-3.42518a.74994.74994 0 0 0-.15583-1.04914zm6.3772-2.64849a.75.75 0 0 0-.96179.4472L5.41223 14.90228a.75.75 0 1 0 1.40894.51453l4.61242-12.62927a.74992.74992 0 0 0-.44714-.96173zm5.31818 6.73046L13.392 4.62756a.75.75 0 0 0-1.205.89331l2.53937 3.42523-2.464 2.62238a.75.75 0 0 0 1.0932 1.0271l2.89307-3.0791a.74988.74988 0 0 0 .05599-.96021z"/>
  </g>
</svg>
