<svg xmlns="http://www.w3.org/2000/svg" width="17" height="17" data-name="Layer 1" viewBox="0 0 17 17">
  <g data-name="ic ol style">
    <path fill="none" d="M0 0h17v17H0z"/>
    <path fill="#979797" d="M10.21552 7.84131c-.01966-.01624-1.61252-1.31116-1.72876-1.31116-2.02887 0-3.44025.68646-4.1051 2.97528-.7254 2.49731-.963 3.58459-2.72321 4.49408-.39288.203-.17688.46136 0 .57849a9.50031 9.50031 0 0 0 4.05994.40564 11.40536 11.40536 0 0 0 2.65356-.40564c3.06976-.98315 3.54407-2.18414 3.82336-4.93994a18.76505 18.76505 0 0 0-1.97979-1.79675zm-2.633 5.92859a10.79621 10.79621 0 0 1-4.24744.1441 3.9272 3.9272 0 0 0 1.62213-2.37848c-.00921.04608.41822-1.55145.50116-1.8529A2.70628 2.70628 0 0 1 8.39325 7.746c.14966.12369 2.66975 2.24045 2.66975 2.24045-.18293 1.96069-.77778 2.91785-3.48048 3.78345z"/>
  </g>
  <path fill="#828282" d="M6.66364 9.4162c-.68036.96936-.23718 1.70593-.68036 2.58722a1.46163 1.46163 0 0 0 1.12781-1.16925 2.31069 2.31069 0 0 1 1.60315-1.5647L7.952 8.57526a3.13262 3.13262 0 0 0-1.28836.84094zm7.07269-8.08167l-3.7171 3.41119a1.35554 1.35554 0 0 0 .05182 2.075l1.71674 1.42688a1.29352 1.29352 0 0 0 2.00958-.37177l2.46887-4.49518zm-.81549 6.05988a.29773.29773 0 0 1-.49384.08417L10.71021 6.0517a.35726.35726 0 0 1-.01483-.56915L13.742 2.63861l1.29272 1.00781z"/>
</svg>
