<svg xmlns="http://www.w3.org/2000/svg" width="17" height="17" viewBox="0 0 17 17">
  <g fill="none" fill-rule="evenodd">
    <path d="M0 0h17v17H0z"/>
    <path fill="#65B641" d="M8.5 15c3.589851 0 6.5-2.910149 6.5-6.5S12.089851 2 8.5 2 2 4.910149 2 8.5 4.910149 15 8.5 15zm0 1C4.3578644 16 1 12.6421356 1 8.5S4.3578644 1 8.5 1 16 4.3578644 16 8.5 12.6421356 16 8.5 16z"/>
    <path fill="#65B641" d="M8.571646 4c.8252584 0 1.4860837.235635 1.9824955.706912.4964118.471277.744614 1.0734554.744614 1.806553 0 .4440477-.0911122.8043074-.2733393 1.08079-.1822272.2764825-.5498177.682822-1.1027828 1.2190305-.4021564.389589-.6629258.719478-.782316.9896768-.093312.21118-.1501586.5010442-.1705402.8695983C8.9640812 10.775561 8.9926515 11 8.6627808 11h-.6063953c-.105641-.147827-.2107556-.236587-.204978-.347807.0229084-.440997.091234-.8078536.204978-1.1005772.1424305-.3665488.454516-.7865027.9362658-1.2598743l.502693-.4964094c.1508087-.14243.2722916-.291142.3644525-.44614.167565-.272293.2513465-.555055.2513465-.848294 0-.4105347-.1225302-.7666054-.3675943-1.0682227-.245064-.3016172-.6503562-.4524236-1.2158887-.4524236-.6995846 0-1.1834217.2597222-1.451526.7791742-.1508087.28905-.2366845.705862-.2576302 1.2504487 0 0-.1545132.2404105-.351885.2404105h-.4445084l-.322098-.2404105c0-.904852.255533-1.6327022.7666067-2.1835727C6.977693 4.275431 7.6793615 4 8.571646 4zM8.5 13.5c.5522848 0 1-.4477153 1-1s-.4477152-1-1-1-1 .4477153-1 1 .4477152 1 1 1z"/>
  </g>
</svg>
