<svg xmlns="http://www.w3.org/2000/svg" width="17" height="17" data-name="Layer 1" viewBox="0 0 17 17">
  <g data-name="ic ol download">
    <path fill="none" d="M0 0h17v17H0z"/>
    <path fill="#828282" d="M13.52197 6.01221h-2.45246L11.06573 3H6.06994v3.01221l-2.38733-.02112a.53246.53246 0 0 0-.61.45563.707.707 0 0 0 .17462.47516l4.88446 5.09094a.694.694 0 0 0 .42694.13666 1.13119 1.13119 0 0 0 .44734-.12148l4.87531-5.09088a.779.779 0 0 0 .20386-.49036.49242.49242 0 0 0-.56317-.43455zm-4.94613 5.0191l-3.8676-4.03113 2.3617.02088V4h2.99707l.00383 3.01379s1.917-.00275 2.22577-.00305l.12964-.00006zM4.06884 13h9v1h-9z"/>
  </g>
</svg>
