<svg xmlns="http://www.w3.org/2000/svg" width="17" height="17" viewBox="0 0 17 17">
  <g fill="none" fill-rule="evenodd">
    <path d="M0 0h17v17H0z"/>
    <path fill="#828282" d="M5.155834 14.0955514c3.0771027 1.84891 7.070425.853263 8.919335-2.22384 1.8489097-3.0771027.8532627-7.070425-2.22384-8.919335-3.0771028-1.8489098-7.070425-.8532627-8.919335 2.22384-.7162985 1.192121-1.0056527 2.521759-.9124354 3.810944l.987497-.2508905c-.0409104-1.034186.209223-2.091579.7821057-3.045016 1.5644622-2.6037023 4.9434272-3.446173 7.5471295-1.8817107 2.6037024 1.5644622 3.446173 4.9434272 1.8817107 7.5471295-1.541675 2.5657783-4.8453798 3.4212575-7.4328718 1.9485422l-.917279.6070265c.0938617.0632173.1898643.1243535.2879832.1833093z"/>
    <path fill="#848484" d="M4.999939 8l-2.5 2.828427L-.000061 8h5zM9 5H8v3.6225586l2.749756 2.749756.7071067-.707107L9 8.2083452V5z"/>
  </g>
</svg>
