<svg xmlns="http://www.w3.org/2000/svg" width="17" height="17" viewBox="0 0 17 17"><path fill="#828282" d="M14 9.5A4.5 4.5 0 1 0 9.5 14 4.5 4.5 0 0 0 14 9.5zM9.5 13A3.5 3.5 0 1 1 13 9.5 3.5 3.5 0 0 1 9.5 13z"/><path fill="#828282" d="M14.001 5h-.586l-.745-1.108a2.108 2.108 0 0 0-1.564-.836h-3.13a2.248 2.248 0 0 0-1.6.813L5.544 5H5v-.5a.5.5 0 0 0-.5-.5h-1a.5.5 0 0 0-.5.5V5h.006A2.003 2.003 0 0 0 1 7v6a1.99 1.99 0 0 0 1.992 2h11.016A1.997 1.997 0 0 0 16 13V7a1.994 1.994 0 0 0-1.999-2zM15 13a.997.997 0 0 1-.992 1H2.992A.99.99 0 0 1 2 13V7a1.003 1.003 0 0 1 1.006-1H6.05l.3-.408.832-1.13a1.295 1.295 0 0 1 .794-.406h3.13a1.15 1.15 0 0 1 .734.394l.745 1.108.297.442h1.12A.994.994 0 0 1 15 7z"/><path fill="#828282" d="M9.5 6.5a3.003 3.003 0 0 0-3 3 .5.5 0 0 0 1 0 2.002 2.002 0 0 1 2-2 .5.5 0 0 0 0-1z"/></svg>