<svg xmlns="http://www.w3.org/2000/svg" width="17" height="17" viewBox="0 0 17 17"><path fill="#828282" d="M8.5 1A7.5 7.5 0 1 0 16 8.5 7.5 7.5 0 0 0 8.5 1zm0 14A6.5 6.5 0 1 1 15 8.5 6.5 6.5 0 0 1 8.5 15z"/><path fill="#828282" d="M12.428 5.357l-7.07 7.071a5.035 5.035 0 0 0 7.07-7.07zm-1.1 5.971a4.035 4.035 0 0 1-4.355.899l5.254-5.254a4.035 4.035 0 0 1-.899 4.355zM4.964 4.964a5.02 5.02 0 0 0-.392 6.679l7.07-7.071a5.02 5.02 0 0 0-6.678.392zm.708.708a4.035 4.035 0 0 1 4.355-.899l-5.254 5.254a4.035 4.035 0 0 1 .899-4.355z"/></svg>