<?xml version="1.0" encoding="UTF-8" standalone="no"?><!DOCTYPE svg PUBLIC "-//W3C//DTD SVG 1.1//EN" "http://www.w3.org/Graphics/SVG/1.1/DTD/svg11.dtd"><svg width="100%" height="100%" viewBox="0 0 17 17" version="1.1" xmlns="http://www.w3.org/2000/svg" xmlns:xlink="http://www.w3.org/1999/xlink" xml:space="preserve" style="fill-rule:evenodd;clip-rule:evenodd;stroke-linejoin:round;stroke-miterlimit:1.41421;"><g id="fills"><path d="M14,15l-11,0c-1.105,0 -2,-0.895 -2,-2l0,-10c0,-1.105 0.895,-2 2,-2l11,0c1.105,0 2,0.895 2,2l0,10c0,1.105 -0.895,2 -2,2Zm-11,-13c-0.552,0 -1,0.448 -1,1l0,10c0,0.552 0.448,1 1,1l11,0c0.552,0 1,-0.448 1,-1l0,-10c0,-0.552 -0.448,-1 -1,-1l-11,0Zm1,11l-1,0l0,-1l1,0l0,1Zm2,0l-1,0l0,-1l1,0l0,1Zm2,0l-1,0l0,-1l1,0l0,1Zm2,0l-1,0l0,-1l1,0l0,1Zm2,0l-1,0l0,-1l1,0l0,1Zm2,0l-1,0l0,-1l1,0l0,1Zm-6.439,-9.999c0.181,0.011 0.358,0.047 0.526,0.118c0.093,0.04 0.179,0.09 0.264,0.145c1.146,0.824 2.258,1.693 3.387,2.54c0.157,0.124 0.291,0.268 0.392,0.441c0.259,0.445 0.27,1.008 0.026,1.462c-0.095,0.179 -0.226,0.331 -0.381,0.46c-1.111,0.865 -2.253,1.692 -3.38,2.537c-0.183,0.13 -0.383,0.224 -0.604,0.268c-0.481,0.095 -0.991,-0.057 -1.341,-0.4c-0.112,-0.11 -0.206,-0.237 -0.279,-0.376c-0.104,-0.199 -0.156,-0.413 -0.17,-0.635c-0.034,-1.689 -0.001,-3.378 -0.001,-5.067c0.004,-0.15 0.023,-0.296 0.067,-0.44c0.13,-0.418 0.446,-0.766 0.849,-0.936c0.163,-0.069 0.332,-0.103 0.507,-0.116c0.069,-0.002 0.069,-0.002 0.138,-0.001Zm-0.087,1c-0.058,0.004 -0.114,0.015 -0.168,0.038c-0.178,0.075 -0.291,0.245 -0.305,0.435c-0.043,1.688 -0.102,3.381 0.001,5.066c0.007,0.074 0.028,0.145 0.065,0.209c0.101,0.177 0.305,0.275 0.507,0.246c0.074,-0.011 0.142,-0.04 0.205,-0.08c1.148,-0.817 2.301,-1.633 3.382,-2.537c0.046,-0.042 0.084,-0.088 0.114,-0.143c0.077,-0.144 0.077,-0.321 0.002,-0.466c-0.031,-0.059 -0.073,-0.109 -0.123,-0.153c-1.107,-0.875 -2.209,-1.762 -3.387,-2.539c-0.059,-0.035 -0.12,-0.058 -0.187,-0.07c-0.035,-0.005 -0.07,-0.007 -0.106,-0.006Z" style="fill:#838383;"/></g></svg>