<svg xmlns="http://www.w3.org/2000/svg" width="17" height="17" data-name="Layer 1" viewBox="0 0 17 17">
  <g data-name="ic ol link">
    <path fill="none" d="M0 0h17v17H0z"/>
    <g fill="#7498CF">
      <path d="M13.63953 4.002l-.72083-.69615a1.99432 1.99432 0 0 0-2.82416.04688L8.282 5.22968l.7193.69464 1.8125-1.87689a.99432.99432 0 0 1 1.41022-.02222l.72083.69611a.99577.99577 0 0 1 .027 1.4101l-2.81523 2.91521-2.73621-.03058-.017.983 3.17059.05495 3.11725-3.228a1.99575 1.99575 0 0 0-.05172-2.824z"/>
      <path d="M6.21143 12.95978a.99436.99436 0 0 1-1.41016.02222l-.72083-.69611a.99582.99582 0 0 1-.027-1.4101l2.81521-2.91528 2.73627.03058.017-.983-3.17059-.055-3.11725 3.228a1.9958 1.9958 0 0 0 .05164 2.8241l.72089.69611a1.99432 1.99432 0 0 0 2.82416-.04694l1.8125-1.87689-.71936-.69464z"/>
    </g>
  </g>
</svg>
