<svg id="Layer_1" data-name="Layer 1" xmlns="http://www.w3.org/2000/svg" width="17" height="17" viewBox="0 0 17 17">
<rect id="Bg" width="17" height="17" style="fill: #d8d8d8;fill-opacity: 0"/>
<path id="Shape" d="M6.58245,2.14893a2.16936,2.16936,0,0,1,3.84036-.00242l6.17185,9.62761A1.97734,1.97734,0,0,1,14.82959,15H2.22291A1.981,1.981,0,0,1,.44948,11.77654Z" style="fill: #fbb017"/>
<path id="_" data-name="!" d="M8,4.491a0.50008,0.50008,0,0,1,1,0V9.509a0.50008,0.50008,0,0,1-1,0V4.491ZM8.5,13a1,1,0,1,0-1-1A1,1,0,0,0,8.5,13Z" style="fill: #fff"/>
</svg>
