<svg xmlns="http://www.w3.org/2000/svg" width="17" height="17" data-name="Layer 1" viewBox="0 0 17 17">
  <g data-name="ic ol dataquery-copy-2">
    <path fill="none" d="M0 0h17v17H0z"/>
    <path fill="#828282" d="M15 4.5C15 2.97046 12.08856 2 8.5 2S2 2.97046 2 4.5v8C2 14.02954 4.91144 15 8.5 15s6.5-.97046 6.5-2.5v-8zM4.41547 3.56012A13.5149 13.5149 0 0 1 8.5 3a13.5149 13.5149 0 0 1 4.08453.56012C13.517 3.871 14 4.25159 14 4.5s-.483.629-1.41547.93988A13.5149 13.5149 0 0 1 8.5 6a13.5149 13.5149 0 0 1-4.08453-.56012C3.483 5.129 3 4.74841 3 4.5s.483-.629 1.41547-.93988zm8.16907 9.87976A13.5149 13.5149 0 0 1 8.5 14a13.5149 13.5149 0 0 1-4.08453-.56012C3.483 13.129 3 12.74841 3 12.5V9.89349A11.42192 11.42192 0 0 0 8.5 11 11.42192 11.42192 0 0 0 14 9.89349V12.5c0 .24841-.483.629-1.41547.93988zm0-4A13.5149 13.5149 0 0 1 8.5 10a13.5149 13.5149 0 0 1-4.08453-.56012C3.483 9.129 3 8.74841 3 8.5V5.89349A11.42192 11.42192 0 0 0 8.5 7 11.42192 11.42192 0 0 0 14 5.89349V8.5c0 .24841-.483.629-1.41547.93988z"/>
  </g>
</svg>
