<svg xmlns="http://www.w3.org/2000/svg" width="17" height="17" data-name="Layer 1" viewBox="0 0 17 17">
  <g data-name="ic ol">
    <path fill="none" d="M0 0h17v17H0z"/>
    <path fill="#979797" d="M11 5.15308V2.485c0-1.65741-.977-2.0741-2.18225-.93433L6.17053 4H2V3H1v1H.78119S0 4.95416 0 7.5.78119 11 .78119 11H2.5l.90289 4.02191a1.314 1.314 0 0 0 1.22009.9754h1.42585L4.927 11h1.48126l2.46033 2.41626C10.04968 14.58228 11 14.17822 11 12.5224V9.84692A2.74008 2.74008 0 0 0 12 7.5a2.74008 2.74008 0 0 0-1-2.34692zm-1 7.36932c0 .77161-.08044.51013-.42883.18225L6.81873 10H1.37579A6.51646 6.51646 0 0 1 1 7.5a9.54955 9.54955 0 0 1 .38293-2.506C1.37579 5 6.56848 5 6.56848 5l2.9364-2.72272C9.81018 1.97 10 1.70728 10 2.485v10.0374zm3.39069-7.14832l2.25012-1.95886a.5.5 0 0 0-.65662-.75427l-2.25012 1.95886a.5.5 0 0 0 .65662.75427zM16.19458 7H13.5a.5.5 0 0 0 0 1h2.69458a.5.5 0 0 0 0-1zm-2.80389 2.66095a.5.5 0 0 0-.65662.75427l2.25012 1.95886a.5.5 0 1 0 .65662-.75427z"/>
  </g>
</svg>
