<svg xmlns="http://www.w3.org/2000/svg" width="17" height="17" viewBox="0 0 17 17"><path fill="#838383" d="M15.1 10l-1.2-.7a1.95 1.95 0 0 0 .1-.8 1.95 1.95 0 0 0-.1-.8l1.2-.7a1.107 1.107 0 0 0 .4-1.4l-1-1.7a1.107 1.107 0 0 0-1.4-.4l-1.2.7a6.376 6.376 0 0 0-1.4-.8V2a1.002 1.002 0 0 0-1-1h-2a1.002 1.002 0 0 0-1 1v1.4a6.376 6.376 0 0 0-1.4.8l-1.2-.7a1.012 1.012 0 0 0-1.4.4l-1 1.7A1.012 1.012 0 0 0 1.9 7l1.2.7a1.95 1.95 0 0 0-.1.8 1.95 1.95 0 0 0 .1.8l-1.2.7a1.107 1.107 0 0 0-.4 1.4l1 1.7a1.107 1.107 0 0 0 1.4.4l1.2-.7a6.376 6.376 0 0 0 1.4.8V15a1.002 1.002 0 0 0 1 1h2a1.002 1.002 0 0 0 1-1v-1.4a6.376 6.376 0 0 0 1.4-.8l1.2.7a1.012 1.012 0 0 0 1.4-.4l1-1.7a1.012 1.012 0 0 0-.4-1.4zm-1.5 2.6l-1.2-.7-.6-.3-.5.4a7.459 7.459 0 0 1-1.2.7l-.6.2V15h-2v-2.1l-.6-.2a3.458 3.458 0 0 1-1.2-.7l-.5-.4-.6.3-1.2.7-1-1.7 1.2-.7.6-.3-.1-.7a1.702 1.702 0 0 1-.1-.7 1.702 1.702 0 0 1 .1-.7l.1-.7-.6-.3-1.2-.7 1-1.7 1.2.7.6.3.5-.4a3.458 3.458 0 0 1 1.2-.7l.6-.2V2h2v2.1l.6.2a3.458 3.458 0 0 1 1.2.7l.5.4.6-.3 1.2-.7 1 1.7-1.2.7-.6.3.1.7a1.702 1.702 0 0 1 .1.7 1.702 1.702 0 0 1-.1.7l-.1.7.6.3 1.2.7zM8.5 6A2.5 2.5 0 1 0 11 8.5 2.476 2.476 0 0 0 8.5 6zm0 4A1.5 1.5 0 1 1 10 8.5 1.538 1.538 0 0 1 8.5 10z"/></svg>