<svg xmlns="http://www.w3.org/2000/svg" width="17" height="17" data-name="Layer 3" viewBox="0 0 17 17">
  <path fill="none" d="M0 0h17v17H0z"/>
  <path fill="#989898" d="M4 3h1v1.39063H4zm0 3.54688h1v8.45313H4zM8 12.625h1V15H8zM8 3h1v7.59375H8zm4 0h1v3.28125h-1zm0 5.78125h1V15h-1z"/>
  <path fill="#828282" d="M7 6.001V4.999A.99648.99648 0 0 0 6.00018 4H2.99982A.99691.99691 0 0 0 2 4.999v1.002A.99648.99648 0 0 0 2.99982 7h3.00036A.99691.99691 0 0 0 7 6.001zM6 6H3V5h3v1zm4.00018 4H6.99982A.99691.99691 0 0 0 6 10.999v1.002a.99648.99648 0 0 0 .99982.999h3.00037A.99691.99691 0 0 0 11 12.001v-1.002a.99648.99648 0 0 0-.99982-.999zM10 11v1H7v-1h3zm4.00018-5h-3.00036A.99691.99691 0 0 0 10 6.999v1.002a.99648.99648 0 0 0 .99982.999h3.00037A.99691.99691 0 0 0 15 8.001V6.999A.99648.99648 0 0 0 14.00018 6zM14 7v1h-3V7h3z"/>
</svg>
