<svg xmlns="http://www.w3.org/2000/svg" width="17" height="17" viewBox="0 0 17 17">
  <path fill="none" d="M0 0h17v17H0z"/>
  <g fill="#828282">
    <path d="M14.0014 5h-.58661l-.74517-1.10846a2.1084 2.1084 0 0 0-1.564-.83588H7.97614a2.24818 2.24818 0 0 0-1.6.81329L5.54443 5h-.14984v-.37531a.569.569 0 0 0-.56909-.569h-.86188a.569.569 0 0 0-.569.569V5h-.38815A2.00274 2.00274 0 0 0 1 6.99963v6.00073A1.99078 1.99078 0 0 0 2.99188 15h11.01624A1.99678 1.99678 0 0 0 16 13.00037V6.99963A1.99411 1.99411 0 0 0 14.0014 5zM15 13.00037A.99678.99678 0 0 1 14.00812 14H2.99188A.9908.9908 0 0 1 2 13.00037V6.99963A1.00278 1.00278 0 0 1 3.00647 6h3.04388l.29975-.40759.83167-1.131a1.29548 1.29548 0 0 1 .79437-.4057h3.12952a1.14983 1.14983 0 0 1 .73407.3938l.74517 1.10841L12.88208 6h1.11932A.99417.99417 0 0 1 15 6.99963v6.00073z"/>
    <path d="M14 9.5A4.5 4.5 0 1 0 9.5 14 4.5 4.5 0 0 0 14 9.5zM9.5 13A3.5 3.5 0 1 1 13 9.5 3.5 3.5 0 0 1 9.5 13z"/>
    <path d="M7 9.5a2.49311 2.49311 0 0 0 .28168 1.15344l.887-.46173a1.50052 1.50052 0 0 1 2.03851-2.01489l.47211-.88153A2.50048 2.50048 0 0 0 7 9.5z"/>
  </g>
</svg>
