<svg xmlns="http://www.w3.org/2000/svg" width="17" height="17" data-name="Layer 1" viewBox="0 0 17 17">
  <g data-name="ic ol comment">
    <path fill="none" d="M0 0h17v17H0z"/>
    <g fill="#838383">
      <path d="M12.99725 3h-8.9945A1.9981 1.9981 0 0 0 2 4.99738v5.00525A2.00111 2.00111 0 0 0 4.00275 12H5v3l4.2-3h3.79724A1.9981 1.9981 0 0 0 15 10.00262V4.99738A2.00111 2.00111 0 0 0 12.99725 3zM14 10.00262A.99806.99806 0 0 1 12.99725 11H8.87952l-.26074.18628L6 13.05682V11H4.00275A1.0011 1.0011 0 0 1 3 10.00262V4.99738A.99806.99806 0 0 1 4.00275 4h8.99451A1.0011 1.0011 0 0 1 14 4.99738v5.00525z"/>
      <path d="M5 8h6v1H5zm0-2h7v1H5z"/>
    </g>
  </g>
</svg>
