<svg xmlns="http://www.w3.org/2000/svg" width="17" height="17" data-name="Layer 1" viewBox="0 0 17 17">
  <g data-name="ic ol dataquery-copy">
    <path fill="none" d="M0 0h17v17H0z"/>
    <path fill="#828282" d="M15 4.5C15 2.97046 12.08856 2 8.5 2S2 2.97046 2 4.5v8.80573l.043.5C2.40479 15.15735 5.15723 16 8.5 16s6.09521-.84265 6.457-2.19427l.043-.5V4.5zM4.41547 3.56012A13.5149 13.5149 0 0 1 8.5 3a13.5149 13.5149 0 0 1 4.08453.56012C13.517 3.871 14 4.25159 14 4.5s-.483.629-1.41547.93988A13.5149 13.5149 0 0 1 8.5 6a13.5149 13.5149 0 0 1-4.08453-.56012C3.483 5.129 3 4.74841 3 4.5s.483-.629 1.41547-.93988zm8.16907 10.87976A13.5149 13.5149 0 0 1 8.5 15a13.5149 13.5149 0 0 1-4.08453-.56012C3.483 14.129 3 13.74841 3 13.5v-1.60651A11.42192 11.42192 0 0 0 8.5 13a11.42192 11.42192 0 0 0 5.5-1.10651V13.5c0 .24841-.483.629-1.41547.93988zm0-3A13.5149 13.5149 0 0 1 8.5 12a13.5149 13.5149 0 0 1-4.08453-.56012C3.483 11.129 3 10.74841 3 10.5V8.89349A11.42192 11.42192 0 0 0 8.5 10 11.42192 11.42192 0 0 0 14 8.89349V10.5c0 .24841-.483.629-1.41547.93988zm0-3A13.5149 13.5149 0 0 1 8.5 9a13.5149 13.5149 0 0 1-4.08453-.56012C3.483 8.129 3 7.74841 3 7.5V5.89349A11.42192 11.42192 0 0 0 8.5 7 11.42192 11.42192 0 0 0 14 5.89349V7.5c0 .24841-.483.629-1.41547.93988z"/>
  </g>
</svg>
