<svg xmlns="http://www.w3.org/2000/svg" width="17" height="17" viewBox="0 0 17 17">
  <path fill="none" d="M0 0h17v17H0z"/>
  <g fill="#828282">
    <path d="M12.99725 2h-8.9945A2.001 2.001 0 0 0 2 4.00311v3.96271C2 13.01721 8.52 16 8.52 16S15 12.80322 15 7.96582V4.00311A2.00057 2.00057 0 0 0 12.99725 2zM3 6.73871v-2.7356A1.001 1.001 0 0 1 4.00275 3h7.29193L3.735 10.598A5.31371 5.31371 0 0 1 3 7.96582V6.73871zm1.30133 4.70789L12.70532 3h.29193A1.00061 1.00061 0 0 1 14 4.00311v.2898l-8.47559 8.47552a10.12782 10.12782 0 0 1-1.22308-1.32184zm6.80377 1.5946a16.296 16.296 0 0 1-2.09814 1.533c-.192.11859-.35583.21405-.50269.29761-.14465-.07776-.309-.16907-.497-.2793a15.48726 15.48726 0 0 1-1.71259-1.18l.0589-.0589L14 5.70715v2.25867c0 1.76978-1.06757 3.49182-2.8949 5.07538z"/>
    <path d="M4 4h1v1H4zm2 0h1v1H6z"/>
  </g>
</svg>
