<svg xmlns="http://www.w3.org/2000/svg" width="17" height="17" data-name="Layer 1" viewBox="0 0 17 17">
  <g data-name="ic ol show">
    <path fill="none" d="M0 0h17v17H0z"/>
    <g fill="#797878">
      <path d="M8.99988 8.6272l.6153-2.551a2.49739 2.49739 0 1 0 1.78131 1.70953c-.75428.26487-2.39661.84147-2.39661.84147z"/>
      <path d="M9 4C5.134 4 2 7.05884 2 8.5S5.134 13 9 13s7-3.02759 7-4.5S12.866 4 9 4zm4.35345 6.49939A7.41579 7.41579 0 0 1 9 12a7.395 7.395 0 0 1-4.35187-1.51117A4.06835 4.06835 0 0 1 3 8.5a4.06835 4.06835 0 0 1 1.64813-1.98883A7.395 7.395 0 0 1 9 5a7.41579 7.41579 0 0 1 4.35345 1.50061A3.99269 3.99269 0 0 1 15 8.5a3.99269 3.99269 0 0 1-1.64655 1.99939z"/>
    </g>
  </g>
</svg>
