<svg xmlns="http://www.w3.org/2000/svg" width="17" height="17" viewBox="0 0 17 17">
  <path fill="none" d="M0 0h17v17H0z"/>
  <path fill="#ffffff" d="M8.47034 2.99213a2.34862 2.34862 0 0 1 2.45173 2.26859c.19932.00867.33481.15886.25547.614a1.43356 1.43356 0 0 1-.39717.73224 3.66453 3.66453 0 0 1-1.36872 1.72892 5.18177 5.18177 0 0 0 0 2.05929c1.95212.43437 3.00095.222 3.654 1.34616a2.06908 2.06908 0 0 1 .35742 1.06507s-1.05835 1.18908-4.95275 1.18908-5.01571-1.18908-5.01571-1.18908a1.9206 1.9206 0 0 1 .209-1.06507c.65307-1.12418 1.89943-.91179 3.85154-1.34616a5.18157 5.18157 0 0 0 0-2.05929A4.45636 4.45636 0 0 1 6.14638 6.607a1.43348 1.43348 0 0 1-.39716-.73224c-.07935-.45517.05615-.60536.25547-.614a2.36318 2.36318 0 0 1 2.46565-2.26863m0-1a3.31557 3.31557 0 0 0-3.3898 2.6683q-.02957.032-.05714.06622a1.58953 1.58953 0 0 0-.25932 1.31984 2.37167 2.37167 0 0 0 .52823 1.10713A5.50485 5.50485 0 0 0 6.6061 8.88427a3.877 3.877 0 0 1 .00949.66713c-.24292.041-.47592.07488-.70482.10817-1.23258.17922-2.3968.3485-3.11189 1.57944a2.86526 2.86526 0 0 0-.34427 1.56739v.39714l.27247.28893c.23668.251 1.62591 1.503 5.74326 1.503 4.13369 0 5.47318-1.2697 5.69973-1.52423l.253-.28428v-.38056a3.0335 3.0335 0 0 0-.49274-1.5674c-.71918-1.238-1.82121-1.40656-2.98794-1.58506-.19713-.03016-.40769-.06237-.63139-.10109a3.93319 3.93319 0 0 1 .00785-.652A4.55986 4.55986 0 0 0 11.6596 7.1232a2.3622 2.3622 0 0 0 .50308-1.07672 1.58958 1.58958 0 0 0-.25933-1.31985q-.02743-.0341-.05687-.06592a3.30617 3.30617 0 0 0-3.37614-2.66858z"/>
</svg>
