<svg xmlns="http://www.w3.org/2000/svg" width="17" height="17" viewBox="0 0 17 17">
  <title>ic_ol_targetmap</title>
  <g>
    <rect width="17" height="17" style="fill: #ccc;fill-opacity: 0"/>
    <g>
      <path d="M8.5,6A2.5,2.5,0,1,0,11,8.5,2.5,2.5,0,0,0,8.5,6Zm0,3A0.5,0.5,0,1,1,9,8.5,0.50057,0.50057,0,0,1,8.5,9Z" style="fill: #828282"/>
      <path d="M14.47467,8A6.00322,6.00322,0,0,0,9,2.52533V1H8V2.52533A6.00322,6.00322,0,0,0,2.52533,8H1V9H2.52533A6.00322,6.00322,0,0,0,8,14.47467V16H9V14.47467A6.00322,6.00322,0,0,0,14.47467,9H16V8H14.47467ZM8.5,13.5a5,5,0,1,1,5-5A5.00589,5.00589,0,0,1,8.5,13.5Z" style="fill: #828282"/>
    </g>
  </g>
</svg>
