<svg xmlns="http://www.w3.org/2000/svg" width="17" height="17" data-name="Layer 1" viewBox="0 0 17 17">
  <path fill="none" d="M0 0h17v17H0V0z"/>
  <path fill="#9a4cbd" d="M15.45343 10.177l-1.22723-.7085q.02252-.23135.0227-.4685 0-.23694-.02271-.46851l1.22723-.70856a.99681.99681 0 0 0 .382-1.357L15.83 6.45648l-1.10443-1.913a1.00482 1.00482 0 0 0-1.3717-.35712l-1.29675.74864a5.31937 5.31937 0 0 0-.95752-.519V3.00934a.99688.99688 0 0 0-.98434-1.00926L10.10443 2H7.89557a1.00477 1.00477 0 0 0-.99512 1.00934V4.416a5.31937 5.31937 0 0 0-.95752.519l-1.29675-.7486a1.00482 1.00482 0 0 0-1.3717.35712L2.17 6.45648a.99681.99681 0 0 0 .36705 1.36108l.00948.00538 1.22727.70855Q3.75128 8.76285 3.7511 9q0 .23694.02271.46851l-1.22723.7085a.9969.9969 0 0 0-.38192 1.35711l.00534.0094 1.10443 1.913a1.00482 1.00482 0 0 0 1.3717.35712l1.29675-.74864a5.31937 5.31937 0 0 0 .95752.519v1.4066a.99689.99689 0 0 0 .9843 1.00932L7.89557 16h2.20886a1.00478 1.00478 0 0 0 .99512-1.0094V13.584a5.31937 5.31937 0 0 0 .95752-.519l1.29675.74866a1.00482 1.00482 0 0 0 1.3717-.35712l1.10443-1.913a.9969.9969 0 0 0-.36711-1.36119zm-1.59393 2.77948c.00391-.00677-.00012-.00574-.00568-.00891l-1.29675-.74866-.54492-.31464-.51941.3551a4.316 4.316 0 0 1-.7774.42133l-.61578.25629v2.07361c0 .00641-.00293.0094.00488.0094H7.89557c.00165 0 .00488.00323.00488-.0094V12.917l-.61578-.25629a4.316 4.316 0 0 1-.7774-.42133l-.51941-.3551-.54492.31464-1.29675.74866c-.00555.00317-.00958.00214-.00568.00891l-1.10443-1.913c.00079.0014-.00043.00586.0105-.00049l1.22723-.7085.5578-.32208-.06251-.64102Q4.75107 9.18719 4.7511 9q0-.187.018-.3714l.0625-.641-.5578-.32213L3.04657 6.957c-.01093-.00635-.0097-.00189-.0105-.00049l1.10443-1.913c-.0039.00678.00013.00575.00568.00892l1.29675.74866.54492.31463.51941-.3551a4.316 4.316 0 0 1 .7774-.42133l.61579-.25629V3.00934C7.90045 3.003 7.90338 3 7.89557 3h2.20886c-.00165 0-.00488-.00323-.00488.00934V5.083l.61578.25629a4.316 4.316 0 0 1 .7774.42133l.51941.3551.54492-.31464 1.29675-.74866c.00555-.00317.00958-.00214.00568-.00891l1.10443 1.913c-.00079-.0014.00043-.00586-.0105.00049l-1.22723.7085-.5578.32208.06251.641q.018.1842.018.3714 0 .187-.018.3714l-.0625.64105.5578.32208 1.22723.7085c.01093.00635.0097.00189.0105.00049z"/>
  <path fill="#9a4cbd" d="M9 7a2 2 0 1 0 2 2 2 2 0 0 0-2-2zm0 3a1 1 0 1 1 1-1 1 1 0 0 1-1 1z"/>
</svg>
