<svg xmlns="http://www.w3.org/2000/svg" width="17" height="17" data-name="Layer 1" viewBox="0 0 17 17">
  <g data-name="ic ol reload">
    <path fill="none" d="M0 0h17v17H0z"/>
    <path fill="#ffffff" d="M14.62762 3.38452l-1.6283 1.61786A6.41906 6.41906 0 1 0 7.93506 15.344a6.43726 6.43726 0 0 0 4.454-1.77869.68818.68818 0 0 0 .02063-.97742.699.699 0 0 0-.98376-.02045 5.0096 5.0096 0 1 1 .58032-6.57837l-1.67764 1.66681c-.1994.19812-.14532.35876.13873.35876H14.489a.49316.49316 0 0 0 .49982-.49658V3.52228c-.00005-.27428-.15582-.3418-.3612-.13776z"/>
  </g>
</svg>
