<svg xmlns="http://www.w3.org/2000/svg" width="17" height="17" viewBox="0 0 17 17"><path d="M12.5,9v1h1.56592A6.57966,6.57966,0,0,1,10.836,13.58154L9.33661,6H11V5H9.13885l-.11438-.57831A2.00166,2.00166,0,1,0,7.9469,4.41278L7.835,5H6V6H7.64441L6.19708,13.59326A6.56527,6.56527,0,0,1,2.95508,10H4.5V9H1v3.5H2V10.78821a7.3305,7.3305,0,0,0,4.4967,4.19171.73811.73811,0,0,0,.07642.03357,4.46288,4.46288,0,0,1,1.90033,1.49487A5.02264,5.02264,0,0,1,10.41,15.01349c.0155-.006.02966-.012.04254-.01776A7.31312,7.31312,0,0,0,15,10.83209V12.5h1V9Zm-5-6.5a1,1,0,1,1,1,1A1,1,0,0,1,7.5,2.5Zm1,11.89709L7.274,14,8.5,6.5033,9.79492,14Z" fill="#828282"/></svg>
