<svg xmlns="http://www.w3.org/2000/svg" width="17" height="17" viewBox="0 0 17 17">
  <title>ic_ol_metadata</title>
  <path d="M0,0H17V17H0V0Z" style="fill: none"/>
  <path d="M15.00073,6.97119V3.99835a2.0074,2.0074,0,0,0-2.00854-2.00275H12l0.00006,1h0.99213a1.00743,1.00743,0,0,1,1.00854,1.00275v3.4054L15.147,8.481l-1.1463,1.05017v3.43732a1.00364,1.00364,0,0,1-1.00458,1.00275H12.00073v1h0.99146a2.0037,2.0037,0,0,0,2.00854-1.99878V9.97119l1.61646-1.481Z" style="fill: #828282"/>
  <path d="M1.99927,6.95557V3.98273A2.0074,2.0074,0,0,1,4.00781,1.98H5l-0.00006,1H4.00781A1.0074,1.0074,0,0,0,2.99927,3.98273v3.4054L1.853,8.46533,2.99927,9.5155v3.43732a1.00369,1.00369,0,0,0,1.00462,1.00276H4.99927v1H4.00781a2.00365,2.00365,0,0,1-2.00853-1.99875V9.95557l-1.61646-1.481Z" style="fill: #828282"/>
  <circle cx="10.5" cy="10.5" r="0.5" style="fill: #828282"/>
  <circle cx="6.5" cy="10.5" r="0.5" style="fill: #828282"/>
  <circle cx="8.5" cy="10.5" r="0.5" style="fill: #828282"/>
</svg>
