<svg xmlns="http://www.w3.org/2000/svg" width="17" height="17" viewBox="0 0 17 17">
  <path fill="none" d="M0 0h17v17H0z"/>
  <path fill="#828282" d="M13.999 14.5v.5A1.99924 1.99924 0 0 0 16 13.008V4.992A2.0019 2.0019 0 0 0 13.999 3v1A1.00194 1.00194 0 0 1 15 4.992v8.016a.99926.99926 0 0 1-1.001.992v.5zM3.001 3.5V3A1.99924 1.99924 0 0 0 1 4.992v8.016A2.0019 2.0019 0 0 0 3.001 15v-1A1.00194 1.00194 0 0 1 2 13.008V4.992A.99926.99926 0 0 1 3.001 4v-.5zm8.5695 6.10881L7.63631 12.17a.41229.41229 0 0 1-.63724-.34553V6.36176a.41229.41229 0 0 1 .657-.33181l3.93418 2.90152a.41229.41229 0 0 1-.01975.67734zM4 3h1v1H4V3zm2 0h1v1H6V3zm2 0h1v1H8V3zm2 0h1v1h-1V3zm2 0h1v1h-1V3zm0 11h1v1h-1v-1zm-8 0h1v1H4v-1zm2 0h1v1H6v-1zm2 0h1v1H8v-1zm2 0h1v1h-1v-1z"/>
</svg>
