<?xml version="1.0" encoding="iso-8859-1"?>
<!-- Generator: Adobe Illustrator 19.0.0, SVG Export Plug-In . SVG Version: 6.00 Build 0)  -->
<svg version="1.1" id="Capa_1" xmlns="http://www.w3.org/2000/svg" xmlns:xlink="http://www.w3.org/1999/xlink" x="0px" y="0px"
	 viewBox="0 0 512 512" style="enable-background:new 0 0 512 512;" xml:space="preserve">
<g>
	<g>
		<g>
			<path d="M511.871,178.247c-0.03-0.262-0.052-0.511-0.105-0.769c-0.089-0.417-0.209-0.827-0.359-1.226
				c-0.094-0.25-0.193-0.48-0.308-0.718c-0.121-0.251-0.2-0.52-0.344-0.758c-0.045-0.072-0.112-0.128-0.158-0.2
				c-0.282-0.431-0.603-0.836-0.958-1.209c-0.069-0.074-0.115-0.165-0.186-0.236c-0.241-0.209-0.494-0.405-0.757-0.586
				c-0.11-0.086-0.162-0.213-0.277-0.295l-81.75-58.287V34.133C426.647,15.29,411.376,0.02,392.533,0H119.467
				c-18.843,0.02-34.113,15.29-34.133,34.133v79.829L3.583,172.25c-0.115,0.082-0.168,0.209-0.277,0.296
				c-0.263,0.181-0.515,0.377-0.756,0.585c-0.073,0.073-0.119,0.164-0.19,0.24c-0.354,0.372-0.674,0.775-0.955,1.205
				c-0.047,0.071-0.115,0.128-0.159,0.201c-0.144,0.239-0.224,0.507-0.345,0.759c-0.115,0.237-0.213,0.467-0.306,0.716
				c-0.151,0.398-0.271,0.808-0.359,1.224c-0.054,0.259-0.075,0.509-0.106,0.772C0.068,178.563,0.025,178.881,0,179.2v298.667
				C0.02,496.71,15.29,511.98,34.133,512h443.733c18.843-0.02,34.113-15.29,34.133-34.133V179.2
				C511.975,178.88,511.932,178.562,511.871,178.247z M426.667,134.922l61.665,43.966l-61.665,40.216V134.922z M85.333,134.922
				v84.181l-61.665-40.216L85.333,134.922z M477.867,494.933H34.133c-0.278,0-0.538-0.069-0.811-0.082L256,326.433l222.678,168.418
				C478.404,494.864,478.145,494.933,477.867,494.933z M494.933,477.867c-0.003,2.341-0.49,4.655-1.431,6.798L261.15,308.929
				c-3.045-2.308-7.254-2.308-10.3,0L18.498,484.665c-0.941-2.143-1.429-4.457-1.431-6.798V194.954l183.075,119.392
				c2.553,1.664,5.8,1.84,8.518,0.461c2.718-1.379,4.494-4.103,4.658-7.146c0.165-3.043-1.306-5.943-3.859-7.607L102.4,230.233
				v-196.1c0.011-9.421,7.645-17.056,17.067-17.067h273.067c9.421,0.011,17.056,7.646,17.067,17.067v196.1l-107.058,69.821
				c-2.553,1.664-4.024,4.564-3.859,7.607c0.165,3.043,1.941,5.767,4.658,7.146c2.718,1.379,5.965,1.203,8.518-0.461
				l183.075-119.392V477.867z"/>
			<path d="M363.792,208.325c4.634-8.659,4.101-19.17-1.383-27.317l-85.533-127.1C272.249,46.89,264.406,42.667,256,42.667
				c-8.406,0-16.249,4.224-20.875,11.242L149.6,181.004c-5.491,8.145-6.027,18.66-1.392,27.321
				c4.284,8.339,12.883,13.571,22.258,13.542h171.067C350.909,221.896,359.508,216.664,363.792,208.325z M163.275,200.304
				c-1.69-3.088-1.503-6.864,0.483-9.771l85.533-127.1c1.453-2.303,3.985-3.7,6.708-3.7s5.256,1.397,6.708,3.7l85.542,127.104
				c1.98,2.908,2.163,6.68,0.475,9.767c-1.361,2.732-4.14,4.469-7.192,4.496H170.467
				C167.415,204.773,164.636,203.036,163.275,200.304z"/>
			<path d="M256,153.6c2.263,0.001,4.434-0.898,6.035-2.499c1.6-1.6,2.499-3.771,2.499-6.035V102.4c0-4.713-3.82-8.533-8.533-8.533
				s-8.533,3.82-8.533,8.533v42.667c-0.001,2.263,0.898,4.434,2.499,6.035C251.566,152.702,253.737,153.601,256,153.6z"/>
			<path d="M263.85,175.954c-0.189-0.542-0.446-1.057-0.767-1.533c-0.315-0.447-0.657-0.875-1.025-1.28
				c-3.421-3.158-8.695-3.158-12.117,0c-0.368,0.405-0.71,0.832-1.025,1.279c-0.324,0.474-0.582,0.99-0.767,1.533
				c-0.246,0.485-0.42,1.003-0.517,1.538c-0.222,1.127-0.222,2.286,0,3.412c0.096,0.535,0.27,1.053,0.516,1.538
				c0.184,0.545,0.442,1.062,0.767,1.538c0.317,0.446,0.659,0.873,1.025,1.279c1.627,1.572,3.796,2.459,6.059,2.475
				c2.259-0.035,4.421-0.918,6.059-2.475c0.366-0.406,0.708-0.834,1.025-1.279c0.321-0.477,0.579-0.994,0.767-1.538
				c0.247-0.483,0.419-1.002,0.508-1.537c0.233-1.126,0.233-2.287,0-3.412C264.269,176.956,264.098,176.438,263.85,175.954z"/>
		</g>
	</g>
</g>
<g>
</g>
<g>
</g>
<g>
</g>
<g>
</g>
<g>
</g>
<g>
</g>
<g>
</g>
<g>
</g>
<g>
</g>
<g>
</g>
<g>
</g>
<g>
</g>
<g>
</g>
<g>
</g>
<g>
</g>
</svg>
