<svg xmlns="http://www.w3.org/2000/svg" width="17" height="17" viewBox="0 0 17 17"><path fill="#828282" d="M13 10.505v-8.01A1.505 1.505 0 0 0 11.498 1H1.503A1.503 1.503 0 0 0 0 2.495v8.01A1.505 1.505 0 0 0 1.502 12h9.995A1.503 1.503 0 0 0 13 10.505zm-4.794-1.48a.781.781 0 0 1 1.246-.051L11.31 11H6.637zM1.502 2h9.995a.506.506 0 0 1 .503.495v7.778l-1.811-1.975a1.779 1.779 0 0 0-2.766.106l-.122.153-1.277-1.49a2.014 2.014 0 0 0-3.187.038L1 9.363V2.495A.504.504 0 0 1 1.502 2zm-.386 8.805l2.496-3.069a1.018 1.018 0 0 1 1.652-.017l1.403 1.635-1.017 1.28a.498.498 0 0 0-.105.366H1.502a.498.498 0 0 1-.386-.195z"/><path fill="#828282" d="M15 12.505v-8.01A1.503 1.503 0 0 0 13.503 3v1a.503.503 0 0 1 .497.495v8.01a.504.504 0 0 1-.502.495H3.503A.503.503 0 0 1 3 12.49H2A1.503 1.503 0 0 0 3.502 14h9.995A1.503 1.503 0 0 0 15 12.505z"/><path fill="#828282" d="M15.503 5v1a.503.503 0 0 1 .497.495v8.01a.504.504 0 0 1-.502.495H5.503A.503.503 0 0 1 5 14.49H4A1.503 1.503 0 0 0 5.503 16h9.994A1.503 1.503 0 0 0 17 14.505v-8.01A1.503 1.503 0 0 0 15.503 5zM9.5 6A1.5 1.5 0 1 0 8 4.5 1.5 1.5 0 0 0 9.5 6zm0-2a.5.5 0 1 1-.5.5.5.5 0 0 1 .5-.5z"/></svg>