<?xml version="1.0" encoding="utf-8"?>
<!-- Generator: Avocode 2.6.0 - http://avocode.com -->
<svg height="15" width="15" xmlns:xlink="http://www.w3.org/1999/xlink" xmlns="http://www.w3.org/2000/svg" viewBox="0 0 15 15">
    <path fill="#797878" fill-rule="evenodd" d="M 3 4 L 3 11.5 C 3 11.78 3.22 12 3.5 12 L 11 12 L 11 14.5 C 11 14.78 11.22 15 11.5 15 C 11.78 15 12 14.78 12 14.5 L 12 12 L 14.5 12 C 14.78 12 15 11.78 15 11.5 C 15 11.22 14.78 11 14.5 11 L 12 11 L 12 3.5 C 12 3.22 11.78 3 11.5 3 L 5.54 3 C 5.27 3 5.04 3.22 5.04 3.5 C 5.04 3.78 5.27 4 5.54 4 L 11.5 4 L 11 3.5 L 11 11 L 3.5 11 L 4 11.5 L 4 3.63 C 4.01 3.59 4.02 3.54 4.02 3.5 C 4.02 3.46 4.01 3.41 4 3.37 L 4 0.5 C 4 0.22 3.78 0 3.5 0 C 3.22 0 3 0.22 3 0.5 L 3 3 L 0.5 3 C 0.22 3 0 3.22 0 3.5 C 0 3.78 0.22 4 0.5 4 L 3 4 L 3 4 Z M 11 12 L 12 12 L 12 13 L 11 13 L 11 12 L 11 12 Z M 11 12" />
</svg>