<svg xmlns="http://www.w3.org/2000/svg" width="17" height="17" viewBox="0 0 17 17"><path fill="#828282" d="M15.217 5.453L9.025.947a.768.768 0 0 0-1.05 0L1.784 5.452A1.903 1.903 0 0 0 1 6.992V14a2 2 0 0 0 2 2h11a2 2 0 0 0 2-2V6.992a1.903 1.903 0 0 0-.783-1.539zM8.5 1.801l5.67 4.128L8.5 9.443 2.829 5.929zM3 15a.963.963 0 0 1-.244-.05l2.597-2.595a.5.5 0 1 0-.706-.707l-2.598 2.595A.962.962 0 0 1 2 14V6.992a.894.894 0 0 1 .084-.348l6.153 3.812a.5.5 0 0 0 .526 0l6.153-3.812a.894.894 0 0 1 .084.348V14a.963.963 0 0 1-.05.244l-2.596-2.597a.5.5 0 1 0-.707.708l2.597 2.596A.964.964 0 0 1 14 15z"/></svg>