<svg xmlns="http://www.w3.org/2000/svg" width="17" height="17" viewBox="0 0 17 17"><path fill="#fbb017" d="M16.198 10.946L10.976 2.96a2.804 2.804 0 0 0-4.952 0L.802 10.946C-.534 12.99.552 15 3 15h11c2.458 0 3.54-2.002 2.198-4.054zM14 14H3c-1.657 0-2.26-1.13-1.361-2.507L6.86 3.507a1.815 1.815 0 0 1 3.278 0l5.222 7.986C16.266 12.878 15.666 14 14 14z"/><path fill="#fbb017" d="M8.5 10a.5.5 0 0 0 .5-.491V4.491a.5.5 0 0 0-1 0v5.018a.5.5 0 0 0 .5.491z"/><circle cx="8.5" cy="12" r="1" fill="#fbb017"/></svg>