<svg xmlns="http://www.w3.org/2000/svg" width="17" height="17" viewBox="0 0 17 17"><circle cx="8.5" cy="8.5" r="8.5" fill="#628ed5" opacity=".35"/><circle cx="8.5" cy="8.5" r="8" fill="#628ed5" opacity=".35"/><circle cx="8.5" cy="8.5" r="7.5" fill="#6f9ee8"/><path fill="#628ed5" d="M8.5 1A7.5 7.5 0 1 0 16 8.5 7.508 7.508 0 0 0 8.5 1zm0 14A6.5 6.5 0 1 1 15 8.5 6.508 6.508 0 0 1 8.5 15z"/><path fill="#fff" d="M8.572 4a2.76 2.76 0 0 1 1.982.707 2.382 2.382 0 0 1 .745 1.806 1.932 1.932 0 0 1-.274 1.081 8.603 8.603 0 0 1-1.102 1.22 3.527 3.527 0 0 0-.783.989 2.553 2.553 0 0 0-.17.87c-.006.103.023.327-.307.327h-.607c-.105-.148-.21-.237-.205-.348a3.583 3.583 0 0 1 .205-1.1 3.903 3.903 0 0 1 .937-1.26l.502-.497a2.08 2.08 0 0 0 .365-.446 1.596 1.596 0 0 0 .251-.848 1.642 1.642 0 0 0-.367-1.068 1.48 1.48 0 0 0-1.216-.453 1.487 1.487 0 0 0-1.452.78 3.022 3.022 0 0 0-.257 1.25s-.155.24-.352.24h-.445L5.7 7.01a3.083 3.083 0 0 1 .767-2.184A2.73 2.73 0 0 1 8.572 4zM8.5 13.5a1 1 0 1 1 1-1 1 1 0 0 1-1 1z"/></svg>