<svg xmlns="http://www.w3.org/2000/svg" width="17" height="17" viewBox="0 0 17 17"><path fill="#828282" d="M8.5 1A7.5 7.5 0 1 0 16 8.5 7.5 7.5 0 0 0 8.5 1zm0 14A6.5 6.5 0 1 1 15 8.5 6.5 6.5 0 0 1 8.5 15z"/><circle cx="8.5" cy="12.5" r="1" fill="#828282"/><path fill="#828282" d="M8.572 4a2.73 2.73 0 0 0-2.105.826A3.083 3.083 0 0 0 5.7 7.01a.38.38 0 0 0 .322.24h.445a.398.398 0 0 0 .351-.24 3.023 3.023 0 0 1 .258-1.25 1.487 1.487 0 0 1 1.452-.78 1.48 1.48 0 0 1 1.216.453A1.642 1.642 0 0 1 10.11 6.5a1.597 1.597 0 0 1-.251.848 2.08 2.08 0 0 1-.365.446l-.502.497a3.902 3.902 0 0 0-.937 1.26 3.583 3.583 0 0 0-.205 1.1c-.005.111.1.2.205.348h.607c.33 0 .301-.224.307-.327a2.553 2.553 0 0 1 .17-.87 3.527 3.527 0 0 1 .783-.99 8.599 8.599 0 0 0 1.102-1.219 1.932 1.932 0 0 0 .274-1.08 2.382 2.382 0 0 0-.745-1.807A2.76 2.76 0 0 0 8.572 4z"/></svg>