<svg xmlns="http://www.w3.org/2000/svg" width="17" height="17" viewBox="0 0 17 17"><path fill="#828282" d="M14.008 2H12V1h-1v1H6V1H5v1H2.992A2 2 0 0 0 1 4.006v9.988A1.998 1.998 0 0 0 2.992 16h11.016A2 2 0 0 0 16 13.994V4.006A1.998 1.998 0 0 0 14.008 2zM15 13.994A1 1 0 0 1 14.008 15H2.992A.998.998 0 0 1 2 13.994V4.006A1 1 0 0 1 2.992 3H5v1h1V3h5v1h1V3h2.008A.998.998 0 0 1 15 4.006z"/><path fill="#828282" d="M8 10h1v1H8zm0 2h1v1H8zm-2-2h1v1H6zm-2 2h1v1H4zm0-2h1v1H4zm2 2h1v1H6zm4-2h1v1h-1zm2 0h1v1h-1zm0-2h1v1h-1zM8 8h1v1H8zm2 0h1v1h-1zm0 4h1v1h-1z"/><path fill="#828282" fill-opacity=".64" d="M3 5h11v1H3z"/></svg>