<svg xmlns="http://www.w3.org/2000/svg" width="17" height="17" data-name="Layer 1" viewBox="0 0 17 17">
  <g data-name="ic ol globalData-Copy-5">
    <path fill="none" d="M0 0h17v17H0z"/>
    <g fill="#ffffff">
      <path d="M2.99988 11.87927l.00079 3.11505 3.15826.00085a5.61611 5.61611 0 0 0-3.15905-3.1159zm11.39093-7.62774l-.7002-.7002a1.99194 1.99194 0 0 0-2.826-.00122L3.67706 10.7785l.688.43518 6.17206-6.246a3.44869 3.44869 0 0 1 1.60327.98438 3.40634 3.40634 0 0 1 .90668 1.45728L6.7348 13.544l.47559.77228 7.1897-7.23065a2.01435 2.01435 0 0 0-.00928-2.8341z"/>
      <path d="M10.628 6.709l-4.636 5.002v.312h.346l5-4.609-.71-.705"/>
    </g>
  </g>
</svg>
