<svg xmlns="http://www.w3.org/2000/svg" width="17" height="17" viewBox="0 0 17 17">
  <title>ic_ol_illustration</title>
  <path d="M0,0H17V17H0V0Z" style="fill: none"/>
  <path d="M14.00812,3H2.99188A2.00126,2.00126,0,0,0,1,5.00854v7.98291A2.002,2.002,0,0,0,2.99188,15H14.00812A2.00126,2.00126,0,0,0,16,12.99146V5.00854A2.002,2.002,0,0,0,14.00812,3ZM2.99188,4H14.00812A1.002,1.002,0,0,1,15,5.00854v7.74359c-0.02527-.03406-0.03967-0.066-0.06708-0.1004l-2.641-3.31512a1.4219,1.4219,0,0,0-2.149-.2608L9.5061,9.87573,7.98376,8.02612a2.03432,2.03432,0,0,0-3.50171.2254L2,12.1908V5.00854A1.00139,1.00139,0,0,1,2.99188,4Zm0.2395,10a2.37712,2.37712,0,0,1-.37512-0.02789,0.97475,0.97475,0,0,1-.15979-0.0329c-0.368-.1145-0.36261-0.40234-0.02167-0.94354L5.32813,8.78461a1.04977,1.04977,0,0,1,1.88354-.123l1.67871,2.03955L7.84045,12.23529a0.5,0.5,0,1,0,.82245.56883l0.00275-.004L10.67059,9.9754a0.461,0.461,0,0,1,.83917-0.01569l2.641,3.31512a0.94987,0.94987,0,0,1,.32642.58844,0.95365,0.95365,0,0,1-.44958.13269C13.959,13.99829,13.88739,14,13.80231,14H3.23138Z" style="fill: #828282"/>
  <path d="M12.5,7A0.5,0.5,0,1,0,12,6.5,0.5,0.5,0,0,0,12.5,7Zm0,1A1.5,1.5,0,1,1,14,6.5,1.5,1.5,0,0,1,12.5,8Z" style="fill: #828282"/>
</svg>
