<svg xmlns="http://www.w3.org/2000/svg" width="17" height="17" data-name="Layer 1" viewBox="0 0 17 17">
  <g data-name="ic information-copy-3">
    <path fill="none" d="M0 0h17v17H0z"/>
    <path fill="#828282" d="M8.5 1a7.50008 7.50008 0 0 1 .05 15H2.12757l.88017-1.20187.482-.65814-.54791-.60436A7.50008 7.50008 0 0 1 8.5 1m0-1a8.50008 8.50008 0 0 0-6.29905 14.20729L.15576 17H8.55v-.00014A8.5 8.5 0 0 0 8.5 0z"/>
    <g fill="#828282">
      <circle cx="8.5" cy="4.5" r="1"/>
      <path d="M9.50464 12H9V7.491A.50085.50085 0 0 0 8.5 7h-1a.5.5 0 0 0 0 1H8v4h-.50464A.49389.49389 0 0 0 7 12.5a.503.503 0 0 0 .49536.5h2.00928A.49389.49389 0 0 0 10 12.5a.503.503 0 0 0-.49536-.5z"/>
    </g>
  </g>
</svg>
