<svg xmlns="http://www.w3.org/2000/svg" width="17" height="17" viewBox="0 0 17 17"><g fill="#828282" fill-rule="evenodd"><path d="M15 4h.5A1.5 1.5 0 1 0 14 2.5V3H3v-.5A1.5 1.5 0 1 0 1.5 4H2v9h-.5A1.5 1.5 0 1 0 3 14.5V14h11v.5a1.5 1.5 0 1 0 1.5-1.5H15V4zm0-1.5a.5.5 0 1 1 .5.5H15v-.5zM1.5 3a.5.5 0 1 1 .5-.5V3h-.5zM2 14.5a.5.5 0 1 1-.5-.5H2v.5zM3 13V4h11v9H3zm12.5 1a.5.5 0 1 1-.5.5V14h.5z"/><path d="M9.278 8.5l2.61 2.611-.777.778L8.5 9.278l-2.611 2.61-.778-.777L7.722 8.5l-2.61-2.611.777-.778L8.5 7.722l2.611-2.61.778.777L9.278 8.5z"/></g></svg>