<svg xmlns="http://www.w3.org/2000/svg" width="17" height="17" data-name="Layer 2" viewBox="0 0 17 17">
  <path fill="none" d="M0 0h17v17H0z"/>
  <path fill="#d75a4d" d="M15 4h-4V2.999A.99648.99648 0 0 0 10.00018 2H6.99982A.99691.99691 0 0 0 6 2.999V4H2v3h2v5.00189A1.99275 1.99275 0 0 0 5.99738 14h5.00525A1.99878 1.99878 0 0 0 13 12.00189V7h2V4zM6.99982 3L10 2.999 10.00018 4h-3zM12 12.00189A.99878.99878 0 0 1 11.00262 13H5.99738A.99276.99276 0 0 1 5 12.00189V7h1v4h1V7h1v4h1V7h1v4h1V7h1v5.00189zM14 6H3V5h11v1z"/>
</svg>
