<svg xmlns="http://www.w3.org/2000/svg" width="17" height="17" viewBox="0 0 17 17"><g fill="#828282" fill-rule="evenodd"><path d="M15 4h.5A1.5 1.5 0 1 0 14 2.5V3H3v-.5A1.5 1.5 0 1 0 1.5 4H2v9h-.5A1.5 1.5 0 1 0 3 14.5V14h11v.5a1.5 1.5 0 1 0 1.5-1.5H15V4zm0-1.5a.5.5 0 1 1 .5.5H15v-.5zM1.5 3a.5.5 0 1 1 .5-.5V3h-.5zM2 14.5a.5.5 0 1 1-.5-.5H2v.5zM3 13V4h11v9H3zm12.5 1a.5.5 0 1 1-.5.5V14h.5z"/><path d="M3.043 12.895l2.57-3.159c.462-.568 1.17-.578 1.651-.017l1.594 1.857a.5.5 0 1 0 .759-.65L8.023 9.067c-.886-1.034-2.33-1.015-3.186.037l-2.57 3.159a.5.5 0 1 0 .776.63z"/><path d="M8.433 13.256l1.773-2.23c.341-.43.88-.451 1.246-.052l2.43 2.65c.186.203.923-.473.736-.676l-2.429-2.65c-.782-.853-2.043-.805-2.766.106l-1.773 2.23a.5.5 0 0 0 .783.622zM11.5 8a1.5 1.5 0 1 0 0-3 1.5 1.5 0 0 0 0 3zm0-1a.5.5 0 1 0 0-1 .5.5 0 0 0 0 1z"/></g></svg>