<svg xmlns="http://www.w3.org/2000/svg" width="17" height="17" data-name="Layer 3" viewBox="0 0 17 17">
  <path fill="none" d="M0 0h17v17H0z"/>
  <g fill="#828282">
    <path d="M13 8V5.99994A4.28515 4.28515 0 0 0 8.6875 2h-.33331A4.32388 4.32388 0 0 0 4 5.99994V8H3v4.99408A1.99166 1.99166 0 0 0 4.992 15h7.016A2.00433 2.00433 0 0 0 14 12.99408V8h-1zM5 5.99994A3.31875 3.31875 0 0 1 8.35419 3h.33331A3.29358 3.29358 0 0 1 12 5.99994V8h-1V6.5a2.5 2.5 0 0 0-5 0V8H5V5.99994zM10 8H7V6.5a1.5 1.5 0 0 1 3 0V8zm3 4.99408A1.00442 1.00442 0 0 1 12.008 14H4.992A.99177.99177 0 0 1 4 12.99408V9h9v3.99408z"/>
    <path d="M7 11h1v2h1v-2h1v-1H7v1"/>
  </g>
</svg>
