<svg xmlns="http://www.w3.org/2000/svg" width="24" height="24" data-name="Layer 1" viewBox="0 0 24 24">
  <g data-name="ic support hover">
    <path fill="none" d="M0 0h24v24H0z"/>
    <circle cx="12" cy="12" r="9" fill="#fff"/>
    <g fill="#1aa63e">
      <circle cx="12" cy="16.5" r="1"/>
      <path d="M14.54669 7.8269A3.66081 3.66081 0 0 0 12.03015 7a3.53259 3.53259 0 0 0-2.42834.81708A2.79831 2.79831 0 0 0 8.605 9.8042l1.68646.20917a2.1217 2.1217 0 0 1 .64709-1.21582 1.74765 1.74765 0 0 1 1.17-.39874 1.66836 1.66836 0 0 1 1.15369.38239 1.18958 1.18958 0 0 1 .42816.9184 1.14494 1.14494 0 0 1-.24188.706 8.026 8.026 0 0 1-.96088.85626 4.06618 4.06618 0 0 0-1.072 1.17657 2.91593 2.91593 0 0 0-.268 1.33344q0 .07846.00653.438H12.821a2.609 2.609 0 0 1 .1275-1.05237 2.80112 2.80112 0 0 1 .72229-.77789 7.53512 7.53512 0 0 0 1.46747-1.47723 2.11674 2.11674 0 0 0 .34314-1.15045 2.50333 2.50333 0 0 0-.93471-1.92503z"/>
    </g>
  </g>
</svg>
