<svg xmlns="http://www.w3.org/2000/svg" width="17" height="17" viewBox="0 0 17 17"><path fill="#828282" d="M15.123 10.014l-1.185-.684a5.565 5.565 0 0 0 0-1.66l1.185-.684a1.007 1.007 0 0 0 .367-1.378l-.99-1.716a1.003 1.003 0 0 0-1.377-.37l-1.186.684a5.492 5.492 0 0 0-1.437-.831V2.008A1.007 1.007 0 0 0 9.49 1H7.51A1.003 1.003 0 0 0 6.5 2.008v1.367a5.492 5.492 0 0 0-1.437.831l-1.186-.684a1.007 1.007 0 0 0-1.377.37l-.99 1.716a1.003 1.003 0 0 0 .367 1.378l1.185.684a5.565 5.565 0 0 0 0 1.66l-1.185.684a1.007 1.007 0 0 0-.367 1.378l.99 1.716a1.003 1.003 0 0 0 1.377.37l1.186-.684a5.492 5.492 0 0 0 1.437.831v1.367A1.007 1.007 0 0 0 7.51 16h1.98a1.003 1.003 0 0 0 1.01-1.008v-1.367a5.492 5.492 0 0 0 1.437-.831l1.186.684a1.007 1.007 0 0 0 1.377-.37l.99-1.716a1.003 1.003 0 0 0-.367-1.378zM8.5 10.5a2 2 0 1 1 2-2 2 2 0 0 1-2 2z"/></svg>