<svg xmlns="http://www.w3.org/2000/svg" width="17" height="17.08943" viewBox="0 0 17 17.08943">
  <title>ic_save-and-close</title>
  <g>
    <rect width="17" height="17" style="fill: #ccc;fill-opacity: 0"/>
    <path d="M8.5,0.75A6.75447,6.75447,0,0,0,1.75,7.49365V7.873a0.75,0.75,0,0,0,1.5,0V7.49365A5.25,5.25,0,1,1,8.5,12.75H3.16528l1.92889-2.002A0.75011,0.75011,0,0,0,4.03351,9.68738L1.28906,12.55231a1.05732,1.05732,0,0,0-.01056,1.4519l2.62378,2.77423a0.75861,0.75861,0,1,0,1.06024-1.061c0.00024,0-.74481-0.78741-1.38831-1.46741H8.5A6.75,6.75,0,0,0,8.5.75Z" style="fill: #1aa63e"/>
  </g>
</svg>
