<svg xmlns="http://www.w3.org/2000/svg" width="37" height="27" viewBox="0 0 37 27">
  <g fill="none" fill-rule="evenodd">
    <path fill="#D0B2DE" d="M16 6h20v1H16V6zm0 2h20v1H16V8zm0 2h20v1H16v-1z"/>
    <path fill="#9A4CBE" d="M16 2h11v3H16z"/>
    <path fill="#D0B2DE" d="M16 20h20v1H16v-1zm0 2h20v1H16v-1zm0 2h20v1H16v-1z"/>
    <path fill="#9A4CBE" d="M16 16h11v3H16zM6.5 26c3 0 5.5-2.5 5.5-5.5S9.5 15 6.5 15 1 17.5 1 20.5 3.5 26 6.5 26zm0 1C3 27 0 24 0 20.5S3 14 6.5 14c3.6 0 6.5 3 6.5 6.5S10 27 6.5 27z"/>
    <path fill="#C4A7D0" d="M8.3 20.5c.3-.4.8-.2 1 0 .2 0 .2.6.2.6L7 23.7c0 .3-.2.3-.5.3s-.5-.3-.6-.4L3.2 21s-.2-.4.2-.6c.4-.2.7-.3 1 0L6 22v-3.8c0-.5.2-.6.5-.6s.6 0 .6.6V22l1.5-1.5z"/>
    <path fill="#9A4CBE" d="M6.5 12c3 0 5.5-2.5 5.5-5.5S9.5 1 6.5 1 1 3.5 1 6.5 3.5 12 6.5 12zm0 1C3 13 0 10 0 6.5S3 0 6.5 0 13 3 13 6.5 10 13 6.5 13z"/>
    <path fill="#C4A7D0" d="M8.3 6.5c.3-.4.8-.2 1 0 .2 0 .2.6.2.6L7 9.7c0 .3-.2.3-.5.3S6 9.4 6 9.3L3.4 7s-.2-.4.2-.6c.4-.2.7-.3 1 0L6 8V4.2c0-.5.2-.6.5-.6s.6 0 .6.6V8l1.5-1.5z"/>
  </g>
</svg>
