<svg xmlns="http://www.w3.org/2000/svg" width="37" height="27" viewBox="0 0 37 27"><g fill="none" fill-rule="evenodd"><path fill="#A5ACB0" d="M24 8h11v1H24V8zm0-2h11v1H24V6zm0-2h11v1H24V4zm0 6h11v1H24v-1zm0 2h8.5v1H24v-1zM3 18h24v1H3v-1zm0 2h20v1H3v-1zm0 2h24v1H3v-1zm0 2h22v1H3v-1z"/><path fill="#A8BDC6" d="M29 23h6v2h-6v-2zm0-3h4v2h-4v-2zm0-3h6v2h-6v-2z"/><g transform="translate(3.5 1)"><rect width="17.5" height="1" y="13" fill="#A8BDC6" rx="3"/><path fill="#A8BDC6" d="M8.611 6.514a.439.439 0 0 0 .445-.432.439.439 0 0 0-.445-.433.439.439 0 0 0-.444.433c0 .239.199.432.444.432zm-1.073-.152a1.056 1.056 0 0 1-.038-.28C7.5 5.484 7.997 5 8.611 5s1.111.484 1.111 1.082c0 .108-.016.213-.047.311 3.307.542 5.825 3.327 5.825 6.61h-14c0-3.353 2.627-6.187 6.038-6.641zm-4.772 5.543c-.027.116.225.316.345.344.12.027.46-.228.488-.344.475-1.98 1.933-3.115 3.602-3.53.119-.03.332-.266.303-.382-.029-.117-.184-.478-.303-.45-2.193.52-3.922 2.224-4.435 4.362z"/><path fill="#8AA8B4" d="M8.344 1.945l-.082-.135c-.27-.453-.286-.679.026-1.06A.27.27 0 0 0 7.87.409c-.481.586-.448 1.05-.072 1.68l.085.14c.377.614.408.89-.017 1.429a.27.27 0 0 0 .425.334c.593-.752.535-1.26.053-2.046zm-1.569.891l-.081-.134c-.271-.454-.287-.68.025-1.06A.27.27 0 1 0 6.3 1.3c-.48.586-.448 1.05-.072 1.68l.085.14c.377.615.408.89-.017 1.43a.27.27 0 1 0 .425.334c.593-.753.535-1.26.053-2.047zm3.49-.103l-.082-.134c-.271-.454-.287-.679.025-1.06a.27.27 0 0 0-.418-.343c-.48.586-.447 1.05-.072 1.68l.085.14c.377.615.408.89-.016 1.43a.27.27 0 0 0 .425.334c.592-.753.535-1.26.053-2.047z"/></g></g></svg>