<svg xmlns="http://www.w3.org/2000/svg" width="37" height="27" viewBox="0 0 37 27"><g fill="none" fill-rule="evenodd"><path fill="#D0B2DE" d="M22 8h14v1H22V8zm0-2h14v1H22V6zm0-3h8v2h-8V3zm0 7h11v1H22v-1zM22 21h14v1H22v-1zm0-2h14v1H22v-1zm0-3h11v2H22v-2zm0 7h12v1H22v-1z"/><g fill="#9A4CBD"><path d="M18.37 9.995a.63.63 0 0 0 .63-.63V6.307L17.733 3.57c-.17-.3-.592-.548-.942-.548l-2.159.04A.63.63 0 0 0 14 3.69l.02 5.07c.064-.068.357-.864 1.836-.7 1.48.162 1.825 1.017 2.149 1.934h.365zm-5.981-.001c.34 0 .611-.281.611-.628V1.628A.62.62 0 0 0 12.389 1H1.611C1.271 1 1 1.28 1 1.628v7.738a.62.62 0 0 0 .611.628h2.394c.315-.917.788-1.998 2.44-1.998 1.651 0 2.258 1.08 2.573 1.998h3.371zm2.935-5.995h1.165c.173.045.385.164.475.316l.94 1.71h-2.585c-.158 0-.3-.138-.314-.316l.005-1.394c0-.175.141-.316.314-.316z"/><path d="M5 10.5a1.5 1.5 0 1 1 3 0 1.5 1.5 0 0 1-3 0zm1.5.503a.5.5 0 1 0 0-1 .5.5 0 0 0 0 1zM14 10.5a1.5 1.5 0 1 1 3 0 1.5 1.5 0 0 1-3 0zm1.5.503a.5.5 0 1 0 0-1 .5.5 0 0 0 0 1z"/></g><path fill="#9A4CBD" d="M2.007 15h12.986c.556 0 1.007.456 1.007.995v7.01a1 1 0 0 1-1.007.995H2.007A1.008 1.008 0 0 1 1 23.005v-7.01A1 1 0 0 1 2.007 15zM2 23.005C2 22.995 14.992 23 14.992 23 15 23 15 15.995 15 15.995c0 .01-12.992.005-12.992.005C2 16 2 23.005 2 23.005z"/><path fill="#D0B2DE" d="M4.007 17h12.986c.556 0 1.007.456 1.007.995v7.01a1 1 0 0 1-1.007.995H4.007A1.008 1.008 0 0 1 3 25.005v-7.01A1 1 0 0 1 4.007 17zM3 25.005c0-.012 13.992-.006 13.992-.006C17 25 17 17.005 17 17.005c0 .011-13.992.005-13.992.005C3 17.01 3 25.005 3 25.005z"/><path fill="#9A4CBD" d="M2 17h13v2H2z"/><path fill="#D0B2DE" d="M3 21h2v1H3zM6 21h1v1H6zM8 21h1v1H8z"/></g></svg>