<svg xmlns="http://www.w3.org/2000/svg" width="37" height="27" viewBox="0 0 37 27">
  <g fill="none" fill-rule="evenodd">
    <path fill="#A8BDC6" d="M5 1h8v3H6V3H5V1zm1 1v2h6V2H6z"/>
    <path fill="#A8BDC6" d="M6 3h1v1H6V3zm2 0h1v1H8V3zm2 0h1v1h-1V3zM9 20c4 0 7-3 7-7s-3-7-7-7-7 3-7 7 3 7 7 7zm0 1c-4.4 0-8-3.6-8-8s3.6-8 8-8 8 3.6 8 8-3.6 8-8 8z"/>
    <path fill="#DDB0A1" d="M9 6.5c2.3 0 4.2 1.2 5.4 3l-5 4H9v-7z"/>
    <path fill="#A8BDC6" d="M19 5h8v2h-8z"/>
    <path fill="#A5ACB0" d="M19 8h16v1H19zm0 2h16v1H19zm0 2h12v1H19zm0 4h8v1h-8zm0 2h8v1h-8zm0 2h8v1h-8zM1 22h26v1H1zm0 2h26v1H1zm8.5-10c.3 0 .5-.2.5-.5s-.2-.5-.5-.5-.5.2-.5.5.2.5.5.5zM9 19c.3 0 .5-.2.5-.5S9.3 18 9 18s-.5.2-.5.5.2.5.5.5zm-5.5-5.5c.3 0 .5-.2.5-.5s-.2-.5-.5-.5-.5.2-.5.5.2.5.5.5zm11 0c.3 0 .5-.2.5-.5s-.2-.5-.5-.5-.5.2-.5.5.2.5.5.5z"/>
    <path fill="#A8BDC6" d="M29.2 14.3c-.5-.6-1.2-.3-1.2.5v7.7c0 .7.7 1 1.2.5l1.8-1.6-.8-.2 1 3c.3.4 1 .7 1.4.5h.4c.5-.2.8-.8.6-1.3l-1-3-.5.7 2.4.4c.7 0 1-.6.6-1l-5.7-6zm-.7.7l5.5 5.7v-.3l.3-.2h-2.8l.2.6 1 3h-.3l-1-3-.4-.7-.7.8-1.8 1.7h.3c.2 0 .2 0 .2.2V15h-.5z"/>
  </g>
</svg>
