<svg xmlns="http://www.w3.org/2000/svg" width="37" height="27" viewBox="0 0 37 27"><g fill="none" fill-rule="evenodd"><path fill="#9A4CBE" d="M2 20h14v2H2v-2zm0 3h33v1H2v-1zm0 2h29v1H2v-1z"/><path fill="#D1B2DF" d="M5 2H2v17h33V2H17v1h18l-1-1v17l1-1H2l1 1V2L2 3h3V2z"/><path fill="#F3E2FB" d="M9.748 3H3v12s1.889 1.677 4.301.838c2.412-.838.972-2.323 3.363-5.811.28-.41.73-.7 1.289-.919A3.25 3.25 0 0 1 9.748 3zm2.504 0h10.066s-.927 3.634-4.003 4.716c-1.926.677-4.393.733-6.07 1.287A3.251 3.251 0 0 0 12.252 3z"/><path fill="#D1B2DF" d="M12.165 17.5L26.14 3.524l1.594-.002-13.977 13.976z"/><path fill="#D1B2DF" d="M20 10.707l.707-.707 7.507 7.507-1.413.001z"/><path fill="#D1B2DF" d="M28.829 8.829l.707.707-4.828 4.828-.708-.707z"/><path fill="#D1B2DF" d="M29 9h4.5v.8H29z"/><path fill="#9A4CBE" d="M11 16s5-7.34 5-10.066C16 3.21 13.761 1 11 1S6 3.21 6 5.934C6 8.66 11 16 11 16zm0-7.5a2.5 2.5 0 1 0 0-5 2.5 2.5 0 0 0 0 5z"/></g></svg>