<svg xmlns="http://www.w3.org/2000/svg" width="37" height="27" viewBox="0 0 37 27">
  <g fill="none" fill-rule="evenodd">
    <path fill="#9A4CBE" d="M22.2 21.5c-1.3 0-2.9-.65-3.45-.9-.6.25-2.35.95-3.55.9-1.5-.05-4.1-.5-6-1.1-.45.65-1.25 1.1-2.1 1.1-1.45 0-2.6-1.1-2.6-2.45 0-1.2.9-2.2 2.1-2.4v-.55c-1.15-.85-1.15-2.55-1.1-4.5v-.8c0-1.95 0-3.65 1.1-4.5v-.55c-1.2-.2-2.1-1.2-2.1-2.4C4.5 2 5.65.9 7.1.9c.9 0 1.7.45 2.15 1.1 1.95-.7 4.55-1.45 6-1.5 1.15-.05 2.9.65 3.5.9.55-.25 2.25-.95 3.55-.9 1.9.05 4.05.7 5.55 1.35.5-.6 1.25-.95 2.05-.95 1.4 0 2.6 1.1 2.6 2.45 0 1.2-.9 2.2-2.1 2.4v.55c1.1.85 1.1 2.5 1.1 4.4v1c0 1.9 0 3.6-1.1 4.4v.55c1.2.2 2.1 1.2 2.1 2.4 0 1.35-1.15 2.45-2.6 2.45-.8 0-1.55-.35-2.05-.95-2 .75-4.5.95-5.55.95h-.1zm-3.45-2l.2.1s2 .9 3.3.9c2.2-.05 4.3-.45 5.6-1.05l.45-.2.2.4c.25.5.8.8 1.4.8.85 0 1.6-.65 1.6-1.45 0-.8-.7-1.45-1.6-1.45h-.5V15.5l.25-.15c.85-.5.85-1.9.85-3.7v-1c0-1.8 0-3.25-.85-3.7l-.25-.15v-2h.5c.85 0 1.6-.65 1.6-1.45 0-.8-.7-1.45-1.6-1.45-.6 0-1.15.3-1.4.8l-.2.4-.45-.2c-1.45-.65-3.65-1.35-5.55-1.4-1.35-.05-3.3.85-3.3.9l-.25.1-.2-.1c-.6-.25-2.35-.9-3.3-.9-1.35.05-4.1.85-6.05 1.55l-.45.2-.2-.45c-.25-.55-.8-.95-1.45-.95-.9 0-1.6.7-1.6 1.5S6.2 4.8 7.1 4.8h.5v2.05L7.3 7c-.9.5-.85 1.95-.85 3.8v.8c0 1.85 0 3.3.85 3.8l.3.1v2.05h-.5c-.85 0-1.6.65-1.6 1.45 0 .8.7 1.5 1.6 1.5.65 0 1.25-.35 1.45-.95l.2-.45.45.15c1.9.7 4.75 1.15 6.05 1.2 1 0 2.7-.65 3.3-.9l.2-.05z"/>
    <path fill="#9A4CBE" d="M9 4v14h19V4H9zm18 13H10V5h17v12z"/>
    <path fill="#9A4CBE" d="M25.35 15.55c.15.25 0 .45-.25.45H11.3c-.3 0-.45-.25-.3-.5l2.95-6.95c.65-1.5 1.9-1.6 2.75-.2L19 12c.3.45.85.5 1.2.1l.8-.9c.75-.8 1.75-.7 2.25.3l2.1 4.05z"/>
    <path fill="#D1B2DF" d="M23.55 8.55c-.6.6-1.55.6-2.1 0-.6-.6-.6-1.55 0-2.1.6-.6 1.55-.6 2.1 0 .6.6.6 1.5 0 2.1zM32 24v-1H5v1h27zm-7 2v-1H5v1h20zM4.4 9.25l-.75-.65-2.8 2.95 3.1 2.95.65-.75-2.35-2.25M33.3 8.6l-.75.65 2.15 2.25-2.35 2.25.65.75 3.1-2.95"/>
  </g>
</svg>
