<svg xmlns="http://www.w3.org/2000/svg" width="37" height="27" viewBox="0 0 37 27">
  <g fill="none" fill-rule="evenodd">
    <path fill="#A8BDC6" d="M8.5 14c.8 0 1.5-.7 1.5-1.5S9.3 11 8.5 11 7 11.7 7 12.5 7.7 14 8.5 14zm4 0c.8 0 1.5-.7 1.5-1.5s-.7-1.5-1.5-1.5-1.5.7-1.5 1.5.7 1.5 1.5 1.5zm4 0c.8 0 1.5-.7 1.5-1.5s-.7-1.5-1.5-1.5-1.5.7-1.5 1.5.7 1.5 1.5 1.5z"/>
    <path fill="#A5ACB0" d="M26.5 19c.8 0 1.5-.7 1.5-1.5s-.7-1.5-1.5-1.5-1.5.7-1.5 1.5.7 1.5 1.5 1.5zm4 0c.8 0 1.5-.7 1.5-1.5s-.7-1.5-1.5-1.5-1.5.7-1.5 1.5.7 1.5 1.5 1.5z"/>
    <path fill="#A5ACB0" d="M32 1.8L26.3 7H24v1h2.7L31 4.2V8h1c1.4 0 2 1 2 2.5v10c0 1.4-1 2.5-2.5 2.5h-15C15 23 14 22 14 20.5V20h-1v.5c0 2 1.6 3.5 3.5 3.5h15c2 0 3.5-1.5 3.5-3.5v-10c0-2-1-3.5-3-3.5V1.8z"/>
    <path fill="#A8BDC6" d="M5 19c-1.7-.3-3-1.8-3-3.5v-10C2 3.5 3.6 2 5.5 2h14c2 0 3.5 1.5 3.5 3.5v10c0 2-1.6 3.5-3.5 3.5H9.7L5 23.7V19zM3 5.4v10C3 17 4 18 5.5 18H6v3.3L9.3 18h10.2c1.4 0 2.5-1 2.5-2.5v-10C22 4 21 3 19.5 3h-14C4 3 3 4 3 5.5z"/>
  </g>
</svg>
