<svg xmlns="http://www.w3.org/2000/svg" width="37" height="27" viewBox="0 0 37 27">
  <g fill="none" fill-rule="evenodd">
    <path fill="#9A4CBD" d="M1 1h11v2H1z"/>
    <path fill="#D0B2DE" d="M3 12h1v1H3v-1zm0 2h1v1H3v-1zm0 2h1v1H3v-1zm0 2h1v1H3v-1zm0 2h1v1H3v-1zm0 2h1v1H3v-1zm2 0h1v1H5v-1zm2 0h1v1H7v-1zm2 0h1v1H9v-1zm2 0h1v1h-1v-1zM1 4h20v7H1V4zm1 1h18v5H2V5z"/>
    <path fill="#9A4CBD" d="M13 16h11v2H13z"/>
    <path fill="#D0B2DE" d="M13 19h20v7H13v-7zm1 1h18v5H14v-5zM3 6h16v1H3V6zm0 2h16v1H3V8z"/>
    <path fill="#D0B2DE" d="M15 21h16v1H15v-1zm0 2h16v1H15v-1z"/>
    <path fill="#9A4CBD" d="M28 13.6c-1 1.2-3 1.2-4 0-1.3-1.2-1.3-3 0-4.2l2.4-2.6c1.2-1 3-1 4.2 0l-1 1.2c-.6-.6-1.5-.6-2 0L25 10.5c-.5.6-.5 1.4 0 2 .6.5 1.4.5 2 0l1-.8c.5.3 1.2.4 2 .3l-2 1.6zM30.5 3l-2.2 2c.7-.2 1.6 0 2 .3L31.5 4c.6-.5 1.4-.5 2 0 .5.6.5 1.4 0 2L31 8.5c-.6.6-1.5.6-2 0l-1.2 1.2c1.2 1 3 1 4.3 0L34.8 7c1.2-1 1.2-3 0-4-1.2-1.3-3-1.3-4.2 0z"/>
  </g>
</svg>
