<svg xmlns="http://www.w3.org/2000/svg" width="37" height="27" viewBox="0 0 37 27">
  <g fill="none" fill-rule="evenodd">
    <path fill="#A8BDC6" d="M22 3h7v2h-7z"/>
    <path fill="#F2AE9B" d="M17 8.3V8l-1.6-2L13 9l.8 1L17 8.4zm.7 1.5l.7 2.2h-3.6l-.5-1 3.4-1.2zm-5-5.3c-2-.8-4.6-.7-6.7.6-2.8 2-4.3 5-4 8 0-2 1.2-4 3.2-5C7 7 9 7 10.7 8l2-2.7z"/>
    <path fill="#A8BDC6" d="M1.4 13.2c0 .4.7.8 1 .8h15c.5 0 1-.4 1.2-.8 0-.2 0-.4.2-.6l.2-1v-.2C19 6.2 15 2 10 2s-9 4.2-9 9.4c0 .4 0 1 .2 1.2 0 .3 0 .4.2.5v1zm-1 .3s-.4-1-.4-2C0 5.5 4.5 1 10 1s10 4.6 10 10.4c0 1-.5 2-.5 2-.3 1-1.2 1.6-2 1.6h-15c-.8 0-1.7-.7-2-1.5z"/>
    <path fill="#A5ACB0" d="M13.7 5c.4-.4 1-.5 1.3-.4l-.6-.3c.3.2.3.7 0 1.2l-4.5 7C9 13 9 13 8 13h.3c-.4-.7-.6-1-.2-1.7L14 5zM22 6h14v1H22zM2 18h23v1H2zm0 2h23v1H2zm0 2h33v1H2zm0 2h33v1H2zM22 8h5v1h-5zm0 2h5v1h-5z"/>
    <path fill="#A8BDC6" d="M29.2 8.3c-.5-.6-1.2-.3-1.2.5v7.7c0 .7.7 1 1.2.5l1.8-1.6-.8-.2 1 3c.3.4 1 .7 1.4.5h.4c.5-.2.8-.8.6-1.3l-1-3-.5.7 3 1c.7 0 1-.6.6-1L30 9zm-.7.7l5.5 5.7v-.3l.3-.2h-2.8l.2.6 1 3h-.3l-1-3-.4-.7-.7 1-1.8 2h.5V9l-.2.2h-.3z"/>
  </g>
</svg>
