<svg xmlns="http://www.w3.org/2000/svg" width="37" height="27" viewBox="0 0 37 27">
  <g fill="none" fill-rule="evenodd">
    <path fill="#A8BDC6" d="M0 0h13v3H0z"/>
    <path fill="#A5ACB0" d="M0 5h14v1H0zm0 2h12v1H0zm0 4h14v1H0zm0 2h14v1H0zm0 2h14v1H0zm0 2h12v1H0zm0 4h37v1H0zm0 2h37v1H0zm0 2h35v1H0z"/>
    <g fill="#9FC5AA">
      <path d="M18 2v5c0 .6.4 1 1 1h5c.6 0 1-.4 1-1V2c0-.6-.4-1-1-1h-5c-.6 0-1 .4-1 1zm-1 0c0-1 1-2 2-2h5c1 0 2 1 2 2v5c0 1-1 2-2 2h-5c-1 0-2-1-2-2V2z"/>
      <path d="M20 3.8l1.4 1 2.3-2.3.8.8-3 3-2.2-1.8"/>
    </g>
    <g fill="#9FC5AA">
      <path d="M18 13v4c0 .6.4 1 1 1h16c.6 0 1-.4 1-1v-4c0-.6-.4-1-1-1H19c-.6 0-1 .4-1 1zm-1-.2c0-1 1-1.8 2-1.8h16c1 0 2 .8 2 1.8v4.4c0 1-1 1.8-2 1.8H19c-1 0-2-.8-2-1.8v-4.4z"/>
      <path d="M30 14h5l-2.5 3"/>
    </g>
    <g fill="#9FC5AA" transform="translate(28)">
      <path d="M4.5 8C6.5 8 8 6.4 8 4.5 8 2.5 6.4 1 4.5 1 2.5 1 1 2.6 1 4.5 1 6.5 2.6 8 4.5 8zm0 1C2 9 0 7 0 4.5S2 0 4.5 0 9 2 9 4.5 7 9 4.5 9z"/>
      <ellipse cx="4.5" cy="4.5" rx="1.5" ry="1.5"/>
    </g>
  </g>
</svg>
