<svg xmlns="http://www.w3.org/2000/svg" width="37" height="27" viewBox="0 0 37 27">
  <g fill="none" fill-rule="evenodd">
    <path fill="#9A4CBE" d="M0 3h16v13H0V3zm1 1h14v11H1V4zm20-1h16v13H21V3zm1 1h14v11H22V4z"/>
    <path fill="#9A4CBE" d="M13.5909127 13.1085398c.249394.4923399.0028276.8914602-.5469582.8914602H2.83918815c-.55147068 0-.81685083-.4076085-.58960868-.9174515l1.736681-3.89643686c.7837526-1.75843606 2.27650932-1.8814397 3.333283-.27607687l.64559314.98073147c.60597518.92054716 1.72467744 1.04092766 2.5148152.25279466l-1.05070063 1.0480348c1.17065235-1.1676822 2.72327875-.9226321 3.47589705.5631455l.6857645 1.3537986zm20.9962006-.0234904c.2493939.4923399.0028276.8914602-.5469583.8914602H23.8353887c-.5514707 0-.8168508-.4076084-.5896087-.9174515l1.736681-3.89643686c.7837526-1.75843606 2.2765093-1.8814397 3.333283-.27607686l.6455932.98073147c.6059751.92054715 1.7246774 1.04092765 2.5148151.25279465l-1.0507006 1.0480348c1.1706524-1.1676821 2.7232787-.9226321 3.475897.5631455l.6857646 1.3537986z"/>
    <path fill="#D1B2DF" d="M11.5606602 8.06066017c-.5857865.58578644-1.5355339.58578644-2.12132037 0-.58578644-.58578644-.58578644-1.5355339 0-2.12132034.58578647-.58578644 1.53553387-.58578644 2.12132037 0 .5857864.58578644.5857864 1.5355339 0 2.12132034zm21 0c-.5857865.58578644-1.5355339.58578644-2.1213204 0-.5857864-.58578644-.5857864-1.5355339 0-2.12132034.5857865-.58578644 1.5355339-.58578644 2.1213204 0 .5857864.58578644.5857864 1.5355339 0 2.12132034zM0 0h9v2H0zm21 0h9v2h-9zM1.5 19H14v-1H1v1h.5zm0 2H14v-1H1v1h.5zm.0909091 2H14v-1H1v1h.5909091zM22.5 19H35v-1H22v1h.5zm0 2H35v-1H22v1h.5zm.0909091 2H35v-1H22v1h.5909091z"/>
  </g>
</svg>
