<svg xmlns="http://www.w3.org/2000/svg" width="37" height="27" viewBox="0 0 37 27"><path fill="none" d="M0 0h37v27H0z"/><path fill="#7497cf" d="M3 12h1v1H3zm0 2h1v1H3zm0 2h1v1H3zm0 2h1v1H3zm0 2h1v1H3zm0 2h1v1H3zm2 0h1v1H5zm2 0h1v1H7zm2 0h1v1H9zm2 0h1v1h-1z"/><path fill="#a8bdc6" d="M1 1h11v2H1zM1 4v7h20V4zm19 6H2V5h18z"/><path fill="#a8bdc6" d="M3 8h16v1H3zM3 6h16v1H3z"/><path fill="#a5acb0" d="M13 16h11v2H13zM13 19v7h20v-7zm19 6H14v-5h18z"/><path fill="#a5acb0" d="M15 23h16v1H15zM15 21h16v1H15z"/><path fill="#7498cf" d="M28.118 13.62a2.997 2.997 0 1 1-4.238-4.237l2.557-2.557a2.946 2.946 0 0 1 4.183 0 83.357 83.357 0 0 1-1.084 1.137 1.389 1.389 0 0 0-1.953.009l-2.557 2.557a1.376 1.376 0 1 0 1.945 1.945l.895-.783a3.768 3.768 0 0 0 1.999.304l-1.747 1.625z"/><path fill="#7498cf" d="M28.224 4.973a3.324 3.324 0 0 1 2.014.28l1.29-1.227a1.376 1.376 0 1 1 1.946 1.945l-2.557 2.557a1.389 1.389 0 0 1-1.953.01l-1.15 1.136a3.01 3.01 0 0 0 4.25 0l2.556-2.557a2.997 2.997 0 1 0-4.237-4.237z"/></svg>