<svg xmlns="http://www.w3.org/2000/svg" width="37" height="27" viewBox="0 0 37 27"><g fill="none" fill-rule="evenodd"><path fill="#D1B2DF" d="M24 8h11v1H24V8zm0-4h8v2h-8V4zm0 6h11v1H24v-1zm0 2h11v1H24v-1zm0 2h11v1H24v-1zm0 2h11v1H24v-1z"/><path fill="#9A4CBD" d="M9.009 4H4.997A2 2 0 0 0 3 6.009v7.982C3 15.098 3.894 16 4.997 16h15.006A2 2 0 0 0 22 13.991V6.01A2.005 2.005 0 0 0 20.003 4h-2.318l-.55-1.106c-.25-.501-.893-.894-1.446-.894h-4.685c-.562 0-1.2.4-1.446.894L9.008 4zM13 15a5 5 0 1 1 0-10 5 5 0 0 1 0 10zm0-1.5a3.5 3.5 0 1 0 0-7 3.5 3.5 0 0 0 0 7zM19.5 7a.5.5 0 1 0 0-1 .5.5 0 0 0 0 1zM5 3.5c0-.276.214-.5.505-.5h.99c.279 0 .505.232.505.5V4H5v-.5z"/><path fill="#D1B2DF" d="M3 18h32v1H3v-1zm0 4h32v1H3v-1zm0-2h32v1H3v-1zm0 4h32v1H3v-1z"/></g></svg>