<svg xmlns="http://www.w3.org/2000/svg" width="37" height="27" viewBox="0 0 37 27"><g fill="none" fill-rule="evenodd"><path fill="#A5ACB0" d="M20 7h16v1H20V7zm0 2h16v1H20V9zm0 2h16v1H20v-1zM2 22h34v1H2v-1zm0-2h34v1H2v-1zm0 4h34v1H2v-1z"/><path fill="#A8BDC6" d="M20 2h12v2H20zM20 15h16v2H20z"/><g fill="#9FC5AA" transform="translate(1 2.5)"><path d="M4 3.5l1.547 5.65c.532 1.35 1.726 1.35 1.726 1.35h5.754c.749 0 1.546-.593 1.786-1.325l1.427-4.35c.238-.728-.171-1.325-.918-1.325H4z"/><ellipse cx="11.5" cy="13" rx="1.5" ry="1.5"/><ellipse cx="6.5" cy="13" rx="1.5" ry="1.5"/><path d="M3.316.812a.64.64 0 0 0-.61-.45H.642a.642.642 0 0 0-.64.645c0 .356.286.644.64.644l1.783.014L5.959 12.77c.045.144.42.729 1.03.729h4.036l.561-.49-.64-.5H6.99L3.316.813z"/></g></g></svg>