<svg xmlns="http://www.w3.org/2000/svg" width="37" height="27" viewBox="0 0 37 27"><g fill="none" fill-rule="evenodd"><path fill="#A5ACB0" d="M20 6h14v1H20V6zm0 2h14v1H20V8zm0 2h14v1H20v-1zm0 2h14v1H20v-1zm0 2h14v1H20v-1zm0 2h10v1H20v-1z"/><path fill="#A8BDC6" d="M20 1h12v3H20z"/><g fill="#A8BDC6"><path d="M17 15c0-2.027-.87-4.35-2.664-5.436C13.196 8.874 11.502 9 10 9c-1.463 0-3.32-.094-4.443.564C3.713 10.644 3 12.94 3 15h14zM10 8.703c-1.657 0-3-2.521-3-4.648S8.343 1 10 1s3 .928 3 3.055c0 2.127-1.343 4.648-3 4.648zm0-1c.88 0 2-1.85 2-3.648C12 2.652 11.289 2 10 2c-1.289 0-2 .652-2 2.055 0 1.798 1.12 3.648 2 3.648z"/></g><path fill="#A8BDC6" d="M3 20h32v7H3v-7zm1 1h30v5H4v-5zM3 18h15v2H3z"/><path fill="#A8BDC6" d="M5 22h28v1H5v-1zm0 2h24v1H5v-1z"/></g></svg>