<svg xmlns="http://www.w3.org/2000/svg" width="37" height="27" viewBox="0 0 37 27">
  <g fill="none" fill-rule="evenodd">
    <path fill="#A5ACB0" d="M20 7h16v1H20V7zm0 2h16v1H20V9zm0 2h16v1H20v-1z"/>
    <path fill="#A8BDC6" d="M2 22h34v1H2v-1zm0-2h34v1H2v-1zm0 4h34v1H2v-1z"/>
    <path fill="#A5ACB0" d="M20 2h12v2H20z"/>
    <path fill="#A8BDC6" d="M20 15h16v4H20z"/>
    <path fill="#E29999" d="M11.0228038 16.4033048c-.5754181-.487129-1.46786636-.4890957-2.04560764 0l-.4257104.3603915c-.5452916.4616249-1.01377442.3044805-1.19493817-.4045691l-.1411141-.5523008c-.1907391-.7465261-.9116356-1.2947214-1.6549314-1.2528881l-.5476998.030825c-.7015476.0394837-.9919148-.3745838-.7385124-1.0591756l.197383-.53325c.2667958-.7207757-.0071909-1.6058076-.6321276-2.0272155l-.4604865-.3105156c-.5898362-.3977389-.5911774-.9105699 0-1.30921317l.4604864-.31051568c.6224238-.4197134.9000005-1.30352985.6321275-2.02721548l-.197383-.53324993c-.2528275-.68303878.0353697-1.09874915.7385124-1.05917568l.5476998.030825c.740307.04166513 1.4634222-.503348 1.6549314-1.25288806l.1411141-.55230084c.1807527-.70744104.6484067-.8672436 1.1949381-.4045691l.4257104.3603916c.57541813.48712897 1.4678664.48909563 2.0456076 0l.4257104-.3603916c.5452916-.46162488 1.0137745-.30448046 1.1949382.4045691l.1411141.55230084c.1907391.74652614.9116355 1.2947214 1.6549314 1.25288807l.5476998-.030825c.7015475-.0394837.9919147.37458386.7385124 1.05917567l-.197383.53324993c-.2667958.72077568.0071908 1.60580758.6321275 2.02721548l.4604865.31051568c.5898362.3977389.5911773.91056987 0 1.30921317l-.4604865.3105156c-.6224238.4197135-.9000005 1.3035299-.6321275 2.0272155l.197383.53325c.2528275.6830387-.0353697 1.0987491-.7385124 1.0591756l-.5476998-.030825c-.7403071-.0416651-1.4634222.503348-1.6549314 1.2528881l-.1411141.5523008c-.1807528.7074411-.6484067.8672436-1.1949382.4045691l-.4257104-.3603915zm-.5903178.7571257l.4257104.3603916c1.0746053.9097234 2.3348176.4790949 2.6899193-.9107235l.1411141-.5523008c.0772859-.3024864.4011492-.5465827.699777-.5297756l.5476998.030825c1.3825387.0778104 2.1591592-1.0424266 1.6624616-2.3843051l-.197383-.5332499c-.1081035-.2920525.0162154-.6878894.267291-.857195l.4604865-.3105156c1.1623894-.7838235 1.1587754-2.16577668 0-2.94716317l-.4604865-.31051568c-.252201-.17006446-.3749121-.56644576-.267291-.85719493l.197383-.53324993c.4982467-1.3460635-.2842213-2.4618736-1.6624616-2.3843051l-.5476998.030825c-.2999664.0168824-.6228359-.2286391-.699777-.5297756l-.1411141-.5523009c-.3562092-1.394153-1.6186551-1.8176186-2.6899193-.9107235l-.4257104.3603916c-.2331548.1973807-.63285766.1964999-.86497198 0l-.4257104-.3603916c-1.07460532-.9097235-2.3348176-.479095-2.68991933.9107235l-.1411141.5523008c-.077286.3024863-.4011492.5465826-.6997771.5297756l-.5476998-.030825c-1.3825387-.0778104-2.1591592 1.0424266-1.6624616 2.3843051l.197383.5332499c.1081035.2920524-.0162154.6878894-.2672911.8571949l-.4604865.3105157c-1.1623894.7838235-1.1587754 2.1657767 0 2.9471632l.4604865.3105156c.2522011.1700645.3749121.5664458.267291.857195l-.19738298.5332499c-.49824674 1.3460635.2842213 2.4618736 1.66246156 2.3843051l.54769976-.030825c.2999664-.0168824.622836.2286391.699777.5297756l.1411141.5523008c.35620923 1.394153 1.6186551 1.8176185 2.68991936.9107235l.4257104-.3603916c.23315472-.1973807.63285763-.1964999.86497193 0z"/>
    <path fill="#889196" d="M6.74339207 8.30417227c0-.16509728.0099118-.33916463.02973568-.52220726.0198239-.1830426.06112304-.3517264.12389868-.5060565.06277565-.15433.15032984-.2835347.2626652-.3876177s.2610123-.1561238.44603524-.1561238c.19163092 0 .3419598.0520408.4509912.1561238.10903137.1040831.19328163.2332877.2527533.3876178.05947166.1543301.09746687.3230139.11398678.5060566.0165199.1830427.02477974.353521.02477974.5114401 0 .1650973-.0099118.3409592-.0297357.5275909-.0198239.1866317-.0611231.3571101-.1238987.5114401-.0627757.1543301-.1503299.2817402-.2626652.3822342-.1123354.100494-.2643162.1507403-.4559472.1507403-.185023 0-.3320479-.05204076-.4410793-.15612382-.1090314-.10408303-.1932817-.2332877-.2527533-.38761773-.0594717-.15433005-.0974669-.3230139-.1139868-.5060565-.0165199-.18304265-.0247798-.353521-.0247798-.5114401zM6 8.3257066c0 .29430384.02808342.5706582.0842511.82907133s.1470258.48452124.2725771.6783311c.12555128.19380987.29074787.34634307.4955947.45760427.20484685.1112612.45594566.166891.75330397.166891.29075035 0 .5352413-.0610133.73348018-.1830417.19823888-.1220284.3617835-.28173972.49063876-.47913864.1288553-.19739893.2213654-.42709605.2775331-.68909825.0561677-.2620022.0842511-.532973.0842511-.8129206 0-.2943038-.0247795-.5724527-.0743392-.8344549-.0495597-.2620022-.1354619-.4899048-.2577092-.6837146-.1222473-.1938098-.2841399-.3481376-.4856828-.4629879-.2015428-.1148502-.4575976-.1722745-.7681718-.1722745-.3039663 0-.558369.0592188-.7632159.1776582-.2048468.1184394-.3700434.2781507-.4955947.4791387-.1255513.200988-.2147574.43247966-.2676211.69448186C6.0264315 7.75325388 6 8.03140276 6 8.32570658zm5.6398678 3.4239569c0-.1650973.0099118-.3391646.0297357-.5222072.0198239-.1830427.0611231-.3517265.1238987-.5060566.0627756-.15433.1503298-.2835347.2626652-.3876177.1123354-.1040831.2610123-.1561239.4460352-.1561239.191631 0 .3419599.0520408.4509912.1561239.1090314.104083.1932817.2332877.2527533.3876177.0594717.1543301.0974669.3230139.1139868.5060566.0165199.1830426.0247798.3535209.0247798.5114401 0 .1650972-.0099118.3409591-.0297357.5275908s-.0611231.3571101-.1238987.5114401c-.0627756.1543301-.1503298.2817402-.2626652.3822342-.1123354.100494-.2643162.1507402-.4559471.1507402-.185023 0-.332048-.0520407-.4410793-.1561238-.1090314-.104083-.1932817-.2332877-.2527533-.3876177-.0594717-.1543301-.0974669-.3230139-.1139868-.5060566-.0165199-.1830426-.0247798-.3535209-.0247798-.5114401zm-.743392.0215343c0 .2943039.0280834.5706582.0842511.8290714.0561677.2584131.1470258.4827267.2725771.6729475.1255513.1902208.2907478.3409595.4955947.4522207.2048468.1112612.4559456.166891.7533039.166891.2907504 0 .5352413-.0592188.7334802-.1776581.1982389-.1184394.3617835-.2763562.4906388-.4737551s.2213653-.427096.277533-.6890982c.0561677-.2620022.0842511-.5329731.0842511-.8129206 0-.2943039-.0247795-.5724527-.0743392-.8344549-.0495597-.2620023-.1354619-.4899049-.2577092-.6837147-.1222473-.1938099-.28414-.34813762-.4856829-.4629879-.2015428-.1148503-.4575975-.17227457-.7681718-.17227457-.3039662 0-.558369.0592188-.7632158.17765815-.2048469.11843935-.3700434.27815062-.4955947.47913862-.1255513.200988-.2147575.4324796-.2676212.6944818-.0528637.2620022-.0792951.5401511-.0792951.8344549zM12.284141 6l-5.33259915 8h.8524229L13.126652 6h-.842511z"/>
  </g>
</svg>
