<svg xmlns="http://www.w3.org/2000/svg" width="24" height="24" data-name="Layer 1" viewBox="0 0 24 24">
  <path fill="none" d="M0 0h24v24H0z"/>
  <path fill="#828282" d="M19.27438 17.61236c-.05805.01832-1.19943 1.52116-7.15791 1.46628h-.69024c-5.99376.05488-7.14194-1.448-7.20038-1.46628a3.83926 3.83926 0 0 1 .4866-2.566C5.452 13.91 8.76008 13.48855 9.4801 13.30528s.58393-.64151.58393-.64151l-.05926-.55832a7.45855 7.45855 0 0 1-1.539-2.57751c-.23027-.26932-.46928-.50987-.57577-.66574a1.29109 1.29109 0 0 1-.09387-1.00668.22037.22037 0 0 1 .2399-.02c-.14056-3.02024 1.80377-3.86106 3.58474-3.8759v-.00077c.01628-.0001.08114-.0001.09732 0V3.961c1.78886.01488 3.743.8583 3.59 3.89927a.15519.15519 0 0 1 .10741.03821 1.25254 1.25254 0 0 1-.09721 1.008 4.46349 4.46349 0 0 1-.33843.38349 9.51481 9.51481 0 0 1-1.42664 2.59126l-.08254.78249s-.13549.45826.58033.64151 4.00467.60476 4.73976 1.74108a3.859 3.859 0 0 1 .48361 2.56605z" style="isolation:isolate"/>
</svg>
