<svg xmlns="http://www.w3.org/2000/svg" width="24" height="24" data-name="Layer 1" viewBox="0 0 24 24">
  <g data-name="SVG set">
    <path fill="none" d="M0 0h24v24H0z" data-name="ic user-copy-2"/>
    <g data-name="ic winExpand">
      <path fill="#666" d="M4.85417 6.89583h14.4375v2.0964H4.85417z"/>
      <path fill="#555" d="M18.06012 6H6.00177A1.99343 1.99343 0 0 0 4 7.99756v8.97125a1.99769 1.99769 0 0 0 2.00177 1.99756h12.05835a1.99343 1.99343 0 0 0 2.00177-1.99756V7.99756A1.99769 1.99769 0 0 0 18.06012 6zm.80176 10.96881a.79347.79347 0 0 1-.80176.79755H6.00177A.79766.79766 0 0 1 5.2 16.96881V7.99756A.79347.79347 0 0 1 6.00177 7.2h12.05835a.79766.79766 0 0 1 .80176.79755v8.97125z"/>
    </g>
  </g>
</svg>
