<svg xmlns="http://www.w3.org/2000/svg" width="17" height="17" viewBox="0 0 17 17">
  <path fill="#828282" d="M11.69808 12.60156a1.43638 1.43638 0 0 1-1.29018-.9479l-.04364-.14327a1.42726 1.42726 0 0 0-1.29407-.9479H7.95783a1.43923 1.43923 0 0 0-1.29407.9479l-.04364.14327a1.43322 1.43322 0 0 1-1.29018.9479h.04587a.66017.66017 0 0 1-.67213-.93689l2.3648-6.72778A1.5083 1.5083 0 0 1 8.4042 4h.20792a1.50665 1.50665 0 0 1 1.337.93689l2.374 6.72778a.66239.66239 0 0 1-.67085.93689h.04586zM9.64732 8.99023L8.812 6.23641c-.16-.52752-.41675-.52969-.5749 0l-.82221 2.75382h2.23243zM2 2h13v1H2zm0 12h13v1H2z"/>
  <path fill="#979696" d="M2 4h4v1H2V4zm0 2h3v1H2V6zm0 2h2.5v1H2V8zm0 2h2v1H2v-1zm5.5 2h2v1h-2v-1zM2 12h1.5v1H2v-1zm9-8h4v1h-4V4zm1 2h3v1h-3V6zm.5 2H15v1h-2.5V8zm.5 2h2v1h-2v-1zm.5 2H15v1h-1.5v-1z"/>
</svg>
