<svg xmlns="http://www.w3.org/2000/svg" width="23" height="23" viewBox="0 0 23 23">
<path d="M9.167,3.324A8.50674,8.50674,0,0,1,11.5,3a.5.5,0,0,0,0-1A9.48974,9.48974,0,0,0,7.30627,20.01H4a.5.5,0,0,0,0,1H7.518a1.49585,1.49585,0,0,0,1.491-1.49V16a.5.5,0,0,0-1,0v3.2381A8.49325,8.49325,0,0,1,9.167,3.324Z M20.60266,8.77545A9.49221,9.49221,0,0,0,15.71594,3H19a.5.5,0,0,0,0-1H15.49A1.49632,1.49632,0,0,0,14,3.49V7a.5.5,0,0,0,1,0V3.76855A8.49075,8.49075,0,0,1,11.5,20a.5.5,0,0,0,0,1A9.49413,9.49413,0,0,0,20.60266,8.77545Z" style="fill: #3a3a3a"/>
</svg>
