<svg xmlns="http://www.w3.org/2000/svg" width="24" height="24" data-name="Layer 1" viewBox="0 0 24 24">
  <g data-name="SVG set">
    <path fill="none" d="M0 0h24v24H0z" data-name="ic user-copy"/>
    <path fill="#555" d="M18.668 5.74994L16.85645 7.5498a6.92047 6.92047 0 1 0-.11554 9.87805.74476.74476 0 0 0 .02228-1.05774.75636.75636 0 0 0-1.06451-.02216 5.42269 5.42269 0 1 1 .093-7.74023l-2.064 2.05072c-.19507.19385-.13879.351.14789.351h4.64453a.50206.50206 0 0 0 .5011-.49786V5.89685c.00004-.27496-.16286-.33606-.3532-.14691z" data-name="ic winReload"/>
  </g>
</svg>
