<svg xmlns="http://www.w3.org/2000/svg"  width="23" height="23" viewBox="0 0 23 23"><circle cx="11.5" cy="16.5" r="1" fill="#09992E"/><path d="M11.5 2C6.3 2 2 6.3 2 11.5S6.3 21 11.5 21s9.5-4.3 9.5-9.5S16.7 2 11.5 2zm0 18C6.8 20 3 16.2 3 11.5S6.8 3 11.5 3 20 6.8 20 11.5 16.2 20 11.5 20z M13.2 6.4c-.6-.3-1.3-.4-1.7-.4s-1.1.1-1.7.4C8.7 7 8 8 8 9.5c0 .3.2.5.5.5s.5-.2.5-.5c0-1.1.4-1.8 1.2-2.2l.9-.3h.8c.3.1.6.1.9.3.8.4 1.2 1.1 1.2 2.2s-.3 1.5-1.2 1.9c-.1 0-.1 0-.2.1-1.1.5-1.6.9-1.6 2v.5c0 .3.2.5.5.5s.5-.2.5-.5v-.5c0-.6.2-.8 1-1.1.1 0 .2-.1.2-.1 1.2-.5 1.8-1.3 1.8-2.8 0-1.5-.7-2.5-1.8-3.1z" fill="#09992E"/></svg>
