<svg xmlns="http://www.w3.org/2000/svg" width="17" height="17" viewBox="0 0 17 17">
  <title>ico_bold</title>
  <g>
    <rect width="17" height="17" style="fill: #ccc;fill-opacity: 0"/>
    <path d="M11.915,9.516a2.19981,2.19981,0,0,0-1.371-.793V8.656a1.36089,1.36089,0,0,0,.951-0.69,2.42482,2.42482,0,0,0,.42-1.47,2.10582,2.10582,0,0,0-.96-1.924,5.317,5.317,0,0,0-2.92-.6H5.008V13.96H8.664a4.272,4.272,0,0,0,2.683-.76605,2.546,2.546,0,0,0,.988-2.133A2.58034,2.58034,0,0,0,11.915,9.516ZM7.044,5.7H8.158a2.69966,2.69966,0,0,1,1.33.25,0.882,0.882,0,0,1,.42.824,1,1,0,0,1-.386.882,2.24989,2.24989,0,0,1-1.248.267H7.044V5.7Zm2.673,6.169a2.04777,2.04777,0,0,1-1.292.335H7.044v-2.6H8.356L8.357,9.6q1.777,0,1.777,1.244A1.236,1.236,0,0,1,9.717,11.869Z" style="fill: #444"/>
  </g>
</svg>
