<svg xmlns="http://www.w3.org/2000/svg" width="45" height="45" viewBox="0 0 45 45">
      <path d="M0,3.99335A3.996,3.996,0,0,1,3.99345-.0001H45l-45,45V3.99335Z" style="fill: #fec34b"/>
      <path d="M10.12934,26.276L4.0554,20.202l0.8245-.8245L12.839,20.95609,8.07017,16.18727l0.77064-.77064,6.07394,6.07394-0.8245.8245L6.127,20.73236l4.773,4.773-0.77064.77064h0Zm7.63592-10.46988,0.86593-.67534a2.659,2.659,0,0,1,.37289,1.72357,2.87121,2.87121,0,0,1-.88665,1.63242,2.84643,2.84643,0,0,1-2.12546.93636A3.2854,3.2854,0,0,1,13.75879,18.321,3.4384,3.4384,0,0,1,12.607,16.02568a2.737,2.737,0,0,1,.87007-2.09646,2.66029,2.66029,0,0,1,2.0426-.84107,3.3757,3.3757,0,0,1,2.24976,1.13109q0.06629,0.06629.19473,0.203l-3.28142,3.28142a2.39121,2.39121,0,0,0,1.52056.7002,1.7265,1.7265,0,0,0,1.30511-.53447,1.61384,1.61384,0,0,0,.48475-0.91565,2.02251,2.02251,0,0,0-.22788-1.14767h0Zm-3.65431,1.243,2.45692-2.45692a2.108,2.108,0,0,0-1.11452-.551,1.61642,1.61642,0,0,0-1.35483.493,1.67546,1.67546,0,0,0-.52,1.20774,1.92479,1.92479,0,0,0,.5324,1.30718h0ZM21.70131,14.704l-5.74662-3.05354,0.77064-.77064,3.24,1.83958L21.171,13.403q-0.05386-.087-0.67949-1.13524L18.61462,8.99052,19.38111,8.224l3.211,1.89344L23.65276,10.739,23.05614,9.63686l-1.78987-3.298,0.72506-.72506,3.02454,5.77563-0.77478.77478-3.33528-1.93488-0.91979-.58,2.49421,4.27579-0.77892.77892h0Z" style="fill: #212121"/>
</svg>