<svg xmlns="http://www.w3.org/2000/svg" width="26" height="26" viewBox="0 0 26 26"><path fill="#fff" d="M22.63 16.471a2.732 2.732 0 0 0-1.319-1.848l-.671-.388A7.77 7.77 0 0 0 20.75 13a7.77 7.77 0 0 0-.11-1.235l.671-.388a2.75 2.75 0 0 0-2.75-4.763l-.672.388a7.721 7.721 0 0 0-2.139-1.236V4.99a2.75 2.75 0 0 0-5.5 0v.775a7.721 7.721 0 0 0-2.139 1.236l-.672-.388a2.75 2.75 0 0 0-2.75 4.763l.671.388A7.77 7.77 0 0 0 5.25 13a7.77 7.77 0 0 0 .11 1.235l-.671.388a2.75 2.75 0 0 0 2.75 4.763l.672-.388a7.721 7.721 0 0 0 2.139 1.236v.775a2.75 2.75 0 0 0 5.5 0V19.71a.75.75 0 0 0-1.5 0v1.3a1.25 1.25 0 0 1-2.5 0v-1.3a.75.75 0 0 0-.536-.719 6.242 6.242 0 0 1-2.508-1.45.75.75 0 0 0-.89-.104l-1.127.65a1.25 1.25 0 0 1-1.25-2.165l1.125-.65a.75.75 0 0 0 .355-.822 6.309 6.309 0 0 1 0-2.9.75.75 0 0 0-.355-.822l-1.125-.65a1.25 1.25 0 0 1 1.25-2.165l1.126.65a.75.75 0 0 0 .89-.104 6.242 6.242 0 0 1 2.509-1.45.75.75 0 0 0 .536-.72V4.992a1.25 1.25 0 0 1 2.5 0V6.29a.75.75 0 0 0 .536.719 6.242 6.242 0 0 1 2.508 1.45.75.75 0 0 0 .89.104l1.127-.65a1.25 1.25 0 0 1 1.25 2.165l-1.125.65a.75.75 0 0 0-.355.822 6.309 6.309 0 0 1 0 2.9.75.75 0 0 0 .355.822l1.125.65a1.232 1.232 0 0 1 .597.836 1.254 1.254 0 0 1-1.847 1.33l-1.126-.651a.75.75 0 1 0-.75 1.299l1.126.65a2.754 2.754 0 0 0 4.07-2.915z M10.499 11.175a.75.75 0 0 0-.977.414A3.752 3.752 0 1 0 13 9.25a.75.75 0 0 0 0 1.5 2.239 2.239 0 1 1-2.25 2.239 2.221 2.221 0 0 1 .162-.837.75.75 0 0 0-.413-.977z"/></svg>
