<svg xmlns="http://www.w3.org/2000/svg" width="26" height="26" viewBox="0 0 26 26"><path d="M15.890924 10.934668h3.986575v.843091h-1.434124v3.482459h-1.11543v-3.482459h-1.437021zm-.579444 0v4.32555h-1.057486v-2.966754l-1.57319 2.966754h-1.245805v-4.32555h1.057486v2.966753l1.57319-2.966753zm-6.0436018 2.117868l1.5007598 2.207682H9.606853l-1.0111299-1.477583-1.0024381 1.477583H6.4257052l1.5007601-2.207682-1.4428157-2.117868h1.1646825l.947391 1.393563.9444938-1.393563h1.1704771zM12.955078 1.1640625c-.44867.011282-.876431.1920166-1.197266.5058594l-1.1875 1.1679687c-.285813.2326915-.6533265.340411-1.0195308.2988282L7.9199219 2.796875c-.9462964-.196869-1.8761622.3995995-2.0917969 1.3417969l-.3671875 1.625c-.1139603.3509134-.3646421.6410284-.6953125.8046875l-1.5566406.59375c-.9019769.3476304-1.3602905 1.3527953-1.03125 2.2617187l.5683594 1.5644529c.093663.356847.039443.736388-.1503907 1.052735l-.9882812 1.341796c-.5704078.779427-.4133612 1.871812.3535156 2.458985l1.3261719 1.009765c.2712346.24974.4303587.598264.4414062.966797l-.1054687 1.664063c-.0581522.963919.6645418 1.797664 1.6269531 1.876953l1.6601562.132813c.3633065.06321.685788.270222.8945313.574218l.8105469 1.455078c.4715822.842632 1.5300006 1.154085 2.3828126.701172l1.470703-.787109c.339747-.142928.722753-.142928 1.0625 0l1.470703.787109c.852812.452913 1.911231.14146 2.382813-.701172l.808593-1.455078c.193239-.279392.499765-.459448.837891-.492187h.185547c1 0 1-1.5 0-1.5h-.185547c-.881971.03344-1.688257.507385-2.146484 1.261719l-.810547 1.457031c-.07436.127872-.236305.174389-.367188.105469l-1.46875-.785157c-.782011-.379043-1.694551-.379043-2.476562 0l-1.470703.785157c-.129935.0664-.289108.02019-.3632816-.105469l-.8125-1.457031c-.452861-.742152-1.2208123-1.235887-2.0839844-1.339844l-1.6621094-.132813c-.1465641-.01372-.2565658-.140051-.25-.287109l.1054688-1.664063c.0201634-.869284-.359143-1.699871-1.0292969-2.253906l-1.3261719-1.009765c-.1152644-.091497-.1384649-.257338-.0527344-.376954l.9863282-1.341796c.4873946-.720384.6176761-1.624437.3535156-2.453126l-.5683594-1.5664058c-.0479194-.1384403.0206723-.2901993.15625-.3457031L5.3007812 7.96875c.7993667-.3427683 1.3975075-1.0330415 1.6230469-1.8730469l.3691407-1.625c.0350916-.1418626.1746816-.2317825.3183593-.2050781l1.6328125.3398438c.8575864.1432015 1.7335064-.1144645 2.3769534-.6992188l1.189453-1.1679688c.106354-.1003898.272552-.1003898.378906 0L14.378906 3.90625c.643446.5847541 1.519367.8424201 2.376953.6992188l1.632813-.3398438c.143678-.026704.283267.063216.318359.2050781l.369141 1.625c.225539.8400055.82368 1.5302787 1.623047 1.8730469l1.55664.5957031c.135578.055504.204169.2072628.15625.3457031l-.568359 1.5664058c-.264312.828677-.134021 1.732797.353516 2.453126l.986328 1.341796c.08573.119616.06253.285457-.05273.376954l-1.326171 1.009765c-.670883.553649-1.050936 1.384294-1.03125 2.253906l.169921 2.666016c.02756 1.03629 1.598117.937874 1.496094-.09375l-.167969-2.666016c.01105-.368533.170172-.717057.441407-.966797l1.326171-1.009765c.766877-.587172.923924-1.679558.353516-2.458985l-.988281-1.341796c-.189834-.316347-.244054-.695888-.150391-1.052735l.56836-1.5644529c.32904-.9089234-.129273-1.9140883-1.03125-2.2617187l-1.556641-.59375c-.330278-.1632085-.580903-.4525535-.695318-.8027344l-.367187-1.6269531c-.216106-.9418661-1.145605-1.5380996-2.091797-1.3417969l-1.630859.3398438c-.366204.041583-.733717-.066137-1.019531-.2988282l-1.1875-1.1679687c-.343067-.3355977-.807348-.5180693-1.28711-.5058594z"/></svg>
