<svg width="26" height="26" fill="none" xmlns="http://www.w3.org/2000/svg"><path fill-rule="evenodd" clip-rule="evenodd" d="M8.25 5.5a4.25 4.25 0 1 1 8.5 0 4.25 4.25 0 0 1-8.5 0zm4.25-2.75a2.75 2.75 0 1 0 0 5.5 2.75 2.75 0 0 0 0-5.5z" fill="#9A4CBD"/><path fill-rule="evenodd" clip-rule="evenodd" d="M11.75 4a.75.75 0 0 1 .75-.75 2.25 2.25 0 0 1 2.25 2.25.75.75 0 0 1-1.5 0 .75.75 0 0 0-.75-.75.75.75 0 0 1-.75-.75zM6.736 13.25a1.25 1.25 0 0 0-1.118.691l-2 4a1.25 1.25 0 0 0 1.118 1.809h15.528a1.25 1.25 0 0 0 1.118-1.809l-2-4a1.25 1.25 0 0 0-1.118-.691H16.5a.75.75 0 0 1 0-1.5h1.764a2.75 2.75 0 0 1 2.46 1.52l2 4c.914 1.829-.416 3.98-2.46 3.98H4.736c-2.044 0-3.374-2.151-2.46-3.98l2-4a2.75 2.75 0 0 1 2.46-1.52H8.5a.75.75 0 0 1 0 1.5H6.736z" fill="#9A4CBD"/><path fill-rule="evenodd" clip-rule="evenodd" d="M2.907 18.756a.75.75 0 0 1 .837.651l.172 1.372a2.25 2.25 0 0 0 2.232 1.971h12.704a2.25 2.25 0 0 0 2.232-1.97l.172-1.373a.75.75 0 0 1 1.488.186l-.171 1.372a3.75 3.75 0 0 1-3.721 3.285H6.148a3.75 3.75 0 0 1-3.72-3.285l-.172-1.372a.75.75 0 0 1 .651-.837zM10.95 8.252a.75.75 0 0 1 .798.698l.434 6.502a.319.319 0 0 0 .636 0l.434-6.502a.75.75 0 1 1 1.496.1l-.433 6.502a1.819 1.819 0 0 1-3.63 0l-.433-6.502a.75.75 0 0 1 .698-.798z" fill="#9A4CBD"/><path fill-rule="evenodd" clip-rule="evenodd" d="M7.75 16.5a.75.75 0 0 1 .75-.75h8a.75.75 0 0 1 0 1.5h-8a.75.75 0 0 1-.75-.75z" fill="#9A4CBD"/></svg>