<svg xmlns="http://www.w3.org/2000/svg" width="26" height="26" viewBox="0 0 26 26"><path fill="#fff" d="M21.505 13.75H4.495a1.75 1.75 0 0 0-1.745 1.748v7.004a1.746 1.746 0 0 0 1.745 1.748h17.01a1.75 1.75 0 0 0 1.745-1.748v-7.004a1.746 1.746 0 0 0-1.745-1.748zm.245 8.752a.25.25 0 0 1-.245.248H4.495a.246.246 0 0 1-.245-.248v-7.004a.25.25 0 0 1 .245-.248h17.01a.246.246 0 0 1 .245.247z M17.5 15.75a.75.75 0 0 0-.75.75v5a.75.75 0 0 0 1.5 0v-5a.75.75 0 0 0-.75-.75zM12.5 15.75a.75.75 0 0 0-.75.75v5a.75.75 0 0 0 1.5 0v-5a.75.75 0 0 0-.75-.75zM3.5 12.21a.75.75 0 0 0 .75-.75V4.5a1.244 1.244 0 0 1 1.248-1.25h4.004a1.249 1.249 0 0 1 1.248 1.257v1.08a.75.75 0 0 0 1.5 0v-1.08A2.749 2.749 0 0 0 9.502 1.75H5.498A2.744 2.744 0 0 0 2.75 4.5v6.96a.75.75 0 0 0 .75.75zM8.98 12.02a.75.75 0 0 0 1.061 0l5.575-5.575a1.252 1.252 0 0 1 1.773.005l2.161 2.16a1.254 1.254 0 0 1 .008 1.771l-.56.56a.75.75 0 1 0 1.06 1.06l.56-.559a2.754 2.754 0 0 0-.007-3.892L18.45 5.39a2.752 2.752 0 0 0-3.895-.005l-5.574 5.575a.75.75 0 0 0 0 1.06z"/><circle cx="6.5" cy="20.5" r="1" fill="#fff"/></svg>
