<svg width="26" height="26" viewBox="0 0 26 26" xmlns="http://www.w3.org/2000/svg" style="fill-rule:evenodd;clip-rule:evenodd;stroke-linejoin:round;stroke-miterlimit:2;"><path d="M13,0.625c-1.868,0 -3.568,0.893 -4.935,2.365c-0.041,0 -0.083,0 -0.124,0c-2.857,0.015 -5.303,0.997 -6.535,3.046c-1.194,1.985 -0.967,4.51 0.256,6.967c-0.228,0.459 -0.421,0.919 -0.577,1.376c-0.681,2 -0.65,3.976 0.321,5.592c0.846,1.407 2.271,2.314 4.003,2.746c0.694,0.173 1.444,0.167 2.174,0.16c0.12,-0.001 0.24,-0.002 0.359,-0.002c1.388,1.552 3.134,2.5 5.058,2.5c1.865,0 3.563,-0.891 4.929,-2.359c2.919,0.011 5.406,-0.97 6.654,-3.045c1.194,-1.986 0.968,-4.51 -0.256,-6.968c1.224,-2.457 1.45,-4.982 0.256,-6.967c-1.232,-2.049 -3.678,-3.031 -6.534,-3.046c-0.038,0 -0.077,0 -0.115,0c-1.367,-1.473 -3.066,-2.365 -4.934,-2.365Zm-10.951,5.797c0.977,-1.626 2.91,-2.544 5.375,-2.668c-0.135,0.178 -0.266,0.363 -0.393,0.553c-1.494,2.241 -2.406,5.316 -2.406,8.693c0,1.125 0.101,2.216 0.291,3.254c-1.004,-1.047 -1.817,-2.15 -2.409,-3.251c0.462,-0.859 1.059,-1.72 1.777,-2.556c0.135,-0.157 0.118,-0.393 -0.039,-0.528c-0.158,-0.135 -0.394,-0.118 -0.529,0.039c-0.624,0.725 -1.163,1.473 -1.609,2.228c-0.946,-2.15 -1.001,-4.195 -0.058,-5.764Zm3.326,6.578c0,1.482 0.183,2.897 0.515,4.197c0.935,0.842 1.999,1.634 3.176,2.341c0.177,0.107 0.234,0.337 0.128,0.515c-0.107,0.177 -0.337,0.234 -0.515,0.128c-0.852,-0.513 -1.65,-1.069 -2.386,-1.659c0.364,1.021 0.825,1.949 1.362,2.755c1.403,2.105 3.3,3.348 5.345,3.348c1.411,0 2.753,-0.592 3.909,-1.652c-0.317,-0.025 -0.638,-0.061 -0.963,-0.107c-0.205,-0.03 -0.347,-0.22 -0.317,-0.425c0.029,-0.205 0.219,-0.347 0.424,-0.318c0.531,0.077 1.047,0.123 1.546,0.138c0.262,-0.302 0.511,-0.631 0.746,-0.984c0.54,-0.809 1.002,-1.741 1.366,-2.767c-0.74,0.594 -1.543,1.155 -2.401,1.671c-0.177,0.106 -0.408,0.049 -0.514,-0.128c-0.107,-0.178 -0.05,-0.408 0.128,-0.515c1.182,-0.711 2.251,-1.507 3.19,-2.354c0.329,-1.296 0.511,-2.707 0.511,-4.184c0,-0.667 -0.037,-1.322 -0.108,-1.958c-0.023,-0.206 0.125,-0.392 0.331,-0.415c0.205,-0.023 0.391,0.126 0.414,0.331c0.074,0.665 0.113,1.347 0.113,2.042c0,1.12 -0.1,2.207 -0.289,3.241c0.999,-1.044 1.807,-2.141 2.397,-3.238c-1.269,-2.358 -3.547,-4.723 -6.559,-6.535c-1.3,-0.781 -2.626,-1.393 -3.929,-1.838c-1.304,0.445 -2.63,1.057 -3.929,1.838c-0.446,0.268 -0.875,0.548 -1.288,0.839c-0.169,0.119 -0.403,0.078 -0.522,-0.091c-0.12,-0.17 -0.079,-0.403 0.09,-0.523c0.428,-0.3 0.872,-0.59 1.333,-0.867c1.031,-0.62 2.082,-1.139 3.129,-1.556c-1.183,-0.316 -2.334,-0.49 -3.413,-0.524c-0.259,0.3 -0.506,0.627 -0.74,0.977c-1.401,2.102 -2.28,5.027 -2.28,8.277Zm-3.268,0.821c0.772,1.306 1.825,2.593 3.114,3.781c0.415,1.539 1.034,2.927 1.81,4.091c0.099,0.149 0.201,0.294 0.305,0.436c-0.641,0.003 -1.211,-0.007 -1.745,-0.14c-1.588,-0.396 -2.822,-1.207 -3.542,-2.404c-0.826,-1.374 -0.886,-3.107 -0.254,-4.964c0.09,-0.265 0.194,-0.532 0.312,-0.8Zm21.833,5.764c-0.977,1.625 -2.915,2.543 -5.369,2.668c0.137,-0.181 0.27,-0.367 0.398,-0.56c0.778,-1.167 1.398,-2.56 1.814,-4.105c1.282,-1.183 2.33,-2.466 3.099,-3.767c0.946,2.15 1.001,4.195 0.058,5.764Zm0,-13.163c0.944,1.569 0.888,3.614 -0.058,5.764c-1.379,-2.334 -3.655,-4.606 -6.572,-6.36c-1.031,-0.62 -2.082,-1.139 -3.129,-1.556c1.187,-0.317 2.342,-0.492 3.424,-0.524c0.483,0.559 0.922,1.206 1.31,1.931c0.097,0.182 0.324,0.251 0.507,0.154c0.183,-0.098 0.252,-0.325 0.154,-0.508c-0.301,-0.562 -0.635,-1.088 -1,-1.568c2.46,0.126 4.388,1.044 5.364,2.667Zm-7.024,-3.39c-1.254,0.099 -2.577,0.368 -3.921,0.808c-1.341,-0.438 -2.661,-0.708 -3.912,-0.807c1.159,-1.063 2.503,-1.658 3.917,-1.658c1.413,0 2.758,0.595 3.916,1.657Z" style="fill:#fff;fill-opacity:0.5;"/>
<path d="M14,20c0,0.552 -0.448,1 -1,1c-0.552,0 -1,-0.448 -1,-1c0,-0.552 0.448,-1 1,-1c0.552,0 1,0.448 1,1Zm-1,-12.875c-2.14,0 -3.875,1.735 -3.875,3.875c0,0.483 0.392,0.875 0.875,0.875c0.483,0 0.875,-0.392 0.875,-0.875c0,-1.174 0.951,-2.125 2.125,-2.125c1.174,0 2.125,0.951 2.125,2.125l0,0.172c0,0.298 -0.118,0.584 -0.329,0.795l-1.536,1.536c-0.727,0.726 -1.135,1.712 -1.135,2.74l0,0.757c0,0.483 0.392,0.875 0.875,0.875c0.483,0 0.875,-0.392 0.875,-0.875l0,-0.757c0,-0.564 0.224,-1.104 0.622,-1.503l1.536,-1.536c0.539,-0.539 0.842,-1.27 0.842,-2.032l0,-0.172c0,-2.14 -1.735,-3.875 -3.875,-3.875Z" style="fill:#fff;fill-rule:nonzero;"/></svg>
