<svg xmlns="http://www.w3.org/2000/svg" width="26" height="26" viewBox="0 0 26 26"><path fill="#333" d="M5.176 9.544C6.625 7.652 9.078 5.75 13 5.75c1.136 0 2.157.16 3.072.439a.75.75 0 1 1-.437 1.434A8.997 8.997 0 0 0 13 7.25c-3.355 0-5.401 1.598-6.633 3.206a10.224 10.224 0 0 0-1.565 2.972l-.008.025.006.013a13.777 13.777 0 0 0 1.702 2.795.75.75 0 0 1-1.177.93 15.282 15.282 0 0 1-1.895-3.114 9.027 9.027 0 0 1-.12-.281l-.007-.018-.002-.005v-.003L4 13.5l-.728-.18v-.003l.002-.007.006-.02a7.222 7.222 0 0 1 .094-.319 11.724 11.724 0 0 1 1.802-3.426zM4 13.5l-.728-.18a.753.753 0 0 0 .028.45l.7-.27zm14.235-5.478a.75.75 0 0 1 1.056-.1c1.352 1.12 2.22 2.465 2.749 3.517.265.528.448.989.565 1.32a8.408 8.408 0 0 1 .163.508l.008.033.003.01.001.003v.001s0 .002-.726.186l.698.275-.002.003-.002.006-.008.019a13.75 13.75 0 0 1-.556 1.149 15.28 15.28 0 0 1-1.72 2.531C18.913 19.323 16.46 21.25 13 21.25c-2.06 0-3.767-.686-5.134-1.634a.75.75 0 1 1 .854-1.232c1.16.803 2.574 1.366 4.28 1.366 2.845 0 4.918-1.574 6.317-3.233a13.78 13.78 0 0 0 1.924-3.028l.016-.035a10.09 10.09 0 0 0-.558-1.341c-.467-.931-1.22-2.087-2.365-3.035a.75.75 0 0 1-.099-1.056zm3.819 5.478l.698.275a.752.752 0 0 0 .029-.46l-.727.185z M16.004 10.292a.75.75 0 0 1 1.058.066 4.75 4.75 0 0 1-6.705 6.704.75.75 0 0 1 .993-1.124 3.25 3.25 0 0 0 4.587-4.587.75.75 0 0 1 .067-1.06z M14.56 14.56a1.5 1.5 0 0 0 0-2.12l-2.12 2.12a1.5 1.5 0 0 0 2.12 0z M23.03 3.97a.75.75 0 0 1 0 1.06l-18 18a.75.75 0 0 1-1.06-1.06l18-18a.75.75 0 0 1 1.06 0z" clip-rule="evenodd"/></svg>
