<svg xmlns="http://www.w3.org/2000/svg" width="26" height="26" viewBox="0 0 26 26"><path d="M16.5 1.8h-7c-2.1 0-3.7 1.7-3.7 3.8v15c0 2.1 1.7 3.8 3.8 3.8h7c.4 0 .8-.3.8-.8s-.3-.8-.8-.8h-7c-1.2 0-2.3-1-2.3-2.3v-15c0-1.2 1-2.3 2.2-2.3h7c1.2 0 2.2 1 2.2 2.2v15c0 .4.3.8.8.8s.8-.3.8-.8v-15c-.1-2-1.7-3.6-3.8-3.6zM12 20.2a1.2 1.2 0 1 0 2.4 0 1.2 1.2 0 1 0-2.4 0zm4.7-14.5c-.3-.3-.8-.3-1.1 0L9.5 12c-.3.3-.3.8 0 1.1.3.3.8.3 1.1 0l6.2-6.3c.2-.4.2-.8-.1-1.1zm0 4c-.3-.3-.8-.3-1.1 0L9.5 16c-.3.3-.3.8 0 1.1.3.3.8.3 1.1 0l6.2-6.3c.2-.4.2-.8-.1-1.1zM10.5 9l2.3-2.3c.3-.3.3-.8 0-1.1-.3-.3-.8-.3-1.1 0L9.5 8c-.3.3-.3.7 0 1 .3.3.7.3 1 0zm6.3 5.7c.3-.3.3-.8 0-1.1-.3-.3-.8-.3-1.1 0l-2.2 2.2c-.3.3-.3.8 0 1.1.3.3.8.3 1.1 0l2.2-2.2z" /></svg>
