<svg xmlns="http://www.w3.org/2000/svg" width="26" height="26" viewBox="0 0 26 26"><path fill="#333" d="M12.992 8.088a.75.75 0 0 1-.674-.319 4.704 4.704 0 0 0-8.568 2.686c0 1.379.596 2.66 1.654 3.584l8.127 8.145a.751.751 0 0 1-1.062 1.06l-8.089-8.11a6.205 6.205 0 1 1 9.113-8.302l.056.079-.616.429-.471-.583.067-.054a.751.751 0 0 1 .796-.093c.055.027.108.06.157.101l.066.056-.482.574-.616-.428.065-.091A6.534 6.534 0 0 1 13 6.231a6.205 6.205 0 1 1 8.924 8.619l-5.749 5.751a.75.75 0 1 1-1.061-1.061l2.342-2.343 3.409-3.408a4.704 4.704 0 1 0-7.184-6.019.75.75 0 0 1-1.097.146l-.066-.055.482-.575.471.583-.066.054a.74.74 0 0 1-.413.165zm-6.057 3.475a.75.75 0 0 1-1.359.635 3.477 3.477 0 0 1 4.831-4.516.75.75 0 1 1-.725 1.313 1.977 1.977 0 0 0-2.747 2.568z"/></svg>