<svg xmlns="http://www.w3.org/2000/svg" width="26" height="26" viewBox="0 0 26 26"><path fill="#212121" d="M12.75 3.018h-3.5a.75.75 0 0 0 0 1.5H12V6.65H5.5V3A.75.75 0 0 0 4 3v4.4a.75.75 0 0 0 .75.75H7v15.128a.75.75 0 0 0 1.5 0V20.5h4a.75.75 0 0 0 0-1.5h-4v-6.5h4a.75.75 0 0 0 0-1.5h-4V8.15h4.25a.75.75 0 0 0 .75-.75V3.768a.75.75 0 0 0-.75-.75zM22.75 10.018h-3.5a.75.75 0 0 0 0 1.5H22v2.132h-6.5V10a.75.75 0 0 0-1.5 0v4.4a.75.75 0 0 0 .75.75h8a.75.75 0 0 0 .75-.75v-3.632a.75.75 0 0 0-.75-.75zM22.75 18.018h-3.5a.75.75 0 0 0 0 1.5H22v2.132h-6.5V18a.75.75 0 0 0-1.5 0v4.4a.75.75 0 0 0 .75.75h8a.75.75 0 0 0 .75-.75v-3.632a.75.75 0 0 0-.75-.75z"/></svg>
