<svg width="26" height="26" viewBox="0 0 26 26" fill="none" xmlns="http://www.w3.org/2000/svg">
<path fill-rule="evenodd" clip-rule="evenodd" d="M9 3.75C7.20507 3.75 5.75 5.20507 5.75 7C5.75 7.64846 5.93991 8.25256 6.26716 8.75972C4.85735 8.87792 3.75 10.0596 3.75 11.5V20.5C3.75 22.0188 4.98122 23.25 6.5 23.25H19.5C21.0188 23.25 22.25 22.0188 22.25 20.5V11.5C22.25 10.0596 21.1427 8.87793 19.7329 8.75972C20.0601 8.25257 20.25 7.64847 20.25 7.00001C20.25 5.20509 18.7949 3.75001 17 3.75001C16.1669 3.75001 15.4055 4.06443 14.8308 4.57988C14.8207 4.58895 14.8108 4.5983 14.8012 4.60791L13 6.40906L11.1988 4.6079C11.1892 4.59829 11.1794 4.58894 11.1692 4.57987C10.5945 4.06442 9.83306 3.75 9 3.75ZM13.75 10.25L17 10.25C17.0031 10.25 17.0063 10.25 17.0094 10.25H19.5C20.1904 10.25 20.75 10.8096 20.75 11.5V20.5C20.75 21.1904 20.1904 21.75 19.5 21.75H6.5C5.80964 21.75 5.25 21.1904 5.25 20.5V11.5C5.25 10.8096 5.80964 10.25 6.5 10.25H9H12.25V14.75H7.5C7.08579 14.75 6.75 15.0858 6.75 15.5C6.75 15.9142 7.08579 16.25 7.5 16.25H12.25V20C12.25 20.4142 12.5858 20.75 13 20.75C13.4142 20.75 13.75 20.4142 13.75 20V16.25H18.5C18.9142 16.25 19.25 15.9142 19.25 15.5C19.25 15.0858 18.9142 14.75 18.5 14.75H13.75V10.25ZM17.0069 8.75C17.9702 8.74628 18.75 7.96421 18.75 7.00001C18.75 6.03351 17.9665 5.25001 17 5.25001C16.5574 5.25001 16.1547 5.41339 15.8461 5.68426L13.5304 8.00005C13.2375 8.29294 12.7626 8.29295 12.4697 8.00005L10.1539 5.68425C9.84536 5.41337 9.44262 5.25 9 5.25C8.0335 5.25 7.25 6.0335 7.25 7C7.25 7.9665 8.0335 8.75 9 8.75H13H17.0069Z" fill="#212121"/>
</svg>
