<svg width="26" height="26" fill="none" xmlns="http://www.w3.org/2000/svg"><path fill-rule="evenodd" clip-rule="evenodd" d="M15.434 7.737a1.75 1.75 0 0 1 0-2.474l2.829-2.829a1.75 1.75 0 0 1 2.474 0l2.829 2.829a1.75 1.75 0 0 1 0 2.474l-2.829 2.829a1.75 1.75 0 0 1-2.474 0l-2.829-2.829zm1.06-1.414a.25.25 0 0 0 0 .354l2.83 2.828a.25.25 0 0 0 .353 0l2.828-2.828a.25.25 0 0 0 0-.354l-2.828-2.828a.25.25 0 0 0-.354 0l-2.828 2.828zM1.75 4.5c0-.966.784-1.75 1.75-1.75h4c.966 0 1.75.784 1.75 1.75v4.25h4.25c.966 0 1.75.784 1.75 1.75v4.25h4.25c.966 0 1.75.784 1.75 1.75v4a1.75 1.75 0 0 1-1.75 1.75h-16a1.75 1.75 0 0 1-1.75-1.75v-16zm1.75-.25a.25.25 0 0 0-.25.25v16c0 .138.112.25.25.25h16a.25.25 0 0 0 .25-.25v-4a.25.25 0 0 0-.25-.25h-5a.75.75 0 0 1-.75-.75v-5a.25.25 0 0 0-.25-.25h-5a.75.75 0 0 1-.75-.75v-5a.25.25 0 0 0-.25-.25h-4z" fill="#9A4CBD"/><path fill-rule="evenodd" clip-rule="evenodd" d="M8.5 11.25a.75.75 0 0 1 .75.75v9a.75.75 0 0 1-1.5 0v-9a.75.75 0 0 1 .75-.75zM14.5 17.25a.75.75 0 0 1 .75.75v3a.75.75 0 0 1-1.5 0v-3a.75.75 0 0 1 .75-.75z" fill="#9A4CBD"/><path fill-rule="evenodd" clip-rule="evenodd" d="M2.25 15.5a.75.75 0 0 1 .75-.75h11.5a.75.75 0 0 1 0 1.5H3a.75.75 0 0 1-.75-.75zM2.25 9.5A.75.75 0 0 1 3 8.75h6a.75.75 0 0 1 0 1.5H3a.75.75 0 0 1-.75-.75z" fill="#9A4CBD"/></svg>