<svg xmlns="http://www.w3.org/2000/svg" width="26" height="26" viewBox="0 0 26 26"><path fill="#212121" d="M19.5 12.25a.75.75 0 0 0 .75-.75V8.498a5.744 5.744 0 0 0-5.752-5.748h-1.996A5.75 5.75 0 0 0 6.75 8.5a.75.75 0 0 0 .75.75h3a.75.75 0 0 0 .75-.75c0-.61.96-1.25 2.25-1.25 1.077 0 2.25.903 2.25 1.25a.75.75 0 0 0 1.5 0c0-1.273-1.917-2.75-3.75-2.75a3.737 3.737 0 0 0-3.616 2H8.316a4.251 4.251 0 0 1 4.186-3.5h1.996a4.244 4.244 0 0 1 4.252 4.248v2.252H5.5a.75.75 0 0 0-.75.75v8.994a3.757 3.757 0 0 0 3.753 3.756h9.994a3.753 3.753 0 0 0 3.753-3.756V12.5a.75.75 0 0 0-1.5 0v7.994a2.253 2.253 0 0 1-2.253 2.256H8.503a2.257 2.257 0 0 1-2.253-2.256V12.25z"/><path fill="#212121" d="M11.25 15.25h4.5v.5h-1.255a.75.75 0 0 0-.75.75v3.433h-.48V16.5a.75.75 0 0 0-.75-.75H11.25zm.515 2v3.433a.75.75 0 0 0 .75.75h1.98a.75.75 0 0 0 .75-.75V17.25H16.5a.75.75 0 0 0 .75-.75v-2a.75.75 0 0 0-.75-.75h-6a.75.75 0 0 0-.75.75v2a.75.75 0 0 0 .75.75z"/></svg>