<svg xmlns="http://www.w3.org/2000/svg" width="26" height="26" viewBox="0 0 26 26"><path fill="#fff" d="M10.077 18.514l2.492-14.839a.75.75 0 1 0-1.48-.248L8.72 17.535l-6.354-.983a.75.75 0 0 0-.23 1.483l7.087 1.096a.75.75 0 0 0 .855-.617z M2.601 14.83l4.745.77a.75.75 0 0 0 .24-1.481l-4.745-.77a.75.75 0 0 0-.24 1.481zm.432-3.1l4.778.777a.75.75 0 1 0 .241-1.48l-4.778-.777a.75.75 0 1 0-.24 1.48zm.716-2.967l4.618.762a.75.75 0 1 0 .244-1.48l-4.618-.762a.75.75 0 0 0-.244 1.48zm16.034 4.767a.75.75 0 0 0-.75-.75h-1.781a.75.75 0 0 0-.718.532l-.589 1.935-2.052-.01L15.13 8.25h5.624v7.732a.75.75 0 0 0 1.5 0V7.5a.75.75 0 0 0-.75-.75H14.5a.75.75 0 0 0-.739.62l-1.5 8.482a.75.75 0 0 0 .735.88l3.5.018a.75.75 0 0 0 .722-.532l.59-1.937h1.225a.75.75 0 0 0 .75-.75zm-3.28 6.32h-1.819a3.25 3.25 0 0 0-3.184-2.6.75.75 0 0 0 0 1.5 1.75 1.75 0 1 1-1.75 1.75.75.75 0 0 0-1.5 0 3.242 3.242 0 0 0 6.373.85h1.88a.75.75 0 1 0 0-1.5zm4.997-2.6a3.25 3.25 0 1 0 3.25 3.25 3.25 3.25 0 0 0-3.25-3.25zm0 5a1.75 1.75 0 1 1 1.75-1.75 1.75 1.75 0 0 1-1.75 1.75z"/></svg>
