<svg viewBox="0 0 26 26" width="26" height="26" xmlns="http://www.w3.org/2000/svg" fill-rule="evenodd" clip-rule="evenodd" stroke-linejoin="round" stroke-miterlimit="2"><path d="M12.795.811a.75.75 0 0 1 .394.984l-1.134 2.648c-.145.338-.134.722.031 1.051l.585 1.171a.75.75 0 0 1-.229.941L9.6 9.682l-2.57 2.57a4.75 4.75 0 0 0 6.718 6.718l2.57-2.57 2.076-2.842a.75.75 0 0 1 .941-.229l1.171.585c.329.165.713.176 1.051.031l2.648-1.134a.75.75 0 1 1 .59 1.378l-2.647 1.135a2.748 2.748 0 0 1-2.313-.068l-.603-.302-1.358 1.859 1.174 1.174c.43.43.705.991.783 1.594l.363 2.823a.75.75 0 1 1-1.488.192l-.363-2.824a1.243 1.243 0 0 0-.356-.724l-1.098-1.098-1.65 1.65.194.298a2.75 2.75 0 0 1-.063 3.098l-1.738 2.439a.75.75 0 1 1-1.222-.87l1.738-2.439c.298-.419.31-.978.029-1.409l-.059-.089a6.25 6.25 0 0 1-8.148-.598 6.25 6.25 0 0 1-.598-8.148l-.089-.059a1.252 1.252 0 0 0-1.409.029L1.435 13.59a.75.75 0 1 1-.87-1.222l2.439-1.738a2.75 2.75 0 0 1 3.098-.063l.298.194 1.65-1.65-1.109-1.109a1.249 1.249 0 0 0-.707-.354l-2.84-.406a.75.75 0 1 1 .212-1.484l2.84.405a2.75 2.75 0 0 1 1.556.778l1.185 1.185 1.859-1.358-.302-.603a2.748 2.748 0 0 1-.068-2.313l1.135-2.647a.748.748 0 0 1 .984-.394zm2.178 4.206a4.25 4.25 0 0 1 6.003 6.018l-.014.013-.996.946a.748.748 0 0 1-.807.147l-2.435-1.023-5.645 6.859a.751.751 0 0 1-1.158-.954l4.149-5.041-5.1 4.102a.749.749 0 1 1-.94-1.168l6.887-5.54-1.106-2.581a.75.75 0 0 1 .172-.839l.989-.939zm3.773.373a1.25 1.25 0 0 1-2.447.456 2.89 2.89 0 0 0-.272.239l-.014.013-.617.586 1.118 2.609.013.031.044.102.204.086.032.013 2.483 1.043.632-.6c.085-.085.162-.174.233-.266a1.251 1.251 0 0 1 .456-2.447 2.747 2.747 0 0 0-1.865-1.865z" fill="#9A4CBD"/></svg>
