<svg width="26" height="26" fill="none" xmlns="http://www.w3.org/2000/svg"><path fill-rule="evenodd" clip-rule="evenodd" d="M10.75 5.5a.75.75 0 0 1 .75-.75h12a.75.75 0 0 1 0 1.5h-12a.75.75 0 0 1-.75-.75zM6.53 6.47a.75.75 0 0 1 0 1.06L3.56 10.5l2.97 2.97a.75.75 0 1 1-1.06 1.06l-3.5-3.5a.75.75 0 0 1 0-1.06l3.5-3.5a.75.75 0 0 1 1.06 0z" fill="#333"/><path fill-rule="evenodd" clip-rule="evenodd" d="M2.75 10.5a.75.75 0 0 1 .75-.75h15a.75.75 0 0 1 0 1.5h-15a.75.75 0 0 1-.75-.75zM10.75 15.5a.75.75 0 0 1 .75-.75h12a.75.75 0 0 1 0 1.5h-12a.75.75 0 0 1-.75-.75zM10.75 20.5a.75.75 0 0 1 .75-.75h12a.75.75 0 0 1 0 1.5h-12a.75.75 0 0 1-.75-.75z" fill="#333"/></svg>