<svg width="26" height="26" viewBox="0 0 26 26" fill="none" xmlns="http://www.w3.org/2000/svg"><path d="M14.5 8.25a6.25 6.25 0 104.16 10.915c.681-.608 1.825-.737 2.575.014l2.545 2.546a1.81 1.81 0 01-2.559 2.556l-1.748-1.751a.75.75 0 111.061-1.06l1.748 1.751a.309.309 0 00.436-.436l-2.544-2.546a.276.276 0 00-.215-.077.477.477 0 00-.301.122 7.75 7.75 0 112.271-3.57.75.75 0 01-1.438-.428A6.25 6.25 0 0014.5 8.25zm-7.445 15h-.563c-.182 0-.361-.018-.535-.052a.751.751 0 01.292-1.472c.078.016.159.024.243.024h.563a.75.75 0 110 1.5zM3.5 19.286a.75.75 0 01.75.75v.469c0 .084.008.166.024.244a.75.75 0 01-1.472.29 2.77 2.77 0 01-.052-.534v-.469a.75.75 0 01.75-.75zm0-3.753a.75.75 0 01.75.75v.939a.75.75 0 01-1.5 0v-.939a.75.75 0 01.75-.75zm7.97-4.063a.749.749 0 011.06 0l1.97 1.969 1.97-1.969a.749.749 0 111.06 1.06l-1.969 1.97 1.969 1.97a.749.749 0 11-1.06 1.06l-1.97-1.969-1.97 1.969a.749.749 0 11-1.06-1.06l1.969-1.97-1.969-1.97a.749.749 0 010-1.06zm-7.97.311a.75.75 0 01.75.75v.938a.75.75 0 01-1.5 0v-.938a.75.75 0 01.75-.75zm0-3.753a.75.75 0 01.75.75v.939a.75.75 0 01-1.5 0v-.939a.75.75 0 01.75-.75zm17.817-3.597a.75.75 0 01.881.591c.034.173.052.352.052.534v.431a.75.75 0 01-1.5 0v-.431c0-.084-.008-.166-.024-.244a.75.75 0 01.591-.881zM3.684 4.37a.75.75 0 01.59.881c-.016.078-.024.16-.024.244v.469a.75.75 0 01-1.5 0v-.469c0-.182.018-.362.052-.535a.75.75 0 01.882-.59zm14.533-.819a.749.749 0 01.753-.747l.542.002c.182.001.361.02.534.054a.75.75 0 01-.297 1.471 1.209 1.209 0 00-.244-.025l-.542-.002a.75.75 0 01-.746-.753zm-4.337-.019a.75.75 0 01.753-.747l1.084.005a.75.75 0 11-.006 1.5l-1.084-.005a.75.75 0 01-.747-.753zm-7.383.718c-.084 0-.165.008-.243.024a.75.75 0 01-.29-1.472 2.78 2.78 0 01.535-.052h.003l.542.002a.75.75 0 01-.006 1.5l-.541-.002zm3.046-.737a.751.751 0 01.754-.747l1.084.005a.75.75 0 11-.007 1.5l-1.084-.005a.75.75 0 01-.747-.753z" fill="#333"/></svg>
