<svg width="26" height="26" fill="none" xmlns="http://www.w3.org/2000/svg"><circle cx="13" cy="13" r="13" fill="#fff"/><circle cx="13" cy="13" r="12" fill="#27AB4A"/><path fill-rule="evenodd" clip-rule="evenodd" d="M13 23.5c5.799 0 10.5-4.701 10.5-10.5S18.799 2.5 13 2.5 2.5 7.201 2.5 13 7.201 23.5 13 23.5zm0 1.5c6.627 0 12-5.373 12-12S19.627 1 13 1 1 6.373 1 13s5.373 12 12 12z" fill="#1A8436"/><path d="M19.786 13.786l-5.432-5.432a.5.5 0 0 0-.707 0l-5.433 5.432c-.354.354-.026.95.462.841L11.5 14v5c0 4 1.5 5 1.5 5 .744.079 4 .1 6.5-1.5-1 .5-3 .5-3-1.5v-7l2.824.627c.488.109.816-.487.462-.841z" fill="#1A8436"/><path d="M18.786 12.786l-5.432-5.432a.5.5 0 0 0-.707 0l-5.433 5.432c-.354.354-.026.95.462.841L10.5 13v7c0 4 2.5 5 2.5 5 .744.079 3.5 0 6-1.6-1.06.587-3.5.1-3.5-2.203V13l2.824.627c.488.109.816-.487.462-.841z" fill="#fff"/></svg>