<svg xmlns="http://www.w3.org/2000/svg" width="26" height="26" viewBox="0 0 26 26"><path fill="#333" d="M21.506 12.75a.75.75 0 1 0-.006 1.5 1.25 1.25 0 0 1 1.25 1.25v6.066h-.26a2.249 2.249 0 0 1-2.24-2.25V7.506a3.755 3.755 0 0 0-3.759-3.753l-12.99-.01a.75.75 0 0 0-.751.75v14.003a4.75 4.75 0 0 0 4.745 4.746l9.505.004a.75.75 0 0 0 0-1.5l-9.504-.005a3.25 3.25 0 0 1-3.246-3.246V5.245l12.24.009a2.255 2.255 0 0 1 2.26 2.253v11.808a3.749 3.749 0 0 0 3.74 3.751h1.01a.75.75 0 0 0 .75-.75v-6.815a2.749 2.749 0 0 0-2.744-2.751zm-6.006-5h-9a.75.75 0 0 0 0 1.5h9a.75.75 0 0 0 0-1.5zm-9 4.5h6a.75.75 0 0 0 0-1.5h-6a.75.75 0 0 0 0 1.5zm9 1.5h-9a.75.75 0 0 0 0 1.5h9a.75.75 0 0 0 0-1.5zm-9 3a.75.75 0 0 0 0 1.5h6a.75.75 0 0 0 0-1.5z"/></svg>