<svg xmlns="http://www.w3.org/2000/svg" width="26" height="26" viewBox="0 0 26 26"><path fill="#212121" d="M23.501 11.683h-2.225l-.03-3.174a.75.75 0 0 0-.739-.743l-.995-.016a.75.75 0 0 0-.539.216l-3.723 3.676V8.5a.75.75 0 0 0-.75-.75h-1.003a.75.75 0 0 0-.533.222l-3.772 3.803-1.56-.017-.383-6.303A.75.75 0 0 0 6.5 4.75h-3a.75.75 0 0 0-.749.708l-1 18a.75.75 0 0 0 .749.792h5a.75.75 0 0 0 .749-.796l-.442-7.204H19.75l.032 4.354a.75.75 0 1 0 1.5-.01l-.038-5.1a.75.75 0 0 0-.75-.744H7.01a.75.75 0 0 0-.748.796l.442 7.204h-3.41l.916-16.5h1.585l.382 6.295a.75.75 0 0 0 .74.705l2.577.028a.75.75 0 0 0 .54-.222L13.75 9.31v3.19a.75.75 0 0 0 .774.75l.98-.032a.75.75 0 0 0 .503-.216l3.746-3.698.03 3.137a.75.75 0 0 0 .75.742h2.218v9.567H10.496a.75.75 0 0 0 0 1.5h13.005a.75.75 0 0 0 .75-.75V12.433a.75.75 0 0 0-.75-.75zM5.699 3.704a.75.75 0 0 0 .988-.385l.484-1.103a.328.328 0 0 1 .395-.163l.508.19 1.63 1.783a2.259 2.259 0 0 0 3.01.274l.88-.67a1.516 1.516 0 0 1 1.45-.107l.873.484a.75.75 0 1 0 .727-1.312l-.873-.484a3 3 0 0 0-3.085.225l-.88.67a.76.76 0 0 1-.994-.091L9.06 1.096A.751.751 0 0 0 8.767.9L8.09.647a1.827 1.827 0 0 0-2.292.966l-.484 1.103a.75.75 0 0 0 .386.988zM18.94 4.825l1.18.258a.75.75 0 0 0 .32-1.465l-1.18-.258a.75.75 0 0 0-.32 1.465z"/></svg>