<svg xmlns="http://www.w3.org/2000/svg" width="26" height="26" viewBox="0 0 26 26"><path fill="#fff" d="M22.245 19.467l-.072-.077-.163-.152-.43-.4a498.848 498.848 0 0 0-2.642-2.439 40.258 40.258 0 0 0-.591-.526l-.068-.054c-.01-.033-.01-.033-.463-.158a.75.75 0 0 0-.592.29 7.297 7.297 0 0 1-1.482 1.43 7.25 7.25 0 1 1 3.007-6.009 9.708 9.708 0 0 1-.157 1.68.75.75 0 0 0 1.475.274 11.113 11.113 0 0 0 .182-1.98 9.013 9.013 0 1 0-2.372 6.116l.052.047c.327.298.77.705 1.3 1.195a679.763 679.763 0 0 1 1.758 1.632l.12.112c.308.38.299.675.104.845a.732.732 0 0 1-.952-.117.671.671 0 0 0-.05-.044l-.172-.152-.554-.49a70.97 70.97 0 0 1-1.093-.982.75.75 0 0 0-1.025 1.094c.19.18.589.536 1.123 1.01l.556.492.174.154.065.057a2.22 2.22 0 0 0 2.916.107 2.062 2.062 0 0 0 .046-2.955zM11.5 7.5a3.977 3.977 0 0 1 2.288.718.75.75 0 0 0 .859-1.23 5.5 5.5 0 0 0-6.413 8.938.75.75 0 1 0 .892-1.207A4 4 0 0 1 11.5 7.5z"/></svg>