<svg xmlns="http://www.w3.org/2000/svg" width="26" height="26" viewBox="0 0 26 26"><path fill="#333" d="M19 10.75a2.242 2.242 0 0 0-.994.231 2.249 2.249 0 0 0-3.001-.999A2.247 2.247 0 0 0 12.25 8.88V4.005a2.25 2.25 0 1 0-4.5 0v7.781L6.82 10.3a2.252 2.252 0 0 0-4.102.688 2.165 2.165 0 0 0 .245 1.62l3.614 7.605a.75.75 0 1 0 1.355-.645L4.276 11.89a.75.75 0 0 1 1.272-.795l2.316 3.705A.75.75 0 0 0 9.25 14.4V4.005a.75.75 0 1 1 1.5 0V11.5a.75.75 0 0 0 1.5 0v-.495a.75.75 0 1 1 1.5 0V12.5a.75.75 0 0 0 1.5 0V12a.742.742 0 0 1 .75-.75.751.751 0 0 1 .75.75v1.5a.75.75 0 0 0 1.5 0V13a.75.75 0 0 1 1.5 0v6.506a3.25 3.25 0 0 1-3.25 3.244h-3.53a5.585 5.585 0 0 1-2.741-.825.75.75 0 1 0-.76 1.293 7.09 7.09 0 0 0 3.501 1.032h3.53a4.752 4.752 0 0 0 4.75-4.744V13A2.253 2.253 0 0 0 19 10.75z"/></svg>