<svg xmlns="http://www.w3.org/2000/svg" width="26" height="26" viewBox="0 0 26 26"><path fill="#212121" d="M22.843 7.444l-8.606-4.43a2.925 2.925 0 0 0-2.474 0l-8.606 4.43a.75.75 0 0 0-.407.667v7.845a.75.75 0 0 0 1.5 0V9.729l8 4.118v7.702l-6.847-3.524a.75.75 0 1 0-.686 1.334l7.044 3.625a2.941 2.941 0 0 0 2.476.001l8.606-4.429a.75.75 0 0 0 .407-.667V8.111a.75.75 0 0 0-.407-.667zM13.75 21.549v-7.702l1.657-.853a.75.75 0 0 0-.687-1.334l-1.72.886-8.24-4.24 3.635-1.871 9.355 4.773v3.382a.75.75 0 0 0 1.5 0V10.75a.75.75 0 0 0-.41-.668l-8.802-4.492 2.411-1.24a1.455 1.455 0 0 1 1.102 0l7.697 3.96-.54.284a.75.75 0 0 0 .698 1.328l.344-.18v7.69z"/></svg>
