<svg xmlns="http://www.w3.org/2000/svg" width="26" height="26" viewBox="0 0 26 26"><path fill="#212121" d="M22.5 3.75h-8a.75.75 0 0 0-.75.75v8a.75.75 0 0 0 .75.75h8a.75.75 0 0 0 .75-.75v-8a.75.75 0 0 0-.75-.75zm-.75 8h-6.5v-6.5h2.5V7.5a.75.75 0 0 0 1.5 0V5.25h2.5zm.75 3h-8a.75.75 0 0 0-.75.75v8a.75.75 0 0 0 .75.75h8a.75.75 0 0 0 .75-.75v-8a.75.75 0 0 0-.75-.75zm-.75 8h-6.5v-6.5h2.5v2.25a.75.75 0 0 0 1.5 0v-2.25h2.5zm-10.25-8h-8a.75.75 0 0 0-.75.75v8a.75.75 0 0 0 .75.75h8a.75.75 0 0 0 .75-.75v-8a.75.75 0 0 0-.75-.75zm-.75 8h-6.5v-6.5h2.5v2.25a.75.75 0 0 0 1.5 0v-2.25h2.5zm-.72-20.78a.75.75 0 1 0-1.06 1.06l1.78 1.78v6.94h-6.5V4.81l1.78-1.78a.75.75 0 0 0-1.06-1.06l-2 2a.75.75 0 0 0-.22.53v8a.75.75 0 0 0 .75.75h8a.75.75 0 0 0 .75-.75v-8a.75.75 0 0 0-.22-.53zM4.75 5.5a.75.75 0 0 0 .75.75h4a.75.75 0 0 0 0-1.5h-4a.75.75 0 0 0-.75.75z"/></svg>
