<svg viewBox="0 0 26 26" width="26" height="26" xmlns="http://www.w3.org/2000/svg" fill-rule="evenodd" clip-rule="evenodd" stroke-linejoin="round" stroke-miterlimit="2"><path d="M19.75 16.395a7.643 7.643 0 0 1-1.454.773c-1.649.679-3.875 1.082-6.296 1.082a20.73 20.73 0 0 1-2.594-.16.75.75 0 1 1 .188-1.488c.758.096 1.567.148 2.406.148 2.274 0 4.297-.381 5.725-.969.715-.294 1.245-.626 1.584-.956.336-.328.441-.606.441-.825v-1.605a7.643 7.643 0 0 1-1.454.773c-1.649.679-3.875 1.082-6.296 1.082a20.73 20.73 0 0 1-2.594-.16.75.75 0 1 1 .188-1.488c.758.096 1.567.148 2.406.148 2.274 0 4.297-.381 5.725-.969.715-.294 1.245-.626 1.584-.956.336-.328.441-.606.441-.825V8.395a7.643 7.643 0 0 1-1.454.773c-1.649.679-3.875 1.082-6.296 1.082a20.73 20.73 0 0 1-2.594-.16.75.75 0 1 1 .188-1.488c.758.096 1.567.148 2.406.148 2.274 0 4.297-.381 5.725-.969.715-.294 1.245-.626 1.584-.956.336-.328.441-.606.441-.825 0-.219-.105-.497-.441-.825-.339-.33-.869-.662-1.584-.956-1.428-.588-3.451-.969-5.725-.969-2.274 0-4.298.381-5.725.969-.715.294-1.245.626-1.584.956-.337.328-.441.606-.441.825a.75.75 0 0 1-1.5 0c0-.748.371-1.39.895-1.9.521-.507 1.236-.93 2.059-1.268C7.353 2.153 9.579 1.75 12 1.75c2.421 0 4.647.403 6.296 1.082.823.338 1.538.761 2.059 1.268.524.51.895 1.152.895 1.9a2.2 2.2 0 0 1-.023.317c.015.058.023.12.023.183V10c0 .108-.008.213-.023.317.015.058.023.12.023.183V14a2.2 2.2 0 0 1-.023.317.74.74 0 0 1 .023.183V18c0 .748-.371 1.39-.895 1.9-.521.507-1.236.93-2.059 1.268-1.649.679-3.875 1.082-6.296 1.082-2.421 0-4.647-.403-6.296-1.082-.823-.338-1.538-.761-2.059-1.268-.524-.51-.895-1.152-.895-1.9v-7.5a.75.75 0 0 1 1.5 0V18c0 .219.104.497.441.825.339.33.869.662 1.584.956 1.427.588 3.451.969 5.725.969 2.274 0 4.297-.381 5.725-.969.715-.294 1.245-.626 1.584-.956.336-.328.441-.606.441-.825v-1.605zm-13.958.026a.75.75 0 0 1 .956-.46c.15.052.306.103.468.151a.75.75 0 0 1-.432 1.437 14.436 14.436 0 0 1-.532-.172.75.75 0 0 1-.46-.956zm0-4a.75.75 0 0 1 .956-.46c.15.052.306.103.468.151a.75.75 0 0 1-.432 1.437 14.436 14.436 0 0 1-.532-.172.75.75 0 0 1-.46-.956zm0-4a.75.75 0 0 1 .956-.46c.15.052.306.103.468.151a.75.75 0 0 1-.432 1.437 12.755 12.755 0 0 1-.532-.172.75.75 0 0 1-.46-.956z" fill="#333"/></svg>
