<svg xmlns="http://www.w3.org/2000/svg" width="26" height="26" viewBox="0 0 26 26"><path fill="#fff" d="M22.78 13.315a8.775 8.775 0 0 0-.428-1.203 11.737 11.737 0 0 0-1.503-2.57A9.488 9.488 0 0 0 13 5.75a9.414 9.414 0 0 0-7.824 3.794 11.627 11.627 0 0 0-1.485 2.572 8.724 8.724 0 0 0-.42 1.205.75.75 0 0 0 .03.449 11.245 11.245 0 0 0 .557 1.178A14.992 14.992 0 0 0 5.56 17.48 9.518 9.518 0 0 0 13 21.25a9.594 9.594 0 0 0 7.464-3.767 15.146 15.146 0 0 0 1.72-2.531 11.342 11.342 0 0 0 .568-1.178.75.75 0 0 0 .029-.459zm-3.462 3.202A8.133 8.133 0 0 1 13 19.75a8.056 8.056 0 0 1-6.289-3.23 13.51 13.51 0 0 1-1.53-2.28 11.79 11.79 0 0 1-.387-.787c.06-.192.15-.446.28-.757a10.143 10.143 0 0 1 1.293-2.24A7.926 7.926 0 0 1 13 7.25a7.999 7.999 0 0 1 6.662 3.209 10.251 10.251 0 0 1 1.31 2.242c.132.308.224.561.286.753-.09.198-.218.462-.392.782a13.66 13.66 0 0 1-1.548 2.28zM13.5 8.75a.75.75 0 0 0 0 1.5 3.25 3.25 0 1 1-3.25 3.25.75.75 0 0 0-1.5 0 4.75 4.75 0 1 0 4.75-4.75zM12 13.5a1.5 1.5 0 1 0 3 0 1.5 1.5 0 1 0-3 0z"/></svg>
