<svg width="26" height="26" fill="none" xmlns="http://www.w3.org/2000/svg"><path fill-rule="evenodd" clip-rule="evenodd" d="M4.691 5.175c-.337.328-.441.606-.441.825 0 .219.104.497.441.825.34.33.869.662 1.584.956 1.427.588 3.451.969 5.725.969 2.274 0 4.297-.38 5.725-.969.715-.294 1.245-.626 1.584-.956.336-.328.441-.606.441-.825 0-.219-.105-.497-.441-.825-.34-.33-.869-.662-1.584-.956C16.297 3.63 14.274 3.25 12 3.25c-2.274 0-4.298.38-5.725.969-.715.294-1.245.626-1.584.956zm1.013-2.343C7.354 2.152 9.579 1.75 12 1.75c2.42 0 4.647.403 6.296 1.082.823.338 1.538.76 2.06 1.268.523.51.894 1.152.894 1.9s-.371 1.39-.895 1.9c-.521.507-1.236.93-2.059 1.268-1.65.68-3.875 1.082-6.296 1.082-2.42 0-4.647-.403-6.296-1.082-.823-.338-1.538-.76-2.06-1.268-.523-.51-.894-1.152-.894-1.9s.371-1.39.895-1.9c.521-.507 1.236-.93 2.059-1.268z" fill="#333"/><path fill-rule="evenodd" clip-rule="evenodd" d="M3.5 5.75a.75.75 0 0 1 .75.75V10c0 .219.104.497.441.825.34.33.869.662 1.584.956 1.427.588 3.451.969 5.725.969 2.274 0 4.297-.38 5.725-.969.715-.294 1.245-.626 1.584-.956.336-.328.441-.606.441-.825V6.5a.75.75 0 0 1 1.5 0V10c0 .748-.371 1.39-.895 1.9-.521.507-1.236.93-2.059 1.268-1.65.68-3.875 1.082-6.296 1.082-2.42 0-4.647-.403-6.296-1.082-.823-.338-1.538-.76-2.06-1.268-.523-.51-.894-1.152-.894-1.9V6.5a.75.75 0 0 1 .75-.75z" fill="#333"/><path fill-rule="evenodd" clip-rule="evenodd" d="M3.5 9.75a.75.75 0 0 1 .75.75V14c0 .219.104.497.441.825.34.33.869.662 1.584.956 1.427.588 3.451.969 5.725.969a.75.75 0 0 1 0 1.5c-2.42 0-4.647-.403-6.296-1.082-.823-.338-1.538-.76-2.06-1.268-.523-.51-.894-1.152-.894-1.9v-3.5a.75.75 0 0 1 .75-.75zM19.77 14.3c.29.112.48.39.48.7v2.75h3.25a.75.75 0 0 1 .555 1.255l-5 5.5A.75.75 0 0 1 17.75 24v-2.75H14.5a.75.75 0 0 1-.555-1.255l5-5.5a.75.75 0 0 1 .825-.194zm-3.575 5.45H18.5a.75.75 0 0 1 .75.75v1.56l2.555-2.81H19.5a.75.75 0 0 1-.75-.75v-1.56l-2.555 2.81z" fill="#333"/><path fill-rule="evenodd" clip-rule="evenodd" d="M3.5 13.75a.75.75 0 0 1 .75.75V18c0 .219.104.497.441.825.34.33.869.662 1.584.956 1.427.588 3.451.969 5.725.969a.75.75 0 0 1 0 1.5c-2.42 0-4.647-.403-6.296-1.082-.823-.338-1.538-.76-2.06-1.268-.523-.51-.894-1.152-.894-1.9v-3.5a.75.75 0 0 1 .75-.75z" fill="#333"/></svg>