<svg width="26" height="26" viewBox="0 0 26 26" xmlns="http://www.w3.org/2000/svg"><path d="M12.5,23.25l-6.24,0c-1.091,0 -2.09,-0.474 -2.723,-1.239c-0.644,-0.778 -0.896,-1.852 -0.473,-2.943c0.656,-1.688 1.908,-3.709 4.254,-4.296c0.402,-0.1 0.809,0.144 0.909,0.546c0.101,0.402 -0.143,0.809 -0.545,0.91c-1.625,0.406 -2.62,1.841 -3.22,3.384c-0.212,0.545 -0.093,1.051 0.231,1.443c0.336,0.407 0.904,0.695 1.567,0.695l6.24,0c0.414,0 0.75,0.336 0.75,0.75c0,0.414 -0.336,0.75 -0.75,0.75Zm-0.708,-5.497l0.002,-0.006l0.005,-0.014c0.004,-0.012 0.01,-0.028 0.018,-0.048c0.015,-0.04 0.037,-0.096 0.065,-0.166c0.058,-0.139 0.144,-0.332 0.261,-0.562c0.233,-0.459 0.595,-1.072 1.111,-1.688c1.035,-1.237 2.724,-2.519 5.229,-2.519c2.505,0 4.202,1.281 5.244,2.516c0.52,0.616 0.886,1.229 1.123,1.687c0.118,0.23 0.206,0.423 0.264,0.562c0.029,0.069 0.052,0.125 0.067,0.165c0.008,0.02 0.014,0.036 0.018,0.048l0.008,0.027c0.065,0.186 0.055,0.386 -0.028,0.563l-0.005,0.011l-0.002,0.004l-0.007,0.014c-0.005,0.011 -0.013,0.026 -0.023,0.045c-0.02,0.039 -0.048,0.093 -0.084,0.16c-0.074,0.135 -0.181,0.324 -0.322,0.549c-0.281,0.449 -0.7,1.05 -1.249,1.654c-1.085,1.192 -2.775,2.495 -5.004,2.495c-2.229,0 -3.911,-1.305 -4.988,-2.497c-0.546,-0.605 -0.96,-1.206 -1.238,-1.655c-0.14,-0.226 -0.246,-0.415 -0.318,-0.55c-0.037,-0.067 -0.064,-0.121 -0.084,-0.16c-0.009,-0.019 -0.017,-0.034 -0.022,-0.045l-0.007,-0.014l-0.002,-0.004l-0.001,-0.001l0,-0.002c-0.085,-0.177 -0.031,-0.569 -0.031,-0.569Zm1.534,0.206c0.054,0.097 0.123,0.215 0.206,0.35c0.244,0.394 0.606,0.918 1.076,1.438c0.954,1.058 2.263,2.003 3.875,2.003c1.613,0 2.931,-0.946 3.894,-2.005c0.475,-0.521 0.84,-1.045 1.087,-1.44c0.083,-0.132 0.152,-0.25 0.207,-0.346c-0.041,-0.09 -0.092,-0.197 -0.154,-0.318c-0.199,-0.386 -0.506,-0.898 -0.936,-1.407c-0.857,-1.015 -2.169,-1.984 -4.098,-1.984c-1.928,0 -3.23,0.968 -4.079,1.981c-0.426,0.509 -0.728,1.021 -0.924,1.406c-0.063,0.122 -0.114,0.231 -0.154,0.322Zm4.424,-1.959c0,-0.414 0.336,-0.75 0.75,-0.75c1.519,0 2.75,1.231 2.75,2.75c0,1.519 -1.231,2.75 -2.75,2.75c-1.519,0 -2.75,-1.231 -2.75,-2.75c0,-0.414 0.336,-0.75 0.75,-0.75c0.414,0 0.75,0.336 0.75,0.75c0,0.69 0.559,1.25 1.25,1.25c0.69,0 1.25,-0.56 1.25,-1.25c0,-0.69 -0.56,-1.25 -1.25,-1.25c-0.414,0 -0.75,-0.336 -0.75,-0.75Zm-11.5,-9.034c0.018,-2.898 2.347,-5.216 5.25,-5.216c0.414,0 0.75,0.336 0.75,0.75c0,0.414 -0.336,0.75 -0.75,0.75c-2.078,0 -3.737,1.651 -3.75,3.726l0,0.024c0,1.829 0.43,3.306 1.063,4.301c0.635,0.995 1.425,1.449 2.187,1.449c0.738,0 1.533,-0.486 2.182,-1.53c0.641,-1.033 1.068,-2.516 1.068,-4.22c0,-0.475 -0.273,-0.889 -0.883,-1.223c-0.619,-0.339 -1.487,-0.527 -2.367,-0.527c-0.414,0 -0.75,-0.336 -0.75,-0.75c0,-0.414 0.336,-0.75 0.75,-0.75c1.059,0 2.191,0.221 3.087,0.712c0.906,0.495 1.663,1.332 1.663,2.538c0,1.937 -0.482,3.704 -1.294,5.011c-0.805,1.296 -2.01,2.239 -3.456,2.239c-1.422,0 -2.632,-0.857 -3.451,-2.143c-0.821,-1.287 -1.299,-3.06 -1.299,-5.107l0,-0.034Z" style="fill:#9A4CBD;"/></svg>
