<svg xmlns="http://www.w3.org/2000/svg" width="26" height="26" viewBox="0 0 26 26"><path fill="#212121" d="M20.493 4.75a.75.75 0 0 0 0 1.5 1.25 1.25 0 0 1 1.257 1.247v14.006a1.247 1.247 0 0 1-1.244 1.247H5.494a1.244 1.244 0 0 1-1.244-1.247V7.497A1.252 1.252 0 0 1 5.503 6.25a.75.75 0 0 0 0-1.5A2.752 2.752 0 0 0 2.75 7.497v14.006a2.744 2.744 0 0 0 2.744 2.747h15.012a2.747 2.747 0 0 0 2.744-2.747V7.497a2.75 2.75 0 0 0-2.757-2.747z M19.506 10.75h-6a.75.75 0 0 0 0 1.5h6a.75.75 0 0 0 0-1.5zM13.506 14.25h4a.75.75 0 0 0 0-1.5h-4a.75.75 0 0 0 0 1.5zM20.256 17.5a.75.75 0 0 0-.75-.75h-6a.75.75 0 0 0 0 1.5h6a.75.75 0 0 0 .75-.75zM13.506 18.75a.75.75 0 0 0 0 1.5h4a.75.75 0 0 0 0-1.5zM7.5 7.25h11a.75.75 0 0 0 .75-.75V5a2.25 2.25 0 0 0-2.256-2.25h-.998a3.244 3.244 0 0 0-5.992 0h-.998A2.251 2.251 0 0 0 6.75 5v1.5a.75.75 0 0 0 .75.75zm1.506-3h1.544a.75.75 0 0 0 .735-.6 1.75 1.75 0 0 1 3.43 0 .75.75 0 0 0 .735.6h1.544a.75.75 0 0 1 .756.75v.75h-9.5V5a.751.751 0 0 1 .756-.75zM7.963 13.176a.75.75 0 0 0 1.078.02l2.927-2.919a.75.75 0 0 0-1.06-1.062l-2.377 2.371-.835-.893A.75.75 0 0 0 6.6 11.717z"/></svg>
