<svg xmlns="http://www.w3.org/2000/svg" width="26" height="26" viewBox="0 0 26 26"><path fill="#fff" d="M21.508 6.75H9.506A1.466 1.466 0 0 0 8.05 8.665l1.728 6.041a.75.75 0 0 0 .721.544h7a.75.75 0 0 0 0-1.5h-6.434L9.493 8.252c-.012-.043 12.015-.002 12.015-.002.567 0 .766.295.553.829l-2.888 7.22a.854.854 0 0 1-.669.451H9.496a.693.693 0 0 1-.573-.427L5.217 4.28A.75.75 0 0 0 4.5 3.75h-3a.75.75 0 0 0 0 1.5h2.446l3.543 11.515a2.181 2.181 0 0 0 2.007 1.485h9.008a2.335 2.335 0 0 0 2.061-1.394l2.888-7.22a2 2 0 0 0-1.945-2.886zM12 20.75a.75.75 0 0 0-.75.75.75.75 0 1 1-.75-.75.75.75 0 0 0 0-1.5 2.25 2.25 0 1 0 2.25 2.25.75.75 0 0 0-.75-.75zM18 20.75a.75.75 0 0 0-.75.75.75.75 0 1 1-.75-.75.75.75 0 0 0 0-1.5 2.25 2.25 0 1 0 2.25 2.25.75.75 0 0 0-.75-.75z M19.25 11.5a.75.75 0 0 0-.75-.75h-6a.75.75 0 0 0 0 1.5h6a.75.75 0 0 0 .75-.75z"/></svg>
