<svg width="26" height="26" fill="none" xmlns="http://www.w3.org/2000/svg"><path fill-rule="evenodd" clip-rule="evenodd" d="M6.75 9.5A2.75 2.75 0 0 1 9.5 6.75h7a2.75 2.75 0 0 1 2.75 2.75v7a2.75 2.75 0 0 1-2.75 2.75h-7a2.75 2.75 0 0 1-2.75-2.75v-7zM9.5 8.25c-.69 0-1.25.56-1.25 1.25v7c0 .69.56 1.25 1.25 1.25h7c.69 0 1.25-.56 1.25-1.25v-7c0-.69-.56-1.25-1.25-1.25h-7z" fill="#333"/><path fill-rule="evenodd" clip-rule="evenodd" d="M16.515 10.455c.301.285.315.76.03 1.06l-3.782 4a.75.75 0 0 1-1.077.013l-2.218-2.233a.75.75 0 0 1 1.064-1.057l1.673 1.684 3.25-3.437a.75.75 0 0 1 1.06-.03zM5.5 4.25a1.26 1.26 0 0 0-.245.024.75.75 0 0 1-.29-1.472A2.76 2.76 0 0 1 5.5 2.75H6a.75.75 0 0 1 0 1.5h-.5zm2.75-.75A.75.75 0 0 1 9 2.75h1a.75.75 0 0 1 0 1.5H9a.75.75 0 0 1-.75-.75zm4 0a.75.75 0 0 1 .75-.75h.5c.183 0 .362.018.536.052a.75.75 0 0 1-.291 1.472 1.26 1.26 0 0 0-.245-.024H13a.75.75 0 0 1-.75-.75zm3.066.874a.75.75 0 0 1 .882.59c.034.174.052.353.052.536v.25a.75.75 0 0 1-1.5 0V5.5c0-.084-.008-.166-.024-.245a.75.75 0 0 1 .59-.881zm-11.632 0a.75.75 0 0 1 .59.881 1.26 1.26 0 0 0-.024.245V6a.75.75 0 0 1-1.5 0v-.5c0-.183.018-.362.052-.536a.75.75 0 0 1 .882-.59zM3.5 8.25a.75.75 0 0 1 .75.75v1a.75.75 0 0 1-1.5 0V9a.75.75 0 0 1 .75-.75zm0 4a.75.75 0 0 1 .75.75v.5c0 .084.008.166.024.245a.75.75 0 0 1-1.472.29 2.76 2.76 0 0 1-.052-.535V13a.75.75 0 0 1 .75-.75zm.874 3.066a.75.75 0 0 1 .881-.59c.079.016.16.024.245.024h.25a.75.75 0 0 1 0 1.5H5.5a2.76 2.76 0 0 1-.536-.052.75.75 0 0 1-.59-.882zM19.5 10.5a.75.75 0 0 1 .75-.75h.25c.183 0 .362.018.536.052a.75.75 0 0 1-.291 1.472 1.264 1.264 0 0 0-.245-.024h-.25a.75.75 0 0 1-.75-.75zm2.816.874a.75.75 0 0 1 .882.59c.034.174.052.353.052.536v.5a.75.75 0 0 1-1.5 0v-.5c0-.084-.008-.166-.024-.245a.75.75 0 0 1 .59-.881zm.184 3.876a.75.75 0 0 1 .75.75v1a.75.75 0 0 1-1.5 0v-1a.75.75 0 0 1 .75-.75zm0 4a.75.75 0 0 1 .75.75v.5c0 .183-.018.362-.052.536a.75.75 0 0 1-1.472-.291c.016-.079.024-.16.024-.245V20a.75.75 0 0 1 .75-.75zm-12 .25a.75.75 0 0 1 .75.75v.25c0 .084.008.166.024.245a.75.75 0 1 1-1.472.29 2.76 2.76 0 0 1-.052-.535v-.25a.75.75 0 0 1 .75-.75zm.874 2.816a.75.75 0 0 1 .881-.59c.079.016.16.024.245.024h.5a.75.75 0 0 1 0 1.5h-.5a2.76 2.76 0 0 1-.536-.052.75.75 0 0 1-.59-.882zm10.252 0a.75.75 0 0 1-.59.882 2.76 2.76 0 0 1-.536.052H20a.75.75 0 0 1 0-1.5h.5c.084 0 .166-.008.245-.024a.75.75 0 0 1 .881.59zm-6.376.184a.75.75 0 0 1 .75-.75h1a.75.75 0 0 1 0 1.5h-1a.75.75 0 0 1-.75-.75z" fill="#333"/></svg>