<svg width="26" height="26" fill="none" xmlns="http://www.w3.org/2000/svg"><path fill-rule="evenodd" clip-rule="evenodd" d="M5.465 4.951a.75.75 0 0 1 .037 1.06c-.11.118-.216.237-.32.36A.75.75 0 0 1 4.04 5.4c.118-.14.24-.277.366-.411a.75.75 0 0 1 1.06-.038zM3.27 7.81a.75.75 0 0 1 .377.992c-.131.29-.249.59-.353.894a.75.75 0 0 1-1.42-.484c.12-.35.254-.691.405-1.025a.75.75 0 0 1 .991-.377zm-1.224 3.926a.75.75 0 0 1 .715.784 10.435 10.435 0 0 0-.002.906.75.75 0 0 1-1.5.061 11.952 11.952 0 0 1 .004-1.036.75.75 0 0 1 .783-.715zm.196 3.692a.75.75 0 0 1 .933.504c.081.272.173.54.276.803a.75.75 0 1 1-1.397.546 11.668 11.668 0 0 1-.317-.92.75.75 0 0 1 .505-.933zm1.375 3.366a.75.75 0 0 1 1.047.172c.165.23.34.454.523.67a.75.75 0 0 1-1.143.971c-.21-.247-.41-.503-.6-.767a.75.75 0 0 1 .173-1.046zm2.396 2.736a.75.75 0 0 1 1.046-.175c.115.082.232.161.35.239a.75.75 0 1 1-.819 1.256c-.136-.088-.27-.18-.402-.274a.75.75 0 0 1-.175-1.046z M13 2.75a10.22 10.22 0 0 0-7.498 3.261.75.75 0 1 1-1.097-1.022A11.72 11.72 0 0 1 13 1.25c6.49 0 11.75 5.26 11.75 11.75a11.74 11.74 0 0 1-5.383 9.877c-1.089.703-2.286.574-3.177-.055-.87-.612-1.44-1.684-1.44-2.884V13a.75.75 0 0 1 .913-.732l1.985.441L13 8.061l-4.648 4.648 1.985-.441a.75.75 0 0 1 .913.732v7c0 1.547.542 2.341 1.002 2.755.24.217.48.348.656.424l.092.041c.379 0 .75.366.75.78a.75.75 0 0 1-.75.75l-.148-.015h-.003l-.006-.002-.013-.003a3.35 3.35 0 0 1-.519-.175 3.94 3.94 0 0 1-1.063-.685c-.79-.711-1.498-1.917-1.498-3.87v-6.065l-1.911.425c-1.22.27-2.04-1.22-1.155-2.104l5.432-5.433a1.25 1.25 0 0 1 1.768 0l5.432 5.432c.885.885.066 2.376-1.155 2.105l-1.911-.425v6.002c0 .731.348 1.338.804 1.66.433.305.966.364 1.5.02A10.24 10.24 0 0 0 23.25 13c0-5.66-4.589-10.25-10.25-10.25z" fill="#333"/></svg>
