<svg xmlns="http://www.w3.org/2000/svg" width="26" height="26" viewBox="0 0 26 26"><path fill="#fff" d="M23.683 7.181C23.073 5.841 21.978 4.75 21 4.75H6a.75.75 0 0 0 0 1.5h15c.22 0 .85.622 1.25 1.42v10.66c-.4.8-1.028 1.42-1.25 1.42H5c-.216 0-.849-.628-1.25-1.427V8.478a.75.75 0 0 0-1.5 0v10.023a.75.75 0 0 0 .068.312C2.93 20.153 4.024 21.25 5 21.25h16c.98 0 2.073-1.09 2.683-2.432a.75.75 0 0 0 .067-.31V7.492a.75.75 0 0 0-.067-.31z M18.5 10.25a.75.75 0 0 1-.735-.597.75.75 0 0 0-1.469.302 2.25 2.25 0 1 0 2.646-2.662.75.75 0 0 0-.294 1.471.75.75 0 0 1-.148 1.486zM6.141 15.066l2.62-3.053a.938.938 0 0 1 1.49-.019l2.668 3.042.525.64-1.034 1.315a.75.75 0 1 0 1.18.927l2.373-3.02a.67.67 0 0 1 1.133-.013l2.073 2.486a.75.75 0 0 0 1.152-.961l-2.074-2.486a2.163 2.163 0 0 0-3.463.047l-.391.497-.33-.402-2.684-3.061a2.435 2.435 0 0 0-3.756.031l-2.62 3.053a.75.75 0 0 0 1.138.977z"/></svg>
