<svg xmlns="http://www.w3.org/2000/svg" width="26" height="26" viewBox="0 0 26 26"><path  d="M22.259 2.79c-2.602.885-4.603.64-8.181-.559-3.576-1.196-4.755-1.435-6.604-.93a6.158 6.158 0 0 0-1.333.54.75.75 0 0 0-.391.659v19a.75.75 0 0 0 1.5 0V2.967a4.53 4.53 0 0 1 .619-.219c1.444-.394 2.465-.188 5.732.906 3.427 1.147 5.612 1.497 8.149.852V14c-1.279.447-2.692.184-6.179-.858a21.742 21.742 0 0 0-4.984-1.077q-.55-.038-1.078-.022a.75.75 0 1 0 .045 1.5c.302-.01.611-.003.93.019a20.56 20.56 0 0 1 4.658 1.018c4.284 1.28 5.778 1.502 7.68.597a.75.75 0 0 0 .428-.677v-11a.75.75 0 0 0-.991-.71zM8.746 20.56a.75.75 0 1 0-.438 1.434c.636.194.942.443.942.506 0 .031-.164.197-.57.371a5.77 5.77 0 0 1-2.18.379 5.77 5.77 0 0 1-2.18-.379c-.406-.174-.57-.34-.57-.371 0-.071.34-.337 1.028-.531a.75.75 0 0 0-.408-1.443c-1.263.357-2.12 1.025-2.12 1.974 0 1.416 1.945 2.25 4.25 2.25s4.25-.834 4.25-2.25c0-.92-.806-1.575-2.004-1.94z"/></svg>