<svg xmlns="http://www.w3.org/2000/svg" width="26" height="26" viewBox="0 0 26 26"><path fill="#212121" d="M25.174 15.298l-3-6.128a.75.75 0 0 0-.674-.42h-5a.75.75 0 0 0-.75.75v5a.75.75 0 0 0 .6.734l5.03 1.028a.75.75 0 1 0 .302-1.469l-4.432-.905V10.25h3.782l2.718 5.552v3.688a.252.252 0 0 1-.249.26H21.5a.75.75 0 0 0-.75.75.737.737 0 0 0 .05.25.737.737 0 0 0-.05.25A1.75 1.75 0 1 1 19 19.25a.75.75 0 0 0 0-1.5 3.25 3.25 0 1 0 3.225 3.5H23.5a1.756 1.756 0 0 0 1.749-1.76v-3.862a.757.757 0 0 0-.076-.33z M3.542 18.75H2.497a.25.25 0 0 1-.247-.258V5.507a.251.251 0 0 1 .251-.257h13.998a.247.247 0 0 1 .251.249V7.5a.75.75 0 0 0 1.5 0V5.5a1.752 1.752 0 0 0-1.751-1.749H2.501A1.756 1.756 0 0 0 .75 5.507v12.985a1.754 1.754 0 0 0 1.747 1.758h1.045a.75.75 0 1 0 0-1.5z M14.494 19.75H10.5a.75.75 0 0 0-.75.75.737.737 0 0 0 .05.25.737.737 0 0 0-.05.25A1.75 1.75 0 1 1 8 19.25a.75.75 0 0 0 0-1.5 3.25 3.25 0 1 0 3.225 3.5h3.27a.75.75 0 0 0 0-1.5zM12.497 8.75a.75.75 0 0 1 .75.75v6a.75.75 0 0 1-.75.75.75.75 0 0 1-.75-.75v-6a.75.75 0 0 1 .75-.75zM9.497 8.75a.75.75 0 0 1 .75.75v6a.75.75 0 0 1-.75.75.75.75 0 0 1-.75-.75v-6a.75.75 0 0 1 .75-.75zM6.497 8.75a.75.75 0 0 1 .75.75v6a.75.75 0 0 1-.75.75.75.75 0 0 1-.75-.75v-6a.75.75 0 0 1 .75-.75z"/></svg>
