<svg width="26" height="26" viewBox="0 0 26 26" xmlns="http://www.w3.org/2000/svg"><path d="M21.287,7.351c0.358,-0.208 0.817,-0.085 1.024,0.273c0.916,1.582 1.439,3.419 1.439,5.376c0,5.937 -4.813,10.75 -10.75,10.75c-1.957,0 -3.794,-0.523 -5.376,-1.439c-0.358,-0.207 -0.481,-0.666 -0.273,-1.024c0.207,-0.359 0.666,-0.481 1.025,-0.274c1.359,0.787 2.938,1.237 4.624,1.237c5.109,0 9.25,-4.141 9.25,-9.25c0,-1.686 -0.45,-3.265 -1.237,-4.624c-0.207,-0.359 -0.085,-0.818 0.274,-1.025Zm-4.849,1.15l5.032,-5.031c0.293,-0.293 0.767,-0.293 1.06,0c0.293,0.293 0.293,0.767 0,1.06l-5.998,5.999l-0.002,0.001l-0.001,0.002l-2.779,2.779l0,2.689c0,0.414 -0.336,0.75 -0.75,0.75c-0.414,0 -0.75,-0.336 -0.75,-0.75l0,-1.189l-7.72,7.719c-0.293,0.293 -0.767,0.293 -1.06,0c-0.293,-0.293 -0.293,-0.767 0,-1.06l8.998,-8.999l0.002,-0.001l0.001,-0.002l2.76,-2.76c-0.143,-1.105 -1.087,-1.958 -2.231,-1.958c-1.243,0 -2.25,1.007 -2.25,2.25c0,0.414 -0.336,0.75 -0.75,0.75c-0.414,0 -0.75,-0.336 -0.75,-0.75c0,-2.071 1.679,-3.75 3.75,-3.75c1.538,0 2.86,0.926 3.438,2.251Zm-3.438,11.599c0.608,0 1.1,-0.492 1.1,-1.1c0,-0.608 -0.492,-1.1 -1.1,-1.1c-0.607,0 -1.1,0.492 -1.1,1.1c0,0.608 0.493,1.1 1.1,1.1Zm-10.75,-7.1c0,-5.937 4.813,-10.75 10.75,-10.75c1.957,0 3.794,0.524 5.376,1.439c0.358,0.207 0.481,0.666 0.273,1.024c-0.207,0.359 -0.666,0.481 -1.024,0.274c-1.36,-0.787 -2.939,-1.237 -4.625,-1.237c-5.109,0 -9.25,4.141 -9.25,9.25c0,1.686 0.45,3.265 1.237,4.625c0.207,0.358 0.085,0.817 -0.274,1.024c-0.358,0.208 -0.817,0.085 -1.024,-0.274c-0.915,-1.581 -1.439,-3.418 -1.439,-5.375Z" style="fill:#333;"/></svg>
