<svg xmlns="http://www.w3.org/2000/svg" width="26" height="26" viewBox="0 0 26 26"><path fill="#212121" d="M19.716 16.312a2.393 2.393 0 0 1-.466-1.256v-3.048a6.238 6.238 0 0 0-4.015-5.825c.002-.062.015-.12.015-.183 0-1.741-.905-3.25-2.25-3.25S10.75 4.259 10.75 6c0 .063.013.122.016.185a6.25 6.25 0 0 0-4.016 5.823v3.047a2.359 2.359 0 0 1-.467 1.255l-1.7 1.95a3.84 3.84 0 0 0-.837 2.24v.912a.75.75 0 0 0 .75.75h5.27a3.241 3.241 0 0 0 5.614 2.051.75.75 0 1 0-1.098-1.021 1.743 1.743 0 0 1-3.016-1.03H21.5a.75.75 0 0 0 .75-.75v-.911a3.801 3.801 0 0 0-.836-2.24zM5.713 19.246l1.7-1.95a3.813 3.813 0 0 0 .837-2.241v-3.047a4.763 4.763 0 0 1 3.505-4.593.75.75 0 0 0 .542-.85A3.334 3.334 0 0 1 12.25 6c0-1.02.438-1.75.75-1.75s.75.73.75 1.75a3.33 3.33 0 0 1-.047.563.75.75 0 0 0 .543.852 4.752 4.752 0 0 1 3.504 4.593v3.048a3.84 3.84 0 0 0 .836 2.241l1.698 1.949a2.344 2.344 0 0 1 .466 1.255v.161H5.246v-.161a2.391 2.391 0 0 1 .467-1.255z M21.5 10.258a.75.75 0 0 0-.75.75V15.5a.75.75 0 0 0 1.5 0v-4.492a.75.75 0 0 0-.75-.75zM4.5 16.25a.75.75 0 0 0 .75-.75v-4.492a.75.75 0 0 0-1.5 0V15.5a.75.75 0 0 0 .75.75zM24.5 11.258a.75.75 0 0 0-.75.75V13.5a.75.75 0 0 0 1.5 0v-1.492a.75.75 0 0 0-.75-.75zM1.5 11.258a.75.75 0 0 0-.75.75V13.5a.75.75 0 0 0 1.5 0v-1.492a.75.75 0 0 0-.75-.75z"/></svg>
