<svg width="26" height="26" fill="none" xmlns="http://www.w3.org/2000/svg"><path fill-rule="evenodd" clip-rule="evenodd" d="M1.75 5.5A2.75 2.75 0 0 1 4.5 2.75h17a2.75 2.75 0 0 1 2.75 2.75v5a.75.75 0 0 1-1.5 0v-5c0-.69-.56-1.25-1.25-1.25h-17c-.69 0-1.25.56-1.25 1.25v15c0 .69.56 1.25 1.25 1.25h5a.75.75 0 0 1 0 1.5h-5a2.75 2.75 0 0 1-2.75-2.75v-15z" fill="#333"/><path fill-rule="evenodd" clip-rule="evenodd" d="M17 16.156c-.16 0-.31.027-.45.077a.75.75 0 0 1-.5-1.415 2.85 2.85 0 1 1-1.848 2.14.75.75 0 0 1 1.473.288A1.35 1.35 0 1 0 17 16.156z" fill="#333"/><path fill-rule="evenodd" clip-rule="evenodd" d="M14.438 11.768l-1.126.65.777 1.346a.75.75 0 0 1-.104.89 4.167 4.167 0 0 0-.963 1.667.75.75 0 0 1-.719.535H10.75v1.3h1.554a.75.75 0 0 1 .719.536c.184.616.509 1.189.96 1.666a.75.75 0 0 1 .106.89l-.777 1.346 1.126.65.776-1.345a.75.75 0 0 1 .824-.355c.64.153 1.299.148 1.924 0a.75.75 0 0 1 .823.354l.777 1.346 1.126-.65-.777-1.345a.75.75 0 0 1 1.3-.75l.8 1.388c.401.694.164 1.58-.53 1.98l-1.212.7a1.45 1.45 0 0 1-1.981-.53l-.537-.93c-.495.066-1 .067-1.502 0l-.537.93a1.45 1.45 0 0 1-1.98.53l-1.213-.7a1.45 1.45 0 0 1-.53-1.98l.536-.93c-.31-.401-.56-.84-.75-1.3H10.7c-.8 0-1.45-.65-1.45-1.45v-1.4c0-.802.65-1.45 1.45-1.45h1.075a5.695 5.695 0 0 1 .75-1.301l-.537-.93a1.45 1.45 0 0 1 .53-1.982l1.213-.7a1.45 1.45 0 0 1 1.981.531l.537.93c.495-.066 1-.067 1.502 0l.537-.93a1.45 1.45 0 0 1 1.98-.53l1.213.7c.694.4.931 1.287.531 1.98l-.537.93c.31.401.56.84.75 1.301H23.3c.8 0 1.45.65 1.45 1.45v1.4c0 .8-.65 1.45-1.45 1.45h-1.603a.75.75 0 0 1 0-1.5h1.553v-1.3h-1.554a.75.75 0 0 1-.719-.536 4.146 4.146 0 0 0-.96-1.666.75.75 0 0 1-.105-.89l.776-1.346-1.126-.65-.776 1.345a.75.75 0 0 1-.824.355 4.144 4.144 0 0 0-1.924.001.75.75 0 0 1-.823-.355l-.777-1.346zM10.75 6.5a.75.75 0 0 1 .75-.75h9a.75.75 0 0 1 0 1.5h-9a.75.75 0 0 1-.75-.75zM4.75 6.5a.75.75 0 0 1 .75-.75H6a.75.75 0 0 1 0 1.5h-.5a.75.75 0 0 1-.75-.75zM7.75 6.5a.75.75 0 0 1 .75-.75H9a.75.75 0 0 1 0 1.5h-.5a.75.75 0 0 1-.75-.75z" fill="#333"/></svg>