<svg width="26" height="26" viewBox="0 0 26 26" xmlns="http://www.w3.org/2000/svg" fill-rule="evenodd" clip-rule="evenodd" stroke-linejoin="round" stroke-miterlimit="2"><path d="M.75 2.5a.75.75 0 0 1 .75-.75h2.225a1.75 1.75 0 0 1 1.694 1.314l.322 1.249a.75.75 0 0 1-1.453.374l-.321-1.249a.25.25 0 0 0-.242-.188H1.5a.75.75 0 0 1-.75-.75zM9.5 20.25a1.252 1.252 0 0 0-1.25 1.25 1.25 1.25 0 1 0 1.25-1.25zm-.687-1.413a2.75 2.75 0 0 1 3.333 1.913h2.707a2.75 2.75 0 1 1 .001 1.5h-2.707a2.75 2.75 0 1 1-3.334-3.413zM17.5 20.25a1.25 1.25 0 1 0 0 2.5 1.25 1.25 0 0 0 0-2.5z" fill="#666"/><path d="M23.44 6.42l-2.753 9.439a1 1 0 0 1-.851.714L8.439 17.818 5.014 4.5H22c1 0 1.72.96 1.44 1.92z" fill="#27ab4a" fill-rule="nonzero"/><path d="M4.422 4.04a.75.75 0 0 1 .592-.29H22c1.5 0 2.58 1.44 2.16 2.88l-2.753 9.439a1.75 1.75 0 0 1-1.49 1.249L8.52 18.563a.749.749 0 0 1-.807-.558L4.288 4.687a.751.751 0 0 1 .134-.647zM22 5.25H5.982l3.022 11.752 2.879-.315-2.074-7.999a.75.75 0 1 1 1.452-.376l2.129 8.21 1.989-.217-1.975-7.617a.75.75 0 1 1 1.452-.376l2.029 7.828 1.896-.207-1.878-7.245a.75.75 0 0 1 1.453-.376l1.765 6.811L22.72 6.21a.75.75 0 0 0-.72-.96z" fill="#1a8436"/><path d="M8.846 6.774a.75.75 0 0 1 .915.536l1.964 7.5a.75.75 0 1 1-1.451.38L8.31 7.69a.75.75 0 0 1 .536-.916zm3.595 0a.75.75 0 0 1 .915.536l1.834 7a.749.749 0 1 1-1.451.38l-1.834-7a.75.75 0 0 1 .536-.916zm3.5 0a.75.75 0 0 1 .915.536l1.703 6.5a.749.749 0 1 1-1.451.38l-1.703-6.5a.75.75 0 0 1 .536-.916z" fill="#fff"/></svg>
