<svg xmlns="http://www.w3.org/2000/svg" width="26" height="26" viewBox="0 0 26 26"><path d="M12.9 13.8c2.8 0 4.8-3 4.8-6.9 0-2.1-1.7-2.6-4.8-2.6-3.1 0-4.7.6-4.7 2.6 0 4.1 2 6.9 4.7 6.9zm0-8c2.3 0 3.3.3 3.3 1.1 0 3.2-1.5 5.4-3.3 5.4-1.8 0-3.2-2-3.2-5.4.1-.8 1-1.1 3.2-1.1zm8.5 13.1v.2c0-.8-.3-1.9-1-3.1-.6-.9-1.5-1.6-2.6-2.1-.4-.2-.8 0-1 .4s0 .8.4 1c.9.4 1.5 1 2 1.6.3.5.6 1 .7 1.6.1.3.1.5.1.7v.2c.1.6-.3 1-.9 1H7c-.6 0-1-.4-.9-1.1v-.1c0-.1 0-.4.1-.7.2-.6.4-1.2.9-1.7.4-.6 1-1.1 1.8-1.5.4-.2.5-.7.3-1-.2-.4-.7-.5-1-.3-.9.5-1.7 1.2-2.3 1.9-1 1.2-1.3 2.5-1.3 3.4v-.1c-.3 1.5.8 2.9 2.4 2.9h12c1.6-.3 2.7-1.7 2.4-3.2z"/></svg>