<svg width="26" height="26" fill="none" xmlns="http://www.w3.org/2000/svg"><path d="M16.713 14.493a.75.75 0 001.279.539l6.037-6a.75.75 0 00.001-1.062l-6-6a.75.75 0 00-1.28.523l-.03 3.257H11.5a7.75 7.75 0 00-7.004 4.428.75.75 0 001.355.644A6.25 6.25 0 0111.5 7.25h5.963a.75.75 0 00.75-.743l.02-2.213 4.205 4.204-4.208 4.182.02-2.173a.75.75 0 00-.75-.757h-3.882a.75.75 0 000 1.5h3.125l-.03 3.243zM2.5 13.75a.75.75 0 000 1.5h9a.75.75 0 000-1.5h-9zM1.75 17.5a.75.75 0 01.75-.75h7a.75.75 0 010 1.5h-7a.75.75 0 01-.75-.75zM2.5 19.75a.75.75 0 000 1.5h9a.75.75 0 000-1.5h-9z" fill="#333"/></svg>