<svg width="26" height="26" fill="none" xmlns="http://www.w3.org/2000/svg"><path fill-rule="evenodd" clip-rule="evenodd" d="M9.796 1.692a.75.75 0 0 1 .926.518l.803 2.834a.746.746 0 0 1 .03.105l.765 2.7a.75.75 0 0 1 .076.27l1.325 4.677a.75.75 0 1 1-1.443.409l-1.14-4.026a4.261 4.261 0 0 0-1.113.786.75.75 0 0 1-1.05-1.071 5.758 5.758 0 0 1 1.749-1.176l-.412-1.453A7.273 7.273 0 0 0 7.27 8.558a.75.75 0 1 1-1.185-.92A8.771 8.771 0 0 1 9.9 4.815l-.41-1.449a10.281 10.281 0 0 0-4.878 3.74.75.75 0 1 1-1.226-.864 11.768 11.768 0 0 1 6.409-4.55z" fill="#666"/><path d="M13 24c6.075 0 11-4.925 11-11S19.075 2 13 2v11L2.75 9A10.972 10.972 0 0 0 2 13c0 6.075 4.925 11 11 11z" fill="#E7433A"/><path fill-rule="evenodd" clip-rule="evenodd" d="M12.25 2a.75.75 0 0 1 .75-.75c6.49 0 11.75 5.26 11.75 11.75S19.49 24.75 13 24.75 1.25 19.49 1.25 13c0-1.506.284-2.947.801-4.273a.75.75 0 0 1 .972-.426l9.227 3.601V2zm1.5.777V13a.75.75 0 0 1-1.023.699L3.202 9.98A10.248 10.248 0 0 0 2.75 13c0 5.66 4.59 10.25 10.25 10.25S23.25 18.66 23.25 13c0-5.409-4.19-9.839-9.5-10.223z" fill="#C22D25"/><path fill-rule="evenodd" clip-rule="evenodd" d="M14.441 11.264a.75.75 0 0 1 1.06-.059 3.75 3.75 0 1 1-6.037 4.045.75.75 0 1 1 1.414-.5 2.251 2.251 0 1 0 3.622-2.427.75.75 0 0 1-.059-1.06z" fill="#C22D25"/><path fill-rule="evenodd" clip-rule="evenodd" d="M14.441 10.264a.75.75 0 0 1 1.06-.059 3.75 3.75 0 1 1-6.037 4.045.75.75 0 1 1 1.414-.5 2.251 2.251 0 1 0 3.622-2.427.75.75 0 0 1-.059-1.06z" fill="#fff"/></svg>