<svg width="26" height="26" viewBox="0 0 26 26" fill="none" xmlns="http://www.w3.org/2000/svg">
<path d="M14.5 8.25C11.0482 8.25 8.25 11.0482 8.25 14.5C8.25 17.9518 11.0482 20.75 14.5 20.75C16.0979 20.75 17.5542 20.1513 18.6596 19.1649C19.3414 18.5565 20.4851 18.4278 21.2355 19.1787L23.7796 21.7249C24.4853 22.4311 24.485 23.5756 23.7791 24.2816C23.0726 24.988 21.9271 24.9877 21.2211 24.2807L19.4726 22.53C19.1799 22.2369 19.1802 21.762 19.4733 21.4693C19.7664 21.1766 20.2412 21.1769 20.5339 21.47L22.2824 23.2208C22.4027 23.3413 22.598 23.3413 22.7184 23.2209C22.8388 23.1006 22.8388 22.9055 22.7185 22.7851L20.1744 20.2389C20.1257 20.1902 20.0556 20.1592 19.9595 20.1616C19.8585 20.1641 19.7468 20.2051 19.6583 20.2841C18.2887 21.5063 16.4803 22.25 14.5 22.25C10.2198 22.25 6.75 18.7802 6.75 14.5C6.75 10.2198 10.2198 6.75 14.5 6.75C18.7802 6.75 22.25 10.2198 22.25 14.5C22.25 15.2682 22.138 16.0115 21.929 16.7139C21.8108 17.1109 21.3932 17.337 20.9962 17.2188C20.5992 17.1007 20.3731 16.6831 20.4913 16.2861C20.6594 15.721 20.75 15.1218 20.75 14.5C20.75 11.0482 17.9518 8.25 14.5 8.25Z M18.4685 11.4143C18.792 11.6731 18.8444 12.1451 18.5857 12.4685L14.5857 17.4685C14.4524 17.6351 14.2545 17.7371 14.0415 17.7489C13.8285 17.7606 13.6205 17.6812 13.4697 17.5303L10.9697 15.0303C10.6768 14.7374 10.6768 14.2626 10.9697 13.9697C11.2626 13.6768 11.7374 13.6768 12.0303 13.9697L13.9378 15.8772L17.4143 11.5315C17.6731 11.208 18.1451 11.1556 18.4685 11.4143Z M5.49731 4.25C4.80564 4.25077 4.25 4.80877 4.25 5.49509V20.5049C4.25 21.1942 4.807 21.75 5.49188 21.75H8C8.41421 21.75 8.75 22.0858 8.75 22.5C8.75 22.9142 8.41421 23.25 8 23.25H5.49188C3.9766 23.25 2.75 22.0206 2.75 20.5049V5.49509C2.75 3.97817 3.97968 2.75 5.49874 2.75H5.50198L19.5119 2.80612C21.026 2.81265 22.25 4.04194 22.25 5.55609V7.5C22.25 7.91421 21.9142 8.25 21.5 8.25C21.0858 8.25 20.75 7.91421 20.75 7.5V5.55609C20.75 4.86784 20.1936 4.30907 19.5054 4.3061L5.49874 4.25L5.49731 4.25Z" fill="#333"/>
</svg>
