<svg xmlns="http://www.w3.org/2000/svg" width="26" height="26" viewBox="0 0 26 26"><path fill="#FFFFFF" d="M20.5 10.84a.75.75 0 0 0-.75.75v8.905a1.25 1.25 0 0 1-1.242 1.255H7.492a1.243 1.243 0 0 1-1.242-1.245V5.495A1.246 1.246 0 0 1 7.499 4.25l6.99.057a.265.265 0 0 1 .254.258l.005 2.938A1.75 1.75 0 0 0 16.5 9.25h4a.75.75 0 0 0 .75-.733l.023-1.053a.75.75 0 0 0-.225-.552l-3.01-2.947a.75.75 0 0 0-1.05 1.072L19.76 7.75H16.5a.25.25 0 0 1-.252-.25l-.005-2.938A1.765 1.765 0 0 0 14.5 2.807L7.505 2.75A2.747 2.747 0 0 0 4.75 5.495v15.01a2.743 2.743 0 0 0 2.742 2.745h11.016a2.75 2.75 0 0 0 2.742-2.755V11.59a.75.75 0 0 0-.75-.75z M16.5 11.75h-7a.75.75 0 0 0 0 1.5h7a.75.75 0 0 0 0-1.5zM17.25 15.5a.75.75 0 0 0-.75-.75h-7a.75.75 0 0 0 0 1.5h7a.75.75 0 0 0 .75-.75zM9.5 17.75a.75.75 0 0 0 0 1.5h4a.75.75 0 0 0 0-1.5z"/></svg>
