<svg width="26" height="26" viewBox="0 0 26 26" xmlns="http://www.w3.org/2000/svg" fill-rule="evenodd" clip-rule="evenodd" stroke-linejoin="round" stroke-miterlimit="2"><path d="M7 22.25H5.5a2.763 2.763 0 0 1-2.75-2.75v-4.586a.25.25 0 0 0-.073-.177L1.47 13.53a.753.753 0 0 1 0-1.06l1.207-1.207a.25.25 0 0 0 .073-.177V6.5A2.763 2.763 0 0 1 5.5 3.75H7c.411 0 .75.339.75.75s-.339.75-.75.75H5.5c-.69 0-1.25.56-1.25 1.25v4.586c0 .464-.184.909-.513 1.237L3.061 13l.676.677c.329.328.513.773.513 1.237V19.5c0 .69.56 1.25 1.25 1.25H7c.411 0 .75.339.75.75s-.339.75-.75.75zm13.5-18.5a2.763 2.763 0 0 1 2.75 2.75v4.586c0 .066.026.13.073.177l1.207 1.207a.753.753 0 0 1 0 1.06l-1.207 1.207a.25.25 0 0 0-.073.177V19.5a2.763 2.763 0 0 1-2.75 2.75H19a.754.754 0 0 1-.75-.75c0-.411.339-.75.75-.75h1.5c.69 0 1.25-.56 1.25-1.25v-4.586c0-.464.185-.909.513-1.237l.676-.677-.676-.677a1.746 1.746 0 0 1-.513-1.237V6.5c0-.69-.56-1.25-1.25-1.25H19a.754.754 0 0 1-.75-.75c0-.411.339-.75.75-.75h1.5zm-14.25 9.5c0-1.097.903-2 2-2s2 .903 2 2-.903 2-2 2-2-.903-2-2zm10 0c0-1.097.903-2 2-2s2 .903 2 2-.903 2-2 2-2-.903-2-2zm-5 0c0-1.097.903-2 2-2s2 .903 2 2-.903 2-2 2-2-.903-2-2zm-3-.5c-.274 0-.5.226-.5.5s.226.5.5.5.5-.226.5-.5-.226-.5-.5-.5zm10 0c-.274 0-.5.226-.5.5s.226.5.5.5.5-.226.5-.5-.226-.5-.5-.5zm-5 0c-.274 0-.5.226-.5.5s.226.5.5.5.5-.226.5-.5-.226-.5-.5-.5z" fill="#333"/></svg>
