<svg xmlns="http://www.w3.org/2000/svg" width="26" height="26" viewBox="0 0 26 26"><path fill="#212121" d="M24.389 17.27c-2.825-5.378-9.662-5.627-12.05-5.54V9.428a.75.75 0 0 0-1.278-.532L6.008 13.92a.75.75 0 0 0 .003 1.066l5.052 4.976a.75.75 0 0 0 1.276-.557l-.066-2.154H16.5a.75.75 0 0 0 0-1.5h-5a.749.749 0 0 0-.75.772l.033 1.058-3.18-3.132 3.236-3.217v1.298a.75.75 0 0 0 .83.746c.082-.01 8.482-.847 11.392 4.693a.75.75 0 0 0 1.328-.697z M19.5 18.674a.763.763 0 0 0-.75.752l.003 1.076a1.24 1.24 0 0 1-1.238 1.248H6.493a1.247 1.247 0 0 1-1.243-1.247L5.247 5.498a1.25 1.25 0 0 1 1.25-1.248h7.253l-.002 4.246a.75.75 0 0 0 .749.75l5.002.004h.001a.75.75 0 0 0 .75-.75v-1a.75.75 0 0 0-.22-.53l-2.999-3a.75.75 0 1 0-1.06 1.06l2.717 2.72-3.44-.003.002-4.247a.75.75 0 0 0-.75-.75H6.497a2.752 2.752 0 0 0-2.75 2.748l.003 15.005a2.748 2.748 0 0 0 2.743 2.747h11.022a2.742 2.742 0 0 0 2.738-2.752l-.003-1.076a.75.75 0 0 0-.75-.748z"/></svg>
