<svg width="26" height="26" viewBox="0 0 26 26" xmlns="http://www.w3.org/2000/svg"><path d="M2.25,13c0,-5.937 4.813,-10.75 10.75,-10.75c5.937,0 10.75,4.813 10.75,10.75c0,5.937 -4.813,10.75 -10.75,10.75c-5.937,0 -10.75,-4.813 -10.75,-10.75Zm10.75,-9.25c-5.109,0 -9.25,4.141 -9.25,9.25c0,5.109 4.141,9.25 9.25,9.25c5.109,0 9.25,-4.141 9.25,-9.25c0,-5.109 -4.141,-9.25 -9.25,-9.25Zm0,16.35c0.607,0 1.1,-0.492 1.1,-1.1c0,-0.608 -0.492,-1.1 -1.1,-1.1c-0.607,0 -1.1,0.492 -1.1,1.1c0,0.608 0.492,1.1 1.1,1.1Zm-3.75,-10.1c0,-2.071 1.679,-3.75 3.75,-3.75c2.071,0 3.75,1.679 3.75,3.75l0,0.172c0,0.729 -0.29,1.428 -0.806,1.944l-1.828,1.828c-0.234,0.235 -0.366,0.553 -0.366,0.884l0,1.172c0,0.414 -0.336,0.75 -0.75,0.75c-0.414,0 -0.75,-0.336 -0.75,-0.75l0,-1.172c0,-0.729 0.29,-1.428 0.806,-1.944l1.828,-1.829c0.234,-0.234 0.366,-0.552 0.366,-0.883l0,-0.172c0,-1.243 -1.007,-2.25 -2.25,-2.25c-1.243,0 -2.25,1.007 -2.25,2.25c0,0.414 -0.336,0.75 -0.75,0.75c-0.414,0 -0.75,-0.336 -0.75,-0.75Z" style="fill:#333;"/></svg>
