<svg width="26" height="26" viewBox="0 0 26 26" xmlns="http://www.w3.org/2000/svg"><path d="M14.5,23.25l-8.24,0c-1.091,0 -2.09,-0.474 -2.723,-1.239c-0.644,-0.778 -0.896,-1.852 -0.473,-2.943c0.656,-1.688 1.908,-3.709 4.254,-4.296c0.402,-0.1 0.809,0.144 0.91,0.546c0.1,0.402 -0.144,0.809 -0.546,0.91c-1.625,0.406 -2.62,1.841 -3.219,3.384c-0.212,0.545 -0.094,1.051 0.23,1.443c0.336,0.406 0.904,0.695 1.567,0.695l8.24,0c0.414,0 0.75,0.336 0.75,0.75c0,0.414 -0.336,0.75 -0.75,0.75Zm5.411,-10.199c0.304,0.282 0.321,0.756 0.039,1.06l-2.392,2.572l5.942,0c0.414,0 0.75,0.336 0.75,0.75c0,0.414 -0.336,0.75 -0.75,0.75l-5.946,0l2.384,2.573c0.281,0.304 0.263,0.779 -0.041,1.06c-0.304,0.282 -0.778,0.263 -1.06,-0.041l-3.55,-3.832c-0.267,-0.288 -0.267,-0.733 0.001,-1.021l3.563,-3.833c0.282,-0.303 0.757,-0.32 1.06,-0.038Zm-13.661,-6.085c0.018,-2.898 2.347,-5.216 5.25,-5.216c0.414,0 0.75,0.336 0.75,0.75c0,0.414 -0.336,0.75 -0.75,0.75c-2.078,0 -3.737,1.651 -3.75,3.726l0,0.024c0,1.829 0.43,3.306 1.064,4.301c0.634,0.995 1.424,1.449 2.186,1.449c0.738,0 1.533,-0.486 2.182,-1.53c0.642,-1.033 1.068,-2.516 1.068,-4.22c0,-0.475 -0.273,-0.889 -0.883,-1.223c-0.619,-0.339 -1.487,-0.527 -2.367,-0.527c-0.414,0 -0.75,-0.336 -0.75,-0.75c0,-0.414 0.336,-0.75 0.75,-0.75c1.059,0 2.192,0.221 3.088,0.712c0.905,0.495 1.662,1.332 1.662,2.538c0,1.937 -0.482,3.704 -1.294,5.011c-0.805,1.296 -2.01,2.239 -3.456,2.239c-1.422,0 -2.632,-0.857 -3.451,-2.143c-0.821,-1.287 -1.299,-3.06 -1.299,-5.107l0,-0.034Z" style="fill:#9A4CBD;"/></svg>
