<svg width="26" height="26" fill="none" xmlns="http://www.w3.org/2000/svg"><path d="M14.75 5.5a.75.75 0 01.75-.75h9a.75.75 0 010 1.5h-9a.75.75 0 01-.75-.75zM11.791 10.809a.75.75 0 01.459.698l-.03 3.243h3.125a.75.75 0 010 1.5h-3.882a.75.75 0 01-.75-.757l.02-2.173-4.208 4.182 4.204 4.204.02-2.213a.75.75 0 01.75-.743h5.964a6.25 6.25 0 005.649-3.572.75.75 0 011.355.644 7.75 7.75 0 01-7.004 4.428h-5.22l-.03 3.257a.75.75 0 01-1.28.523l-6-6a.75.75 0 01.001-1.062l6.037-6a.75.75 0 01.82-.16zM15.5 7.75a.75.75 0 000 1.5h7a.75.75 0 000-1.5h-7zM.75 14.5a.75.75 0 01.75-.75h1a.75.75 0 110 1.5h-1a.75.75 0 01-.75-.75zM1.5 19.75a.75.75 0 100 1.5h1a.75.75 0 000-1.5h-1z M14.75 11.5a.75.75 0 01.75-.75h9a.75.75 0 010 1.5h-9a.75.75 0 01-.75-.75zM1.5 16.75a.75.75 0 100 1.5h1a.75.75 0 000-1.5h-1z" fill="#333"/></svg>
