<svg xmlns="http://www.w3.org/2000/svg" width="26" height="26" viewBox="0 0 26 26"><path fill="#fff" d="M8.927 16.128l-6.64 6.474a.75.75 0 0 0 1.047 1.074l6.64-6.473a.75.75 0 1 0-1.047-1.075zM16.5 1.25A8.25 8.25 0 0 0 8.25 9.5a10.217 10.217 0 0 0 2.76 6.829 5.847 5.847 0 0 0 .756.727 7.442 7.442 0 0 0 1.14.754c.136.074.263.137.378.19l.113.05.046.02a.75.75 0 1 0 .567-1.388c-.047-.02-.047-.02-.095-.043a5.499 5.499 0 0 1-.297-.149 5.96 5.96 0 0 1-.91-.601 4.36 4.36 0 0 1-.563-.54A8.74 8.74 0 0 1 9.75 9.5a6.75 6.75 0 0 1 6.75-6.75 6.898 6.898 0 0 1 6.751 6.79c.165 3.106-1.13 5.22-3.778 5.727a5.08 5.08 0 0 1-4.814-1.577c-.007-.01-.008-.021-.015-.03-2.05-2.65-2.278-5.33-.796-6.812a3.75 3.75 0 0 1 6.398 2.826.703.703 0 0 0 .016.101l-.002.006c0 1.516-.487 2.407-1.785 2.47a2.12 2.12 0 0 1-1.778-.851 3.379 3.379 0 0 1-.556-.902c-.363-.768-.397-1.302-.171-1.528a.75.75 0 0 1 1.06 0 3.113 3.113 0 0 1 .437 1.254.75.75 0 1 0 1.491-.166 4.173 4.173 0 0 0-.867-2.149 2.25 2.25 0 0 0-3.182 0c-.803.803-.728 1.955-.147 3.177a4.678 4.678 0 0 0 .789 1.28 3.589 3.589 0 0 0 2.997 1.383c2.313-.112 3.212-1.756 3.212-3.968a.696.696 0 0 0-.016-.08 5.248 5.248 0 0 0-8.956-3.913c-2.095 2.094-1.796 5.601.669 8.788a.696.696 0 0 0 .043.074 6.575 6.575 0 0 0 6.255 2.09c3.467-.663 5.195-3.487 4.994-7.28A8.395 8.395 0 0 0 16.5 1.25z"/></svg>
