<svg width="26" height="26" viewBox="0 0 26 26" xmlns="http://www.w3.org/2000/svg" fill-rule="evenodd" clip-rule="evenodd" stroke-linejoin="round" stroke-miterlimit="2"><path d="M8.016 19.185L3.967 3.438a.25.25 0 0 0-.242-.188H1.5a.75.75 0 0 1 0-1.5h2.225a1.75 1.75 0 0 1 1.694 1.314l.177.686H22c1.5 0 2.58 1.44 2.16 2.88l-2.754 9.441a1.749 1.749 0 0 1-1.484 1.249l-8.219.925a.748.748 0 0 1-.809-.555l-2.62-10a.751.751 0 0 1 1.452-.38l2.454 9.372 7.574-.853a.248.248 0 0 0 .212-.178L22.72 6.21a.75.75 0 0 0-.72-.96H5.982l3.471 13.5H9.5a2.75 2.75 0 0 1 2.646 2h2.708a2.75 2.75 0 1 1 0 1.5h-2.708a2.75 2.75 0 1 1-4.13-3.065zM17.5 20.25a1.25 1.25 0 1 0 0 2.5 1.25 1.25 0 0 0 0-2.5zm-8 0a1.252 1.252 0 0 0-1.25 1.25 1.25 1.25 0 1 0 1.25-1.25zm2.441-13.476a.751.751 0 0 1 .916.536l1.833 7a.75.75 0 0 1-1.451.38l-1.834-7a.75.75 0 0 1 .536-.916zm3.5 0a.75.75 0 0 1 .915.536l1.703 6.5a.75.75 0 0 1-1.451.38l-1.703-6.5a.75.75 0 0 1 .536-.916z" fill="#333"/></svg>
