<svg xmlns="http://www.w3.org/2000/svg" width="26" height="26" viewBox="0 0 26 26"><path fill="#212121" d="M19.88 3.75H7.077A3.321 3.321 0 0 0 3.75 7.062v8.985a3.316 3.316 0 0 0 3.322 3.312.75.75 0 0 0 0-1.5 1.816 1.816 0 0 1-1.822-1.812V7.062A1.821 1.821 0 0 1 7.076 5.25h12.805a1.82 1.82 0 0 1 1.826 1.812v8.985a1.811 1.811 0 0 1-1.824 1.812H12.94a.75.75 0 0 0-.53.22l-4.044 4.043a.75.75 0 0 0 1.06 1.06l3.824-3.823h6.632a3.311 3.311 0 0 0 3.324-3.312V7.062A3.32 3.32 0 0 0 19.88 3.75zM8.5 11.25h10a.75.75 0 0 0 0-1.5h-10a.75.75 0 0 0 0 1.5zm0 3h6a.75.75 0 0 0 0-1.5h-6a.75.75 0 0 0 0 1.5z"/></svg>