<svg width="26" height="26" fill="none" xmlns="http://www.w3.org/2000/svg"><path fill-rule="evenodd" clip-rule="evenodd" d="M23.249 14.57c-.084 3.774-3.866 6.776-7.442 9.118a33.224 33.224 0 0 1-2.453 1.472s-.57.082-1.132-.232c-4.462-2.542-9.314-6.022-9.471-10.29C2.676 11.26 2.749 7.88 2.749 4.5c.027-.524.54-.743 1.107-.755 3.045-.112 6.054-.936 8.89-1.95 0 0 .659.057 1.23.247 2.776.906 5.629 1.69 8.528 1.708 0 0 .713.142.745.75 0 3.357.024 6.713 0 10.07zM12.865 3.34c-2.781.94-5.64 1.703-8.558 1.885l-.058.003c0 3.122-.068 6.245 0 9.366.144 3.877 4.73 6.76 8.71 9.027l.04.022c2.948-1.647 5.868-3.629 7.715-6.338.557-.815 1.012-1.755 1.035-2.758V13.31l-8.22 8.22c-1.063.957-1.561-.506-1.06-1.06l9.28-9.282V8.31l-8.22 8.22c-.61.55-1.726-.322-1.06-1.06l9.28-9.282v-.96a27.392 27.392 0 0 1-1.744-.175l-6.534 6.53c-.631.457-1.698-.342-1.002-1.114l5.733-5.734c-.884-.186-.925-.204-1.292-.293-.422-.104-1.028-.265-1.028-.265L13.47 6.582c-.64.465-1.66-.384-1.002-1.113l1.769-1.77c-.805-.25-1.142-.438-1.373-.359z" fill="#333"/></svg>