<svg xmlns="http://www.w3.org/2000/svg" width="26" height="26" viewBox="0 0 26 26"><path fill="#212121" d="M13.34 11.42c-2.99-1.335-6.6 1.208-6.6 4.903a3.773 3.773 0 0 1-2.086 3.321 7.652 7.652 0 0 1-1.532.698 7.403 7.403 0 0 1-.637.181.755.755 0 0 0-.422 1.274c2.713 2.712 9.968 2.699 13.33.06 2.564-2.013 3.134-4.797 1.583-7.22a17.378 17.378 0 0 0-3.635-3.217zm1.127 9.257c-2.403 1.886-7.469 2.154-10.207.829a8.72 8.72 0 0 0 1.169-.577 5.234 5.234 0 0 0 2.81-4.606c0-2.638 2.52-4.413 4.49-3.533a18.658 18.658 0 0 1 2.984 2.656c1.122 1.753.727 3.682-1.246 5.23z M13.306 15.097a.75.75 0 0 0-.81 1.263c.701.449.855.89.66 1.372a1.94 1.94 0 0 1-1.188 1.047.75.75 0 1 0 .375 1.452 3.429 3.429 0 0 0 2.205-1.938 2.54 2.54 0 0 0-1.242-3.196zM23.981 4.154l-1.74-1.344a1.843 1.843 0 0 0-2.465.22l-6.028 6.657a.75.75 0 1 0 1.112 1.007l6.028-6.656a.345.345 0 0 1 .436-.04l1.74 1.344a.337.337 0 0 1 .07.429l-4.588 6.95a9.304 9.304 0 0 0-.82-.827c-.029-.026-.061-.047-.09-.072l1.085-1.399 1.54-1.983a.75.75 0 0 0-1.185-.92l-1.54 1.983-1.54 1.983a.75.75 0 0 0 .16 1.072 6.698 6.698 0 0 1 .575.458 7.694 7.694 0 0 1 .92.976 5.154 5.154 0 0 1 .305.419.75.75 0 0 0 1.262.016l5.167-7.83a1.836 1.836 0 0 0-.404-2.443z"/></svg>
