<svg width="26" height="26" viewBox="0 0 26 26" xmlns="http://www.w3.org/2000/svg" fill-rule="evenodd" clip-rule="evenodd" stroke-linejoin="round" stroke-miterlimit="2"><path d="M16.5 23.25h-13A2.763 2.763 0 0 1 .75 20.5v-9A2.763 2.763 0 0 1 3.5 8.75h13a2.763 2.763 0 0 1 2.75 2.75v9a2.763 2.763 0 0 1-2.75 2.75zm0-13h-13c-.69 0-1.25.56-1.25 1.25v9c0 .69.56 1.25 1.25 1.25h13c.69 0 1.25-.56 1.25-1.25v-9c0-.69-.56-1.25-1.25-1.25zm-8.076 7.335l2.002-3.776.001.001c.87-1.642 3.24-1.581 4.026.102l2.227 4.77A.754.754 0 0 1 16 19.75a.751.751 0 0 1-.68-.433l-2.226-4.77a.751.751 0 0 0-1.342-.035l-2.345 4.424.729 1.166A.753.753 0 0 1 9.5 21.25a.75.75 0 0 1-.636-.352l-1.228-1.965a.752.752 0 0 0-1.272 0l-1.228 1.965a.75.75 0 0 1-1.272-.796l1.228-1.964c.745-1.192 2.328-1.376 3.332-.553zM4.75 6.5c0-.411.339-.75.75-.75h13a3.768 3.768 0 0 1 3.75 3.75v10c0 .411-.339.75-.75.75a.754.754 0 0 1-.75-.75v-10a2.261 2.261 0 0 0-2.25-2.25h-13a.754.754 0 0 1-.75-.75zm4-3c0-.411.339-.75.75-.75h11c2.606 0 4.75 2.144 4.75 4.75v9c0 .411-.339.75-.75.75a.754.754 0 0 1-.75-.75v-9a3.265 3.265 0 0 0-3.25-3.25h-11a.754.754 0 0 1-.75-.75zm-2.894 8.255A2.275 2.275 0 0 1 8.25 14a2.275 2.275 0 0 1-2.394 2.245A2.246 2.246 0 0 1 3.75 14c0-1.196.91-2.17 2.106-2.245zM6.75 14a.767.767 0 0 0-.764-.749l-.034.001A.74.74 0 0 0 5.25 14c0 .406.297.723.702.748l.034.001A.767.767 0 0 0 6.75 14z" fill="#333"/></svg>
