<svg width="26" height="26" viewBox="0 0 26 26" xmlns="http://www.w3.org/2000/svg"><path d="M5.252 15.863c.892-3.385 3.818-6.055 6.771-6.055a.75.75 0 010 1.5c-2.093 0-4.552 2.02-5.32 4.937-.575 2.182-1.77 3.57-2.827 4.41a7.853 7.853 0 01-.844.582c1.161.709 2.885 1.175 4.753 1.27 2.4.12 4.738-.39 6.07-1.486 2.408-1.982 2.945-4.314 1.797-5.967-.307-.428-.974-1.085-1.829-1.304-.776-.198-1.893-.081-3.277 1.386a.75.75 0 11-1.092-1.029c1.679-1.779 3.331-2.17 4.74-1.81 1.327.338 2.26 1.3 2.68 1.888l.006.008c1.802 2.586.62 5.77-2.072 7.986-1.747 1.438-4.531 1.955-7.099 1.826-2.557-.13-5.197-.915-6.62-2.407a.75.75 0 01.319-1.234l.223.716-.223-.716h-.001l.015-.004.08-.03c.075-.03.189-.077.331-.147.286-.14.683-.365 1.11-.704.852-.675 1.831-1.8 2.31-3.616zm-3.845 4.502h-.002.002zM25.538 8.431a.75.75 0 01-.27 1.026l-5.35 3.123a2.75 2.75 0 01-3.226-.331l-1.673-1.506a2.75 2.75 0 01-.725-3.034l2.288-5.928a.75.75 0 111.4.54l-2.289 5.928a1.25 1.25 0 00.33 1.38l1.672 1.505a1.25 1.25 0 001.467.15l5.35-3.122a.75.75 0 011.026.27zM17.47 7.47a.75.75 0 011.06 0l1 1a.75.75 0 01-1.06 1.06l-1-1a.75.75 0 010-1.06zm1-3a.75.75 0 011.06 0l2.5 2.5a.75.75 0 11-1.06 1.06l-2.5-2.5a.75.75 0 010-1.06z"/></svg>
