<svg xmlns="http://www.w3.org/2000/svg" width="26" height="26" viewBox="0 0 26 26">
  <g fill="#212121">
    <path d="M24.4 10.148L16.622 2.37c-.293-.293-.769-.293-1.062 0L4.24 13.69c-.151.152-.231.361-.218.574l.208 3.551c.024.414.379.729.792.705.414-.024.729-.379.705-.793l-.187-3.214L16.092 3.96l6.717 6.718L12.257 21.23l-2.612-.153c-.414-.024-.768.292-.792.705s.292.769.705.792l2.948.173c.214.013.423-.067.574-.218L24.4 11.208c.293-.292.293-.767 0-1.06z"/>
    <path d="M9.733 15.75c.69 0 1.25.56 1.25 1.25 0 .543-.349 1.018-.855 1.187-.393.131-.606.556-.475.948.13.393.555.605.948.475 1.115-.37 1.882-1.416 1.882-2.609 0-1.519-1.231-2.75-2.75-2.75s-2.75 1.231-2.75 2.75c0 .18.007.248.06.65.203 1.557-.313 2.439-3.283 3.68-.313.131-.65.26-1.01.389-.391.139-.594.566-.456.957s.567.594.958.455c.385-.137.747-.275 1.086-.417 3.591-1.5 4.483-3.026 4.193-5.257-.042-.316-.048-.374-.048-.458 0-.69.559-1.25 1.25-1.25z"/>
  </g>
</svg>
