<svg xmlns="http://www.w3.org/2000/svg" width="26" height="26" viewBox="0 0 26 26"><path fill="#212121" d="M24.392 13.383l-.987-1.342a1.37 1.37 0 0 1-.151-1.052l.569-1.566a1.776 1.776 0 0 0-1.032-2.26l-1.556-.595a1.37 1.37 0 0 1-.696-.803l-.368-1.626a1.776 1.776 0 0 0-2.09-1.342l-1.631.34a1.37 1.37 0 0 1-1.02-.3L14.242 1.67a1.776 1.776 0 0 0-2.484 0L10.57 2.837a1.37 1.37 0 0 1-1.02.3l-1.631-.34a1.775 1.775 0 0 0-2.09 1.342l-.368 1.625a1.37 1.37 0 0 1-.696.804l-1.556.595a1.776 1.776 0 0 0-1.032 2.26l.57 1.566a1.37 1.37 0 0 1-.152 1.052l-.987 1.342a1.776 1.776 0 0 0 .353 2.459l1.326 1.01a1.37 1.37 0 0 1 .441.967l-.104 1.663a1.776 1.776 0 0 0 1.626 1.877l1.661.133a1.37 1.37 0 0 1 .894.574l.811 1.456a1.776 1.776 0 0 0 2.383.7l1.47-.786a1.37 1.37 0 0 1 1.063 0l1.469.786a1.776 1.776 0 0 0 2.383-.7l.81-1.456a1.154 1.154 0 0 1 .838-.492h.185a.75.75 0 0 0 0-1.5h-.185a2.628 2.628 0 0 0-2.148 1.262l-.81 1.456a.276.276 0 0 1-.366.107l-1.469-.786a2.839 2.839 0 0 0-2.478 0l-1.47.786a.276.276 0 0 1-.364-.107l-.811-1.456a2.839 2.839 0 0 0-2.085-1.34l-1.661-.133a.276.276 0 0 1-.25-.287l.105-1.663a2.839 2.839 0 0 0-1.03-2.255l-1.325-1.01a.276.276 0 0 1-.054-.376l.987-1.342a2.839 2.839 0 0 0 .353-2.453L3.587 8.91a.276.276 0 0 1 .158-.346l1.556-.595a2.839 2.839 0 0 0 1.623-1.873l.368-1.625a.276.276 0 0 1 .32-.206l1.632.34a2.839 2.839 0 0 0 2.378-.698l1.188-1.168a.276.276 0 0 1 .38 0l1.188 1.168a2.839 2.839 0 0 0 2.378.698l1.632-.34a.276.276 0 0 1 .32.206l.368 1.625a2.839 2.839 0 0 0 1.623 1.873l1.556.595a.276.276 0 0 1 .158.346l-.57 1.567a2.838 2.838 0 0 0 .354 2.453l.987 1.342a.276.276 0 0 1-.054.377l-1.326 1.01a2.839 2.839 0 0 0-1.03 2.254l.169 2.665a.75.75 0 1 0 1.497-.094l-.168-2.665a1.37 1.37 0 0 1 .441-.967l1.326-1.01a1.776 1.776 0 0 0 .353-2.459z M9.53 18.016l8.486-8.486a.75.75 0 0 0-1.061-1.06L8.47 16.955a.75.75 0 0 0 1.06 1.06zM16.25 18.75a2.5 2.5 0 1 0-2.5-2.5 2.5 2.5 0 0 0 2.5 2.5zm0-3.5a1 1 0 1 1-1 1 1 1 0 0 1 1-1zM10.25 12.75a2.5 2.5 0 1 0-2.5-2.5 2.5 2.5 0 0 0 2.5 2.5zm0-3.5a1 1 0 1 1-1 1 1 1 0 0 1 1-1z"/></svg>
