<svg width="26" height="26" viewBox="0 0 26 26" version="1.1" xmlns="http://www.w3.org/2000/svg" xmlns:xlink="http://www.w3.org/1999/xlink"><path d="M12.275,19.75l0.725,0c3.728,0 6.75,-3.022 6.75,-6.75c0,-1.646 -0.59,-3.199 -1.646,-4.418c-0.272,-0.313 -0.238,-0.786 0.075,-1.058c0.313,-0.271 0.787,-0.237 1.058,0.076c1.29,1.489 2.013,3.389 2.013,5.4c0,4.556 -3.694,8.25 -8.25,8.25l-0.725,0l2.255,2.255c0.293,0.293 0.293,0.768 0,1.061c-0.293,0.293 -0.767,0.293 -1.06,0l-3.536,-3.536c-0.293,-0.293 -0.293,-0.767 0,-1.06l3.536,-3.536c0.293,-0.293 0.767,-0.293 1.06,0c0.293,0.293 0.293,0.768 0,1.061l-2.255,2.255Zm1.914,-13.5l-1.189,0c-3.728,0 -6.75,3.022 -6.75,6.75c0,1.703 0.632,3.306 1.755,4.54c0.279,0.307 0.256,0.781 -0.05,1.06c-0.306,0.279 -0.781,0.256 -1.059,-0.05c-1.372,-1.508 -2.146,-3.47 -2.146,-5.55c0,-4.556 3.694,-8.25 8.25,-8.25l1.189,0l-2.255,-2.255c-0.293,-0.293 -0.293,-0.768 0,-1.061c0.293,-0.293 0.768,-0.293 1.061,0l3.535,3.536c0.293,0.293 0.293,0.767 0,1.06l-3.535,3.536c-0.293,0.293 -0.768,0.293 -1.061,0c-0.293,-0.293 -0.293,-0.768 0,-1.061l2.255,-2.255Z" fill="#13ab41"/></svg>
