<svg xmlns="http://www.w3.org/2000/svg" width="26" height="26" viewBox="0 0 26 26"><path fill="#212121" d="M11.97 10.03a.75.75 0 0 0 1.06-1.06L11.56 7.5l2.25-2.25h5.88l-5.613 5.612a.75.75 0 0 0 1.061 1.06L22.03 5.03a.75.75 0 0 0-.53-1.28h-8a.75.75 0 0 0-.53.22l-3 3a.75.75 0 0 0 0 1.06zm2.06 5.94a.75.75 0 0 0-1.06 1.06l1.47 1.47-2.25 2.25H6.31l5.53-5.53a.75.75 0 0 0-1.06-1.06l-6.81 6.81a.75.75 0 0 0 .53 1.28h8a.75.75 0 0 0 .53-.22l3-3a.75.75 0 0 0 0-1.06zM12 13a1 1 0 1 0 2 0 1 1 0 1 0-2 0zm-5.03 3.03a.75.75 0 0 0 1.06 0l2-2a.75.75 0 0 0-1.06-1.06L7.5 14.44l-2.25-2.25V6.31l5.51 5.512a.75.75 0 0 0 1.062-1.061L5.03 3.97a.75.75 0 0 0-1.28.53v8a.75.75 0 0 0 .22.53zm15.06-3.06l-3-3a.75.75 0 0 0-1.064.004l-2.019 2.05a.75.75 0 0 0 1.069 1.052l1.488-1.511 2.246 2.246v5.878l-5.652-5.652a.75.75 0 0 0-1.06 1.06l6.932 6.933a.75.75 0 0 0 1.28-.53v-8a.75.75 0 0 0-.22-.53z"/></svg>