<svg xmlns="http://www.w3.org/2000/svg" width="26" height="26" viewBox="0 0 26 26"><path fill="#212121" d="M12.495 7.75H9.5a.75.75 0 0 0-.75.75v3a.75.75 0 0 0 1.5 0V9.25h2.245a1.253 1.253 0 0 1 1.255 1.255v.99a1.248 1.248 0 0 1-1.256 1.255H7.5a.75.75 0 0 0 0 1.5h4.994a2.748 2.748 0 0 0 2.756-2.755v-.99a2.753 2.753 0 0 0-2.755-2.755zM14 14.75H7.5a.75.75 0 0 0 0 1.5h1.25v2.904a.75.75 0 0 0 1.5 0V16.25H14a.75.75 0 0 0 0-1.5z M11 2.75A10.25 10.25 0 1 0 21.25 13 10.25 10.25 0 0 0 11 2.75zm0 19A8.75 8.75 0 1 1 19.75 13 8.75 8.75 0 0 1 11 21.75z M20.252 2.955a.75.75 0 1 0-.953 1.158 11.5 11.5 0 0 1 .4 17.43.75.75 0 0 0 1.004 1.114 13 13 0 0 0-.45-19.702z"/></svg>
