<svg xmlns="http://www.w3.org/2000/svg" width="26" height="26" fill-rule="evenodd"><path fill="#246ae4" fill-rule="nonzero" d="M10.5 17.942a8.125 8.125 0 0 0 14.375-5.192.875.875 0 0 0-.875-.875h-6.214a.875.875 0 1 0 0 1.75h5.279a6.375 6.375 0 0 1-12.565.388v3.929zm0-10.384a8.108 8.108 0 0 1 6.25-2.933c2.089 0 4.057.793 5.552 2.192a.875.875 0 0 1-1.196 1.278A6.377 6.377 0 0 0 10.5 11.487V7.558z"/><path fill="#e51817" fill-rule="nonzero" d="M7.625 15.375H6.036l-2.813 5.51a.874.874 0 1 1-1.559-.795l2.666-5.223A4.876 4.876 0 0 1 1.625 10.5v-1A4.875 4.875 0 0 1 6.5 4.625h2c.483 0 .875.392.875.875v15a.875.875 0 0 1-1.75 0v-5.125zM3.375 10.5A3.125 3.125 0 0 0 6.5 13.625h1.125v-7.25H6.5A3.125 3.125 0 0 0 3.375 9.5v1z"/></svg>
