<svg xmlns="http://www.w3.org/2000/svg" width="26" height="26" viewBox="0 0 26 26"><path fill="#212121" d="M15.5 6.75a.75.75 0 0 0-.75.75v2a.75.75 0 0 0 1.5 0v-2a.75.75 0 0 0-.75-.75z M22.5 9.75h-2.25v-2.5h2.25a.75.75 0 0 0 0-1.5h-2.25V4.5a.75.75 0 0 0-.75-.75h-4.002a2.75 2.75 0 0 0-2.748 2.748V7.75H9.998a6.75 6.75 0 0 0 0 13.5H17.5a.75.75 0 0 0 0-1.5H9.998a5.25 5.25 0 0 1 0-10.5h2.752v1.252a2.743 2.743 0 0 0 2.748 2.748H19.5a.75.75 0 0 0 .75-.75v-1.25h2.25a.75.75 0 0 0 0-1.5zm-8.25.752V6.498a1.25 1.25 0 0 1 1.248-1.248h3.252v6.5h-3.252a1.243 1.243 0 0 1-1.248-1.248z"/></svg>
