<svg width="26" height="26" fill="none" xmlns="http://www.w3.org/2000/svg"><path fill-rule="evenodd" clip-rule="evenodd" d="M12 3.25A1.75 1.75 0 0 0 10.25 5c0 .637.333 1.311.792 1.66.371.28.372.709.31.938-.06.226-.3.652-.83.652H6.5c-.69 0-1.25.56-1.25 1.25v1.705A3.72 3.72 0 0 1 7 10.75a3.25 3.25 0 0 1 0 6.5 3.72 3.72 0 0 1-1.75-.455V20.5c0 .69.56 1.25 1.25 1.25h2.705A3.72 3.72 0 0 1 8.75 20a3.25 3.25 0 0 1 6.5 0 3.72 3.72 0 0 1-.455 1.75H17.5a.75.75 0 0 1 0 1.5h-3.543a.948.948 0 0 1-.678-.291 1.23 1.23 0 0 1-.326-.935c.015-.168.073-.394.247-.59A2.25 2.25 0 0 0 13.75 20a1.75 1.75 0 1 0-3.5 0c0 .506.212 1.053.55 1.434.174.196.232.422.247.59.015.172-.01.34-.058.486-.048.144-.13.308-.268.449a.948.948 0 0 1-.678.291H6.5a2.75 2.75 0 0 1-2.75-2.75v-4.543c0-.306.147-.537.291-.678.14-.137.305-.22.449-.268.146-.048.314-.073.486-.058.168.015.394.073.59.247.381.338.928.55 1.434.55a1.75 1.75 0 0 0 0-3.5 2.25 2.25 0 0 0-1.434.55 1.017 1.017 0 0 1-.59.247c-.172.015-.34-.01-.486-.058a1.155 1.155 0 0 1-.449-.268.948.948 0 0 1-.291-.678V9.5A2.75 2.75 0 0 1 6.5 6.75h2.705A3.726 3.726 0 0 1 8.75 5a3.25 3.25 0 0 1 6.5 0c0 .598-.163 1.211-.455 1.75H17.5a2.75 2.75 0 0 1 2.75 2.75v1.705A3.726 3.726 0 0 1 22 10.75a3.25 3.25 0 0 1 0 6.5 3.726 3.726 0 0 1-1.75-.455V20.5a.75.75 0 0 1-1.5 0v-5.021c0-.53.426-.77.652-.831.23-.062.657-.061.939.31.348.46 1.022.792 1.659.792a1.75 1.75 0 1 0 0-3.5c-.637 0-1.311.333-1.66.792-.28.371-.709.372-.938.31-.226-.06-.652-.3-.652-.83V9.5c0-.69-.56-1.25-1.25-1.25h-4.021c-.53 0-.77-.426-.831-.652-.062-.23-.061-.657.31-.939.46-.348.792-1.022.792-1.659A1.75 1.75 0 0 0 12 3.25z" fill="#333"/></svg>