<svg xmlns="http://www.w3.org/2000/svg" width="26" height="26" viewBox="0 0 26 26"><path fill="#fff" d="M22.043 5.568l-5.784 4.857-1.996-2.564A2.247 2.247 0 0 0 15.25 6a.75.75 0 0 0-1.5 0 .75.75 0 1 1-.75-.75.75.75 0 0 0 0-1.5 2.25 2.25 0 0 0-1.263 4.111L9.74 10.425 3.957 5.568c-.974-.818-2.038-.16-1.75 1.078L5.694 21.67a.75.75 0 0 0 .73.58h13.15a.75.75 0 0 0 .73-.58l.926-4a.75.75 0 0 0-.731-.92H10a.75.75 0 0 0 0 1.5h9.557l-.58 2.5H7.023L3.949 7.52l5.424 4.554a.75.75 0 0 0 1.074-.113l2.531-3.252c.037-.047 2.575 3.252 2.575 3.252a.75.75 0 0 0 1.074.113l5.424-4.554-1.594 6.863a.75.75 0 0 0 1.461.34l1.877-8.085c.288-1.236-.78-1.887-1.752-1.07z"/></svg>