<svg width="26" height="26" viewBox="0 0 26 26" xmlns="http://www.w3.org/2000/svg"><path d="M22.33,19.75c0.375,0 0.678,-0.165 0.844,-0.372c0.154,-0.192 0.205,-0.428 0.087,-0.698c-0.447,-1.026 -1.204,-2.057 -2.489,-2.465c-0.394,-0.126 -0.612,-0.548 -0.487,-0.942c0.126,-0.395 0.548,-0.613 0.942,-0.488c1.865,0.594 2.875,2.07 3.41,3.296c0.354,0.815 0.186,1.638 -0.292,2.235c-0.466,0.581 -1.209,0.934 -2.015,0.934l-5.187,0c-0.022,0.658 -0.273,1.269 -0.681,1.761c-0.632,0.765 -1.631,1.239 -2.722,1.239l-9.48,0c-1.091,0 -2.09,-0.474 -2.723,-1.239c-0.644,-0.778 -0.896,-1.852 -0.473,-2.943c0.656,-1.688 1.908,-3.709 4.254,-4.296c0.402,-0.1 0.809,0.144 0.91,0.546c0.1,0.402 -0.144,0.809 -0.546,0.91c-1.625,0.406 -2.62,1.841 -3.219,3.384c-0.212,0.545 -0.094,1.051 0.23,1.443c0.336,0.407 0.904,0.695 1.567,0.695l9.48,0c0.663,0 1.231,-0.289 1.567,-0.695c0.324,-0.392 0.442,-0.898 0.23,-1.443c-0.599,-1.543 -1.594,-2.978 -3.219,-3.384c-0.402,-0.101 -0.646,-0.508 -0.546,-0.91c0.101,-0.402 0.508,-0.646 0.91,-0.546c0.634,0.159 1.189,0.423 1.673,0.756c0.583,-0.732 1.389,-1.393 2.489,-1.743c0.395,-0.125 0.816,0.093 0.942,0.488c0.126,0.394 -0.093,0.816 -0.487,0.942c-0.796,0.253 -1.387,0.742 -1.83,1.323c0.589,0.685 1.021,1.469 1.337,2.212l5.524,0Zm-18.08,-11.75c0,-2.914 2.336,-5.25 5.25,-5.25c0.414,0 0.75,0.336 0.75,0.75c0,0.414 -0.336,0.75 -0.75,0.75c-2.086,0 -3.75,1.664 -3.75,3.75c0,1.829 0.43,3.306 1.064,4.301c0.634,0.995 1.424,1.449 2.186,1.449c0.738,0 1.533,-0.486 2.182,-1.53c0.642,-1.033 1.068,-2.516 1.068,-4.22c0,-0.475 -0.273,-0.889 -0.883,-1.223c-0.619,-0.339 -1.487,-0.527 -2.367,-0.527c-0.414,0 -0.75,-0.336 -0.75,-0.75c0,-0.414 0.336,-0.75 0.75,-0.75c1.059,0 2.192,0.221 3.087,0.712c0.906,0.495 1.663,1.332 1.663,2.538c0,1.937 -0.482,3.704 -1.294,5.011c-0.805,1.296 -2.01,2.239 -3.456,2.239c-1.422,0 -2.632,-0.857 -3.451,-2.143c-0.821,-1.287 -1.299,-3.06 -1.299,-5.107Zm12.502,-0.673c0.626,-0.447 1.44,-0.577 2.248,-0.577c0.808,0 1.631,0.13 2.269,0.57c0.69,0.477 1.042,1.229 1.042,2.18c0,1.156 -0.382,2.296 -0.941,3.158c-0.531,0.817 -1.367,1.592 -2.37,1.592c-1.01,0 -1.831,-0.783 -2.345,-1.601c-0.543,-0.863 -0.905,-2.001 -0.905,-3.149c0,-0.935 0.325,-1.689 1.002,-2.173Zm0.871,1.221c-0.198,0.141 -0.373,0.387 -0.373,0.952c0,0.852 0.274,1.715 0.674,2.351c0.429,0.682 0.858,0.899 1.076,0.899c0.225,0 0.668,-0.225 1.112,-0.908c0.413,-0.638 0.699,-1.498 0.699,-2.342c0,-0.549 -0.179,-0.797 -0.394,-0.945c-0.268,-0.185 -0.726,-0.305 -1.417,-0.305c-0.693,0 -1.128,0.12 -1.377,0.298Z" style="fill:#333;fill-rule:nonzero;"/></svg>
