<svg xmlns="http://www.w3.org/2000/svg" width="26" height="26" fill="none" viewBox="0 0 26 26"><path fill="#FFF" fill-rule="evenodd" d="M5.941 5.732C5.716 4.646 6.58 3.75 7.595 3.75h10.81c1.014 0 1.88.892 1.654 1.98-.343 1.658-1.306 4.93-3.883 7.27 1.397 1.269 2.316 2.809 2.918 4.203a.75.75 0 0 1-1.377.594c-.635-1.47-1.628-3.043-3.167-4.197a.75.75 0 0 1 0-1.2c2.677-2.008 3.688-5.27 4.04-6.973a.12.12 0 0 0-.027-.112.205.205 0 0 0-.158-.065H7.595a.204.204 0 0 0-.158.065.122.122 0 0 0-.027.113c.026.124.055.257.089.399a.75.75 0 0 1-1.46.346c-.037-.156-.07-.303-.098-.44zm1.356 2.08a.75.75 0 0 1 .986.39c.635 1.471 1.628 3.044 3.167 4.198a.75.75 0 0 1 0 1.2c-2.677 2.008-3.688 5.27-4.04 6.973a.12.12 0 0 0 .027.112.205.205 0 0 0 .158.065h10.81a.204.204 0 0 0 .158-.065.122.122 0 0 0 .027-.113 14.205 14.205 0 0 0-.089-.399.75.75 0 0 1 1.46-.346c.037.156.07.303.098.44.225 1.088-.638 1.983-1.654 1.983H7.595c-1.014 0-1.88-.892-1.654-1.98.343-1.658 1.306-4.93 3.883-7.27-1.397-1.269-2.316-2.809-2.918-4.203a.75.75 0 0 1 .391-.986z M8.9 18.5a.6.6 0 0 1 .6-.6h4a.6.6 0 1 1 0 1.2h-4a.6.6 0 0 1-.6-.6zM9.9 16.5a.6.6 0 0 1 .6-.6h3a.6.6 0 1 1 0 1.2h-3a.6.6 0 0 1-.6-.6zM11.9 14.5a.6.6 0 0 1 .6-.6h1a.6.6 0 1 1 0 1.2h-1a.6.6 0 0 1-.6-.6zM11.9 7.5a.6.6 0 0 1 .6-.6h4a.6.6 0 1 1 0 1.2h-4a.6.6 0 0 1-.6-.6zM11.9 9.5a.6.6 0 0 1 .6-.6h3a.6.6 0 1 1 0 1.2h-3a.6.6 0 0 1-.6-.6zM11.9 11.5a.6.6 0 0 1 .6-.6h1a.6.6 0 1 1 0 1.2h-1a.6.6 0 0 1-.6-.6z" clip-rule="evenodd"/></svg>
