<svg width="26" height="26" xmlns="http://www.w3.org/2000/svg" fill-rule="evenodd" clip-rule="evenodd" stroke-linejoin="round" stroke-miterlimit="2"><path d="M21.5 22.25h-17a2.75 2.75 0 0 1-2.75-2.75v-13A2.75 2.75 0 0 1 4.5 3.75h17a2.75 2.75 0 0 1 2.75 2.75v13a2.75 2.75 0 0 1-2.75 2.75zm-17-17c-.69 0-1.25.56-1.25 1.25v13c0 .69.56 1.25 1.25 1.25h17c.69 0 1.25-.56 1.25-1.25v-13c0-.69-.56-1.25-1.25-1.25h-17zm6.755 10.427l2.837-4.539c.881-1.41 2.935-1.41 3.816 0l3.728 5.964a.75.75 0 1 1-1.272.796l-3.728-5.965a.75.75 0 0 0-1.272 0l-3.129 5.005.857 1.102a.75.75 0 0 1-1.184.921l-2.316-2.978a.75.75 0 0 0-1.184 0l-2.316 2.978a.75.75 0 0 1-1.184-.921l2.316-2.978a2.25 2.25 0 0 1 3.552 0l.479.615zm-2.93-8.921c1.57-.101 2.925 1.173 2.925 2.744 0 1.571-1.355 2.845-2.925 2.745A2.732 2.732 0 0 1 5.75 9.5a2.73 2.73 0 0 1 2.575-2.744zM9.75 9.5c0-.706-.624-1.293-1.33-1.248A1.232 1.232 0 0 0 7.25 9.5c0 .673.498 1.205 1.17 1.248A1.269 1.269 0 0 0 9.75 9.5z" fill="#333"/></svg>