<svg width="26" height="26" viewBox="0 0 26 26" xmlns="http://www.w3.org/2000/svg" fill-rule="evenodd" clip-rule="evenodd" stroke-linejoin="round" stroke-miterlimit="2"><path d="M10.716 3.233a.754.754 0 0 1-.491.94A9.275 9.275 0 0 0 3.75 13c0 5.074 4.176 9.25 9.25 9.25a9.22 9.22 0 0 0 3.7-.77.754.754 0 0 1 1.05.687.751.751 0 0 1-.45.688 10.71 10.71 0 0 1-4.3.895C7.063 23.75 2.25 18.937 2.25 13c0-4.815 3.165-8.888 7.525-10.258a.754.754 0 0 1 .94.491h.001zm1.563 9.973A.732.732 0 0 1 12.25 13V2c0-.411.339-.75.75-.75 6.49 0 11.75 5.26 11.75 11.75 0 .411-.339.75-.75.75h-9.413l1.648 2.006a4.22 4.22 0 0 0 .662-1.056.754.754 0 0 1 .987-.387c.377.165.551.61.387.987a5.758 5.758 0 0 1-1.073 1.629l.959 1.167a7.251 7.251 0 0 0 1.732-2.83.753.753 0 0 1 .947-.479.751.751 0 0 1 .478.947 8.76 8.76 0 0 1-2.2 3.526l.955 1.163a10.246 10.246 0 0 0 2.795-4.627.752.752 0 0 1 .722-.546.753.753 0 0 1 .722.954 11.767 11.767 0 0 1-3.849 5.875.753.753 0 0 1-1.056-.103l-3.732-4.543a.764.764 0 0 1-.155-.189l-3.095-3.768a.746.746 0 0 1-.142-.27zm-1.502-2.356a.75.75 0 0 1 .274 1.026c-.197.342-.301.73-.301 1.124 0 1.094.797 2.037 1.875 2.219.36.061.625.375.625.74a.753.753 0 0 1-.875.74 3.762 3.762 0 0 1-3.127-3.698c0-.659.174-1.306.504-1.877a.752.752 0 0 1 1.025-.273v-.001zm2.973-8.073v9.473h9.473c-.371-5.047-4.426-9.102-9.473-9.473z" fill="#212121"/></svg>
