<svg xmlns="http://www.w3.org/2000/svg" width="26" height="26" viewBox="0 0 26 26"><path fill="#212121" d="M21 9.748h-5.182l1.07-4.975a1.633 1.633 0 0 0-1.635-2.023h-1.31a2.749 2.749 0 0 0-2.319 1.446L8.896 9.747H6.143a.75.75 0 0 0-.747.679l-.928 9.753a.75.75 0 1 0 1.493.142l.864-9.074h2.538a.75.75 0 0 0 .674-.42l2.934-5.971a1.27 1.27 0 0 1 .973-.607h1.309c.151 0 .2.06.169.208l-1.266 5.882a.75.75 0 0 0 .733.908H21a1.108 1.108 0 0 1 1.168 1.509l-3.088.067a.75.75 0 1 0 .032 1.5l2.64-.058-.413 1.487-3.259.07a.75.75 0 1 0 .032 1.5l2.809-.06-.414 1.491c-.008 0-.014-.004-.023-.004l-3.404.074a.75.75 0 1 0 .032 1.5l2.917-.064a2.857 2.857 0 0 1-2.351 1.49H8.5a.75.75 0 0 0 0 1.5h9.178a4.32 4.32 0 0 0 3.98-3.03l1.952-7.042A2.6 2.6 0 0 0 21 9.748z"/></svg>