<svg xmlns="http://www.w3.org/2000/svg" width="26" height="26" viewBox="0 0 26 26"><path fill="#212121" d="M21.647 5.345l-.707-.707a4.757 4.757 0 0 0-6.72.003l-8.046 8.046a.75.75 0 0 0 1.06 1.06l8.047-8.046A3.257 3.257 0 0 1 19.88 5.7l.707.707a3.254 3.254 0 0 1-.002 4.598L10.128 21.461l-5.13.062a.223.223 0 0 1-.236-.235l.045-3.656 2.346 2.346a.75.75 0 1 0 1.06-1.06L4.61 15.312a.75.75 0 0 0-1.28.521l-.067 5.436a1.723 1.723 0 0 0 1.754 1.753l5.436-.066a.75.75 0 0 0 .52-.22l10.673-10.672a4.754 4.754 0 0 0 .002-6.72z M16.717 6.462l-7 6.97a.75.75 0 0 0 1.059 1.062l7-6.969a.75.75 0 0 0-1.059-1.063zm-4.873 9.916a.75.75 0 0 0 1.061.002l7-6.97a.75.75 0 0 0-1.058-1.062l-7 6.969a.75.75 0 0 0-.003 1.06z"/></svg>
