<svg xmlns="http://www.w3.org/2000/svg" width="26" height="26" viewBox="0 0 26 26"><path fill="#212121" d="M20 13.75A4.25 4.25 0 1 0 24.25 18 4.254 4.254 0 0 0 20 13.75zm0 7A2.75 2.75 0 1 1 22.75 18 2.753 2.753 0 0 1 20 20.75zM19 7a1 1 0 1 0 2 0 1 1 0 1 0-2 0zm1 4.25A4.25 4.25 0 1 0 15.75 7 4.255 4.255 0 0 0 20 11.25zm0-7A2.75 2.75 0 1 1 17.25 7 2.753 2.753 0 0 1 20 4.25zm-9.47.22a.75.75 0 1 0-1.06 1.06l1.22 1.22H3.502a.75.75 0 0 0 0 1.5h7.187L9.47 9.472a.75.75 0 0 0 1.06 1.06l2.5-2.502a.75.75 0 0 0 0-1.06zm0 11a.75.75 0 0 0-1.06 1.06l1.22 1.22H6.005A1.754 1.754 0 0 1 4.253 16v-2.5a.75.75 0 0 0-1.5 0V16a3.255 3.255 0 0 0 3.253 3.25h4.684l-1.22 1.223a.75.75 0 0 0 1.06 1.06l2.5-2.503a.75.75 0 0 0 0-1.06z"/></svg>