<svg xmlns="http://www.w3.org/2000/svg" width="26" height="26" viewBox="0 0 26 26"><path fill="#212121" d="M22.509 7.75a.739.739 0 0 0-.259.052V6.5a2.753 2.753 0 0 0-2.75-2.75h-16A2.753 2.753 0 0 0 .75 6.5v10a2.753 2.753 0 0 0 2.75 2.75h16a2.753 2.753 0 0 0 2.75-2.75v-3.25h1.397a.705.705 0 0 0 .103-.02v7.264a1.25 1.25 0 0 1-1.241 1.256H6.49a1.25 1.25 0 0 1-1.241-1.256.75.75 0 0 0-1.5 0 2.751 2.751 0 0 0 2.74 2.756H22.51a2.752 2.752 0 0 0 2.741-2.756v-9.988a2.752 2.752 0 0 0-2.741-2.756zM20.75 16.5a1.251 1.251 0 0 1-1.25 1.25h-16a1.251 1.251 0 0 1-1.25-1.25v-10A1.251 1.251 0 0 1 3.5 5.25h16a1.251 1.251 0 0 1 1.25 1.25zm2.897-4.75H22.25V9.198a.739.739 0 0 0 .259.052 1.25 1.25 0 0 1 1.241 1.256v1.265a.705.705 0 0 0-.103-.021z M8.59 10.167a.55.55 0 0 0-.718.299L6.486 13.82l-.88-3.287a.55.55 0 0 0-.53-.408H3.853a.55.55 0 0 0 0 1.1h.799l1.19 4.449a.55.55 0 0 0 .495.406.424.424 0 0 0 .036.001.55.55 0 0 0 .508-.34l2.007-4.856a.55.55 0 0 0-.299-.719zM18.034 10.543a.573.573 0 0 0-1.053 0l-1.489 4.896a.55.55 0 1 0 1.053.32l.23-.757a.52.52 0 0 0 .078.016h1.394l.226.742a.55.55 0 0 0 .526.39.573.573 0 0 0 .16-.024.55.55 0 0 0 .366-.687zm-.93 3.375l.404-1.326.404 1.326zM10.78 10.168a.55.55 0 0 0-.666.4l-1.194 4.8a.55.55 0 0 0 .401.667.568.568 0 0 0 .134.016.55.55 0 0 0 .533-.417l1.194-4.8a.55.55 0 0 0-.401-.666zM14.919 10.19c-2.471-.4-2.93.872-2.972 1.006a2.06 2.06 0 0 0 .113 1.535 1.685 1.685 0 0 0 1.147.806.915.915 0 0 1 .625.36.82.82 0 0 1 .06.556c-.007.018-.283.606-1.864.48a.55.55 0 0 0-.083 1.097c.173.013.336.019.49.019 2.09 0 2.47-1.133 2.503-1.253a1.908 1.908 0 0 0-.15-1.442 1.932 1.932 0 0 0-1.336-.89c-.322-.075-.404-.218-.43-.265a.955.955 0 0 1-.038-.638c.003-.005.264-.529 1.757-.285a.55.55 0 0 0 .178-1.086z"/></svg>
