<svg width="26" height="26" fill="none" xmlns="http://www.w3.org/2000/svg"><path fill-rule="evenodd" clip-rule="evenodd" d="M1.75 5.5A2.75 2.75 0 0 1 4.5 2.75h17a2.75 2.75 0 0 1 2.75 2.75v5a.75.75 0 0 1-1.5 0v-5c0-.69-.56-1.25-1.25-1.25h-17c-.69 0-1.25.56-1.25 1.25v15c0 .69.56 1.25 1.25 1.25h5a.75.75 0 0 1 0 1.5h-5a2.75 2.75 0 0 1-2.75-2.75v-15zm3 1a.75.75 0 0 1 .75-.75H6a.75.75 0 0 1 0 1.5h-.5a.75.75 0 0 1-.75-.75zm3 0a.75.75 0 0 1 .75-.75H9a.75.75 0 0 1 0 1.5h-.5a.75.75 0 0 1-.75-.75zm3 0a.75.75 0 0 1 .75-.75h9a.75.75 0 0 1 0 1.5h-9a.75.75 0 0 1-.75-.75zm2.968 7.56c-1.12.517-1.468 1.08-1.468 1.44a.75.75 0 0 1-1.5 0c0-1.297 1.108-2.234 2.34-2.802 1.295-.598 3.032-.948 4.91-.948 1.878 0 3.615.35 4.91.948 1.232.568 2.34 1.505 2.34 2.802v6c0 1.297-1.108 2.234-2.34 2.802-1.295.598-3.032.948-4.91.948-1.878 0-3.615-.35-4.91-.948-1.232-.568-2.34-1.505-2.34-2.802v-3a.75.75 0 0 1 1.5 0v3c0 .36.347.923 1.468 1.44 1.057.488 2.57.81 4.282.81 1.712 0 3.225-.322 4.282-.81 1.12-.517 1.468-1.08 1.468-1.44v-.662c-.264.175-.548.33-.84.464-1.295.598-3.032.948-4.91.948-1.353 0-2.626-.181-3.713-.502a.75.75 0 0 1 .425-1.439c.935.276 2.064.441 3.288.441 1.712 0 3.225-.322 4.282-.81 1.12-.517 1.468-1.08 1.468-1.44v-.662c-.264.175-.548.33-.84.464-1.295.598-3.032.948-4.91.948-1.353 0-2.626-.181-3.713-.502a.75.75 0 1 1 .425-1.439c.935.276 2.064.441 3.288.441 1.712 0 3.225-.322 4.282-.81 1.12-.517 1.468-1.08 1.468-1.44 0-.36-.347-.923-1.468-1.44-1.057-.488-2.57-.81-4.282-.81-1.712 0-3.225.322-4.282.81z" fill="#333"/></svg>