<svg width="26" height="26" fill="none" xmlns="http://www.w3.org/2000/svg"><path fill-rule="evenodd" clip-rule="evenodd" d="M20.5 9.25a2.75 2.75 0 1 1 0-5.5 2.75 2.75 0 0 1 0 5.5zM2.75 6.5c0 .414.336.75.75.75h12a.75.75 0 0 0 0-1.5h-12a.75.75 0 0 0-.75.75zm2.104 6.25a2.751 2.751 0 1 1 0 1.5H3.5a.75.75 0 0 1 0-1.5h1.354zm13.293 7H22.5a.75.75 0 0 1 0 1.5h-4.354a2.751 2.751 0 1 1 0-1.5zM3.5 21.25a.75.75 0 0 1 0-1.5h7a.75.75 0 0 1 0 1.5h-7zm8.25-7.75c0 .414.336.75.75.75h10a.75.75 0 0 0 0-1.5h-10a.75.75 0 0 0-.75.75zm10-7a1.25 1.25 0 1 1-2.5 0 1.25 1.25 0 0 1 2.5 0zM15.5 21.75a1.25 1.25 0 1 0 0-2.5 1.25 1.25 0 0 0 0 2.5zM8.75 13.5a1.25 1.25 0 1 1-2.5 0 1.25 1.25 0 0 1 2.5 0z" fill="#212121"/></svg>
