<svg xmlns="http://www.w3.org/2000/svg" width="26" height="26" viewBox="0 0 26 26"><path fill="#212121" d="M2.5 10.25h18.002a2.25 2.25 0 0 1 2.248 2.243.719.719 0 0 0 .74.75l.006.001h.001a.72.72 0 0 0 .753-.746v-.159l.001-.085.001-.168v-.077h-.05a3.74 3.74 0 0 0-3.7-3.259H3.25v-.132a1.346 1.346 0 0 1 1.28-1.33l.998-.039a.75.75 0 1 0-.056-1.498l-1 .037a2.839 2.839 0 0 0-2.704 2.649H1.75V9.5a.75.75 0 0 0 .75.75zM23.5 19.75h-2.99a2.25 2.25 0 1 1 0-4.5h2.99a.75.75 0 0 0 0-1.5h-2.99a3.75 3.75 0 1 0 0 7.5h2.145a3.244 3.244 0 0 1-3.154 2.5l-13.992.001a2.256 2.256 0 0 1-2.259-2.256V12.5a.75.75 0 0 0-1.5 0v8.995a3.756 3.756 0 0 0 3.759 3.756H19.5A4.75 4.75 0 0 0 24.25 20.5a.75.75 0 0 0-.75-.75z M8.501 8.1a3.367 3.367 0 0 0 2.133-.885L16.5 1.349l6.576 6.575a.6.6 0 0 0 .848-.848l-7-7a.6.6 0 0 0-.848 0l-6.29 6.29A2.2 2.2 0 0 1 8.5 6.9c-.57 0-.565.012-.167-.386l3.602-3.603a.6.6 0 1 0-.848-.848L7.485 5.666C6.328 6.823 6.867 8.1 8.501 8.1z M16.913 4.114a.6.6 0 0 0-.849-.004L13.08 7.072a.6.6 0 1 0 .845.852l2.985-2.962a.6.6 0 0 0 .004-.848zM16.907 7.952l2.003-1.99a.6.6 0 1 0-.846-.851L16.06 7.1a.6.6 0 0 0 .846.851zM23.503 16.75h-1.915a.75.75 0 0 0 0 1.5h1.915a.75.75 0 0 0 0-1.5z"/></svg>
