<svg width="26" height="26" fill="none" xmlns="http://www.w3.org/2000/svg"><path d="M13.5 3.5a1 1 0 1 0 0-2 1 1 0 0 0 0 2z" fill="#333"/><path d="M10.276 4.363a.75.75 0 1 0-.552-1.395A10.253 10.253 0 0 0 3.25 12.5c0 2.04 1.227 4.217 2.682 6.113 1.48 1.929 3.31 3.711 4.732 4.985a4.226 4.226 0 0 0 5.672 0c1.423-1.274 3.252-3.056 4.732-4.985 1.455-1.896 2.682-4.073 2.682-6.113 0-4.328-2.683-8.029-6.474-9.532a.75.75 0 1 0-.552 1.395A8.753 8.753 0 0 1 22.25 12.5c0 1.51-.948 3.344-2.372 5.2-1.4 1.824-3.152 3.535-4.542 4.78a2.726 2.726 0 0 1-3.672 0c-1.39-1.245-3.143-2.956-4.542-4.78-1.424-1.856-2.372-3.69-2.372-5.2a8.753 8.753 0 0 1 5.526-8.137z" fill="#333"/><path d="M11.93 18.758a.75.75 0 1 0-.86 1.23c.69.48 1.528.762 2.43.762.902 0 1.74-.282 2.43-.762a.75.75 0 1 0-.859-1.23c-.445.31-.986.492-1.571.492a2.734 2.734 0 0 1-1.57-.492zM11.25 5.5a.75.75 0 0 1 .75-.75h3a.75.75 0 0 1 0 1.5h-3a.75.75 0 0 1-.75-.75z" fill="#333"/><path fill-rule="evenodd" clip-rule="evenodd" d="M7.293 11.859h-.001a.75.75 0 0 0-.52.9v.004l.003.008.007.027.025.094a10.73 10.73 0 0 0 .463 1.342c.158.374.366.79.624 1.142.244.333.615.722 1.135.852a6.596 6.596 0 0 0 2.249.168 5.586 5.586 0 0 0 .871-.158l.058-.017.019-.006.006-.002h.003l.002-.002a.751.751 0 0 0 .513-.689V15.485v-.087a6.953 6.953 0 0 0-.123-1.253c-.13-.673-.447-1.708-1.326-2.215-.419-.242-.898-.34-1.331-.376a6.553 6.553 0 0 0-1.272.033 9.763 9.763 0 0 0-1.371.262l-.024.007-.007.002h-.003zM10.5 15.25a.75.75 0 1 0 0-1.5.75.75 0 0 0 0 1.5zM19.708 11.859h-.001l-.003-.001-.007-.002-.024-.007a6.244 6.244 0 0 0-.385-.094 9.768 9.768 0 0 0-.986-.168 6.553 6.553 0 0 0-1.272-.033c-.433.035-.912.134-1.33.376-.88.508-1.198 1.542-1.328 2.215a6.953 6.953 0 0 0-.123 1.34l.001.037c.01.314.214.59.513.69h.002l.003.001.006.002.019.006.018.006a2.672 2.672 0 0 0 .234.06c.164.038.394.08.677.109a6.596 6.596 0 0 0 2.249-.168c.52-.13.891-.52 1.135-.852a5.79 5.79 0 0 0 .624-1.142 10.698 10.698 0 0 0 .488-1.436l.007-.027.002-.008.001-.003a.75.75 0 0 0-.52-.901zM16.5 15.25a.75.75 0 1 0 0-1.5.75.75 0 0 0 0 1.5z" fill="#333"/></svg>