<svg width="26" height="26" fill="none" xmlns="http://www.w3.org/2000/svg"><path fill-rule="evenodd" clip-rule="evenodd" d="M9.583 4.58a.25.25 0 0 0-.342-.09l-1.732 1a.25.25 0 0 0-.092.34l1.146 1.984a.75.75 0 0 1-.105.89 6.27 6.27 0 0 0-1.45 2.51.75.75 0 0 1-.718.536H4a.25.25 0 0 0-.25.25v2c0 .138.112.25.25.25h2.292a.75.75 0 0 1 .719.536c.276.927.766 1.79 1.447 2.51a.75.75 0 0 1 .104.89L7.417 20.17a.25.25 0 0 0 .092.342l1.732 1a.25.25 0 0 0 .342-.092l1.144-1.983a.75.75 0 0 1 .824-.354c.964.23 1.956.222 2.897-.002a.75.75 0 0 1 .824.355l1.146 1.984a.25.25 0 0 0 .341.092l1.732-1a.25.25 0 0 0 .091-.342l-1.145-1.983a.75.75 0 0 1 1.3-.75l1.145 1.983a1.75 1.75 0 0 1-.641 2.39l-1.732 1a1.75 1.75 0 0 1-2.39-.64l-.878-1.519a7.745 7.745 0 0 1-2.483.002l-.876 1.517a1.75 1.75 0 0 1-2.391.64l-1.732-1a1.75 1.75 0 0 1-.64-2.39l.876-1.517a7.743 7.743 0 0 1-1.24-2.152H4A1.75 1.75 0 0 1 2.25 14v-2c0-.966.784-1.75 1.75-1.75h1.753A7.799 7.799 0 0 1 6.995 8.1l-.877-1.52a1.75 1.75 0 0 1 .641-2.39l1.732-1a1.75 1.75 0 0 1 2.39.64l.878 1.52a7.742 7.742 0 0 1 2.483-.002l.876-1.517a1.75 1.75 0 0 1 2.391-.64l1.732 1a1.75 1.75 0 0 1 .64 2.39l-.875 1.517c.531.652.947 1.38 1.24 2.152H22c.966 0 1.75.784 1.75 1.75v2A1.75 1.75 0 0 1 22 15.75h-2.29a.75.75 0 0 1 0-1.5H22a.25.25 0 0 0 .25-.25v-2a.25.25 0 0 0-.25-.25h-2.292a.75.75 0 0 1-.718-.536 6.242 6.242 0 0 0-1.448-2.51.75.75 0 0 1-.104-.89l1.145-1.983a.25.25 0 0 0-.092-.342l-1.732-1a.25.25 0 0 0-.341.092l-1.145 1.983a.75.75 0 0 1-.824.354 6.242 6.242 0 0 0-2.897.002.75.75 0 0 1-.824-.354L9.583 4.58zM13 10.75c-.264 0-.516.045-.75.128a.75.75 0 1 1-.5-1.414 3.75 3.75 0 1 1-2.43 2.817.75.75 0 0 1 1.471.286A2.25 2.25 0 1 0 13 10.75z" fill="#333"/></svg>