<svg width="26" height="26" fill="none" xmlns="http://www.w3.org/2000/svg"><path fill-rule="evenodd" clip-rule="evenodd" d="M10.716 3.233a.75.75 0 0 1-.491.94 9.27 9.27 0 0 0-6.184 6.514.75.75 0 1 1-1.452-.374 10.77 10.77 0 0 1 7.186-7.57.75.75 0 0 1 .94.49zM1.25 13a.75.75 0 0 1 .75-.75h11a.75.75 0 0 1 0 1.5H8.816c.075.424.214.826.405 1.196a.75.75 0 1 1-1.333.688 5.716 5.716 0 0 1-.59-1.884h-1.51a7.204 7.204 0 0 0 1.216 3.328.75.75 0 1 1-1.24.844 8.705 8.705 0 0 1-1.482-4.172H2.777a10.19 10.19 0 0 0 1.836 5.144.75.75 0 0 1-1.226.864A11.7 11.7 0 0 1 1.25 13z" fill="#666"/><path d="M13 24c6.075 0 11-4.925 11-11S19.075 2 13 2v11l-6.704 8.722A10.952 10.952 0 0 0 13 24z" fill="#FBB017"/><path fill-rule="evenodd" clip-rule="evenodd" d="M12.25 2a.75.75 0 0 1 .75-.75c6.49 0 11.75 5.26 11.75 11.75S19.49 24.75 13 24.75c-2.694 0-5.179-.908-7.161-2.434a.75.75 0 0 1-.137-1.051l6.548-8.52V2zm1.5.777V13a.75.75 0 0 1-.155.457l-6.23 8.106A10.2 10.2 0 0 0 13 23.25c5.661 0 10.25-4.59 10.25-10.25 0-5.409-4.19-9.839-9.5-10.223z" fill="#CC8F13"/><path fill-rule="evenodd" clip-rule="evenodd" d="M14.441 11.264a.75.75 0 0 1 1.06-.059 3.75 3.75 0 0 1-1.876 6.493.75.75 0 0 1-.25-1.48 2.25 2.25 0 0 0 1.125-3.895.75.75 0 0 1-.059-1.06z" fill="#CC8F13"/><path fill-rule="evenodd" clip-rule="evenodd" d="M14.441 10.264a.75.75 0 0 1 1.06-.059 3.75 3.75 0 0 1-1.876 6.493.75.75 0 0 1-.25-1.48 2.25 2.25 0 0 0 1.125-3.895.75.75 0 0 1-.059-1.06z" fill="#fff"/></svg>