<svg xmlns="http://www.w3.org/2000/svg" width="26" height="26" viewBox="0 0 26 26"><path fill="#fff" d="M19 10.75a2.233 2.233 0 0 0-.998.242 2.22 2.22 0 0 0-3-1 2.206 2.206 0 0 0-2.752-1.105V4.005a2.25 2.25 0 1 0-4.5 0v7.781l-.93-1.487a2.25 2.25 0 0 0-3.815 2.385l3.572 7.528a.75.75 0 0 0 1.355-.644l-3.614-7.604a.776.776 0 0 1 .197-1.108.753.753 0 0 1 1.034.238l2.315 3.705a.75.75 0 0 0 1.386-.397V4.005a.75.75 0 1 1 1.5 0V11.5a.75.75 0 0 0 1.5 0v-.495a.75.75 0 1 1 1.5 0V12.5a.75.75 0 0 0 1.5 0V12a.75.75 0 1 1 1.5 0v1.5a.75.75 0 0 0 1.5 0V13a.75.75 0 0 1 1.5 0v6.506a3.247 3.247 0 0 1-3.25 3.244h-3.53a5.589 5.589 0 0 1-2.741-.826.75.75 0 1 0-.76 1.294 7.066 7.066 0 0 0 3.501 1.032h3.53a4.747 4.747 0 0 0 4.75-4.744V13A2.246 2.246 0 0 0 19 10.75z"/></svg>
