<svg xmlns="http://www.w3.org/2000/svg" width="26" height="26" viewBox="0 0 26 26"><path fill="#212121" d="M15.508 21.75H6.492a1.243 1.243 0 0 1-1.242-1.245v-3.14a.75.75 0 0 0-1.5 0v3.14a2.743 2.743 0 0 0 2.742 2.745h9.016a.75.75 0 1 0 0-1.5zm8.57-5.807l-5.052-4.976a.75.75 0 0 0-1.276.534v2.27h-5.132a.75.75 0 1 0 0 1.5H18.5a.75.75 0 0 0 .75-.75v-1.228l3.236 3.186-3.236 3.218v-1.298a.75.75 0 0 0-.812-.747c-.064.005-.192.013-.377.022a23.132 23.132 0 0 1-6.366-.56c-4.077-.989-6.422-3.094-6.408-6.683L5.261 5.5A1.234 1.234 0 0 1 6.5 4.25h7.25V8.5a.75.75 0 0 0 .75.75h5a.75.75 0 0 0 .75-.75V7.427a.75.75 0 0 0-.226-.537l-3-2.927a.75.75 0 0 0-1.048 1.074l2.774 2.706v.007h-3.5V3.5a.75.75 0 0 0-.75-.75h-8a2.734 2.734 0 0 0-2.74 2.758l.027 4.924c-.018 4.407 2.877 7.006 7.555 8.14a24.29 24.29 0 0 0 6.408.606V21.5a.75.75 0 0 0 1.279.532l5.052-5.023a.75.75 0 0 0-.003-1.066z"/></svg>