<svg xmlns="http://www.w3.org/2000/svg" width="26" height="26" viewBox="0 0 26 26"><path fill="#333" d="M7.5 2.75a4.75 4.75 0 1 0 4.75 4.75A4.753 4.753 0 0 0 7.5 2.75zm0 8a3.25 3.25 0 1 1 3.25-3.25 3.253 3.253 0 0 1-3.25 3.25zm11 1.5a4.75 4.75 0 1 0-4.75-4.75 4.753 4.753 0 0 0 4.75 4.75zm0-8a3.25 3.25 0 1 1-3.25 3.25 3.253 3.253 0 0 1 3.25-3.25zm-2 3.25a2 2 0 1 0 4 0 2 2 0 1 0-4 0zm-5 10.262a.75.75 0 0 0-.75.75V21.5a.254.254 0 0 1-.247.251H4.497a.251.251 0 0 1-.247-.247v-6.006a.252.252 0 0 1 .243-.247h5.008a.75.75 0 0 0 0-1.5H4.493a1.752 1.752 0 0 0-1.743 1.747v6.006a1.751 1.751 0 0 0 1.747 1.747h6.006a1.753 1.753 0 0 0 1.747-1.751v-2.987a.75.75 0 0 0-.75-.75zm-4.978-.3a.75.75 0 0 0-1.06 1.06L6.97 20.03a.75.75 0 0 0 1.06 0l3.498-3.5a.75.75 0 1 0-1.061-1.06L7.5 18.44zm14.981-3.712h-6.006a1.751 1.751 0 0 0-1.747 1.747v6.006a1.751 1.751 0 0 0 1.747 1.747h6.006a1.751 1.751 0 0 0 1.747-1.747v-6.006a1.751 1.751 0 0 0-1.747-1.747zm.247 7.753a.251.251 0 0 1-.247.247h-6.006a.251.251 0 0 1-.247-.247v-6.006a.251.251 0 0 1 .247-.247h6.006a.251.251 0 0 1 .247.247z"/></svg>