<svg xmlns="http://www.w3.org/2000/svg" width="26" height="26" viewBox="0 0 26 26"><path fill="#212121" d="M20.876 8.26l-2.189.366c-.395-2.964-1.508-4.757-3.714-4.33-1.958.38-2.986 2.273-3.394 5.089-.02.144-.032.29-.05.436l-2.653.443a.75.75 0 0 0-.626.74v10.784l-2.5-1.248V9.64l2.39-.4a.737.737 0 0 0 .524-.385.729.729 0 0 0 .184-.353c.503-2.807 1.198-4.128 2.783-4.348a3.376 3.376 0 0 1 .774-.029.75.75 0 1 0 .14-1.493 4.855 4.855 0 0 0-1.121.036C9.04 3 8.07 4.692 7.454 7.834l-2.578.43a.75.75 0 0 0-.626.74v12a.75.75 0 0 0 .415.671l4 1.996.013.003a.743.743 0 0 0 .211.058.749.749 0 0 0 .077.015c.012 0 .022.007.034.007a.717.717 0 0 0 .162-.033.65.65 0 0 0 .462-.326.711.711 0 0 0 .047-.06l.004-.016a.746.746 0 0 0 .044-.162.757.757 0 0 0 .027-.132c0-.007.004-.014.004-.021V11.639l1.655-.276a23.954 23.954 0 0 0 .048 2.705.75.75 0 0 0 1.494-.136 12.972 12.972 0 0 1-.03-.448 22.19 22.19 0 0 1 .005-2.375l4.403-.735c.029.711.035 1.424 0 2.103-.01.22-.022.378-.029.46a.75.75 0 0 0 1.495.127c.008-.098.02-.273.032-.511.04-.782.028-1.605-.013-2.427l1.44-.24v10.483l-6.863 1.143a.75.75 0 1 0 .247 1.48l7.49-1.248a.75.75 0 0 0 .626-.74V9a.75.75 0 0 0-.874-.74zm-5.618-2.49c1.007-.195 1.666.888 1.953 3.102l-4.141.692c.329-2.223 1.067-3.577 2.188-3.794z"/></svg>