<svg width="26" height="26" fill="none" xmlns="http://www.w3.org/2000/svg"><path fill-rule="evenodd" clip-rule="evenodd" d="M14.75 20.5a.75.75 0 0 1 .75-.75h8a.75.75 0 0 1 0 1.5h-8a.75.75 0 0 1-.75-.75zM14.75 16.5a.75.75 0 0 1 .75-.75h8a.75.75 0 0 1 0 1.5h-8a.75.75 0 0 1-.75-.75zM4.52 13.424a.75.75 0 0 1 1.056.096l5 6a.75.75 0 0 1-1.152.96l-5-6a.75.75 0 0 1 .096-1.056z" fill="#333"/><path fill-rule="evenodd" clip-rule="evenodd" d="M10.48 13.424a.75.75 0 0 0-1.056.096l-5 6a.75.75 0 1 0 1.152.96l5-6a.75.75 0 0 0-.096-1.056zM14.75 12.5a.75.75 0 0 1 .75-.75h8a.75.75 0 0 1 0 1.5h-8a.75.75 0 0 1-.75-.75zM8.75 5.5a.75.75 0 0 1 .75-.75h8a.75.75 0 0 1 0 1.5h-8a.75.75 0 0 1-.75-.75z" fill="#333"/><path fill-rule="evenodd" clip-rule="evenodd" d="M1.75 4.5A2.75 2.75 0 0 1 4.5 1.75h17a2.75 2.75 0 0 1 2.75 2.75v2a2.75 2.75 0 0 1-2.75 2.75h-17A2.75 2.75 0 0 1 1.75 6.5v-2zM4.5 3.25c-.69 0-1.25.56-1.25 1.25v2c0 .69.56 1.25 1.25 1.25h17c.69 0 1.25-.56 1.25-1.25v-2c0-.69-.56-1.25-1.25-1.25h-17zM1.75 13.5a2.75 2.75 0 0 1 2.75-2.75h6a2.75 2.75 0 0 1 2.75 2.75v7a2.75 2.75 0 0 1-2.75 2.75h-6a2.75 2.75 0 0 1-2.75-2.75v-7zm2.75-1.25c-.69 0-1.25.56-1.25 1.25v7c0 .69.56 1.25 1.25 1.25h6c.69 0 1.25-.56 1.25-1.25v-7c0-.69-.56-1.25-1.25-1.25h-6z" fill="#333"/></svg>