<svg width="26" height="26" viewBox="0 0 27 26" xmlns="http://www.w3.org/2000/svg" fill-rule="evenodd" clip-rule="evenodd" stroke-linejoin="round" stroke-miterlimit="2"><path d="M.75 3.5c0-.966.784-1.75 1.75-1.75h2.719a2.75 2.75 0 0 1 2.668 2.083l.479 1.917h14.441c2.286 0 3.858 2.297 3.029 4.428l-2.485 6.389a2.749 2.749 0 0 1-2.269 1.738l-2.997.322c.347.275.588.678.649 1.139A1.75 1.75 0 0 1 20.25 21.5a3.25 3.25 0 0 1-5.989 1.75h-1.522a3.25 3.25 0 1 1-4.785-4.275L5.3 7.916 4.634 5.25H2.5A1.75 1.75 0 0 1 .75 3.5zm10.887 15.82l.065.272c.012.052.022.105.03.158h2.529c.192-.3.432-.566.709-.788l-3.333.358zm-.471-1.961L8.86 7.75h13.947a1.25 1.25 0 0 1 1.165 1.703l-2.485 6.389a.748.748 0 0 1-.618.474l-9.703 1.043z" fill="#fff"/><path d="M1.75 3.5a.75.75 0 0 1 .75-.75h2.719a1.75 1.75 0 0 1 1.698 1.326l.812 3.249 3 12.5a.748.748 0 0 1-.729.925.75.75 0 1 0 .75.75.75.75 0 0 1 .75-.75h3.378A2.25 2.25 0 0 1 17 19.25a.75.75 0 0 1 0 1.5.75.75 0 1 0 .75.75.75.75 0 0 1 1.5 0 2.25 2.25 0 0 1-4.372.75h-2.756a2.25 2.25 0 1 1-3.028-2.81L6.272 7.678l-.81-3.239a.25.25 0 0 0-.243-.189H2.5a.75.75 0 0 1-.75-.75z" fill="#666"/><path d="M24.205 9.544l-2.485 6.389a1 1 0 0 1-.825.632L9.47 17.793 7 7.5h15.807a1.5 1.5 0 0 1 1.398 2.044z" fill="#27ab4a" fill-rule="nonzero"/><path d="M6.411 7.036A.748.748 0 0 1 7 6.75h15.807a2.25 2.25 0 0 1 2.097 3.066l-2.485 6.389a1.751 1.751 0 0 1-1.444 1.106L9.55 18.538a.749.749 0 0 1-.809-.57L6.271 7.675a.748.748 0 0 1 .14-.639zM22.807 8.25H7.951l2.095 8.727 2.471-.266-1.245-5.029a.751.751 0 0 1 1.456-.364l1.294 5.231 1.417-.152-1.167-4.715a.751.751 0 0 1 1.456-.364l1.216 4.917 1.416-.152-1.088-4.401a.751.751 0 0 1 1.456-.364l1.137 4.603.95-.102a.248.248 0 0 0 .206-.158l2.485-6.389a.75.75 0 0 0-.699-1.022z" fill="#1a8436"/><path d="M10.318 9.772a.75.75 0 0 1 .909.546l1.213 4.851a.75.75 0 1 1-1.455.364l-1.213-4.851a.751.751 0 0 1 .546-.91zm3 0a.75.75 0 0 1 .909.546l1.125 4.5a.75.75 0 1 1-1.455.364l-1.125-4.5a.751.751 0 0 1 .546-.91zm3 0a.75.75 0 0 1 .909.546l1 4a.75.75 0 1 1-1.455.364l-1-4a.751.751 0 0 1 .546-.91z" fill="#fff"/></svg>
