<svg xmlns="http://www.w3.org/2000/svg" width="238" height="188" viewBox="0 0 238 188">
  <path fill="none" d="M0 0h238v188H0z"/>
  <path fill="#a4a8a9" d="M207.64838 161.915L181.487 150.84875a1.25 1.25 0 0 0-1.63818 1.63831l11.06732 26.15784a1.61246 1.61246 0 0 0 3.08112.02179l3.54523-8.11188 7.72858 7.46826a1.5 1.5 0 0 0 2.14539-2.09692l-7.70978-7.45013 7.96338-3.47974a1.6145 1.6145 0 0 0-.02168-3.08128zm-10.9436 5.14447a1.2504 1.2504 0 0 0-.64484.64484l-3.5863 8.20587-9.12109-21.55786 21.56079 9.12024zM180 144.72058v-7.24928a1 1 0 1 0-2 0v7.24927a1 1 0 0 0 2 0zm-6.21757 3.56687l-6.27967-3.62409a1 1 0 0 0-.99969 1.73223l6.27967 3.62409a1 1 0 1 0 .99969-1.73223zm-.57621 8.12905l-6.27641 3.62518a1 1 0 0 0 1.00031 1.73187l6.27641-3.62518a1 1 0 0 0-1.00031-1.73187zm5.79778 4.56061l-.004 7.25036a1 1 0 0 0 2 .00111l.004-7.25036a1 1 0 1 0-2-.0011zm8.85782-11.69563l6.27967-3.62409a1 1 0 1 0-.99969-1.73223l-6.27967 3.62409a1 1 0 0 0 .99969 1.73223z"/>
  <path fill="#f4f4f4" d="M149.51374 94.35775a31.01727 31.01727 0 1 1-31.02-31.01846 31.01453 31.01453 0 0 1 31.02 31.01846zm37.2936 6.64417l.00275-18.46292-10.95276-2.34621a58.727 58.727 0 0 0-2.07384-6.68526l8.21867-7.42624-9.23093-15.98655-11.36779 3.67066a60.30032 60.30032 0 0 0-4.623-4.38973l3.59567-11.13936-15.98811-9.2314-8.1269 8.99586a58.19572 58.19572 0 0 0-6.06949-1.55866l-2.46286-11.50369h-18.46322l-2.467 11.50369a59.033 59.033 0 0 0-6.42837 1.67919l-7.5694-8.37541-15.98666 9.23144 3.36966 10.42714a59.02126 59.02126 0 0 0-5.349 5.154l-9.87611-3.18991-9.23093 15.98654 7.305 6.60172A59.02434 59.02434 0 0 0 60.7 82.07747l-9.04054 1.93806-.00272 18.46147 8.61043 1.84492a58.45026 58.45026 0 0 0 2.30945 9.09447l-6.11606 5.52243 9.235 15.9893 7.65843-2.4777a59.51363 59.51363 0 0 0 7.07765 7.07287l-2.34232 7.255 15.98532 9.2287 5.22707-5.78265a58.8331 58.8331 0 0 0 9.85145 2.46263l1.58346 7.38652 18.46325.0041 1.70811-7.96315a58.72433 58.72433 0 0 0 9.33916-2.83517l5.4161 5.995 15.98676-9.23142-2.77106-8.5836a59.22111 59.22111 0 0 0 6.038-6.58254l8.58988 2.77217 9.23232-15.98518-7.51735-6.79346a58.9934 58.9934 0 0 0 1.70674-7.74948z"/>
  <g fill="#a4a8a9">
    <path d="M187.01953 81.56122l-10.36127-2.21948q-.72354-2.81223-1.715-5.53436l7.72937-6.98407a1 1 0 0 0 .19556-1.242l-9.231-15.98657a1 1 0 0 0-1.17328-.4516l-10.78577 3.48279q-1.7926-1.85349-3.74719-3.55933l3.39679-10.52307a1 1 0 0 0-.45166-1.17316l-15.988-9.23145a1 1 0 0 0-1.24207.19562l-7.70953 8.53387q-2.425-.73462-4.90039-1.25891l-2.32949-10.88044a.99994.99994 0 0 0-.97784-.79065H109.2655a1 1 0 0 0-.97772.79034l-2.33378 10.8827q-2.64459.56342-5.26172 1.37482l-7.14954-7.91089a1.00006 1.00006 0 0 0-1.242-.1955L76.314 38.11133a1 1 0 0 0-.45148 1.17352l3.17108 9.8125a59.97518 59.97518 0 0 0-4.4816 4.31891l-9.28595-2.99933a1.00008 1.00008 0 0 0-1.1734.4516L54.86169 66.855a1.00008 1.00008 0 0 0 .19556 1.242l6.81384 6.15784a60.02008 60.02008 0 0 0-2.00256 6.97816l-8.41864 1.80475a1 1 0 0 0-.79041.97766l-.00275 18.46149a1 1 0 0 0 .79047.978l7.96222 1.706a59.42649 59.42649 0 0 0 2.01862 7.94531l-5.63763 5.09052a1 1 0 0 0-.1958 1.24231l9.235 15.98932a1 1 0 0 0 1.17377.45129l7.03461-2.27582a60.49329 60.49329 0 0 0 6.24054 6.23633l-2.14081 6.631a1 1 0 0 0 .4516 1.17328l15.98535 9.2287a1 1 0 0 0 1.24182-.1955l4.795-5.30469a59.818 59.818 0 0 0 8.70422 2.1781l1.44318 6.73212a1 1 0 0 0 .97754.79041l18.46326.00409a1 1 0 0 0 .978-.79028l1.57556-7.34528a59.68524 59.68524 0 0 0 8.20691-2.48877l4.96112 5.49133a.99992.99992 0 0 0 1.24207.19562l15.98665-9.23148a.99991.99991 0 0 0 .4516-1.17316l-2.58038-7.9931a60.20378 60.20378 0 0 0 5.23761-5.70471l7.9408 2.56268a1 1 0 0 0 1.1731-.45148l9.2323-15.98523a1 1 0 0 0-.19543-1.24207l-7.06134-6.38135a59.96965 59.96965 0 0 0 1.45435-6.58441l9.21448-1.97632a1.00013 1.00013 0 0 0 .79028-.9776l.00275-18.46289a1.00005 1.00005 0 0 0-.79059-.97795zm-1.212 18.63245l-9.08868 1.94934a1 1 0 0 0-.77936.83032 57.98256 57.98256 0 0 1-1.678 7.61816.99992.99992 0 0 0 .28986 1.02069l6.9176 6.25146L173.045 132.449l-7.82092-2.524a1.00006 1.00006 0 0 0-1.093.33325 58.22029 58.22029 0 0 1-5.9361 6.47144 1 1 0 0 0-.26764 1.03674l2.52277 7.81451-14.58673 8.423-4.87415-5.395a1 1 0 0 0-1.11029-.25934 57.71964 57.71964 0 0 1-9.18018 2.787 1 1 0 0 0-.76843.76813l-1.53857 7.17267-16.84668-.00372-1.41406-6.59631a.99993.99993 0 0 0-.82092-.778 57.8212 57.8212 0 0 1-9.684-2.421.99988.99988 0 0 0-1.0661.27539l-4.68518 5.18311-14.58539-8.42053 2.09393-6.48584a.99991.99991 0 0 0-.3067-1.07147 58.51581 58.51581 0 0 1-6.95874-6.954.99991.99991 0 0 0-1.07166-.306l-6.8891 2.22876L57.731 119.139l5.51581-4.98041a1 1 0 0 0 .27618-1.06549 57.445 57.445 0 0 1-2.27-8.939 1 1 0 0 0-.77631-.81006l-7.81982-1.67554.0025-16.84473 8.25024-1.76862a1.0001 1.0001 0 0 0 .76868-.77039 58.02331 58.02331 0 0 1 2.29309-7.98315.99994.99994 0 0 0-.26813-1.08679l-6.70532-6.05975 8.42255-14.58661 9.10693 2.94153a1.00015 1.00015 0 0 0 1.04633-.27783 57.9892 57.9892 0 0 1 5.25848-5.06647 1.00011 1.00011 0 0 0 .3031-1.06879l-3.12109-9.6579 14.58667-8.423 7.0274 7.77576a1 1 0 0 0 1.048.28149 58.02262 58.02262 0 0 1 6.31946-1.65082 1 1 0 0 0 .78058-.77069l2.29749-10.71338h16.84637l2.29364 10.713a1 1 0 0 0 .78186.7713 57.20013 57.20013 0 0 1 5.96515 1.53186 1 1 0 0 0 1.04236-.28345l7.585-8.396 14.588 8.4231-3.34735 10.3703a1 1 0 0 0 .30212 1.06757 59.29472 59.29472 0 0 1 4.54639 4.31689.99984.99984 0 0 0 1.03339.264l10.59869-3.4223 8.42255 14.58655-7.6189 6.88428a1.00009 1.00009 0 0 0-.26526 1.09473 57.73651 57.73651 0 0 1 2.03851 6.57141 1 1 0 0 0 .7616.739L185.81 83.34747z"/>
    <path d="M118.49371 62.33929a32.01434 32.01434 0 1 0 32.02 32.01843 32.01686 32.01686 0 0 0-32.02-32.01843zm0 62.02869a30.01434 30.01434 0 1 1 30.02-30.01025 30.01424 30.01424 0 0 1-30.02 30.01027z"/>
  </g>
  <path fill="#dedfdf" d="M118.49442 128.77691a34.42478 34.42478 0 1 1 34.42939-34.4193 34.4234 34.4234 0 0 1-34.42939 34.4193m0-77.866a43.44255 43.44255 0 1 0 43.448 43.44666 43.45051 43.45051 0 0 0-43.448-43.44666"/>
  <g fill="#d8d8d8">
    <path d="M180 8h30v2h-30zm0 4h20v2h-20zm-10.001-.201l-2.818-2.518L166 10.635l3.999 3.602 7.007-7.003L175.71 6l-5.711 5.799M54 162h30v2H54zm0-4h30v2H54zm0 8h20v2H54zm-17 4h14v-14H37v14zm1-13h12v3.22821L48.70959 159l-5.71027 5.7995-2.81873-2.51874L39 163.63464l3.99933 3.60236L50 160.24084V169H38v-12zM180 21h30v2h-30zm0 4h20v2h-20zm-10.001-.201l-2.818-2.518L166 23.635l3.999 3.602 7.007-7.003L175.71 19l-5.711 5.799M12 110h22v2H12zm0 4h18v2H12zm-6-4h3v2H6zm-6 0h3v2H0zm208 37h11v2h-11zm0 4h22v2h-22zm-6-4h3v2h-3zm0 4h3v2h-3zm-6 0h3v2h-3zM13.5 84H18v10l-2 .829V96h6v-1.171L20.008 94H20V84h4.5l.5 2h1v-4H12v4h1l.5-2M12 98h26v2H12zm16-8h10v2H28zm0 4h10v2H28zm-16 8h26v2H12zm16-16h10v2H28zm0-4h10v2H28zm152-48h30v2h-30zm0 4h20v2h-20zm-10.001-.201l-2.818-2.518L166 36.635l3.999 3.602 7.007-7.003L175.71 32l-5.711 5.799M204 75h30v2h-30zm0 4h20v2h-20zm0 22h23v2h-23zm0 4h26v2h-26zm-1-38a4.99866 4.99866 0 0 0 4.99011 5h8.01978a5 5 0 0 0 0-10h-8.01978A5.001 5.001 0 0 0 203 67zm17 0a4.001 4.001 0 0 1-3.99011 4h-8.01978a4 4 0 0 1 0-8h8.01978A3.99869 3.99869 0 0 1 220 67zm-12.00989 30h8.01978a5 5 0 0 0 0-10h-8.01978a5 5 0 0 0 0 10zm0-9h8.01978a4 4 0 0 1 0 8h-8.01978a4 4 0 0 1 0-8z"/>
    <circle cx="209" cy="67" r="3"/>
    <circle cx="215" cy="92" r="3"/>
    <path d="M37.98376 41h22.03248A4.0026 4.0026 0 0 0 64 36.98291V21.01709A4.004 4.004 0 0 0 60.01624 17H37.98376A4.0026 4.0026 0 0 0 34 21.01709v15.96582A4.004 4.004 0 0 0 37.98376 41zm22.96918-2.25018a1.9344 1.9344 0 0 1-.85132.24139c-.14752.00574-.30926.00879-.49694.00879h-21.142c-1.739 0-2.03772-.5412-1.1131-2.00867l5.30658-8.42212c1.03711-1.646 2.53644-1.74115 3.76715-.24591l3.04469 3.69916.3127.37994-2.09985 3.06824a1 1 0 1 0 1.65051 1.12952l1.77258-2.59.00494.006 1.52-2.08728.71228-.97809a.92211.92211 0 0 1 1.67834-.03131l5.282 6.63019a1.77072 1.77072 0 0 1 .65144 1.20015zM36 21.01709A2.0027 2.0027 0 0 1 37.98376 19h22.03248A2.00411 2.00411 0 0 1 62 21.01709v15.4696c-.04578-.06128-.0849-.1214-.13416-.18323l-5.282-6.63025a2.84377 2.84377 0 0 0-4.298-.52161l-1.27356 1.59985-3.04468-3.69916c-2.09491-2.54523-5.23749-2.352-7.00342.45074L36 35.38153V21.01709z"/>
    <path d="M57 27a3 3 0 1 0-3-3 3 3 0 0 0 3 3zm0-4a1 1 0 1 1-1 1 1 1 0 0 1 1-1z"/>
  </g>
</svg>
