<svg width="18" height="18" viewBox="0 0 18 18" fill="none" xmlns="http://www.w3.org/2000/svg">
    <path fill-rule="evenodd" clip-rule="evenodd" d="M13.75 2.88976C13.75 0.830064 12.0409 0.25 8.93943 0.25C5.84921 0.25 4.25004 0.806109 4.25004 2.88976C4.25004 6.96382 6.15169 9.75 8.93943 9.75C11.6928 9.75 13.75 6.77752 13.75 2.88976ZM5.75004 2.88976C5.75004 2.06503 6.65595 1.75 8.93943 1.75C11.2242 1.75 12.25 2.09817 12.25 2.88976C12.25 6.0417 10.7217 8.25 8.93943 8.25C7.12871 8.25 5.75004 6.23007 5.75004 2.88976Z" fill="white"/>
    <path d="M0.629202 14.9657C0.649202 14.0909 0.982649 12.8749 1.92002 11.6649C2.49453 10.9233 3.24672 10.2819 4.19125 9.77092C4.55556 9.57382 5.01068 9.70937 5.20778 10.0737C5.40488 10.438 5.26933 10.8931 4.90502 11.0902C4.14499 11.5014 3.55325 12.006 3.10582 12.5835C2.67769 13.1362 2.40197 13.7272 2.2481 14.3165C2.15816 14.6611 2.12878 14.918 2.12825 15.0407L2.11471 15.1794C1.99503 15.8004 2.36546 16.25 2.9941 16.25H15.006C15.6508 16.25 16.0384 15.793 15.9078 15.2038L15.89 15.0457C15.8893 14.9329 15.8655 14.6985 15.7935 14.3852C15.6711 13.8527 15.4532 13.3199 15.1177 12.825C14.6622 12.1532 14.0221 11.5995 13.157 11.1995C12.781 11.0256 12.6171 10.5799 12.791 10.2039C12.9648 9.82796 13.4106 9.66412 13.7865 9.83797C14.9035 10.3545 15.7534 11.0895 16.3593 11.9833C17.1016 13.0783 17.3682 14.1698 17.3887 14.9594C17.6758 16.4703 16.5634 17.75 15.006 17.75H2.9941C1.44628 17.75 0.376792 16.4805 0.629202 14.9657Z" fill="white"/>
</svg>
