<svg xmlns="http://www.w3.org/2000/svg" width="30" height="30" viewBox="0 0 30 30"><path fill="#3a3a3a" d="M22.999 24H7.001A3.006 3.006 0 0 1 4 21.007V8.993A2.997 2.997 0 0 1 7.001 6h15.998A3.006 3.006 0 0 1 26 8.993v12.014A2.997 2.997 0 0 1 22.999 24zm0-17H7.001A1.996 1.996 0 0 0 5 8.993v12.014C5 22.099 5.901 23 7.001 23h15.998A1.996 1.996 0 0 0 25 21.007V8.993A2.006 2.006 0 0 0 22.999 7zM22 11H8c-.046-.002-.058-.001-.104-.011a.506.506 0 0 1-.268-.154.506.506 0 0 1 .122-.768A.546.546 0 0 1 8 10c4.684 0 9.375-.242 14.052.003a.543.543 0 0 1 .242.092.507.507 0 0 1 .041.777.508.508 0 0 1-.231.117c-.046.01-.058.009-.104.011z"/></svg>