<?xml version="1.0" encoding="UTF-8" standalone="no"?><!DOCTYPE svg PUBLIC "-//W3C//DTD SVG 1.1//EN" "http://www.w3.org/Graphics/SVG/1.1/DTD/svg11.dtd"><svg width="100%" height="100%" viewBox="0 0 30 30" version="1.1" xmlns="http://www.w3.org/2000/svg" xmlns:xlink="http://www.w3.org/1999/xlink" xml:space="preserve" style="fill-rule:evenodd;clip-rule:evenodd;stroke-linejoin:round;stroke-miterlimit:1.41421;"><g id="fills"><circle id="Oval.-9" cx="15" cy="15" r="10.5" style="fill:#1aa63e;"/><path id="Combined.-Shape" d="M15,22c-0.552,0 -1,-0.448 -1,-1c0,-0.552 0.448,-1 1,-1c0.552,0 1,0.448 1,1c0,0.552 -0.448,1 -1,1Zm-2.004,-12.716c0.693,-0.323 1.398,-0.415 2.002,-0.385c0.008,-0.001 0.018,-0.002 0.031,-0.002c0.585,-0.032 1.279,0.05 1.96,0.345c1.344,0.583 2.148,1.824 2.111,3.77c-0.035,1.79 -0.71,2.619 -2.109,3.231c-0.078,0.034 -0.154,0.067 -0.299,0.128c-0.887,0.377 -1.092,0.584 -1.092,1.296l0,0.833c0,0.331 -0.269,0.6 -0.6,0.6c-0.331,0 -0.6,-0.269 -0.6,-0.6l0,-0.833c0,-1.308 0.541,-1.856 1.823,-2.401c0.146,-0.062 0.216,-0.091 0.287,-0.122c1.004,-0.439 1.366,-0.884 1.39,-2.156c0.028,-1.457 -0.489,-2.255 -1.388,-2.645c-0.483,-0.209 -1.003,-0.271 -1.418,-0.248c-0.037,0.002 -0.037,0.002 -0.035,0.002c-0.073,0.001 -0.12,0 -0.138,-0.001c-0.408,-0.02 -0.93,0.048 -1.418,0.276c-0.866,0.403 -1.385,1.207 -1.403,2.636c-0.004,0.331 -0.276,0.596 -0.608,0.592c-0.331,-0.004 -0.596,-0.276 -0.592,-0.608c0.024,-1.889 0.812,-3.11 2.096,-3.708Z" style="fill:#fff;"/></g></svg>