<svg xmlns="http://www.w3.org/2000/svg" width="30" height="30" viewBox="0 0 30 30"><path fill="#3a3a3a" d="M10.629 23.996l-.151-.074a10.16 10.16 0 0 1-2.703-2.008 9.99 9.99 0 0 1-1.891-11.03 10.021 10.021 0 0 1 7.594-5.769 10.71 10.71 0 0 1 1.264-.112c.105-.002.21-.005.315 0a.565.565 0 0 1 .224.084c.05.034.094.077.129.126a.505.505 0 0 1-.23.753c-.05.02-.064.02-.117.03-.098.007-.197.004-.296.007a9.091 9.091 0 0 0-1.361.138 8.96 8.96 0 0 0-5.068 2.808 8.978 8.978 0 0 0-2.234 4.68 8.978 8.978 0 0 0 2.734 7.931 9.088 9.088 0 0 0 2.171 1.508V20a.5.5 0 0 1 1 0v3.518c0 .822-.673 1.491-1.491 1.491H7a.5.5 0 0 1 0-1h3.518a.45.45 0 0 0 .111-.013zM23 5a.5.5 0 0 1 0 1h-3.509a.502.502 0 0 0-.104.011l.05.025c.885.444 1.704 1.01 2.425 1.689a10.033 10.033 0 0 1 2.863 4.937c.282 1.179.348 2.409.195 3.611a9.949 9.949 0 0 1-.804 2.843 10.049 10.049 0 0 1-5 5 9.959 9.959 0 0 1-3.987.883l-.126.001c-.053-.003-.067-.001-.12-.014a.503.503 0 0 1-.17-.896.548.548 0 0 1 .224-.086c.098-.007.197-.004.296-.007a9.091 9.091 0 0 0 1.361-.138 8.96 8.96 0 0 0 5.068-2.808 8.966 8.966 0 0 0 2.302-5.244 9.049 9.049 0 0 0-.14-2.586 8.958 8.958 0 0 0-1.005-2.682 9.075 9.075 0 0 0-2.191-2.563A9.097 9.097 0 0 0 19 6.937V10a.5.5 0 0 1-1 0V6.491C18 5.669 18.673 5 19.491 5H23z"/></svg>