<svg width="24" height="24" viewBox="0 0 24 24" xmlns="http://www.w3.org/2000/svg"><path d="M4.125,12c0,-4.349 3.526,-7.875 7.875,-7.875c1.532,0 2.96,0.437 4.169,1.192c0.292,0.183 0.678,0.095 0.861,-0.198c0.183,-0.293 0.094,-0.678 -0.199,-0.861c-1.401,-0.877 -3.058,-1.383 -4.831,-1.383c-5.04,0 -9.125,4.085 -9.125,9.125c0,5.04 4.085,9.125 9.125,9.125c5.04,0 9.125,-4.085 9.125,-9.125c0,-0.739 -0.088,-1.457 -0.254,-2.147c-0.081,-0.335 -0.419,-0.542 -0.754,-0.461c-0.336,0.081 -0.542,0.419 -0.461,0.755c0.143,0.593 0.219,1.214 0.219,1.853c0,4.349 -3.526,7.875 -7.875,7.875c-4.349,0 -7.875,-3.526 -7.875,-7.875Zm16.336,-6.527c0.291,0.254 0.32,0.697 0.066,0.988l-8.198,9.381c-0.131,0.15 -0.32,0.237 -0.52,0.239c-0.2,0.002 -0.391,-0.082 -0.525,-0.23l-3.802,-4.19c-0.26,-0.286 -0.239,-0.729 0.048,-0.989c0.286,-0.26 0.729,-0.238 0.988,0.048l3.274,3.608l7.681,-8.789c0.254,-0.291 0.696,-0.32 0.988,-0.066Z" style="fill:#27AB4A;fill-rule:nonzero;"/></svg>
