<svg width="24" height="24" viewBox="0 0 24 24" xmlns="http://www.w3.org/2000/svg"><path d="M15,14.875c-1.174,0 -2.125,0.951 -2.125,2.125l0,1c0,1.174 0.951,2.125 2.125,2.125c1.174,0 2.125,-0.951 2.125,-2.125l0,-1c0,-1.174 -0.951,-2.125 -2.125,-2.125Zm-0.875,2.125c0,-0.483 0.392,-0.875 0.875,-0.875c0.483,0 0.875,0.392 0.875,0.875l0,1c0,0.483 -0.392,0.875 -0.875,0.875c-0.483,0 -0.875,-0.392 -0.875,-0.875l0,-1Zm-9.625,1.127l6.5,-0.002c0.345,0 0.625,-0.28 0.625,-0.625c0,-0.345 -0.28,-0.625 -0.625,-0.625l-6.5,0.002c-0.345,0 -0.625,0.28 -0.625,0.625c0,0.345 0.28,0.625 0.625,0.625Zm15,-1.252c0.345,0 0.625,0.28 0.625,0.625c0,0.345 -0.28,0.625 -0.625,0.625l-1.5,0c-0.345,0 -0.625,-0.28 -0.625,-0.625c0,-0.345 0.28,-0.625 0.625,-0.625l1.5,0Zm-13.625,-5.875c0,-1.174 0.951,-2.125 2.125,-2.125c1.174,0 2.125,0.951 2.125,2.125l0,1c0,1.174 -0.951,2.125 -2.125,2.125c-1.174,0 -2.125,-0.951 -2.125,-2.125l0,-1Zm2.125,-0.875c-0.483,0 -0.875,0.392 -0.875,0.875l0,1c0,0.483 0.392,0.875 0.875,0.875c0.483,0 0.875,-0.392 0.875,-0.875l0,-1c0,-0.483 -0.392,-0.875 -0.875,-0.875Zm-2.998,2c0.346,-0.001 0.624,-0.282 0.623,-0.627c-0.001,-0.346 -0.282,-0.624 -0.627,-0.623l-0.5,0.002c-0.346,0.001 -0.624,0.282 -0.623,0.627c0.001,0.346 0.282,0.624 0.627,0.623l0.5,-0.002Zm14.498,-1.25c0.345,0 0.625,0.28 0.625,0.625c0,0.345 -0.28,0.625 -0.625,0.625l-7.5,0c-0.345,0 -0.625,-0.28 -0.625,-0.625c0,-0.345 0.28,-0.625 0.625,-0.625l7.5,0Zm-1.5,-8c-1.174,0 -2.125,0.951 -2.125,2.125l0,1c0,1.174 0.951,2.125 2.125,2.125c1.174,0 2.125,-0.951 2.125,-2.125l0,-1c0,-1.174 -0.951,-2.125 -2.125,-2.125Zm-0.875,2.125c0,-0.483 0.392,-0.875 0.875,-0.875c0.483,0 0.875,0.392 0.875,0.875l0,1c0,0.483 -0.392,0.875 -0.875,0.875c-0.483,0 -0.875,-0.392 -0.875,-0.875l0,-1Zm-2.125,1.127l-10.5,0c-0.345,0 -0.625,-0.28 -0.625,-0.625c0,-0.345 0.28,-0.625 0.625,-0.625l10.5,0c0.345,0 0.625,0.28 0.625,0.625c0,0.345 -0.28,0.625 -0.625,0.625Z" style="fill:#333;"/></svg>
