<svg xmlns="http://www.w3.org/2000/svg" width="24" height="24" fill="none" viewBox="0 0 24 24"><path fill="#333" fill-rule="evenodd" d="M9.5 5.125a.375.375 0 0 0-.375.375v.375h4.75V5.5a.375.375 0 0 0-.375-.375h-4zm5.625.75V5.5c0-.897-.727-1.625-1.625-1.625h-4c-.897 0-1.625.728-1.625 1.625v.375H3.5a.625.625 0 1 0 0 1.25h16a.625.625 0 1 0 0-1.25h-4.375zM6.438 8.878a.625.625 0 0 1 .684.56l.82 8.199c.07.703.662 1.238 1.368 1.238h4.38c.706 0 1.298-.535 1.368-1.238l.82-8.2a.625.625 0 1 1 1.244.125l-.82 8.2a2.625 2.625 0 0 1-2.612 2.363H9.31a2.625 2.625 0 0 1-2.612-2.364l-.82-8.199a.625.625 0 0 1 .56-.684zm3.29-.003a.625.625 0 0 1 .647.603l.25 7a.625.625 0 1 1-1.25.044l-.25-7a.625.625 0 0 1 .603-.647zm3.544 0a.625.625 0 0 1 .603.647l-.25 7a.625.625 0 1 1-1.25-.044l.25-7a.625.625 0 0 1 .647-.603z" clip-rule="evenodd"/></svg>