<svg width="24" height="24" fill="none" xmlns="http://www.w3.org/2000/svg"><path fill-rule="evenodd" clip-rule="evenodd" d="M9.76 4.467c1.024-1.675 3.456-1.675 4.48 0l7.434 12.164c1.069 1.75-.19 3.994-2.24 3.994H4.566c-2.05 0-3.309-2.245-2.24-3.994L9.76 4.467zm3.413.651a1.375 1.375 0 00-2.346 0L3.393 17.283c-.56.916.1 2.092 1.173 2.092h14.868a1.375 1.375 0 001.173-2.092L13.173 5.118z M12 8c.463 0 .832.387.81.85l-.26 5.65a.55.55 0 11-1.1 0l-.26-5.65A.812.812 0 0112 8z M12.88 17.005a.875.875 0 11-1.75 0 .875.875 0 011.75 0z" fill="#E13328"/></svg>
