<svg width="24" height="24" fill="none" xmlns="http://www.w3.org/2000/svg"><path d="M5.5 2.875A2.625 2.625 0 002.875 5.5v13A2.625 2.625 0 005.5 21.125h2a.625.625 0 100-1.25h-2c-.76 0-1.375-.616-1.375-1.375v-13c0-.76.616-1.375 1.375-1.375h13c.76 0 1.375.616 1.375 1.375v2a.625.625 0 101.25 0v-2A2.625 2.625 0 0018.5 2.875h-13z M19.375 12a.625.625 0 01.125.875l-4.5 6a.625.625 0 01-.942.067l-2.5-2.5a.625.625 0 11.884-.884l1.99 1.99 4.068-5.423a.625.625 0 01.875-.125z M7.875 15.5a7.625 7.625 0 1115.25 0 7.625 7.625 0 01-15.25 0zM15.5 9.125a6.375 6.375 0 100 12.75 6.375 6.375 0 000-12.75z" fill="#333"/></svg>
