<svg width="24" height="24" fill="none" xmlns="http://www.w3.org/2000/svg"><path fill-rule="evenodd" clip-rule="evenodd" d="M13.792 3.797a2.05 2.05 0 012.8-.75l.866.5a2.05 2.05 0 01.75 2.8l-.713 1.236a7.04 7.04 0 011.08 1.867H20a2.05 2.05 0 012.05 2.05v1A2.05 2.05 0 0120 14.55h-1.814a.55.55 0 010-1.1H20a.95.95 0 00.95-.95v-1a.95.95 0 00-.95-.95h-1.45c-.461 0-.845-.297-.998-.695a5.944 5.944 0 00-.92-1.589 1.075 1.075 0 01-.102-1.212l.726-1.257a.95.95 0 00-.348-1.298l-.866-.5a.95.95 0 00-1.298.348l-.907 1.57a.55.55 0 01-.59.264 5.977 5.977 0 00-2.166-.06 1.077 1.077 0 01-1.1-.518l-.725-1.256a.95.95 0 00-1.298-.348l-.866.5a.95.95 0 00-.348 1.298l.726 1.257c.23.4.165.88-.103 1.212a5.943 5.943 0 00-.919 1.59 1.076 1.076 0 01-.998.694H4a.95.95 0 00-.95.95v1c0 .525.425.95.95.95h1.45c.461 0 .844.297.998.695.224.578.536 1.114.92 1.589.267.332.333.812.102 1.212l-.726 1.257a.95.95 0 00.348 1.298l.866.5a.95.95 0 001.298-.348l.725-1.256c.23-.4.679-.583 1.1-.517a5.998 5.998 0 001.838 0c.421-.066.87.118 1.1.517l.725 1.256a.95.95 0 001.298.348l.866-.5a.95.95 0 00.348-1.298l-.908-1.572a.55.55 0 01.953-.55l.907 1.572a2.05 2.05 0 01-.75 2.8l-.866.5a2.05 2.05 0 01-2.8-.75l-.713-1.235a7.095 7.095 0 01-2.158 0l-.713 1.235a2.05 2.05 0 01-2.8.75l-.866-.5a2.05 2.05 0 01-.75-2.8l.713-1.236a7.043 7.043 0 01-1.08-1.867H4a2.05 2.05 0 01-2.05-2.05v-1A2.05 2.05 0 014 9.45h1.425c.264-.68.63-1.309 1.08-1.867l-.713-1.236a2.05 2.05 0 01.75-2.8l.866-.5a2.05 2.05 0 012.8.75l.713 1.235a7.101 7.101 0 012.158 0l.713-1.235zM12 9.05c-.453 0-.882.102-1.264.284a.55.55 0 01-.472-.994 4.05 4.05 0 11-2.273 3.082.55.55 0 111.089.156A2.95 2.95 0 1012 9.05z" fill="#333"/></svg>