<svg width="24" height="24" viewBox="0 0 24 24" xmlns="http://www.w3.org/2000/svg"><path d="M12.924,8.076c0.235,0.234 0.235,0.614 0,0.848l-6.851,6.851l-0.394,3.546l3.546,-0.394l6.851,-6.851c0.234,-0.235 0.614,-0.235 0.848,0c0.235,0.234 0.235,0.614 0,0.848l-7,7c-0.096,0.097 -0.222,0.157 -0.358,0.172l-4.291,0.477l-0.351,0.351c-0.234,0.235 -0.614,0.235 -0.848,0c-0.235,-0.234 -0.235,-0.614 0,-0.848l0.351,-0.351l0.477,-4.291c0.015,-0.136 0.075,-0.262 0.172,-0.358l7,-7c0.234,-0.235 0.614,-0.235 0.848,0Zm2,2c0.235,0.234 0.235,0.614 0,0.848l-5.5,5.5c-0.234,0.235 -0.614,0.235 -0.848,0c-0.235,-0.234 -0.235,-0.614 0,-0.848l5.5,-5.5c0.234,-0.235 0.614,-0.235 0.848,0Zm0.238,-5.086c1.015,-1.015 2.661,-1.015 3.677,0l1.171,1.172c1.015,1.015 1.015,2.661 0,3.676l-0.661,0.662l0.075,0.076c0.235,0.234 0.235,0.614 0,0.848c-0.234,0.235 -0.614,0.235 -0.848,0l-0.498,-0.498l-0.002,-0.002l-0.002,-0.002l-4.498,-4.498c-0.235,-0.234 -0.235,-0.614 0,-0.848c0.234,-0.235 0.614,-0.235 0.848,0l0.076,0.075l0.662,-0.661Zm0.187,1.51l3.151,3.151l0.662,-0.661c0.546,-0.547 0.546,-1.433 0,-1.98l-1.172,-1.172c-0.547,-0.546 -1.433,-0.546 -1.98,0l-0.661,0.662Z" style="fill:#333;"/></svg>
