<svg width="419" height="327" viewBox="0 0 419 327" fill="none" xmlns="http://www.w3.org/2000/svg">
<path opacity="0.8" fill-rule="evenodd" clip-rule="evenodd" d="M209.5 16.9497C153.443 16.9497 108.012 62.3514 108.012 118.342V136.575C108.012 140.993 104.43 144.575 100.012 144.575C54.0324 144.575 16.771 181.814 16.771 227.735C16.771 273.657 54.0324 310.896 100.012 310.896H168.442C172.86 310.896 176.442 314.478 176.442 318.896C176.442 323.314 172.86 326.896 168.442 326.896H100.012C45.2091 326.896 0.770996 282.507 0.770996 227.735C0.770996 175.655 40.949 132.962 92.0115 128.892V118.342C92.0115 53.5016 144.62 0.949707 209.5 0.949707C266.22 0.949707 313.548 41.1053 324.568 94.5277C378.029 105.535 418.229 152.817 418.229 209.503C418.229 267.685 375.879 315.959 320.311 325.273C319.947 325.334 319.579 325.37 319.21 325.38L264.465 326.893C264.392 326.895 264.318 326.896 264.245 326.896H245.996C241.578 326.896 237.996 323.314 237.996 318.896V199.064C237.996 196.684 239.056 194.427 240.887 192.908C242.719 191.388 245.131 190.762 247.471 191.201L273.396 196.061C273.708 196.005 273.913 195.904 274.043 195.82C274.26 195.679 274.387 195.507 274.448 195.371C274.487 195.285 274.492 195.232 274.492 195.213C274.473 195.171 274.412 195.071 274.246 194.918L219.988 144.976C219.714 144.723 219.244 144.504 218.624 144.504C218.005 144.504 217.534 144.723 217.26 144.976L163.002 194.918C162.837 195.071 162.775 195.171 162.756 195.213C162.756 195.232 162.762 195.285 162.801 195.371C162.862 195.507 162.989 195.679 163.206 195.82C163.336 195.904 163.541 196.005 163.852 196.061L189.778 191.201C192.117 190.762 194.53 191.388 196.361 192.908C198.193 194.427 199.252 196.684 199.252 199.064V270.221C199.252 274.639 195.67 278.221 191.252 278.221C186.834 278.221 183.252 274.639 183.252 270.221V208.703L165.841 211.967C165.355 212.058 164.861 212.104 164.367 212.104C156.928 212.104 150.877 207.863 148.21 201.937C145.5 195.916 146.458 188.401 152.166 183.146L206.424 133.203C213.232 126.937 224.017 126.937 230.824 133.203L285.082 183.146C290.791 188.401 291.748 195.916 289.039 201.937C286.372 207.863 280.321 212.104 272.882 212.104C272.387 212.104 271.894 212.058 271.408 211.967L253.996 208.703V310.896H264.134L318.203 309.402C365.936 301.137 402.229 259.543 402.229 209.503C402.229 158.855 365.049 116.86 316.458 109.318C313.016 108.784 310.316 106.084 309.781 102.642C302.233 54.1068 260.207 16.9497 209.5 16.9497Z" fill="white"/>
</svg>
