<svg width="262" height="207" viewBox="0 0 262 207" fill="none" xmlns="http://www.w3.org/2000/svg">
<path fill-rule="evenodd" clip-rule="evenodd" d="M131 16.7838C98.6737 16.7838 72.4681 43.084 72.4681 75.527V86.7162C72.4681 91.3509 68.7244 95.1081 64.1064 95.1081C37.9375 95.1081 16.7234 116.399 16.7234 142.662C16.7234 168.926 37.9375 190.216 64.1064 190.216H105.915C110.533 190.216 114.277 193.973 114.277 198.608C114.277 203.243 110.533 207 105.915 207H64.1064C28.7014 207 0 178.195 0 142.662C0 109.974 24.2906 82.9788 55.7447 78.8667V75.527C55.7447 33.8146 89.4376 0 131 0C166.552 0 196.334 24.7346 204.215 57.9936C237.354 65.9031 262 95.7926 262 131.473C262 168.905 234.876 199.962 199.277 205.956C198.896 206.02 198.511 206.058 198.125 206.069L164.678 206.997L164.447 207H153.298C148.68 207 144.936 203.243 144.936 198.608V125.11C144.936 122.613 146.044 120.246 147.958 118.652C149.873 117.057 152.395 116.401 154.84 116.862L160.396 117.908L136.574 95.8823L112.753 117.908L118.309 116.862C120.754 116.401 123.276 117.057 125.191 118.652C127.105 120.246 128.213 122.613 128.213 125.11V165.041C128.213 169.675 124.469 173.432 119.851 173.432C115.233 173.432 111.489 169.675 111.489 165.041V135.223L104.967 136.451C104.459 136.547 103.942 136.595 103.425 136.595C97.5008 136.595 92.5699 133.177 90.3847 128.3C88.1556 123.324 88.9629 117.084 93.6157 112.782L126.765 82.1313C132.255 77.0553 140.894 77.0553 146.384 82.1313L179.533 112.782C184.186 117.084 184.993 123.324 182.764 128.3C180.579 133.177 175.648 136.595 169.724 136.595C169.207 136.595 168.69 136.547 168.182 136.451L161.66 135.223V190.216H164.331L197.063 189.308C224.467 184.421 245.277 160.378 245.277 131.473C245.277 102.13 223.831 77.798 195.814 73.4294C192.216 72.8685 189.394 70.0358 188.835 66.4253C184.482 38.3065 160.238 16.7838 131 16.7838Z" fill="#81C278"/>
</svg>
