<svg xmlns="http://www.w3.org/2000/svg" width="30" height="30" fill="none" viewBox="0 0 30 30"><path fill="#000" fill-rule="evenodd" d="M28.763 15.937a.65.65 0 0 0 0-.92l-4.079-4.08a.65.65 0 1 0-.919.92l2.97 2.97h-5.931a.65.65 0 0 0 0 1.3h5.93l-2.97 2.97a.65.65 0 0 0 .92.919l4.08-4.08zM2.19 15.015a.65.65 0 0 0 0 .92l4.08 4.08a.65.65 0 0 0 .919-.92l-2.97-2.97h5.93a.65.65 0 0 0 .001-1.3H4.22l2.97-2.97a.65.65 0 1 0-.92-.919l-4.08 4.08zM15.936 2.19a.65.65 0 0 0-.92 0l-4.079 4.08a.65.65 0 1 0 .92.92l2.97-2.97v5.93a.65.65 0 1 0 1.3 0V4.22l2.969 2.97a.65.65 0 1 0 .92-.92l-4.08-4.08zM15.017 28.764a.65.65 0 0 0 .919 0l4.08-4.08a.65.65 0 0 0-.92-.919l-2.97 2.97v-5.93a.65.65 0 1 0-1.3 0v5.93l-2.97-2.97a.65.65 0 0 0-.919.92l4.08 4.08z" clip-rule="evenodd"/></svg>