<svg xmlns="http://www.w3.org/2000/svg" width="30" height="30" fill="none" viewBox="0 0 30 30"><circle cx="15" cy="15" r="13" fill="#29BC50"/><path fill="#fff" fill-rule="evenodd" d="M15 8.8c-1.898 0-3.2 1.277-3.2 2.585 0 .381.103.746.294 1.078a.8.8 0 1 1-1.388.797 3.751 3.751 0 0 1-.506-1.875C10.2 8.953 12.48 7.2 15 7.2s4.8 1.753 4.8 4.185c0 2.243-1.203 3.606-2.265 4.56-.21.19-.421.369-.614.532l-.137.116a9.83 9.83 0 0 0-.592.532c-.343.344-.392.516-.392.606V19a.8.8 0 0 1-1.6 0v-1.27c0-.756.451-1.325.858-1.734.213-.214.455-.423.69-.623l.148-.125c.19-.162.38-.321.57-.492.938-.844 1.734-1.807 1.734-3.371 0-1.308-1.302-2.585-3.2-2.585z" clip-rule="evenodd"/><path fill="#fff" d="M16 22a1 1 0 1 1-2 0 1 1 0 0 1 2 0z"/></svg>