<svg xmlns="http://www.w3.org/2000/svg" width="24" height="24" fill="none" viewBox="0 0 24 24"><path fill="#333" fill-rule="evenodd" d="M20.642 4.469a.55.55 0 0 1 .39.673l-.916 3.415a.55.55 0 0 1-.673.39l-3.416-.916a.55.55 0 0 1 .285-1.062l2.884.772.773-2.883a.55.55 0 0 1 .673-.39zM3.358 20.531a.55.55 0 0 1-.39-.673l.916-3.415a.55.55 0 0 1 .673-.39l3.415.916a.55.55 0 0 1-.284 1.062l-2.884-.772-.773 2.883a.55.55 0 0 1-.673.39zM17.875 13.5a2.625 2.625 0 1 1 5.25 0 2.625 2.625 0 0 1-5.25 0zm2.625-1.375a1.375 1.375 0 1 0 0 2.75 1.375 1.375 0 0 0 0-2.75zM.875 11.5a2.625 2.625 0 1 1 5.25 0 2.625 2.625 0 0 1-5.25 0zM3.5 10.125a1.375 1.375 0 1 0 0 2.75 1.375 1.375 0 0 0 0-2.75zM12 4.125c-.24 0-.476.01-.71.031a.625.625 0 1 1-.11-1.245c.27-.024.544-.036.82-.036a.625.625 0 1 1 0 1.25zm-3.138-.052c.15.311.02.685-.29.835a7.873 7.873 0 0 0-1.215.73.625.625 0 1 1-.738-1.009c.441-.322.912-.605 1.408-.846.31-.15.684-.02.835.29zM5.232 6.82c.288.19.369.577.18.866-.13.197-.25.4-.363.61a.625.625 0 0 1-1.102-.59c.13-.242.27-.478.42-.706a.625.625 0 0 1 .865-.18z" clip-rule="evenodd"/><path fill="#333" fill-rule="evenodd" d="M11.375 3.5c0-.345.28-.625.625-.625a9.124 9.124 0 0 1 8.053 4.83.625.625 0 0 1-1.102.59A7.874 7.874 0 0 0 12 4.125a.625.625 0 0 1-.625-.625zM11.373 21.5c0 .345.28.625.625.625.277 0 .55-.012.82-.036a.625.625 0 0 0-.11-1.245c-.234.02-.47.031-.71.031a.625.625 0 0 0-.625.625zm3.764-.573c.15.31.524.44.835.29.495-.24.966-.524 1.407-.846a.625.625 0 1 0-.738-1.01c-.38.279-.787.523-1.214.73a.625.625 0 0 0-.29.836zm3.63-2.746c.288.19.675.109.865-.18.15-.228.29-.464.42-.707a.625.625 0 0 0-1.103-.588 7.883 7.883 0 0 1-.362.61.625.625 0 0 0 .18.865z" clip-rule="evenodd"/><path fill="#333" fill-rule="evenodd" d="M11.998 20.875a7.874 7.874 0 0 1-6.95-4.17.625.625 0 1 0-1.103.59 9.124 9.124 0 0 0 8.053 4.83.625.625 0 1 0 0-1.25z" clip-rule="evenodd"/></svg>