<svg xmlns="http://www.w3.org/2000/svg" width="24" height="24" fill="none" viewBox="0 0 24 24"><path fill="#333" fill-rule="evenodd" d="M10.875 4.5c0-.897.727-1.625 1.625-1.625h2.382c.616 0 1.178.348 1.453.898l.448.895a.375.375 0 0 0 .335.207H19.5c.898 0 1.625.728 1.625 1.625v3c0 .898-.727 1.625-1.625 1.625h-7A1.625 1.625 0 0 1 10.875 9.5v-5zm1.25 1.582c.12.028.246.043.375.043H14a.625.625 0 1 0 0-1.25h-1.5a.375.375 0 0 1 0-.75h2.382c.142 0 .272.08.335.207l.448.895c.275.55.838.898 1.453.898H19.5c.207 0 .375.168.375.375v3a.375.375 0 0 1-.375.375h-7a.375.375 0 0 1-.375-.375V6.082zM10.875 14.5c0-.898.727-1.625 1.625-1.625h2.382c.616 0 1.178.348 1.453.898l.448.895a.375.375 0 0 0 .335.207H19.5c.898 0 1.625.727 1.625 1.625v3c0 .898-.727 1.625-1.625 1.625h-7a1.625 1.625 0 0 1-1.625-1.625v-5zm1.25 1.581c.12.029.246.044.375.044H14a.625.625 0 1 0 0-1.25h-1.5a.375.375 0 0 1 0-.75h2.382c.142 0 .272.08.335.207l.448.895c.275.55.838.898 1.453.898H19.5c.207 0 .375.168.375.375v3a.375.375 0 0 1-.375.375h-7a.375.375 0 0 1-.375-.375v-3.419zM3.5 2.875c.345 0 .625.28.625.625v.708a.625.625 0 1 1-1.25 0V3.5c0-.345.28-.625.625-.625zm0 3.542c.345 0 .625.28.625.625v1.416a.625.625 0 1 1-1.25 0V7.042c0-.346.28-.625.625-.625zm0 4.25c.345 0 .625.28.625.625v1.416a.625.625 0 1 1-1.25 0v-1.416c0-.345.28-.625.625-.625zm0 4.25c.345 0 .625.28.625.625v1.416a.625.625 0 1 1-1.25 0v-1.416c0-.345.28-.625.625-.625zm0 4.25c.345 0 .625.28.625.625v.708a.625.625 0 1 1-1.25 0v-.708c0-.346.28-.625.625-.625zM5.375 7.5c0-.345.28-.625.625-.625h.5a.625.625 0 1 1 0 1.25H6a.625.625 0 0 1-.625-.625zm2.5 0c0-.345.28-.625.625-.625H9a.625.625 0 1 1 0 1.25h-.5a.625.625 0 0 1-.625-.625zM5.375 17.5c0-.345.28-.625.625-.625h.5a.625.625 0 1 1 0 1.25H6a.625.625 0 0 1-.625-.625zm2.5 0c0-.345.28-.625.625-.625H9a.625.625 0 1 1 0 1.25h-.5a.625.625 0 0 1-.625-.625z" clip-rule="evenodd"/></svg>