<svg width="26" height="26" xmlns="http://www.w3.org/2000/svg"><path d="M9.668 22.322H4.5a.751.751 0 01-.74-.872l.895-5.437a2.758 2.758 0 01.769-1.498L12.47 7.47a.749.749 0 111.06 1.06l-7.045 7.046a1.24 1.24 0 00-.349.68l-.324 1.965a7.084 7.084 0 012.046 2.601h1.81c.333 0 .653-.134.887-.371l7.412-7.479a.751.751 0 011.066 1.056l-7.412 7.479a2.75 2.75 0 01-1.953.814zm6.605-12.094a.75.75 0 010 1.061l-6.243 6.242a.749.749 0 11-1.06-1.06l6.242-6.243a.75.75 0 011.061 0zm-1.274-5.287l1.047-1.047a2.751 2.751 0 013.902.012l2.691 2.725a2.75 2.75 0 01-.013 3.877l-1.033 1.034a.749.749 0 01-1.123.989l-6.5-6.5a.749.749 0 011.029-1.09zm3.881.019a1.25 1.25 0 00-1.773-.005l-1.043 1.042 4.505 4.447.997-.997a1.25 1.25 0 00.005-1.762L18.88 4.96z" fill="#333"/></svg>