<svg width="24" height="24" viewBox="0 0 24 24" fill="none" xmlns="http://www.w3.org/2000/svg">
    <g opacity="0.6">
        <path d="M15.7932 6.80628L11.9954 3.66382L4.26344 9.92306H5.07717C5.45952 9.92306 5.76948 10.233 5.76948 10.6154V19.8502C5.76948 19.9743 5.87418 20.0778 6.00797 20.078L17.9942 20.0922C18.1274 20.0924 18.231 19.9895 18.231 19.863V12.4615C18.231 12.0792 18.541 11.7692 18.9233 11.7692C19.3057 11.7692 19.6156 12.0792 19.6156 12.4615V19.863C19.6156 20.7569 18.8891 21.4779 17.9925 21.4768L6.00633 21.4626C5.11232 21.4616 4.38486 20.7423 4.38486 19.8502V11.3077H2.30794C1.65552 11.3077 1.36525 10.4878 1.87234 10.0773L11.5646 2.23112C11.8208 2.02374 12.1877 2.02571 12.4416 2.23583L15.5423 4.80147V4.20679C15.5423 3.82444 15.8522 3.51448 16.2346 3.51448H18.9469C19.3293 3.51448 19.6393 3.82444 19.6393 4.20679V8.07217L22.1269 10.0762C22.4246 10.3161 22.4715 10.7519 22.2317 11.0497C21.9918 11.3474 21.556 11.3944 21.2582 11.1545L18.5126 8.94257C18.3495 8.81115 18.2546 8.61293 18.2546 8.40345V4.89909H16.9269V6.27289C16.9269 6.85873 16.2446 7.17975 15.7932 6.80628Z" fill="#373A59"/>
        <path d="M14.9871 12.4612L14.9977 17.9868C14.9985 18.3692 14.6891 18.6797 14.3068 18.6805C13.9244 18.6812 13.6139 18.3718 13.6131 17.9895L13.6025 12.4639C13.6023 12.3325 13.5003 12.2308 13.3626 12.2308H10.6255C10.4884 12.2308 10.3873 12.3305 10.3873 12.4642V18C10.3873 18.3823 10.0774 18.6923 9.69503 18.6923C9.31268 18.6923 9.00273 18.3823 9.00273 18V12.4642C9.00273 11.5618 9.72764 10.8461 10.6255 10.8461H13.3626C14.2638 10.8461 14.9854 11.566 14.9871 12.4612Z" fill="#373A59"/>
    </g>
</svg>
