<svg width="26" height="26" viewBox="0 0 26 26" fill="none" xmlns="http://www.w3.org/2000/svg">
    <path fill-rule="evenodd" clip-rule="evenodd" d="M5.75 6.5C5.75 6.08579 6.08579 5.75 6.5 5.75H19.5C19.9142 5.75 20.25 6.08579 20.25 6.5C20.25 6.91421 19.9142 7.25 19.5 7.25H6.5C6.08579 7.25 5.75 6.91421 5.75 6.5Z" fill="#333333"/>
    <path fill-rule="evenodd" clip-rule="evenodd" d="M5.75 14.5C5.75 14.0858 6.08579 13.75 6.5 13.75H13.5C13.9142 13.75 14.25 14.0858 14.25 14.5C14.25 14.9142 13.9142 15.25 13.5 15.25H6.5C6.08579 15.25 5.75 14.9142 5.75 14.5Z" fill="#333333"/>
    <path fill-rule="evenodd" clip-rule="evenodd" d="M5.75 10.5C5.75 10.0858 6.08579 9.75 6.5 9.75H16.5C16.9142 9.75 17.25 10.0858 17.25 10.5C17.25 10.9142 16.9142 11.25 16.5 11.25H6.5C6.08579 11.25 5.75 10.9142 5.75 10.5Z" fill="#333333"/>
    <path fill-rule="evenodd" clip-rule="evenodd" d="M5.75 18.5C5.75 18.0858 6.08579 17.75 6.5 17.75H10.5C10.9142 17.75 11.25 18.0858 11.25 18.5C11.25 18.9142 10.9142 19.25 10.5 19.25H6.5C6.08579 19.25 5.75 18.9142 5.75 18.5Z" fill="#333333"/>
</svg>
