<svg xmlns="http://www.w3.org/2000/svg" width="24" height="24" fill="none" viewBox="0 0 24 24"><path fill="#D75A4D" fill-rule="evenodd" d="M7.927 5.125c-2.364 0-4.302 1.987-4.302 4.375 0 1.285.563 2.375 1.477 3.172l.032.03 7.34 7.357a.625.625 0 1 1-.884.882L4.264 13.6C3.115 12.591 2.375 11.173 2.375 9.5c0-3.054 2.474-5.625 5.552-5.625 1.627 0 3.09.7 4.106 1.815a5.538 5.538 0 0 1 4.105-1.815c3.089 0 5.487 2.582 5.487 5.625 0 1.526-.552 2.848-1.57 3.86l-5.192 5.194a.625.625 0 1 1-.884-.884l5.193-5.193.001-.002c.775-.771 1.202-1.772 1.202-2.975 0-2.399-1.884-4.375-4.237-4.375-1.463 0-2.755.73-3.533 1.847a.625.625 0 0 1-.579.264.625.625 0 0 1-.567-.265 4.296 4.296 0 0 0-3.532-1.846z" clip-rule="evenodd"/><path fill="#D75A4D" fill-rule="evenodd" d="M8.173 7.835a1.838 1.838 0 0 0-1.667 2.615.625.625 0 0 1-1.132.53 3.088 3.088 0 0 1 4.291-4.011.625.625 0 1 1-.605 1.094 1.827 1.827 0 0 0-.887-.228z" clip-rule="evenodd"/></svg>