<svg xmlns="http://www.w3.org/2000/svg" width="24" height="24" fill="none" viewBox="0 0 24 24"><path fill="#29BC50" fill-rule="evenodd" d="M11.559 5.22A.625.625 0 0 0 11 4.875H5.5c-.897 0-1.625.728-1.625 1.625v2c0 .345.28.625.625.625H10a.625.625 0 1 0 0-1.25H5.125V6.5c0-.207.168-.375.375-.375h5.114L11.94 8.78a.625.625 0 0 0 .559.345h5c.76 0 1.375.616 1.375 1.375v6c0 .76-.616 1.375-1.375 1.375h-11c-.76 0-1.375-.616-1.375-1.375V11a.625.625 0 1 0-1.25 0v5.5A2.625 2.625 0 0 0 6.5 19.125h11a2.625 2.625 0 0 0 2.625-2.625v-6A2.625 2.625 0 0 0 17.5 7.875h-4.614L11.56 5.22z" clip-rule="evenodd"/></svg>