<svg width="24" height="24" viewBox="0 0 24 24" fill="none" xmlns="http://www.w3.org/2000/svg">
    <path fill-rule="evenodd" clip-rule="evenodd" d="M6.88813 5.6111C6.67334 5.39632 6.3251 5.39632 6.11031 5.6111C5.89552 5.82589 5.89552 6.17413 6.11031 6.38892L11.7214 12L6.11031 17.6111C5.89552 17.8259 5.89552 18.1741 6.11031 18.3889C6.3251 18.6037 6.67334 18.6037 6.88813 18.3889L12.8881 12.3889C13.1029 12.1741 13.1029 11.8259 12.8881 11.6111L6.88813 5.6111ZM12.8881 5.6111C12.6733 5.39632 12.3251 5.39632 12.1103 5.6111C11.8955 5.82589 11.8955 6.17413 12.1103 6.38892L17.7214 12L12.1103 17.6111C11.8955 17.8259 11.8955 18.1741 12.1103 18.3889C12.3251 18.6037 12.6733 18.6037 12.8881 18.3889L18.8881 12.3889C19.1029 12.1741 19.1029 11.8259 18.8881 11.6111L12.8881 5.6111Z" fill="#838383"/>
</svg>
