<svg viewBox="0 0 24 24" width="24" height="24" xmlns="http://www.w3.org/2000/svg" fill-rule="evenodd" clip-rule="evenodd" stroke-linejoin="round" stroke-miterlimit="1.414"><path d="M11.509 6.125l1.933 1.933a.625.625 0 0 1-.884.884l-3-3a.625.625 0 0 1 0-.884l3-3a.625.625 0 0 1 .884.884l-1.933 1.933H12c5.006 0 9.125 4.119 9.125 9.125S17.006 23.125 12 23.125c-.268 0-.533-.012-.795-.034a.627.627 0 0 1-.572-.623c0-.018 0-.036.002-.054l.001.001a.627.627 0 0 1 .676-.57c.227.02.456.03.688.03h.013c4.314-.007 7.862-3.559 7.862-7.875 0-4.32-3.555-7.875-7.875-7.875h-.491zm-4.896 14.48a.629.629 0 0 1 .87-.153c.374.262.771.492 1.188.687a.626.626 0 0 1-.529 1.133 9.16 9.16 0 0 1-1.377-.797c-.258-.182-.336-.529-.152-.87zM4.03 17.026a.628.628 0 0 1 .83.303c.196.417.426.814.688 1.188a.628.628 0 0 1-.518.975.625.625 0 0 1-.505-.257 9.16 9.16 0 0 1-.797-1.377.621.621 0 0 1 .302-.831v-.001zm-.404-4.62c.343.04.59.35.55.692a7.971 7.971 0 0 0-.021 1.59c.002.018.002.036.002.054a.628.628 0 0 1-.625.625.628.628 0 0 1-.623-.572 9.254 9.254 0 0 1 .025-1.838.628.628 0 0 1 .692-.55v-.001zM5.83 8.121c.266.22.304.613.085.88a7.943 7.943 0 0 0-.533.728.625.625 0 0 1-1.05-.678c.19-.294.396-.575.618-.844a.627.627 0 0 1 .88-.086z" fill="#333"/></svg>
