<svg width="26" height="26" viewBox="0 0 26 26" fill="none" xmlns="http://www.w3.org/2000/svg">
    <path fill-rule="evenodd" clip-rule="evenodd" d="M21.5832 11.55L22.6261 10.5071C23.6952 9.43801 23.7007 7.7063 22.6384 6.63042L19.9475 3.90524C18.8804 2.82451 17.1392 2.81347 16.0585 3.88059L14.9973 4.94176L14.694 4.63743C13.9881 3.92913 12.9256 4.988 13.6315 5.6963L14.3879 6.4552C14.4096 6.48453 14.4338 6.51264 14.4604 6.53924C14.4864 6.56522 14.5138 6.5889 14.5424 6.61027L19.9198 12.0058C19.9405 12.0332 19.9633 12.0594 19.9882 12.0843C20.0125 12.1087 20.0381 12.1309 20.0647 12.1512L20.8107 12.8998C21.5166 13.6081 22.5791 12.5492 21.8732 11.8409L21.5832 11.55ZM16.0561 6.00419L20.5244 10.4875L21.5654 9.44648C22.0514 8.96051 22.0539 8.17337 21.571 7.68433L18.8801 4.95915C18.3951 4.46792 17.6037 4.4629 17.1068 4.95353L16.0561 6.00419Z" fill="#333333"/>
    <path d="M6.39646 15.6639C6.24625 15.8141 6.1368 16.0001 6.07844 16.2043L5.30194 18.9221C6.17185 19.5161 6.89266 20.3062 7.4036 21.2257L9.73044 20.9172C10.0028 20.881 10.2557 20.7562 10.45 20.5619L17.9911 13.0208C18.284 12.7279 18.7588 12.7279 19.0517 13.0208C19.3446 13.3137 19.3446 13.7886 19.0517 14.0815L11.5107 21.6225C11.0832 22.05 10.5269 22.3247 9.92764 22.4041L3.59827 23.2435C3.06282 23.3145 2.63014 22.8133 2.77853 22.294L4.63615 15.7923C4.76454 15.3429 5.00533 14.9337 5.3358 14.6032L12.4587 7.48035C12.7516 7.18746 13.2264 7.18746 13.5193 7.48035C13.8122 7.77324 13.8122 8.24812 13.5193 8.54101L6.39646 15.6639Z" fill="#333333"/>
    <path d="M7.72923 15.9598L14.3205 9.36847C14.6134 9.07558 15.0883 9.07558 15.3812 9.36847C15.6741 9.66136 15.6741 10.1362 15.3812 10.4291L8.78989 17.0204C8.49699 17.3133 8.02212 17.3133 7.72923 17.0204C7.43633 16.7275 7.43633 16.2527 7.72923 15.9598Z" fill="#333333"/>
    <path d="M16.1671 11.1623L9.65745 17.6719C9.36456 17.9648 9.36456 18.4397 9.65745 18.7326C9.95034 19.0255 10.4252 19.0255 10.7181 18.7326L17.2278 12.223C17.5206 11.9301 17.5206 11.4552 17.2278 11.1623C16.9349 10.8694 16.46 10.8694 16.1671 11.1623Z" fill="#333333"/>
</svg>
