<svg width="26" height="26" viewBox="0 0 26 26" fill="none" xmlns="http://www.w3.org/2000/svg">
    <path fill-rule="evenodd" clip-rule="evenodd" d="M20.2577 4.45187L20.265 5.31397C20.2686 5.72817 19.9357 6.06681 19.5215 6.07035C19.1073 6.07388 18.7686 5.74098 18.7651 5.32678L18.7577 4.46468C18.757 4.37532 18.6822 4.30136 18.5827 4.30094L7.41097 4.25385C7.32122 4.25347 7.25681 4.31755 7.25751 4.40201L7.26505 5.31024C7.26849 5.72444 6.9355 6.063 6.5213 6.06644C6.1071 6.06988 5.76854 5.73689 5.7651 5.32269L5.75756 4.41446C5.7499 3.49113 6.49488 2.74997 7.4173 2.75386L18.589 2.80095C19.5071 2.80482 20.2499 3.5392 20.2577 4.45187ZM5.5 11.25H4.5C4.08579 11.25 3.75 10.9142 3.75 10.5C3.75 10.0858 4.08579 9.75 4.5 9.75H5.5C5.91421 9.75 6.25 10.0858 6.25 10.5C6.25 10.9142 5.91421 11.25 5.5 11.25ZM5.49423 14.25L20.4938 14.3654C20.908 14.3686 21.2463 14.0354 21.2495 13.6212C21.2527 13.207 20.9195 12.8687 20.5053 12.8655L5.50577 12.75C5.09157 12.7468 4.75321 13.08 4.75002 13.4942C4.74683 13.9084 5.08003 14.2468 5.49423 14.25ZM9.5 18.25H16.5C16.9142 18.25 17.25 17.9142 17.25 17.5C17.25 17.0858 16.9142 16.75 16.5 16.75H9.5C9.08579 16.75 8.75 17.0858 8.75 17.5C8.75 17.9142 9.08579 18.25 9.5 18.25ZM9.5 21.25H13.5C13.9142 21.25 14.25 20.9142 14.25 20.5C14.25 20.0858 13.9142 19.75 13.5 19.75H9.5C9.08579 19.75 8.75 20.0858 8.75 20.5C8.75 20.9142 9.08579 21.25 9.5 21.25ZM18.7651 15.7471L18.7519 22.2648C18.7517 22.4042 18.637 22.5192 18.4983 22.5198L7.49534 22.5662C7.35759 22.5668 7.25166 22.4608 7.25194 22.316L7.26507 15.7539C7.26587 15.3397 6.93073 15.0033 6.51652 15.0025C6.10231 15.0017 5.76588 15.3368 5.76508 15.751L5.75194 22.3131C5.75006 23.2893 6.5312 24.0702 7.50166 24.0662L18.5047 24.0198C19.4683 24.0157 20.2501 23.2318 20.2519 22.2677L20.2651 15.75C20.2659 15.3358 19.9307 14.9994 19.5165 14.9985C19.1023 14.9977 18.7659 15.3329 18.7651 15.7471ZM22.75 15.503V9.25H3.25V15.503C3.25 15.6356 3.36405 15.75 3.49841 15.75H4.49683C4.91104 15.75 5.24683 16.0858 5.24683 16.5C5.24683 16.9142 4.91104 17.25 4.49683 17.25H3.49841C2.53454 17.25 1.75 16.4629 1.75 15.503V8.5C1.75 8.08579 2.08579 7.75 2.5 7.75H23.5C23.9142 7.75 24.25 8.08579 24.25 8.5V15.503C24.25 16.4662 23.4648 17.25 22.505 17.25H21.5555C21.1413 17.25 20.8055 16.9142 20.8055 16.5C20.8055 16.0858 21.1413 15.75 21.5555 15.75H22.505C22.637 15.75 22.75 15.6372 22.75 15.503Z" fill="#212121"/>
    <mask id="mask0" mask-type="alpha" maskUnits="userSpaceOnUse" x="1" y="2" width="24" height="23">
        <path fill-rule="evenodd" clip-rule="evenodd" d="M20.2577 4.45187L20.265 5.31397C20.2686 5.72817 19.9357 6.06681 19.5215 6.07035C19.1073 6.07388 18.7686 5.74098 18.7651 5.32678L18.7577 4.46468C18.757 4.37532 18.6822 4.30136 18.5827 4.30094L7.41097 4.25385C7.32122 4.25347 7.25681 4.31755 7.25751 4.40201L7.26505 5.31024C7.26849 5.72444 6.9355 6.063 6.5213 6.06644C6.1071 6.06988 5.76854 5.73689 5.7651 5.32269L5.75756 4.41446C5.7499 3.49113 6.49488 2.74997 7.4173 2.75386L18.589 2.80095C19.5071 2.80482 20.2499 3.5392 20.2577 4.45187ZM5.5 11.25H4.5C4.08579 11.25 3.75 10.9142 3.75 10.5C3.75 10.0858 4.08579 9.75 4.5 9.75H5.5C5.91421 9.75 6.25 10.0858 6.25 10.5C6.25 10.9142 5.91421 11.25 5.5 11.25ZM5.49423 14.25L20.4938 14.3654C20.908 14.3686 21.2463 14.0354 21.2495 13.6212C21.2527 13.207 20.9195 12.8687 20.5053 12.8655L5.50577 12.75C5.09157 12.7468 4.75321 13.08 4.75002 13.4942C4.74683 13.9084 5.08003 14.2468 5.49423 14.25ZM9.5 18.25H16.5C16.9142 18.25 17.25 17.9142 17.25 17.5C17.25 17.0858 16.9142 16.75 16.5 16.75H9.5C9.08579 16.75 8.75 17.0858 8.75 17.5C8.75 17.9142 9.08579 18.25 9.5 18.25ZM9.5 21.25H13.5C13.9142 21.25 14.25 20.9142 14.25 20.5C14.25 20.0858 13.9142 19.75 13.5 19.75H9.5C9.08579 19.75 8.75 20.0858 8.75 20.5C8.75 20.9142 9.08579 21.25 9.5 21.25ZM18.7651 15.7471L18.7519 22.2648C18.7517 22.4042 18.637 22.5192 18.4983 22.5198L7.49534 22.5662C7.35759 22.5668 7.25166 22.4608 7.25194 22.316L7.26507 15.7539C7.26587 15.3397 6.93073 15.0033 6.51652 15.0025C6.10231 15.0017 5.76588 15.3368 5.76508 15.751L5.75194 22.3131C5.75006 23.2893 6.5312 24.0702 7.50166 24.0662L18.5047 24.0198C19.4683 24.0157 20.2501 23.2318 20.2519 22.2677L20.2651 15.75C20.2659 15.3358 19.9307 14.9994 19.5165 14.9985C19.1023 14.9977 18.7659 15.3329 18.7651 15.7471ZM22.75 15.503V9.25H3.25V15.503C3.25 15.6356 3.36405 15.75 3.49841 15.75H4.49683C4.91104 15.75 5.24683 16.0858 5.24683 16.5C5.24683 16.9142 4.91104 17.25 4.49683 17.25H3.49841C2.53454 17.25 1.75 16.4629 1.75 15.503V8.5C1.75 8.08579 2.08579 7.75 2.5 7.75H23.5C23.9142 7.75 24.25 8.08579 24.25 8.5V15.503C24.25 16.4662 23.4648 17.25 22.505 17.25H21.5555C21.1413 17.25 20.8055 16.9142 20.8055 16.5C20.8055 16.0858 21.1413 15.75 21.5555 15.75H22.505C22.637 15.75 22.75 15.6372 22.75 15.503Z" fill="white"/>
    </mask>
    <g mask="url(#mask0)">
        <rect width="26" height="26" fill="#333333"/>
    </g>
</svg>
