<svg width="24" height="24" xmlns="http://www.w3.org/2000/svg"><path fill="#333" d="M9.875 7.5a2.625 2.625 0 0 1 5.25 0v9a2.625 2.625 0 0 1-5.25 0v-9zM12.5 6.125c-.76 0-1.375.616-1.375 1.375v9a1.375 1.375 0 1 0 2.75 0v-9c0-.76-.616-1.375-1.375-1.375zM16.875 10.5a2.625 2.625 0 0 1 5.25 0v3a2.625 2.625 0 0 1-5.25 0v-3zM19.5 9.125c-.76 0-1.375.616-1.375 1.375v3a1.375 1.375 0 1 0 2.75 0v-3c0-.76-.616-1.375-1.375-1.375zM5.5 9.125c-.106 0-.209.012-.307.034a.625.625 0 1 1-.277-1.219 2.632 2.632 0 0 1 1.168 0 .625.625 0 0 1-.277 1.22 1.381 1.381 0 0 0-.307-.035zm-1.812.32a.625.625 0 0 1 .471.748c-.022.098-.034.2-.034.307v.429a.625.625 0 0 1-1.25 0V10.5c0-.2.022-.396.065-.584a.625.625 0 0 1 .748-.47zm3.624 0a.625.625 0 0 1 .748.471c.043.188.065.384.065.584v.429a.625.625 0 0 1-1.25 0V10.5c0-.106-.012-.209-.034-.307a.625.625 0 0 1 .47-.748zM3.5 12.446c.345 0 .625.28.625.625v.429c0 .106.012.209.034.307a.625.625 0 1 1-1.219.277 2.632 2.632 0 0 1-.065-.584v-.429c0-.345.28-.625.625-.625zm4 0c.345 0 .625.28.625.625v.429c0 .2-.022.396-.065.584a.625.625 0 0 1-1.22-.277c.023-.098.035-.2.035-.307v-.429c0-.345.28-.625.625-.625zm-3.055 2.866a.625.625 0 0 1 .748-.471 1.38 1.38 0 0 0 .614 0 .625.625 0 0 1 .277 1.219 2.632 2.632 0 0 1-1.168 0 .625.625 0 0 1-.47-.748z"/></svg>
