<svg width="26" height="26" viewBox="0 0 26 26" fill="none" xmlns="http://www.w3.org/2000/svg">
<path fill-rule="evenodd" clip-rule="evenodd" d="M15.25 14.25H18.5C18.9142 14.25 19.25 13.9142 19.25 13.5V10.5C19.25 10.0858 18.9142 9.75 18.5 9.75H15.25V8.5C15.25 7.80964 15.8096 7.25 16.5 7.25H18.5C18.9142 7.25 19.25 6.91421 19.25 6.5V3.5C19.25 3.08579 18.9142 2.75 18.5 2.75H15.5C12.3244 2.75 9.75 5.32436 9.75 8.5V9.75H6.5C6.08579 9.75 5.75 10.0858 5.75 10.5V13.5C5.75 13.9142 6.08579 14.25 6.5 14.25H9.75V23.5C9.75 23.9142 10.0858 24.25 10.5 24.25C10.9142 24.25 11.25 23.9142 11.25 23.5V13.5C11.25 13.0858 10.9142 12.75 10.5 12.75H7.25V11.25H10.5C10.9142 11.25 11.25 10.9142 11.25 10.5V8.5C11.25 6.15279 13.1528 4.25 15.5 4.25H17.75V5.75H16.5C14.9812 5.75 13.75 6.98122 13.75 8.5V10.5C13.75 10.9142 14.0858 11.25 14.5 11.25H17.75V12.75H14.5C14.0858 12.75 13.75 13.0858 13.75 13.5V23.5C13.75 23.9142 14.0858 24.25 14.5 24.25C14.9142 24.25 15.25 23.9142 15.25 23.5V14.25Z" fill="#4667AA"/>
</svg>
