<svg xmlns="http://www.w3.org/2000/svg" width="24" height="24" fill="none" viewBox="0 0 24 24"><path fill="#333" fill-rule="evenodd" d="M12.875 16.5c0-.898.727-1.625 1.625-1.625h6c.898 0 1.625.727 1.625 1.625v2c0 .897-.727 1.625-1.625 1.625h-6a1.625 1.625 0 0 1-1.625-1.625v-2zm1.625-.375a.375.375 0 0 0-.375.375v2c0 .207.168.375.375.375h6a.375.375 0 0 0 .375-.375v-2a.375.375 0 0 0-.375-.375h-6zM12.875 9.5c0-.897.727-1.625 1.625-1.625h6c.898 0 1.625.728 1.625 1.625v2c0 .898-.727 1.625-1.625 1.625h-6a1.625 1.625 0 0 1-1.625-1.625v-2zm1.625-.375a.375.375 0 0 0-.375.375v2c0 .207.168.375.375.375h6a.375.375 0 0 0 .375-.375v-2a.375.375 0 0 0-.375-.375h-6zM2.875 4.5c0-.897.728-1.625 1.625-1.625h2c.897 0 1.625.728 1.625 1.625v2c0 .897-.728 1.625-1.625 1.625h-2A1.625 1.625 0 0 1 2.875 6.5v-2zM4.5 4.125a.375.375 0 0 0-.375.375v2c0 .207.168.375.375.375h2a.375.375 0 0 0 .375-.375v-2a.375.375 0 0 0-.375-.375h-2zM5.5 8.875c.345 0 .625.28.625.625v.786a.625.625 0 1 1-1.25 0V9.5c0-.345.28-.625.625-.625zm0 2.881c.345 0 .625.28.625.625v1.571a.625.625 0 1 1-1.25 0v-1.571c0-.345.28-.625.625-.625zm0 3.667c.345 0 .625.28.625.625v1.571a.625.625 0 1 1-1.25 0v-1.571c0-.346.28-.625.625-.625zm0 3.666c.345 0 .625.28.625.625v.786a.625.625 0 1 1-1.25 0v-.786c0-.345.28-.625.625-.625zM6.875 10.5c0-.345.28-.625.625-.625h.667a.625.625 0 1 1 0 1.25H7.5a.625.625 0 0 1-.625-.625zm3.333 0c0-.345.28-.625.625-.625h.667a.625.625 0 1 1 0 1.25h-.667a.625.625 0 0 1-.625-.625zM6.875 17.5c0-.345.28-.625.625-.625h.667a.625.625 0 1 1 0 1.25H7.5a.625.625 0 0 1-.625-.625zm3.333 0c0-.345.28-.625.625-.625h.667a.625.625 0 1 1 0 1.25h-.667a.625.625 0 0 1-.625-.625z" clip-rule="evenodd"/></svg>