<svg xmlns="http://www.w3.org/2000/svg" width="26" height="26" viewBox="0 0 26 26"><path fill="#333" d="M16.75 4.25H4.508a1.25 1.25 0 0 0-1.25 1.255l.03 6.926c-.01 2.102.667 3.553 1.646 4.58.995 1.045 2.354 1.703 3.776 2.107 1.418.403 2.85.538 3.938.57a18.17 18.17 0 0 0 1.664-.026l.09-.007.021-.002h.005a.75.75 0 0 1 .822.746v1.298l3.236-3.217-3.236-3.187v1.228a.75.75 0 0 1-.75.75H9.618a.75.75 0 0 1 0-1.5h4.132v-2.27a.75.75 0 0 1 1.276-.534l5.052 4.976a.75.75 0 0 1 .003 1.066l-5.052 5.023a.75.75 0 0 1-1.279-.532v-2.31c-.312.008-.701.011-1.147-.002-1.161-.035-2.726-.179-4.303-.627-1.574-.447-3.208-1.21-4.452-2.516-1.261-1.323-2.07-3.152-2.06-5.617l-.03-6.917a2.75 2.75 0 0 1 2.75-2.761H17.5a.75.75 0 0 1 .75.75v8a.75.75 0 0 1-1.5 0V4.25z M19.75 6.25h-.25a.75.75 0 0 1 0-1.5h1a.75.75 0 0 1 .75.75v9a.75.75 0 0 1-1.5 0V6.25zM22.75 9.25h-.25a.75.75 0 0 1 0-1.5h1a.75.75 0 0 1 .75.75v9a.75.75 0 0 1-1.5 0V9.25zM2.5 18.615a.75.75 0 0 1 .75.75v2.14c0 .69.557 1.245 1.242 1.245h4.016a.75.75 0 0 1 0 1.5H4.492a2.743 2.743 0 0 1-2.742-2.745v-2.14a.75.75 0 0 1 .75-.75z"/></svg>
