<svg width="24" height="24" viewBox="0 0 24 24" fill="none" xmlns="http://www.w3.org/2000/svg">
    <path fill-rule="evenodd" clip-rule="evenodd" d="M11.1103 5.6111C11.3251 5.39632 11.6733 5.39632 11.8881 5.6111C12.1029 5.82589 12.1029 6.17413 11.8881 6.38892L6.27704 12L11.8881 17.6111C12.1029 17.8259 12.1029 18.1741 11.8881 18.3889C11.6733 18.6037 11.3251 18.6037 11.1103 18.3889L5.11031 12.3889C4.89552 12.1741 4.89552 11.8259 5.11031 11.6111L11.1103 5.6111ZM17.1103 5.6111C17.3251 5.39632 17.6733 5.39632 17.8881 5.6111C18.1029 5.82589 18.1029 6.17413 17.8881 6.38892L12.277 12L17.8881 17.6111C18.1029 17.8259 18.1029 18.1741 17.8881 18.3889C17.6733 18.6037 17.3251 18.6037 17.1103 18.3889L11.1103 12.3889C10.8955 12.1741 10.8955 11.8259 11.1103 11.6111L17.1103 5.6111Z" fill="#838383"/>
</svg>
