<svg width="26" height="26" viewBox="0 0 26 26" fill="none" xmlns="http://www.w3.org/2000/svg">
    <path fill-rule="evenodd" clip-rule="evenodd" d="M21.3107 14.623C21.9977 15.0185 22.479 15.6928 22.6297 16.471H22.6307C22.8355 17.5278 22.4057 18.607 21.5306 19.2338C20.6555 19.8606 19.4954 19.92 18.5607 19.386L17.4347 18.736C17.2008 18.603 17.056 18.3548 17.0554 18.0857C17.0548 17.8165 17.1985 17.5677 17.4319 17.4337C17.6653 17.2996 17.9526 17.3009 18.1847 17.437L19.3107 18.088C19.7364 18.3279 20.2627 18.2987 20.6592 18.0132C21.0558 17.7277 21.2503 17.2378 21.1577 16.758C21.09 16.4057 20.872 16.1005 20.5607 15.922L19.4357 15.272C19.1489 15.1064 19.0046 14.7723 19.0807 14.45C19.3059 13.4965 19.3059 12.5036 19.0807 11.55C19.0046 11.2277 19.1489 10.8936 19.4357 10.728L20.5607 10.078C21.1535 9.7305 21.3547 8.9697 21.0111 8.37464C20.6675 7.77958 19.9081 7.57339 19.3107 7.91301L18.1837 8.56301C17.8967 8.72884 17.5348 8.68656 17.2937 8.45901C16.583 7.78568 15.7239 7.28897 14.7857 7.00901C14.4677 6.91432 14.2497 6.62186 14.2497 6.29001V4.99201C14.2497 4.30165 13.6901 3.74201 12.9997 3.74201C12.3094 3.74201 11.7497 4.30165 11.7497 4.99201V6.28901C11.7503 6.62123 11.5322 6.91421 11.2137 7.00901C10.2752 7.28882 9.41575 7.78554 8.70475 8.45901C8.46367 8.68656 8.10179 8.72884 7.81475 8.56301L6.68875 7.91301C6.09142 7.57339 5.33197 7.77958 4.9884 8.37464C4.64484 8.9697 4.84598 9.7305 5.43875 10.078L6.56375 10.728C6.8506 10.8936 6.99489 11.2277 6.91875 11.55C6.69356 12.5036 6.69356 13.4965 6.91875 14.45C6.99489 14.7723 6.8506 15.1064 6.56375 15.272L5.43875 15.922C4.84598 16.2695 4.64484 17.0303 4.9884 17.6254C5.33197 18.2204 6.09142 18.4266 6.68875 18.087L7.81575 17.437C8.10279 17.2712 8.46467 17.3135 8.70575 17.541C9.41647 18.2143 10.2756 18.711 11.2137 18.991C11.5318 19.0857 11.7498 19.3781 11.7497 19.71V21.01C11.7497 21.7004 12.3094 22.26 12.9997 22.26C13.6901 22.26 14.2497 21.7004 14.2497 21.01V19.71C14.2497 19.2958 14.5855 18.96 14.9997 18.96C15.414 18.96 15.7497 19.2958 15.7497 19.71V21.009C15.7497 22.5278 14.5185 23.759 12.9997 23.759C11.481 23.759 10.2497 22.5278 10.2497 21.009V20.234C9.47503 19.9395 8.75279 19.5221 8.11075 18.998L7.43875 19.386C6.12463 20.1332 4.45384 19.6795 3.69799 18.3704C2.94214 17.0613 3.38466 15.3875 4.68875 14.623L5.35975 14.235C5.29024 13.8269 5.25346 13.4139 5.24975 13C5.2534 12.5857 5.29019 12.1724 5.35975 11.764L4.68875 11.376C3.38466 10.6115 2.94214 8.93773 3.69799 7.6286C4.45384 6.31947 6.12463 5.86586 7.43875 6.61301L8.11075 7.00101C8.75279 6.47687 9.47503 6.05953 10.2497 5.76501V4.99001C10.2497 3.47122 11.481 2.24001 12.9997 2.24001C14.5185 2.24001 15.7497 3.47122 15.7497 4.99001V5.76601C16.5245 6.06053 17.2467 6.47787 17.8887 7.00201L18.5607 6.61401C19.8749 5.86686 21.5457 6.32047 22.3015 7.6296C23.0573 8.93873 22.6148 10.6125 21.3107 11.377L20.6397 11.765C20.7093 12.1731 20.746 12.5861 20.7497 13C20.746 13.4139 20.7093 13.8269 20.6397 14.235L21.3107 14.623ZM9.92445 11.1795C10.1077 11.1019 10.3143 11.1003 10.4987 11.175C10.6831 11.2498 10.8301 11.3947 10.9076 11.578C10.9851 11.7612 10.9865 11.9677 10.9117 12.152C10.8042 12.4179 10.7492 12.7022 10.7497 12.989C10.7498 14.2241 11.75 15.226 12.9851 15.228C14.2202 15.23 15.2237 14.2314 15.2277 12.9963C15.2318 11.7612 14.2349 10.7561 12.9997 10.75C12.5855 10.75 12.2497 10.4142 12.2497 10C12.2497 9.58579 12.5855 9.25001 12.9997 9.25001C14.6499 9.25099 16.1057 10.33 16.5866 11.9086C17.0676 13.4871 16.4606 15.1945 15.0913 16.1154C13.722 17.0363 11.9118 16.9544 10.6312 15.9137C9.35058 14.873 8.90029 13.1177 9.52175 11.589C9.59634 11.4045 9.74121 11.2572 9.92445 11.1795Z" fill="#333333"/>
</svg>
