<svg width="26" height="26" viewBox="0 0 26 26" fill="none" xmlns="http://www.w3.org/2000/svg">
<path fill-rule="evenodd" clip-rule="evenodd" d="M24 7.23182C24.5226 7.23182 24.885 7.75289 24.7031 8.24282C23.7611 10.7806 22.5991 12.8319 21.2108 14.3924C22.4821 15.3197 23.6291 16.9518 24.683 19.2756C24.8541 19.6528 24.687 20.0973 24.3097 20.2684C23.9325 20.4395 23.488 20.2724 23.3169 19.8951C22.1601 17.3444 20.9371 15.7992 19.7051 15.2358C19.2241 15.0158 19.1158 14.3804 19.4968 14.0135C20.818 12.7412 21.9538 10.9821 22.8979 8.73182H19.5267C18.3326 11.9787 16.9766 14.1272 15.4053 15.1773C14.9069 15.5103 14.2385 15.1531 14.2385 14.5537V12.3147V8.3501H9.37816C8.96394 8.3501 8.62816 8.01431 8.62816 7.6001C8.62816 7.18588 8.96394 6.8501 9.37816 6.8501H14.9885C15.4028 6.8501 15.7385 7.18588 15.7385 7.6001V12.3147V12.8209C16.6347 11.7065 17.4927 10.0107 18.2914 7.7336C18.3968 7.43302 18.6806 7.23182 18.9991 7.23182H24ZM7.18675 8.76154C7.49853 9.52431 7.87202 10.2867 8.30444 10.9936C8.90986 11.9834 9.57259 12.7685 10.2782 13.2931V12.5293V10.5482C10.2782 10.134 10.614 9.79822 11.0282 9.79822C11.4424 9.79822 11.7782 10.134 11.7782 10.5482V14.5537C11.7782 15.0747 11.2601 15.437 10.7708 15.2582C9.30519 14.7226 8.07122 13.487 7.02484 11.7763C6.54655 10.9944 6.13852 10.1615 5.79826 9.32907C5.71222 9.11858 5.63493 8.91867 5.56635 8.73182H2.99354C4.99536 15.3098 8.78042 18.6247 14.4349 18.8256C14.51 18.6069 14.5997 18.3967 14.712 18.1903C15.1871 17.3172 15.9431 16.7605 16.9951 16.7622C18.3302 16.7644 19.227 17.5103 19.6053 18.8354H20.4883C20.9025 18.8354 21.2383 19.1712 21.2383 19.5854C21.2383 19.9996 20.9025 20.3354 20.4883 20.3354H18.9991C18.6269 20.3354 18.3111 20.0624 18.2571 19.6942C18.105 18.6571 17.7242 18.2634 16.9926 18.2622C16.5568 18.2615 16.2635 18.4775 16.0296 18.9073C16.0797 18.8152 15.6318 20.3354 14.9885 20.3354C8.02753 20.3354 3.42037 16.2195 1.2753 8.17506C1.14834 7.69893 1.50721 7.23182 1.99998 7.23182H6.10098C6.43034 7.23182 6.72116 7.4467 6.8179 7.76153C6.87701 7.95391 7.00025 8.30525 7.18675 8.76154Z" fill="#4976A4"/>
</svg>
