<svg xmlns="http://www.w3.org/2000/svg" width="24" height="24" fill="none" viewBox="0 0 24 24"><path fill="#333" fill-rule="evenodd" d="M6.5 16.875a.375.375 0 0 1-.375-.375V3a.625.625 0 1 0-1.25 0v13.5c0 .898.728 1.625 1.625 1.625h9a.625.625 0 1 0 0-1.25h-9zm13.375.625c0 .345.28.625.625.625H22a.625.625 0 1 0 0-1.25h-1.5a.625.625 0 0 0-.625.625z" clip-rule="evenodd"/><path fill="#333" fill-rule="evenodd" d="M18.5 21.625c.345 0 .625-.28.625-.625V7.5c0-.897-.727-1.625-1.625-1.625h-9a.625.625 0 1 0 0 1.25h9c.207 0 .375.168.375.375V21c0 .345.28.625.625.625zM1.375 6.5c0 .345.28.625.625.625h1.5a.625.625 0 1 0 0-1.25H2a.625.625 0 0 0-.625.625z" clip-rule="evenodd"/></svg>