<svg width="26" height="26" viewBox="0 0 26 26" fill="none" xmlns="http://www.w3.org/2000/svg">
<path fill-rule="evenodd" clip-rule="evenodd" d="M13 19.4306C14.8867 19.4306 16.5837 18.618 17.76 17.3237V18.0328C17.76 19.6028 18.1092 20.2555 19.2539 20.5944C20.1436 20.8578 20.98 20.3662 21.8336 19.3402C23.1685 17.4634 23.875 15.2836 23.875 13C23.875 6.9939 19.0061 2.125 13 2.125C6.9939 2.125 2.125 6.9939 2.125 13C2.125 19.0061 6.9939 23.875 13 23.875C14.2723 23.875 15.5159 23.6561 16.6892 23.233C17.1438 23.0691 17.3794 22.5677 17.2155 22.1131C17.0516 21.6585 16.5502 21.4228 16.0956 21.5868C15.112 21.9414 14.0692 22.125 13 22.125C7.9604 22.125 3.875 18.0396 3.875 13C3.875 7.9604 7.9604 3.875 13 3.875C18.0396 3.875 22.125 7.9604 22.125 13C22.125 14.9177 21.533 16.7443 20.4473 18.2743C20.0372 18.7632 19.7679 18.9215 19.7507 18.9164C19.6574 18.8887 19.5995 18.8785 19.5639 18.8448C19.4925 18.7773 19.51 18.6158 19.51 18.0328V8.33203C19.51 7.84878 19.1183 7.45703 18.635 7.45703C18.1518 7.45703 17.76 7.84878 17.76 8.33203V8.67627C16.5837 7.382 14.8867 6.56944 13 6.56944C9.4485 6.56944 6.56944 9.4485 6.56944 13C6.56944 16.5515 9.4485 19.4306 13 19.4306ZM17.6806 13C17.6806 15.585 15.585 17.6806 13 17.6806C10.415 17.6806 8.31944 15.585 8.31944 13C8.31944 10.415 10.415 8.31944 13 8.31944C15.585 8.31944 17.6806 10.415 17.6806 13Z" fill="#FBB017"/>
</svg>
