<svg width="26" height="26" fill="none" xmlns="http://www.w3.org/2000/svg"><path d="M11.75 2.5a1.25 1.25 0 11-2.5 0 1.25 1.25 0 012.5 0zM16.75 5.5a1.25 1.25 0 11-2.5 0 1.25 1.25 0 012.5 0zM16.75 10.5a1.25 1.25 0 11-2.5 0 1.25 1.25 0 012.5 0zM16.75 15.5a1.25 1.25 0 11-2.5 0 1.25 1.25 0 012.5 0zM16.75 20.5a1.25 1.25 0 11-2.5 0 1.25 1.25 0 012.5 0zM11.75 7.5a1.25 1.25 0 11-2.5 0 1.25 1.25 0 012.5 0zM11.75 12.5a1.25 1.25 0 11-2.5 0 1.25 1.25 0 012.5 0zM11.75 17.5a1.25 1.25 0 11-2.5 0 1.25 1.25 0 012.5 0zM11.75 22.5a1.25 1.25 0 11-2.5 0 1.25 1.25 0 012.5 0z" fill="#333"/></svg>