<svg xmlns="http://www.w3.org/2000/svg" width="24" height="24" fill="none" viewBox="0 0 24 24"><path fill="#333" fill-rule="evenodd" d="M7.927 3.875c1.627 0 3.09.7 4.106 1.815a5.538 5.538 0 0 1 4.105-1.815c3.089 0 5.487 2.582 5.487 5.625 0 1.526-.553 2.849-1.57 3.861l-.076.077-7.505 7.504a.625.625 0 0 1-.884 0l-7.326-7.343C3.115 12.591 2.375 11.173 2.375 9.5c0-3.054 2.474-5.625 5.552-5.625zM6.335 9.673a1.838 1.838 0 0 1 2.725-1.61.625.625 0 1 0 .605-1.095 3.088 3.088 0 0 0-4.291 4.011.625.625 0 0 0 1.132-.529 1.83 1.83 0 0 1-.171-.777z" clip-rule="evenodd"/></svg>