<svg width="26" height="26" viewBox="0 0 26 26" fill="none" xmlns="http://www.w3.org/2000/svg">
    <path d="M5.25 16.0471V7.06193C5.25 6.06351 6.06881 5.25 7.07622 5.25H19.8807C20.8895 5.25 21.707 6.06341 21.707 7.06193V16.0471C21.707 17.0512 20.8976 17.859 19.8828 17.859H12.9408C12.7419 17.859 12.5511 17.9381 12.4105 18.0787L8.36726 22.1219C8.07436 22.4148 8.07436 22.8897 8.36726 23.1826C8.66015 23.4755 9.13502 23.4755 9.42792 23.1826L13.2515 19.359H19.8828C21.7254 19.359 23.207 17.8803 23.207 16.0471V7.06193C23.207 5.2333 21.7162 3.75 19.8807 3.75H7.07622C5.24255 3.75 3.75 5.2329 3.75 7.06193V16.0471C3.75 17.8765 5.23625 19.359 7.07195 19.359C7.48616 19.359 7.82195 19.0233 7.82195 18.609C7.82195 18.1948 7.48616 17.859 7.07195 17.859C6.06385 17.859 5.25 17.0472 5.25 16.0471Z" fill="white"/>
    <path d="M8.5 11.25C7.5 11.25 7.5 9.75 8.5 9.75H18.5C19.5 9.75 19.5 11.25 18.5 11.25H8.5Z" fill="white"/>
    <path d="M8.5 14.25C7.5 14.25 7.5 12.75 8.5 12.75H14.5C15.5 12.75 15.5 14.25 14.5 14.25H8.5Z" fill="white"/>
</svg>
