<svg width="26px" height="26px" viewBox="0 0 26 26" version="1.1" xmlns="http://www.w3.org/2000/svg"><path fill="#333333" d="M15.75,6.89c0,3.888 -2.057,6.86 -4.811,6.86c-2.787,0 -4.689,-2.786 -4.689,-6.86c0,-2.084 1.599,-2.64 4.689,-2.64c3.102,0 4.811,0.58 4.811,2.64Zm3.75,8.11l0,3.25c0,0.414 -0.336,0.75 -0.75,0.75c-0.414,0 -0.75,-0.336 -0.75,-0.75l0,-3.25l-3.25,0c-0.414,0 -0.75,-0.336 -0.75,-0.75c0,-0.414 0.336,-0.75 0.75,-0.75l3.25,0l0,-3.25c0,-0.414 0.336,-0.75 0.75,-0.75c0.414,0 0.75,0.336 0.75,0.75l0,3.25l3.373,0c0.414,0 0.75,0.336 0.75,0.75c0,0.414 -0.336,0.75 -0.75,0.75l-3.373,0Zm-11.75,-8.11c0,3.34 1.379,5.36 3.189,5.36c1.783,0 3.311,-2.208 3.311,-5.36c0,-0.792 -1.026,-1.14 -3.311,-1.14c-2.283,0 -3.189,0.315 -3.189,1.14Zm-2.756,14.86c-1.548,0 -2.617,-1.269 -2.365,-2.784c0.02,-0.875 0.354,-2.091 1.291,-3.301c0.574,-0.742 1.327,-1.383 2.271,-1.894c0.365,-0.197 0.82,-0.062 1.017,0.303c0.197,0.364 0.061,0.819 -0.303,1.016c-0.76,0.411 -1.352,0.916 -1.799,1.494c-0.428,0.552 -0.704,1.143 -0.858,1.733c-0.09,0.344 -0.119,0.601 -0.12,0.724l-0.013,0.138c-0.12,0.621 0.25,1.071 0.879,1.071l12.012,0c0.414,0 0.75,0.336 0.75,0.75c0,0.414 -0.336,0.75 -0.75,0.75l-12.012,0Z" style="fill-rule:nonzero;"/></svg>
