<svg width="26" height="26" viewBox="0 0 26 26" fill="none" xmlns="http://www.w3.org/2000/svg">
<path fill-rule="evenodd" clip-rule="evenodd" d="M6.75 7.5C6.75 7.08579 7.08579 6.75 7.5 6.75H14.5C14.9142 6.75 15.25 7.08579 15.25 7.5C15.25 7.91421 14.9142 8.25 14.5 8.25H7.5C7.08579 8.25 6.75 7.91421 6.75 7.5Z" fill="#333333"/>
<path fill-rule="evenodd" clip-rule="evenodd" d="M6.75 10.5C6.75 10.0858 7.08579 9.75 7.5 9.75H14.5C14.9142 9.75 15.25 10.0858 15.25 10.5C15.25 10.9142 14.9142 11.25 14.5 11.25H7.5C7.08579 11.25 6.75 10.9142 6.75 10.5Z" fill="#333333"/>
<path fill-rule="evenodd" clip-rule="evenodd" d="M6.75 13.5C6.75 13.0858 7.08579 12.75 7.5 12.75H11.5C11.9142 12.75 12.25 13.0858 12.25 13.5C12.25 13.9142 11.9142 14.25 11.5 14.25H7.5C7.08579 14.25 6.75 13.9142 6.75 13.5Z" fill="#333333"/>
<path fill-rule="evenodd" clip-rule="evenodd" d="M3.75 5.5C3.75 3.98122 4.98122 2.75 6.5 2.75H16.5C18.0188 2.75 19.25 3.98122 19.25 5.5V16.5C19.25 18.0188 18.0188 19.25 16.5 19.25H6.5C4.98122 19.25 3.75 18.0188 3.75 16.5V5.5ZM6.5 4.25C5.80964 4.25 5.25 4.80964 5.25 5.5V16.5C5.25 17.1904 5.80964 17.75 6.5 17.75H16.5C17.1904 17.75 17.75 17.1904 17.75 16.5V5.5C17.75 4.80964 17.1904 4.25 16.5 4.25H6.5Z" fill="#333333"/>
<path fill-rule="evenodd" clip-rule="evenodd" d="M20.1875 8.5C20.1875 8.08579 20.5233 7.75 20.9375 7.75H21.5C21.6827 7.75 21.862 7.76792 22.0359 7.80233C22.4422 7.88271 22.7065 8.27728 22.6261 8.68362C22.5457 9.08996 22.1511 9.3542 21.7448 9.27381C21.6662 9.25827 21.5844 9.25 21.5 9.25H20.9375C20.5233 9.25 20.1875 8.91421 20.1875 8.5ZM23.3164 9.37394C23.7227 9.29355 24.1173 9.55779 24.1977 9.96412C24.2321 10.138 24.25 10.3173 24.25 10.5V10.9583C24.25 11.3725 23.9142 11.7083 23.5 11.7083C23.0858 11.7083 22.75 11.3725 22.75 10.9583V10.5C22.75 10.4156 22.7417 10.3338 22.7262 10.2552C22.6458 9.84889 22.91 9.45432 23.3164 9.37394ZM23.5 12.9583C23.9142 12.9583 24.25 13.2941 24.25 13.7083V14.625C24.25 15.0392 23.9142 15.375 23.5 15.375C23.0858 15.375 22.75 15.0392 22.75 14.625V13.7083C22.75 13.2941 23.0858 12.9583 23.5 12.9583ZM23.5 16.625C23.9142 16.625 24.25 16.9608 24.25 17.375V18.2917C24.25 18.7059 23.9142 19.0417 23.5 19.0417C23.0858 19.0417 22.75 18.7059 22.75 18.2917V17.375C22.75 16.9608 23.0858 16.625 23.5 16.625ZM10.5 20.2917C10.9142 20.2917 11.25 20.6275 11.25 21.0417V21.5C11.25 21.5844 11.2583 21.6662 11.2738 21.7448C11.3542 22.1511 11.09 22.5457 10.6836 22.6261C10.2773 22.7065 9.88271 22.4422 9.80233 22.0359C9.76792 21.862 9.75 21.6827 9.75 21.5V21.0417C9.75 20.6275 10.0858 20.2917 10.5 20.2917ZM23.5 20.2917C23.9142 20.2917 24.25 20.6275 24.25 21.0417V21.5C24.25 21.6827 24.2321 21.862 24.1977 22.0359C24.1173 22.4422 23.7227 22.7065 23.3164 22.6261C22.91 22.5457 22.6458 22.1511 22.7262 21.7448C22.7417 21.6662 22.75 21.5844 22.75 21.5V21.0417C22.75 20.6275 23.0858 20.2917 23.5 20.2917ZM11.3739 23.3164C11.4543 22.91 11.8489 22.6458 12.2552 22.7262C12.3338 22.7417 12.4156 22.75 12.5 22.75H13.0625C13.4767 22.75 13.8125 23.0858 13.8125 23.5C13.8125 23.9142 13.4767 24.25 13.0625 24.25H12.5C12.3173 24.25 12.138 24.2321 11.9641 24.1977C11.5578 24.1173 11.2935 23.7227 11.3739 23.3164ZM22.6261 23.3164C22.7065 23.7227 22.4422 24.1173 22.0359 24.1977C21.862 24.2321 21.6827 24.25 21.5 24.25H20.9375C20.5233 24.25 20.1875 23.9142 20.1875 23.5C20.1875 23.0858 20.5233 22.75 20.9375 22.75H21.5C21.5844 22.75 21.6662 22.7417 21.7448 22.7262C22.1511 22.6458 22.5457 22.91 22.6261 23.3164ZM15.6875 23.5C15.6875 23.0858 16.0233 22.75 16.4375 22.75H17.5625C17.9767 22.75 18.3125 23.0858 18.3125 23.5C18.3125 23.9142 17.9767 24.25 17.5625 24.25H16.4375C16.0233 24.25 15.6875 23.9142 15.6875 23.5Z" fill="#333333"/>
</svg>
