<svg width="8" height="23" viewBox="0 0 8 23" fill="none" xmlns="http://www.w3.org/2000/svg">
    <path d="M2.75 1.5C2.75 2.19036 2.19036 2.75 1.5 2.75C0.809644 2.75 0.25 2.19036 0.25 1.5C0.25 0.809644 0.809644 0.25 1.5 0.25C2.19036 0.25 2.75 0.809644 2.75 1.5Z" fill="#333333"/>
    <path d="M7.75 4.5C7.75 5.19036 7.19036 5.75 6.5 5.75C5.80964 5.75 5.25 5.19036 5.25 4.5C5.25 3.80964 5.80964 3.25 6.5 3.25C7.19036 3.25 7.75 3.80964 7.75 4.5Z" fill="#333333"/>
    <path d="M7.75 9.5C7.75 10.1904 7.19036 10.75 6.5 10.75C5.80964 10.75 5.25 10.1904 5.25 9.5C5.25 8.80964 5.80964 8.25 6.5 8.25C7.19036 8.25 7.75 8.80964 7.75 9.5Z" fill="#333333"/>
    <path d="M7.75 14.5C7.75 15.1904 7.19036 15.75 6.5 15.75C5.80964 15.75 5.25 15.1904 5.25 14.5C5.25 13.8096 5.80964 13.25 6.5 13.25C7.19036 13.25 7.75 13.8096 7.75 14.5Z" fill="#333333"/>
    <path d="M7.75 19.5C7.75 20.1904 7.19036 20.75 6.5 20.75C5.80964 20.75 5.25 20.1904 5.25 19.5C5.25 18.8096 5.80964 18.25 6.5 18.25C7.19036 18.25 7.75 18.8096 7.75 19.5Z" fill="#333333"/>
    <path d="M2.75 6.5C2.75 7.19036 2.19036 7.75 1.5 7.75C0.809644 7.75 0.25 7.19036 0.25 6.5C0.25 5.80964 0.809644 5.25 1.5 5.25C2.19036 5.25 2.75 5.80964 2.75 6.5Z" fill="#333333"/>
    <path d="M2.75 11.5C2.75 12.1904 2.19036 12.75 1.5 12.75C0.809644 12.75 0.25 12.1904 0.25 11.5C0.25 10.8096 0.809644 10.25 1.5 10.25C2.19036 10.25 2.75 10.8096 2.75 11.5Z" fill="#333333"/>
    <path d="M2.75 16.5C2.75 17.1904 2.19036 17.75 1.5 17.75C0.809644 17.75 0.25 17.1904 0.25 16.5C0.25 15.8096 0.809644 15.25 1.5 15.25C2.19036 15.25 2.75 15.8096 2.75 16.5Z" fill="#333333"/>
    <path d="M2.75 21.5C2.75 22.1904 2.19036 22.75 1.5 22.75C0.809644 22.75 0.25 22.1904 0.25 21.5C0.25 20.8096 0.809644 20.25 1.5 20.25C2.19036 20.25 2.75 20.8096 2.75 21.5Z" fill="#333333"/>
</svg>
