<svg width="26" height="26" viewBox="0 0 26 26" fill="none" xmlns="http://www.w3.org/2000/svg">
    <path fill-rule="evenodd" clip-rule="evenodd" d="M5.25146 15.8633C6.14304 12.4779 9.06917 9.80827 12.0228 9.80827C12.437 9.80828 12.7728 10.1441 12.7728 10.5583C12.7728 10.9725 12.437 11.3083 12.0228 11.3083C9.92964 11.3083 7.47035 13.3278 6.702 16.2453C6.1273 18.4275 4.93333 19.8151 3.8749 20.654C3.5772 20.89 3.29058 21.0824 3.03173 21.2373C4.19277 21.9458 5.91673 22.4124 7.7842 22.5064C10.1836 22.6272 12.5225 22.117 13.8546 21.0206C16.2627 19.0387 16.7993 16.7067 15.6514 15.0544C15.344 14.6262 14.6778 13.9684 13.8225 13.7501C13.0464 13.552 11.9297 13.6687 10.5449 15.1364C10.2607 15.4377 9.78599 15.4515 9.48471 15.1672C9.18343 14.883 9.16963 14.4083 9.45388 14.107C11.1323 12.3281 12.7846 11.937 14.1935 12.2967C15.5206 12.6355 16.4538 13.5979 16.8741 14.1853L16.8795 14.1929C18.6816 16.7795 17.5003 19.9628 14.8078 22.1788C13.0604 23.617 10.2762 24.1338 7.70879 24.0045C5.15124 23.8758 2.51119 23.0901 1.08811 21.5979C0.909161 21.4102 0.839833 21.1435 0.904782 20.8924C0.969731 20.6414 1.15974 20.4417 1.40725 20.3644L1.63087 21.0803C1.40725 20.3644 1.40758 20.3643 1.40725 20.3644L1.40598 20.3648L1.42091 20.3597C1.43714 20.354 1.46454 20.3441 1.50182 20.3296C1.57644 20.3005 1.69016 20.2528 1.8326 20.1832C2.11806 20.0438 2.51505 19.8178 2.94317 19.4785C3.79448 18.8038 4.77345 17.6784 5.25146 15.8633ZM1.40598 20.3648C1.40481 20.3652 1.40357 20.3656 1.40391 20.3655L1.405 20.3651L1.40598 20.3648Z" fill="white"/>
    <path fill-rule="evenodd" clip-rule="evenodd" d="M25.5373 8.43125C25.7461 8.78897 25.6254 9.24825 25.2677 9.45706L19.9177 12.58C18.8846 13.1831 17.5802 13.0491 16.6912 12.2487L15.0187 10.7428C14.1713 9.97971 13.8827 8.77276 14.2933 7.70887L16.5816 1.78066C16.7307 1.39424 17.1649 1.2019 17.5513 1.35105C17.9378 1.50021 18.1301 1.93439 17.9809 2.32081L15.6927 8.24901C15.506 8.7326 15.6372 9.28122 16.0224 9.62807L17.6949 11.134C18.099 11.4978 18.6919 11.5587 19.1615 11.2846L24.5115 8.16162C24.8692 7.95281 25.3285 8.07352 25.5373 8.43125Z" fill="white"/>
    <path fill-rule="evenodd" clip-rule="evenodd" d="M17.4691 7.46964C17.762 7.17674 18.2368 7.17674 18.5297 7.46964L19.5297 8.46964C19.8226 8.76253 19.8226 9.2374 19.5297 9.5303C19.2368 9.82319 18.762 9.82319 18.4691 9.5303L17.4691 8.5303C17.1762 8.2374 17.1762 7.76253 17.4691 7.46964Z" fill="white"/>
    <path fill-rule="evenodd" clip-rule="evenodd" d="M18.469 4.46964C18.7619 4.17674 19.2368 4.17674 19.5297 4.46964L22.0297 6.96964C22.3226 7.26253 22.3226 7.7374 22.0297 8.0303C21.7368 8.32319 21.2619 8.32319 20.969 8.0303L18.469 5.53029C18.1761 5.2374 18.1761 4.76253 18.469 4.46964Z" fill="white"/>
</svg>
