<svg width="26" height="26" viewBox="0 0 26 26" fill="none" xmlns="http://www.w3.org/2000/svg">
<path fill-rule="evenodd" clip-rule="evenodd" d="M6.75002 8C6.75002 11.4518 9.54824 14.25 13 14.25C16.4518 14.25 19.25 11.4518 19.25 8C19.25 4.54822 16.4518 1.75 13 1.75C9.54824 1.75 6.75002 4.54822 6.75002 8ZM17.75 8C17.75 10.6234 15.6234 12.75 13 12.75C10.3767 12.75 8.25002 10.6234 8.25002 8C8.25002 5.37665 10.3767 3.25 13 3.25C15.6234 3.25 17.75 5.37665 17.75 8ZM16.4697 24.0303C17.3149 24.8755 18.6852 24.8755 19.5304 24.0303C20.3755 23.1852 20.3755 21.8148 19.5304 20.9697L17.1907 18.63C18.4054 18.1011 19.5136 17.3437 20.4568 16.3923C21.2345 15.6079 21.229 14.3415 20.4446 13.5639C19.6602 12.7862 18.3939 12.7917 17.6162 13.5761C16.3931 14.8099 14.7463 15.5 13 15.5C11.2743 15.5 9.64556 14.8262 8.426 13.6183C7.64123 12.841 6.37492 12.847 5.59761 13.6318C4.8203 14.4165 4.82634 15.6828 5.61111 16.4602C6.16804 17.0118 6.78233 17.498 7.44309 17.9108C7.79439 18.1302 8.25708 18.0234 8.47654 17.6721C8.696 17.3208 8.58913 16.8581 8.23783 16.6386C7.6714 16.2848 7.1446 15.8678 6.66669 15.3944C6.4705 15.2001 6.46899 14.8835 6.66332 14.6873C6.85765 14.4912 7.17422 14.4896 7.37042 14.684C8.87012 16.1694 10.8779 17 13 17C15.1475 17 17.1774 16.1493 18.6814 14.6322C18.8759 14.4361 19.1924 14.4347 19.3885 14.6291C19.5847 14.8235 19.586 15.1401 19.3916 15.3362C18.3355 16.4015 17.0396 17.1824 15.6145 17.6141C15.0722 17.7784 14.901 18.4616 15.3016 18.8623L18.4697 22.0303C18.7291 22.2897 18.7291 22.7103 18.4697 22.9697C18.2103 23.2291 17.7897 23.2291 17.5304 22.9697L13.5304 18.9697C13.2375 18.6768 12.7626 18.6768 12.4697 18.9697L8.46969 22.9697C8.2103 23.2291 7.78974 23.2291 7.53035 22.9697C7.27096 22.7103 7.27096 22.2897 7.53035 22.0303L10.6984 18.8623C10.9913 18.5694 10.9913 18.0945 10.6984 17.8016C10.4055 17.5087 9.93065 17.5087 9.63776 17.8016L6.46969 20.9697C5.62451 21.8148 5.62451 23.1852 6.46969 24.0303C7.31487 24.8755 8.68518 24.8755 9.53035 24.0303L13 20.5607L16.4697 24.0303ZM9.75002 8C9.75002 6.20507 11.2051 4.75 13 4.75C13.4142 4.75 13.75 5.08579 13.75 5.5C13.75 5.91421 13.4142 6.25 13 6.25C12.0335 6.25 11.25 7.0335 11.25 8C11.25 8.9665 12.0335 9.75 13 9.75C13.9665 9.75 14.75 8.9665 14.75 8C14.75 7.61984 14.6294 7.2599 14.4086 6.96121C14.1623 6.62813 14.2327 6.15851 14.5658 5.91228C14.8989 5.66605 15.3685 5.73645 15.6148 6.06954C16.0248 6.62421 16.25 7.29608 16.25 8C16.25 9.79493 14.7949 11.25 13 11.25C11.2051 11.25 9.75002 9.79493 9.75002 8Z" fill="#FF9800"/>
<mask id="mask0" mask-type="alpha" maskUnits="userSpaceOnUse" x="5" y="1" width="17" height="24">
<path fill-rule="evenodd" clip-rule="evenodd" d="M6.75002 8C6.75002 11.4518 9.54824 14.25 13 14.25C16.4518 14.25 19.25 11.4518 19.25 8C19.25 4.54822 16.4518 1.75 13 1.75C9.54824 1.75 6.75002 4.54822 6.75002 8ZM17.75 8C17.75 10.6234 15.6234 12.75 13 12.75C10.3767 12.75 8.25002 10.6234 8.25002 8C8.25002 5.37665 10.3767 3.25 13 3.25C15.6234 3.25 17.75 5.37665 17.75 8ZM16.4697 24.0303C17.3149 24.8755 18.6852 24.8755 19.5304 24.0303C20.3755 23.1852 20.3755 21.8148 19.5304 20.9697L17.1907 18.63C18.4054 18.1011 19.5136 17.3437 20.4568 16.3923C21.2345 15.6079 21.229 14.3415 20.4446 13.5639C19.6602 12.7862 18.3939 12.7917 17.6162 13.5761C16.3931 14.8099 14.7463 15.5 13 15.5C11.2743 15.5 9.64556 14.8262 8.426 13.6183C7.64123 12.841 6.37492 12.847 5.59761 13.6318C4.8203 14.4165 4.82634 15.6828 5.61111 16.4602C6.16804 17.0118 6.78233 17.498 7.44309 17.9108C7.79439 18.1302 8.25708 18.0234 8.47654 17.6721C8.696 17.3208 8.58913 16.8581 8.23783 16.6386C7.6714 16.2848 7.1446 15.8678 6.66669 15.3944C6.4705 15.2001 6.46899 14.8835 6.66332 14.6873C6.85765 14.4912 7.17422 14.4896 7.37042 14.684C8.87012 16.1694 10.8779 17 13 17C15.1475 17 17.1774 16.1493 18.6814 14.6322C18.8759 14.4361 19.1924 14.4347 19.3885 14.6291C19.5847 14.8235 19.586 15.1401 19.3916 15.3362C18.3355 16.4015 17.0396 17.1824 15.6145 17.6141C15.0722 17.7784 14.901 18.4616 15.3016 18.8623L18.4697 22.0303C18.7291 22.2897 18.7291 22.7103 18.4697 22.9697C18.2103 23.2291 17.7897 23.2291 17.5304 22.9697L13.5304 18.9697C13.2375 18.6768 12.7626 18.6768 12.4697 18.9697L8.46969 22.9697C8.2103 23.2291 7.78974 23.2291 7.53035 22.9697C7.27096 22.7103 7.27096 22.2897 7.53035 22.0303L10.6984 18.8623C10.9913 18.5694 10.9913 18.0945 10.6984 17.8016C10.4055 17.5087 9.93065 17.5087 9.63776 17.8016L6.46969 20.9697C5.62451 21.8148 5.62451 23.1852 6.46969 24.0303C7.31487 24.8755 8.68518 24.8755 9.53035 24.0303L13 20.5607L16.4697 24.0303ZM9.75002 8C9.75002 6.20507 11.2051 4.75 13 4.75C13.4142 4.75 13.75 5.08579 13.75 5.5C13.75 5.91421 13.4142 6.25 13 6.25C12.0335 6.25 11.25 7.0335 11.25 8C11.25 8.9665 12.0335 9.75 13 9.75C13.9665 9.75 14.75 8.9665 14.75 8C14.75 7.61984 14.6294 7.2599 14.4086 6.96121C14.1623 6.62813 14.2327 6.15851 14.5658 5.91228C14.8989 5.66605 15.3685 5.73645 15.6148 6.06954C16.0248 6.62421 16.25 7.29608 16.25 8C16.25 9.79493 14.7949 11.25 13 11.25C11.2051 11.25 9.75002 9.79493 9.75002 8Z" fill="white"/>
</mask>
<g mask="url(#mask0)">
</g>
</svg>
