<svg xmlns="http://www.w3.org/2000/svg" width="26" height="26" fill="none"><path d="M18.5 14.25h-10a.75.75 0 010-1.5h10a.75.75 0 010 1.5z" fill="#FF8901"/><path fill-rule="evenodd" clip-rule="evenodd" d="M15.97 23.727a3.493 3.493 0 01-4.94 0L3.273 15.97a3.493 3.493 0 010-4.94l7.757-7.757a3.493 3.493 0 014.94 0l7.757 7.757a3.493 3.493 0 010 4.94l-7.757 7.757zm-1.061-1.06l7.757-7.758a1.993 1.993 0 000-2.818L14.91 4.334a1.993 1.993 0 00-2.818 0L4.334 12.09a1.993 1.993 0 000 2.818l7.757 7.757c.778.779 2.04.779 2.818 0z" fill="#FF8901"/></svg>