<svg xmlns="http://www.w3.org/2000/svg" width="26" height="26" fill="none"><path fill-rule="evenodd" clip-rule="evenodd" d="M6.75 12.5c0-.966.784-1.75 1.75-1.75h9c.966 0 1.75.784 1.75 1.75v1a1.75 1.75 0 01-1.75 1.75h-9a1.75 1.75 0 01-1.75-1.75v-1zm1.75-.25a.25.25 0 00-.25.25v1c0 .138.112.25.25.25h9a.25.25 0 00.25-.25v-1a.25.25 0 00-.25-.25h-9z M2.25 13C2.25 7.063 7.063 2.25 13 2.25S23.75 7.063 23.75 13 18.937 23.75 13 23.75 2.25 18.937 2.25 13zM13 3.75a9.25 9.25 0 100 18.5 9.25 9.25 0 000-18.5z" fill="#E13328"/></svg>