<svg xmlns="http://www.w3.org/2000/svg" width="26" height="26" viewBox="0 0 26 26"><path fill="#333" d="M3.75 12.5c0-.966.784-1.75 1.75-1.75h2c.966 0 1.75.784 1.75 1.75v2a1.75 1.75 0 0 1-1.75 1.75h-2a1.75 1.75 0 0 1-1.75-1.75v-2zm1.75-.25a.25.25 0 0 0-.25.25v2c0 .138.112.25.25.25h2a.25.25 0 0 0 .25-.25v-2a.25.25 0 0 0-.25-.25h-2zM3.75 19.5c0-.966.784-1.75 1.75-1.75h2c.966 0 1.75.784 1.75 1.75v2a1.75 1.75 0 0 1-1.75 1.75h-2a1.75 1.75 0 0 1-1.75-1.75v-2zm1.75-.25a.25.25 0 0 0-.25.25v2c0 .138.112.25.25.25h2a.25.25 0 0 0 .25-.25v-2a.25.25 0 0 0-.25-.25h-2zM12.25 4.5a.75.75 0 0 1 .75-.75h9.5a.75.75 0 0 1 0 1.5H13a.75.75 0 0 1-.75-.75zM9.96 2.908a.75.75 0 0 1 .132 1.052l-3.5 4.5a.75.75 0 0 1-1.06.126l-2.5-2a.75.75 0 0 1 .937-1.172L5.875 6.94l3.033-3.9a.75.75 0 0 1 1.052-.131zM12.25 7.5a.75.75 0 0 1 .75-.75h4.5a.75.75 0 0 1 0 1.5H13a.75.75 0 0 1-.75-.75zM12.25 11.5a.75.75 0 0 1 .75-.75h9.5a.75.75 0 0 1 0 1.5H13a.75.75 0 0 1-.75-.75zM12.25 14.5a.75.75 0 0 1 .75-.75h4.5a.75.75 0 0 1 0 1.5H13a.75.75 0 0 1-.75-.75zM12.25 18.5a.75.75 0 0 1 .75-.75h9.5a.75.75 0 0 1 0 1.5H13a.75.75 0 0 1-.75-.75zM12.25 21.5a.75.75 0 0 1 .75-.75h4.5a.75.75 0 0 1 0 1.5H13a.75.75 0 0 1-.75-.75z" /></svg>
