<svg width="26" height="26" viewBox="0 0 26 26" fill="none" xmlns="http://www.w3.org/2000/svg">
<path fill-rule="evenodd" clip-rule="evenodd" d="M6.10038 16.394C6.71402 17.2032 7.69054 17.7234 9.07479 17.9633C9.48292 18.0341 9.75642 18.4223 9.68568 18.8304C9.61493 19.2385 9.22673 19.512 8.8186 19.4413C6.47894 19.0357 4.90456 17.8866 4.20179 16.0153C4.06958 15.6632 4.2192 15.2932 4.50922 15.1132C3.34823 14.1503 2.75625 12.9096 2.78026 11.4166C2.78661 11.022 3.0883 10.7241 3.44482 10.6828C2.46558 9.03618 2.44432 7.37137 3.4362 5.77057C3.71894 5.31426 4.37553 5.29406 4.68578 5.73212C6.13605 7.77982 8.06897 9.1997 10.0168 9.88722C10.7732 10.1542 11.4662 10.2796 11.9503 10.2606C12.0096 10.2582 12.0624 10.2538 12.1077 10.248C12.1613 7.09261 14.0293 4.75 17.6041 4.75C18.7726 4.75 19.8738 5.18193 20.7212 5.94164C20.7478 5.93295 20.7765 5.9232 20.8072 5.9124C21.1278 5.79932 21.6029 5.59187 22.2239 5.29228C22.597 5.11229 23.0453 5.26882 23.2253 5.64188C23.4053 6.01495 23.2487 6.46328 22.8757 6.64327C20.9433 7.57555 20.4079 7.76437 19.8974 7.2304C19.3021 6.60782 18.4826 6.25 17.6041 6.25C14.8549 6.25 13.5568 7.9821 13.6079 10.5279C13.6371 11.9827 11.6668 12.0603 9.5176 11.3017C7.63257 10.6364 5.78009 9.38793 4.26587 7.62832C4.02262 8.76259 4.5022 9.93123 5.76057 11.2176C6.22504 11.6924 5.88864 12.4921 5.22443 12.4921C4.94668 12.4921 4.67536 12.4729 4.4108 12.4344C4.71164 13.4344 5.53574 14.2236 6.94488 14.8357C7.60852 15.124 7.51948 16.0921 6.81439 16.2545C6.57168 16.3104 6.33369 16.3569 6.10038 16.394ZM22.8109 9.1195L22.2764 9.58972V9.80687V10.543C22.2764 17.4559 16.6724 23.06 9.75943 23.06C7.26739 23.06 4.181 22.2752 2.31019 21.1119C1.95843 20.8932 1.85058 20.4308 2.0693 20.079C2.28802 19.7272 2.75048 19.6194 3.10224 19.8381C4.72126 20.8448 7.53392 21.56 9.75943 21.56C15.8439 21.56 20.7764 16.6275 20.7764 10.543V9.25061C20.7764 9.03504 20.8692 8.82989 21.031 8.6875L21.8201 7.99329C22.1311 7.71969 22.605 7.75001 22.8786 8.06101C23.1522 8.372 23.1219 8.8459 22.8109 9.1195Z" fill="#00A2F4"/>
</svg>
