<svg width="26" height="26" viewBox="0 0 26 26" fill="none" xmlns="http://www.w3.org/2000/svg">
    <path fill-rule="evenodd" clip-rule="evenodd" d="M5.5 3.75C3.98122 3.75 2.75 4.98122 2.75 6.5V16.5C2.75 18.0188 3.98122 19.25 5.5 19.25H9.5C9.91421 19.25 10.25 18.9142 10.25 18.5C10.25 18.0858 9.91421 17.75 9.5 17.75H5.5C5.45876 17.75 5.41799 17.748 5.37778 17.7441L11.5103 12.0496C11.6632 11.9077 11.75 11.7085 11.75 11.5C11.75 11.2914 11.6632 11.0923 11.5103 10.9504L5.3778 5.2559C5.41801 5.252 5.45877 5.25 5.5 5.25H20.5C20.5245 5.25 20.5488 5.2507 20.5729 5.25209L17.5061 7.93555C17.1944 8.20831 17.1628 8.68213 17.4356 8.99386C17.7083 9.30558 18.1822 9.33717 18.4939 9.06441L21.7227 6.23914C21.7406 6.32328 21.75 6.41054 21.75 6.5V9.5C21.75 9.91421 22.0858 10.25 22.5 10.25C22.9142 10.25 23.25 9.91421 23.25 9.5V6.5C23.25 4.98122 22.0188 3.75 20.5 3.75H5.5ZM4.27029 6.27446C4.25696 6.34762 4.25 6.42299 4.25 6.5V16.5C4.25 16.577 4.25696 16.6524 4.27029 16.7255L9.89779 11.5L4.27029 6.27446ZM11.75 16.5C11.75 13.0482 14.5482 10.25 18 10.25C21.4518 10.25 24.25 13.0482 24.25 16.5C24.25 19.9518 21.4518 22.75 18 22.75C14.5482 22.75 11.75 19.9518 11.75 16.5ZM18 11.75C15.3766 11.75 13.25 13.8766 13.25 16.5C13.25 17.2999 13.4477 18.0535 13.7969 18.7148L21.3024 13.0858C20.4476 12.2588 19.2832 11.75 18 11.75ZM18 21.25C16.7168 21.25 15.5524 20.7412 14.6977 19.9143L22.2031 14.2852C22.5523 14.9465 22.75 15.7002 22.75 16.5C22.75 19.1234 20.6234 21.25 18 21.25Z" fill="#333333"/>
</svg>
