<svg width="26" height="26" viewBox="0 0 26 26" fill="none" xmlns="http://www.w3.org/2000/svg">
<path fill-rule="evenodd" clip-rule="evenodd" d="M14 4.25C11.1005 4.25 8.75 6.60051 8.75 9.5C8.75 11.4654 9.82966 13.1796 11.4318 14.0802C11.7853 14.2789 11.9168 14.7225 11.7288 15.0818L8.23901 21.75H9.83587L13.2889 15.1521C13.4193 14.903 13.678 14.7477 13.9591 14.7498L14 14.75H15C15.4142 14.75 15.75 15.0858 15.75 15.5V22.5C15.75 22.9142 15.4142 23.25 15 23.25C14.5858 23.25 14.25 22.9142 14.25 22.5V16.5505L10.9544 22.8478C10.825 23.095 10.5689 23.25 10.2899 23.25H7C6.7376 23.25 6.49427 23.1129 6.35839 22.8884C6.22251 22.6639 6.21383 22.3847 6.3355 22.1522L10.0807 14.9961C8.36821 13.7728 7.25 11.7674 7.25 9.5C7.25 5.77208 10.2721 2.75 14 2.75H17.75C18.1642 2.75 18.5 3.08579 18.5 3.5V22.5C18.5 22.9142 18.1642 23.25 17.75 23.25C17.3358 23.25 17 22.9142 17 22.5V4.25H14Z" fill="#FF050B"/>
<path fill-rule="evenodd" clip-rule="evenodd" d="M11.5665 6.44987C12.4217 5.6958 13.6129 5.30505 15 5.30505C15.4142 5.30505 15.75 5.64084 15.75 6.05505V13.1803C15.75 13.5945 15.4142 13.9303 15 13.9303C12.4416 13.9303 10.25 12.044 10.25 9.5C10.25 8.28542 10.7025 7.21167 11.5665 6.44987ZM12.5585 7.57497C12.0475 8.02557 11.75 8.6743 11.75 9.5C11.75 10.869 12.7786 12.051 14.25 12.3548V6.85677C13.515 6.96332 12.9534 7.22681 12.5585 7.57497Z" fill="#FF050B"/>
</svg>
