<svg xmlns="http://www.w3.org/2000/svg" width="24" height="24" fill="none" viewBox="0 0 24 24"><path fill="#333" fill-rule="evenodd" d="M15.111 2.111a.55.55 0 0 1 .778 0l3 3a.55.55 0 0 1 0 .778l-3 3a.55.55 0 1 1-.778-.778L17.722 5.5l-2.61-2.611a.55.55 0 0 1 0-.778z" clip-rule="evenodd"/><path fill="#333" fill-rule="evenodd" d="M4.875 9.5A4.625 4.625 0 0 1 9.5 4.875H18a.625.625 0 1 1 0 1.25H9.5A3.375 3.375 0 0 0 6.125 9.5V12a.625.625 0 1 1-1.25 0V9.5zM8.927 15.113a.55.55 0 0 0-.778-.004l-3.036 3a.55.55 0 0 0 0 .782l3.036 3a.55.55 0 1 0 .773-.782L6.282 18.5l2.64-2.609a.55.55 0 0 0 .005-.778z" clip-rule="evenodd"/><path fill="#333" fill-rule="evenodd" d="M18.5 11.375c.345 0 .625.28.625.625v2.5a4.625 4.625 0 0 1-4.625 4.625H6a.625.625 0 1 1 0-1.25h8.5a3.375 3.375 0 0 0 3.375-3.375V12c0-.345.28-.625.625-.625z" clip-rule="evenodd"/></svg>