<svg xmlns="http://www.w3.org/2000/svg" width="26" height="26" viewBox="0 0 26 26"><path fill="#333" d="M23.5 17.75h-3a2.25 2.25 0 0 1 0-4.5h3a.75.75 0 0 0 .75-.75V9.498a5.756 5.756 0 0 0-5.753-5.748H4.495a2.75 2.75 0 0 0 .003 5.5h15.013a1.236 1.236 0 0 1 1.24 1.24.75.75 0 1 0 1.499.014 2.737 2.737 0 0 0-2.739-2.754H4.498a1.25 1.25 0 0 1-.003-2.5h14.002a4.256 4.256 0 0 1 4.253 4.248v2.252H20.5a3.75 3.75 0 0 0 0 7.5h2.25v.25a3.25 3.25 0 0 1-3.25 3.25l-13 .001a3.247 3.247 0 0 1-3.25-3.246V11.5a.75.75 0 0 0-1.5 0v8.005a4.747 4.747 0 0 0 4.75 4.746h13a4.75 4.75 0 0 0 4.75-4.751v-1a.75.75 0 0 0-.75-.75z M23.503 14.75h-1.915a.75.75 0 0 0 0 1.5h1.915a.75.75 0 0 0 0-1.5z"/></svg>
