<svg xmlns="http://www.w3.org/2000/svg" width="24" height="24" fill="none" viewBox="0 0 24 24"><path fill="#333" fill-rule="evenodd" d="M15.125 10.5c0 .345-.28.625-.625.625l-8 .002a.625.625 0 0 1 0-1.25l8-.002c.345 0 .625.28.625.625z" clip-rule="evenodd"/><path fill="#333" fill-rule="evenodd" d="M10.5 3.125a7.375 7.375 0 1 0 5.657 12.107.625.625 0 0 1 .921-.04l3.864 3.866a2.04 2.04 0 0 1-2.884 2.884l-2-2a.625.625 0 1 1 .884-.884l2 2a.79.79 0 0 0 1.116-1.116l-3.4-3.403a8.625 8.625 0 1 1 2.038-3.344.625.625 0 0 1-1.188-.39 7.375 7.375 0 0 0-7.008-9.68z" clip-rule="evenodd"/></svg>