<svg width="32" height="32" viewBox="0 0 32 32" fill="none" xmlns="http://www.w3.org/2000/svg">
    <g opacity="0.6">
        <path d="M17.8461 7.69231H14.1538C13.644 7.69231 13.2308 7.27903 13.2308 6.76923C13.2308 6.25943 13.644 5.84615 14.1538 5.84615H17.8461C18.3559 5.84615 18.7692 6.25943 18.7692 6.76923C18.7692 7.27903 18.3559 7.69231 17.8461 7.69231Z" fill="#373A59"/>
        <path fill-rule="evenodd" clip-rule="evenodd" d="M20.3077 3.38461C22.177 3.38461 23.6923 4.89996 23.6923 6.76923V24C23.6923 25.8693 22.177 27.3846 20.3077 27.3846H11.6923C9.82302 27.3846 8.30768 25.8693 8.30768 24V6.76923C8.30768 4.89996 9.82302 3.38461 11.6923 3.38461H20.3077ZM20.3077 5.23077H11.6923C10.8426 5.23077 10.1538 5.91956 10.1538 6.76923V24C10.1538 24.8497 10.8426 25.5385 11.6923 25.5385H20.3077C21.1573 25.5385 21.8461 24.8497 21.8461 24V6.76923C21.8461 5.91956 21.1573 5.23077 20.3077 5.23077Z" fill="#373A59"/>
    </g>
</svg>
