<svg width="26" height="26" viewBox="0 0 26 26" fill="none" xmlns="http://www.w3.org/2000/svg">
    <g opacity="0.6">
        <path fill-rule="evenodd" clip-rule="evenodd" d="M11.5695 15.6515L20.75 6.35531V11.5C20.75 11.9142 21.0858 12.25 21.5 12.25C21.9142 12.25 22.25 11.9142 22.25 11.5V4.5C22.25 4.08579 21.9142 3.75 21.5 3.75H14.5C14.0858 3.75 13.75 4.08579 13.75 4.5C13.75 4.91421 14.0858 5.25 14.5 5.25H19.7334L10.5022 14.5975C10.2112 14.8922 10.2142 15.3671 10.5089 15.6582C10.8036 15.9492 11.2785 15.9462 11.5695 15.6515ZM18.5 14.75C18.0858 14.75 17.75 15.0858 17.75 15.5V19.5C17.75 20.1904 17.1904 20.75 16.5 20.75H6.5C5.80964 20.75 5.25 20.1904 5.25 19.5V9.5C5.25 8.80964 5.80964 8.25 6.5 8.25H10.5C10.9142 8.25 11.25 7.91421 11.25 7.5C11.25 7.08579 10.9142 6.75 10.5 6.75H6.5C4.98122 6.75 3.75 7.98122 3.75 9.5V19.5C3.75 21.0188 4.98122 22.25 6.5 22.25H16.5C18.0188 22.25 19.25 21.0188 19.25 19.5V15.5C19.25 15.0858 18.9142 14.75 18.5 14.75Z" fill="#373A59"/>
    </g>
</svg>
