<svg width="25" height="24" xmlns="http://www.w3.org/2000/svg"><path fill="#333333" d="M3.961 4.091C2.653 4.701 2.125 5.421 2.125 6c0 .58.528 1.298 1.836 1.909 1.257.586 3.038.966 5.039.966 2 0 3.782-.38 5.039-.966 1.308-.61 1.836-1.33 1.836-1.909 0-.58-.528-1.298-1.836-1.909-1.257-.586-3.038-.966-5.039-.966-2 0-3.782.38-5.039.966zM3.432 2.96C4.89 2.279 6.86 1.875 9 1.875c2.141 0 4.11.404 5.568 1.084 1.406.656 2.557 1.687 2.557 3.041 0 1.354-1.151 2.385-2.557 3.041-1.458.68-3.427 1.084-5.568 1.084-2.141 0-4.11-.404-5.568-1.084C2.026 8.385.875 7.354.875 6c0-1.354 1.151-2.385 2.557-3.041z M1.5 5.875c.345 0 .625.28.625.625V11c0 .58.528 1.298 1.836 1.909 1.257.586 3.038.966 5.039.966 2 0 3.782-.38 5.039-.966 1.308-.61 1.836-1.33 1.836-1.909V6.5a.625.625 0 1 1 1.25 0V11c0 1.354-1.151 2.385-2.557 3.041-1.458.68-3.427 1.084-5.568 1.084-2.141 0-4.11-.404-5.568-1.084C2.026 13.385.875 12.354.875 11V6.5c0-.345.28-.625.625-.625z M1.5 10.875c.345 0 .625.28.625.625V16c0 .58.528 1.298 1.836 1.909 1.257.586 3.038.966 5.039.966a.625.625 0 1 1 0 1.25c-2.141 0-4.11-.404-5.568-1.084C2.026 18.385.875 17.354.875 16v-4.5c0-.345.28-.625.625-.625zM19.725 12.417c.241.093.4.325.4.583v2.875H23.5a.625.625 0 0 1 .462 1.045l-5 5.5a.625.625 0 0 1-1.087-.42v-2.875H14.5a.625.625 0 0 1-.463-1.045l5-5.5a.625.625 0 0 1 .688-.163zm-3.812 5.458H18.5c.345 0 .625.28.625.625v1.883l2.962-3.258H19.5a.625.625 0 0 1-.625-.625v-1.883l-2.962 3.258z M3.472 15.766a.625.625 0 0 1 .813-.346c.539.218 1.16.407 1.85.559a.625.625 0 0 1-.27 1.22 12.925 12.925 0 0 1-2.048-.62.625.625 0 0 1-.345-.813zM3.472 10.766a.625.625 0 0 1 .813-.346c.539.218 1.16.407 1.85.559a.625.625 0 0 1-.27 1.22 12.925 12.925 0 0 1-2.048-.62.625.625 0 0 1-.345-.813z"/></svg>
