<svg width="32" height="32" viewBox="0 0 32 32" fill="none" xmlns="http://www.w3.org/2000/svg">
    <g opacity="0.6">
        <path fill-rule="evenodd" clip-rule="evenodd"
              d="M3.38464 9.23078C3.38464 7.3615 4.89999 5.84616 6.76926 5.84616H25.2308C27.1001 5.84616 28.6154 7.3615 28.6154 9.23078V23.7237C28.6154 24.6294 27.5426 25.1072 26.8694 24.5013L18.0963 16.6054C16.8714 17.5729 15.1391 17.575 13.912 16.6119L6.59589 23.0673C6.6528 23.0737 6.71065 23.0769 6.76926 23.0769H16H19.3846H21.5385C22.0483 23.0769 22.4616 23.4902 22.4616 24C22.4616 24.5098 22.0483 24.9231 21.5385 24.9231H19.3846H16H6.76926C4.89999 24.9231 3.38464 23.4077 3.38464 21.5385V9.23078ZM12.5125 15.3846L5.25149 8.97781C5.23788 9.06011 5.2308 9.14462 5.2308 9.23078V21.5385C5.2308 21.6246 5.23788 21.7091 5.25149 21.7914L12.5125 15.3846ZM6.59589 7.70197L14.9822 15.1016C15.5637 15.6148 16.4363 15.6148 17.0179 15.1016L25.4042 7.70197C25.3473 7.69559 25.2894 7.69231 25.2308 7.69231H6.76926C6.71065 7.69231 6.6528 7.69559 6.59589 7.70197ZM26.7486 8.97781L19.4936 15.3793L26.7693 21.9274V9.23078C26.7693 9.14462 26.7622 9.06011 26.7486 8.97781Z"
              fill="#373A59"/>
    </g>
</svg>
