<svg xmlns="http://www.w3.org/2000/svg" width="24" height="24" fill="none" viewBox="0 0 24 24"><path fill="#31B153" fill-rule="evenodd" d="M12 4.05a7.95 7.95 0 1 0 0 15.9 7.95 7.95 0 0 0 0-15.9zM2.95 12a9.05 9.05 0 1 1 18.1 0 9.05 9.05 0 0 1-18.1 0z" clip-rule="evenodd"/><path fill="#31B153" fill-rule="evenodd" d="M10.705 8.44c-.35.262-.655.717-.655 1.56 0 .15.025.302.06.44a.55.55 0 0 1-1.066.27c-.051-.2-.094-.445-.094-.71 0-1.157.444-1.952 1.095-2.44.624-.468 1.378-.61 1.955-.61.577 0 1.33.142 1.955.61.65.488 1.095 1.283 1.095 2.44 0 1.27-.811 2.038-1.456 2.555-.132.105-.25.196-.358.278-.183.139-.334.255-.47.382-.212.198-.216.277-.216.285v1a.55.55 0 1 1-1.1 0v-1c0-.492.309-.85.565-1.09.173-.161.4-.335.613-.498.098-.076.193-.148.278-.217.605-.483 1.044-.965 1.044-1.695 0-.843-.306-1.298-.655-1.56-.376-.282-.872-.39-1.295-.39-.423 0-.92.108-1.295.39z" clip-rule="evenodd"/><path fill="#31B153" d="M12.88 17.005a.875.875 0 1 1-1.75 0 .875.875 0 0 1 1.75 0z"/></svg>