<svg xmlns="http://www.w3.org/2000/svg" width="24" height="24" fill="none" viewBox="0 0 24 24"><path fill="#333" fill-rule="evenodd" d="M6.622 3.393a.55.55 0 0 1 .55-.55h4.242a.55.55 0 0 1 .55.55v4.243a.55.55 0 1 1-1.1 0V3.943H7.172a.55.55 0 0 1-.55-.55z" clip-rule="evenodd"/><path fill="#333" fill-rule="evenodd" d="M5.315 16.563a5.625 5.625 0 0 1 0-7.955l5.304-5.303a.625.625 0 0 1 .884.884L6.199 9.492a4.375 4.375 0 0 0 0 6.187l1 1a.625.625 0 0 1-.884.884l-1-1zM12.614 15.789a.55.55 0 0 0-.553.547l-.025 4.267a.55.55 0 0 0 .553.554l4.268-.026a.55.55 0 0 0-.007-1.1l-3.711.022.022-3.71a.55.55 0 0 0-.547-.554z" clip-rule="evenodd"/><path fill="#333" fill-rule="evenodd" d="M16.447 6.083a.625.625 0 0 1 .884 0l1.354 1.354a5.625 5.625 0 0 1 0 7.955l-5.304 5.303a.625.625 0 1 1-.884-.884l5.304-5.303a4.375 4.375 0 0 0 0-6.187l-1.354-1.354a.625.625 0 0 1 0-.884z" clip-rule="evenodd"/></svg>