<svg width="26" height="26" viewBox="0 0 26 26" fill="none" xmlns="http://www.w3.org/2000/svg">
<g opacity="0.5">
<path fill-rule="evenodd" clip-rule="evenodd" d="M8 13C8 14.1046 7.10457 15 6 15C4.89543 15 4 14.1046 4 13C4 11.8954 4.89543 11 6 11C7.10457 11 8 11.8954 8 13ZM15 13C15 14.1046 14.1045 15 13 15C11.8954 15 11 14.1046 11 13C11 11.8954 11.8954 11 13 11C14.1045 11 15 11.8954 15 13ZM20 15C21.1046 15 22 14.1046 22 13C22 11.8954 21.1046 11 20 11C18.8954 11 18 11.8954 18 13C18 14.1046 18.8954 15 20 15Z" fill="#333333"/>
</g>
</svg>
