<svg width="26" height="26" viewBox="0 0 26 26" fill="none" xmlns="http://www.w3.org/2000/svg">
    <path d="M13.726 4.75V12H13.2755C13.2458 12 13.2169 12.0013 13.1889 12.0039H13.726V12H21.1457C22.1457 12 22.1457 13.5 21.1457 13.5H13.726V13.4953H13.1811C13.2115 13.4984 13.243 13.5 13.2755 13.5H13.726V21.2752C13.726 22.2752 12.226 22.2752 12.226 21.2752V13.5H12.976C13.0085 13.5 13.04 13.4984 13.0704 13.4953H12.226V13.5H4.75C3.75 13.5 3.75 12 4.75 12H12.226V12.0039H13.0626C13.0346 12.0013 13.0057 12 12.976 12H12.226V4.75C12.226 3.75 13.726 3.75 13.726 4.75Z" fill="black"/>
</svg>
