<svg width="24" height="24" fill="none" xmlns="http://www.w3.org/2000/svg"><path fill-rule="evenodd" clip-rule="evenodd" d="M20.411 6.53c.26.227.287.621.06.881l-8.198 9.381a.625.625 0 0 1-.934.009l-3.802-4.19a.625.625 0 1 1 .926-.84l3.33 3.67L19.53 6.59a.625.625 0 0 1 .882-.06z" fill="#333"/><path fill-rule="evenodd" clip-rule="evenodd" d="M17.411 6.53c.26.227.287.621.06.881l-5.618 6.429a.625.625 0 1 1-.941-.823l5.617-6.428a.625.625 0 0 1 .882-.06zM4.58 11.727a.625.625 0 0 1 .883.043l3.346 3.687a.625.625 0 0 1 .813.935l-.349.4a.625.625 0 0 1-.933.008l-3.803-4.19a.625.625 0 0 1 .043-.883z" fill="#333"/></svg>