<svg width="26" height="26" viewBox="0 0 26 26" fill="none" xmlns="http://www.w3.org/2000/svg">
    <path fill-rule="evenodd" clip-rule="evenodd" d="M13 6.625C13.4832 6.625 13.875 7.01675 13.875 7.5V18.5C13.875 18.9832 13.4832 19.375 13 19.375C12.5168 19.375 12.125 18.9832 12.125 18.5V7.5C12.125 7.01675 12.5168 6.625 13 6.625Z" fill="white"/>
    <path fill-rule="evenodd" clip-rule="evenodd" d="M19.375 13C19.375 13.4833 18.9832 13.875 18.5 13.875L7.5 13.875C7.01675 13.875 6.625 13.4832 6.625 13C6.625 12.5167 7.01675 12.125 7.5 12.125L18.5 12.125C18.9832 12.125 19.375 12.5168 19.375 13Z" fill="white"/>
    <path fill-rule="evenodd" clip-rule="evenodd" d="M13 3.25C7.61522 3.25 3.25 7.61522 3.25 13C3.25 18.3848 7.61522 22.75 13 22.75C18.3848 22.75 22.75 18.3848 22.75 13C22.75 7.61522 18.3848 3.25 13 3.25ZM1.75 13C1.75 6.7868 6.7868 1.75 13 1.75C19.2132 1.75 24.25 6.7868 24.25 13C24.25 19.2132 19.2132 24.25 13 24.25C6.7868 24.25 1.75 19.2132 1.75 13Z" fill="white"/>
</svg>
