<svg width="26" height="26" viewBox="0 0 26 26" fill="none" xmlns="http://www.w3.org/2000/svg">
<path fill-rule="evenodd" clip-rule="evenodd" d="M13 4.75C8.44365 4.75 4.75 8.44365 4.75 13C4.75 17.5563 8.44365 21.25 13 21.25C17.5563 21.25 21.25 17.5563 21.25 13C21.25 12.747 21.2386 12.4969 21.2164 12.25H13.75V13.75H18.811C19.0428 13.75 19.2617 13.8572 19.4037 14.0405C19.5458 14.2237 19.5951 14.4624 19.5373 14.6869C18.788 17.5981 16.1463 19.75 13 19.75C9.27208 19.75 6.25 16.7279 6.25 13C6.25 9.27208 9.27208 6.25 13 6.25C14.4987 6.25 15.8853 6.73933 17.0059 7.56669C17.3391 7.81273 17.4098 8.28232 17.1637 8.61554C16.9177 8.94876 16.4481 9.01944 16.1149 8.77339C15.2436 8.13005 14.1673 7.75 13 7.75C10.1005 7.75 7.75 10.1005 7.75 13C7.75 15.8995 10.1005 18.25 13 18.25C15.0936 18.25 16.9023 17.024 17.745 15.25H13C12.5858 15.25 12.25 14.9142 12.25 14.5V11.5C12.25 11.0858 12.5858 10.75 13 10.75H21.8756C22.2419 10.75 22.5546 11.0146 22.6152 11.3759C22.7039 11.9046 22.75 12.4472 22.75 13C22.75 18.3848 18.3848 22.75 13 22.75C7.61522 22.75 3.25 18.3848 3.25 13C3.25 7.61522 7.61522 3.25 13 3.25C15.3811 3.25 17.5646 4.10453 19.2577 5.52282C19.5752 5.78882 19.617 6.26185 19.351 6.57937C19.085 6.89689 18.6119 6.93866 18.2944 6.67267C16.8613 5.47213 15.016 4.75 13 4.75Z" fill="#4285F4"/>
</svg>
