<svg width="24" height="24" fill="none" xmlns="http://www.w3.org/2000/svg"><path d="M5.5 2.875a.625.625 0 100 1.25h11.375v2.908c0 .733-.338 1.424-.917 1.874l-2.327 1.81a1.625 1.625 0 000 2.566l2.327 1.81c.579.45.917 1.141.917 1.874V18a.625.625 0 101.25 0v-1.033a3.625 3.625 0 00-1.4-2.861l-2.326-1.81a.375.375 0 010-.592l2.327-1.81a3.625 3.625 0 001.399-2.861V4.125h.375a.625.625 0 100-1.25h-13z" fill="#333"/><path d="M7.125 6a.625.625 0 10-1.25 0v1.033c0 1.118.516 2.174 1.4 2.861l2.326 1.81a.375.375 0 010 .592l-2.327 1.81a3.625 3.625 0 00-1.399 2.861v2.908H5.5a.625.625 0 100 1.25h13a.625.625 0 100-1.25h-2.888a.625.625 0 00-.212-.355l-3-2.5a.625.625 0 00-.8 0l-3 2.5a.624.624 0 00-.212.355H7.125v-2.908c0-.733.338-1.424.917-1.874l2.327-1.81a1.625 1.625 0 000-2.566l-2.327-1.81a2.375 2.375 0 01-.917-1.874V6z" fill="#333"/><path d="M12.4 10.48l3-2.5a.625.625 0 00-.4-1.105H9a.625.625 0 00-.4 1.105l3 2.5a.625.625 0 00.8 0z" fill="#333"/></svg>