<svg xmlns="http://www.w3.org/2000/svg" width="24" height="24" fill="none" viewBox="0 0 24 24"><path fill="#29BC50" fill-rule="evenodd" d="M12 4.05a7.95 7.95 0 1 0 0 15.9 7.95 7.95 0 0 0 0-15.9zM2.95 12a9.05 9.05 0 1 1 18.1 0 9.05 9.05 0 0 1-18.1 0z" clip-rule="evenodd"/><path fill="#29BC50" fill-rule="evenodd" d="M16.625 12c0 .345-.28.625-.625.625l-8 .002a.625.625 0 0 1 0-1.25l8-.002c.345 0 .625.28.625.625z" clip-rule="evenodd"/><path fill="#29BC50" fill-rule="evenodd" d="M12 7.375c.345 0 .625.28.625.625v8a.625.625 0 1 1-1.25 0V8c0-.345.28-.625.625-.625z" clip-rule="evenodd"/></svg>