<svg xmlns="http://www.w3.org/2000/svg" width="24" height="24" fill="none" viewBox="0 0 24 24"><path fill="#333" fill-rule="evenodd" d="M9.611 2.611a.55.55 0 0 1 .778 0l2.5 2.5a.55.55 0 0 1 0 .778l-2.5 2.5a.55.55 0 1 1-.778-.778L11.722 5.5l-2.11-2.111a.55.55 0 0 1 0-.778z" clip-rule="evenodd"/><path fill="#333" fill-rule="evenodd" d="M3.875 8.5A3.625 3.625 0 0 1 7.5 4.875h4a.625.625 0 1 1 0 1.25h-4A2.375 2.375 0 0 0 5.125 8.5v4a.625.625 0 1 1-1.25 0v-4zM14.389 15.611a.55.55 0 0 0-.778 0l-2.5 2.5a.55.55 0 0 0 0 .778l2.5 2.5a.55.55 0 1 0 .778-.778L12.278 18.5l2.11-2.111a.55.55 0 0 0 0-.778z" clip-rule="evenodd"/><path fill="#333" fill-rule="evenodd" d="M19.5 10.875c.345 0 .625.28.625.625v4a3.625 3.625 0 0 1-3.625 3.625h-4a.625.625 0 1 1 0-1.25h4a2.375 2.375 0 0 0 2.375-2.375v-4c0-.345.28-.625.625-.625zM15.875 5.5a2.625 2.625 0 1 1 5.25 0 2.625 2.625 0 0 1-5.25 0zM18.5 4.125a1.375 1.375 0 1 0 0 2.75 1.375 1.375 0 0 0 0-2.75zM2.875 18.5a2.625 2.625 0 1 1 5.25 0 2.625 2.625 0 0 1-5.25 0zM5.5 17.125a1.375 1.375 0 1 0 0 2.75 1.375 1.375 0 0 0 0-2.75z" clip-rule="evenodd"/></svg>