<svg width="26" height="26" viewBox="0 0 26 26" fill="none" xmlns="http://www.w3.org/2000/svg">
<path d="M6.49731 4.25C5.80564 4.25077 5.25 4.80877 5.25 5.49509V20.5049C5.25 21.1942 5.807 21.75 6.49188 21.75H10.5C10.9142 21.75 11.25 22.0858 11.25 22.5C11.25 22.9142 10.9142 23.25 10.5 23.25H6.49188C4.9766 23.25 3.75 22.0206 3.75 20.5049V5.49509C3.75 3.97817 4.97968 2.75 6.49874 2.75H6.50198L19.5119 2.80612C21.026 2.81265 22.25 4.04194 22.25 5.55609V9C22.25 9.41421 21.9142 9.75 21.5 9.75C21.0858 9.75 20.75 9.41421 20.75 9V5.55609C20.75 4.86784 20.1936 4.30907 19.5054 4.3061L6.49874 4.25L6.49731 4.25Z M20.1 14.95C20.3485 14.6186 20.2814 14.1485 19.95 13.9C19.6186 13.6515 19.1485 13.7186 18.9 14.05L16.4189 17.3582L15.0303 15.9697C14.7374 15.6768 14.2626 15.6768 13.9697 15.9697C13.6768 16.2625 13.6768 16.7374 13.9697 17.0303L15.9697 19.0303C16.1234 19.1841 16.3363 19.2635 16.5532 19.2481C16.77 19.2327 16.9695 19.1239 17.1 18.95L20.1 14.95Z
 M16.5 9.75C12.7721 9.75 9.75 12.7721 9.75 16.5C9.75 20.2279 12.7721 23.25 16.5 23.25C18.0938 23.25 19.5585 22.6976 20.7133 21.7739L23.4697 24.5303C23.7626 24.8232 24.2374 24.8232 24.5303 24.5303C24.8232 24.2374 24.8232 23.7626 24.5303 23.4697L21.7739 20.7133C22.6976 19.5585 23.25 18.0938 23.25 16.5C23.25 12.7721 20.2279 9.75 16.5 9.75ZM11.25 16.5C11.25 13.6005 13.6005 11.25 16.5 11.25C19.3995 11.25 21.75 13.6005 21.75 16.5C21.75 19.3995 19.3995 21.75 16.5 21.75C13.6005 21.75 11.25 19.3995 11.25 16.5Z M7.5 6.75C7.08579 6.75 6.75 7.08579 6.75 7.5C6.75 7.91421 7.08579 8.25 7.5 8.25H18.5C18.9142 8.25 19.25 7.91421 19.25 7.5C19.25 7.08579 18.9142 6.75 18.5 6.75H7.5Z M7.5 9.75C7.08579 9.75 6.75 10.0858 6.75 10.5C6.75 10.9142 7.08579 11.25 7.5 11.25H10.5C10.9142 11.25 11.25 10.9142 11.25 10.5C11.25 10.0858 10.9142 9.75 10.5 9.75H7.5Z M6.75 13.5C6.75 13.0858 7.08579 12.75 7.5 12.75H8.5C8.91421 12.75 9.25 13.0858 9.25 13.5C9.25 13.9142 8.91421 14.25 8.5 14.25H7.5C7.08579 14.25 6.75 13.9142 6.75 13.5Z M7.5 15.75C7.08579 15.75 6.75 16.0858 6.75 16.5C6.75 16.9142 7.08579 17.25 7.5 17.25H8C8.41421 17.25 8.75 16.9142 8.75 16.5C8.75 16.0858 8.41421 15.75 8 15.75H7.5Z" fill="#333333"/>
</svg>
