<svg width="26" height="26" viewBox="0 0 26 26" fill="none" xmlns="http://www.w3.org/2000/svg">
    <path fill-rule="evenodd" clip-rule="evenodd" d="M13 2.25C7.06294 2.25 2.25 7.06294 2.25 13C2.25 18.9371 7.06294 23.75 13 23.75C18.9371 23.75 23.75 18.9371 23.75 13C23.75 7.06294 18.9371 2.25 13 2.25ZM8.00005 11.5C7.44773 11.5 7 11.9478 7.00005 12.5001L7.00013 13.5001C7.00018 14.0523 7.44788 14.5 8.00013 14.5H18.0002C18.5525 14.5 19.0002 14.0523 19.0002 13.5L19.0002 12.5C19.0002 11.9477 18.5525 11.5 18.0002 11.5H8.00005Z" fill="#E13328"/>
</svg>
