<svg width="26" height="26" viewBox="0 0 26 26" fill="none" xmlns="http://www.w3.org/2000/svg">
    <path fill-rule="evenodd" clip-rule="evenodd" d="M8.51072 6.89608L13.0001 10.7606L17.4895 6.88938C17.8032 6.61887 17.8382 6.14529 17.5677 5.8316C17.2972 5.51791 16.8236 5.4829 16.5099 5.7534L13.7497 8.13358L13.7497 2.32249C13.7497 1.90828 13.4139 1.57249 12.9997 1.57249C12.5855 1.57249 12.2497 1.90828 12.2497 2.32249L12.2497 8.13544L9.48931 5.75926C9.17538 5.48903 8.70183 5.52445 8.4316 5.83838C8.16137 6.1523 8.19679 6.62585 8.51072 6.89608ZM4.41603 9.37596C4.18588 9.22253 3.88997 9.20823 3.64611 9.33874C3.40224 9.46926 3.25 9.7234 3.25 10V21C3.25 21.9665 4.0335 22.75 5 22.75H21C21.9665 22.75 22.75 21.9665 22.75 21V10C22.75 9.7234 22.5978 9.46926 22.3539 9.33874C22.11 9.20823 21.8141 9.22253 21.584 9.37596L13 15.0986L4.41603 9.37596ZM4.75 21V11.4014L12.584 16.624C12.8359 16.792 13.1641 16.792 13.416 16.624L21.25 11.4014V21C21.25 21.1381 21.1381 21.25 21 21.25H5C4.86193 21.25 4.75 21.1381 4.75 21Z" fill="#212121"/>
</svg>
