<svg width="32" height="32" viewBox="0 0 32 32" fill="none" xmlns="http://www.w3.org/2000/svg">
    <g opacity="0.6">
        <path d="M17.2104 17.5541C16.7754 17.2881 16.6384 16.72 16.9043 16.285C17.1702 15.8501 17.7384 15.713 18.1734 15.979C19.1783 16.5934 20.333 16.9231 21.5384 16.9231C25.107 16.9231 27.9999 14.0301 27.9999 10.4615C27.9999 6.89292 25.107 3.99999 21.5384 3.99999C17.9698 3.99999 15.0768 6.89292 15.0768 10.4615C15.0768 11.6156 15.379 12.7233 15.9447 13.6986C16.0274 13.8411 16.0677 13.9964 16.0695 14.1501C16.1424 14.4524 16.0609 14.7843 15.825 15.0203C12.4704 18.3753 12.4697 18.376 5.28099 25.5589L5.27632 25.5636C4.8271 26.1144 4.8271 26.4 5.21334 26.7858C5.60016 27.1722 5.88781 27.1722 6.36981 26.7862L6.85595 26.3001C7.01118 26.1448 7.20794 26.0565 7.41046 26.0349C7.73516 25.9202 8.11121 25.9927 8.37103 26.2524L10.1346 28.015C10.2547 28.1351 10.4495 28.1351 10.5698 28.0149L11.5086 27.0778L10.5649 26.134C10.2044 25.7736 10.2044 25.1891 10.5649 24.8286C10.9254 24.4681 11.5098 24.4681 11.8703 24.8286L13.8344 26.7927C13.9432 26.9015 14.1463 26.9009 14.2664 26.7809L14.9784 26.0697C15.1052 25.9431 15.1052 25.7541 14.9828 25.6316L12.0334 22.6818C12.0056 22.654 11.9799 22.6249 11.9564 22.5946C11.9406 22.5808 11.9252 22.5664 11.9102 22.5514C11.5497 22.1909 11.5497 21.6064 11.9102 21.2459L14.8711 18.285C15.2316 17.9245 15.8161 17.9245 16.1765 18.285C16.537 18.6455 16.537 19.2299 16.1765 19.5904L13.8647 21.9023L16.2883 24.3263C17.1317 25.1698 17.1317 26.5282 16.2831 27.3759L15.5711 28.0871C14.8299 28.8273 13.6741 28.917 12.8415 28.3558L11.8743 29.3213C11.033 30.1616 9.66997 30.1612 8.82938 29.3206L7.63425 28.1261L7.60516 28.1549C6.34864 29.1774 4.99528 29.1774 3.90865 28.092C2.82145 27.006 2.82145 25.6525 3.90824 24.3275L14.0899 14.1446C13.5283 13.0111 13.2307 11.7572 13.2307 10.4615C13.2307 5.87332 16.9501 2.15384 21.5384 2.15384C26.1266 2.15384 29.8461 5.87332 29.8461 10.4615C29.8461 15.0497 26.1266 18.7692 21.5384 18.7692C19.9907 18.7692 18.5033 18.3445 17.2104 17.5541Z" fill="#373A59"/>
        <path fill-rule="evenodd" clip-rule="evenodd" d="M21.5384 15.0769C18.9894 15.0769 16.923 13.0105 16.923 10.4615C16.923 7.91252 18.9894 5.84615 21.5384 5.84615C24.0874 5.84615 26.1537 7.91252 26.1537 10.4615C26.1537 13.0105 24.0874 15.0769 21.5384 15.0769ZM21.5384 13.2308C23.0678 13.2308 24.3076 11.9909 24.3076 10.4615C24.3076 8.93213 23.0678 7.6923 21.5384 7.6923C20.009 7.6923 18.7691 8.93213 18.7691 10.4615C18.7691 11.9909 20.009 13.2308 21.5384 13.2308Z" fill="#373A59"/>
    </g>
</svg>
