<svg xmlns="http://www.w3.org/2000/svg" width="24" height="24" fill="none" viewBox="0 0 24 24"><path fill="#1155CC" fill-rule="evenodd" d="M12 4.05a7.95 7.95 0 1 0 0 15.9 7.95 7.95 0 0 0 0-15.9zM2.95 12a9.05 9.05 0 1 1 18.1 0 9.05 9.05 0 0 1-18.1 0z" clip-rule="evenodd"/><path fill="#1155CC" fill-rule="evenodd" d="M9.95 9.5a.55.55 0 0 1 .55-.55h2a.55.55 0 0 1 .541.647L11.927 15.8a.937.937 0 0 0 1.641.803l.747-.967a.55.55 0 0 1 .87.672l-.756.98a2.037 2.037 0 0 1-3.584-1.69l.997-5.547H10.5a.55.55 0 0 1-.55-.55z" clip-rule="evenodd"/><path fill="#1155CC" d="M12.88 7.005a.875.875 0 1 1-1.75 0 .875.875 0 0 1 1.75 0z"/></svg>