<svg xmlns="http://www.w3.org/2000/svg" width="26" height="26" fill-rule="evenodd" stroke-miterlimit="1.414" clip-rule="evenodd" stroke-linejoin="round">
            <path fill="#f4511e" fill-rule="nonzero" d="M13.75 13.75h5.061a.75.75 0 0 1 .726.937 6.751 6.751 0 1 1-2.531-7.12.75.75 0 1 1-.891 1.206 5.25 5.25 0 1 0 1.631 6.477H13a.75.75 0 0 1-.75-.75v-3a.75.75 0 0 1 .75-.75h8.876a.75.75 0 0 1 .739.626A9.75 9.75 0 0 1 13 22.75 9.75 9.75 0 0 1 3.25 13 9.75 9.75 0 0 1 13 3.25c2.32 0 4.516.814 6.258 2.273a.75.75 0 0 1-.964 1.15 8.25 8.25 0 1 0 2.922 5.577H13.75v1.5z"></path>
        </svg>
