<svg width="26" height="26" viewBox="0 0 26 26" fill="none" xmlns="http://www.w3.org/2000/svg">
    <path fill-rule="evenodd" clip-rule="evenodd" d="M1.75 5.5C1.75 3.98122 2.98122 2.75 4.5 2.75H21.5C23.0188 2.75 24.25 3.98122 24.25 5.5V20.5C24.25 22.0188 23.0188 23.25 21.5 23.25H4.5C2.98122 23.25 1.75 22.0188 1.75 20.5V5.5ZM4.5 4.25C3.80964 4.25 3.25 4.80964 3.25 5.5V20.5C3.25 21.1904 3.80964 21.75 4.5 21.75H21.5C22.1904 21.75 22.75 21.1904 22.75 20.5V5.5C22.75 4.80964 22.1904 4.25 21.5 4.25H4.5Z" fill="#333333"/>
    <path fill-rule="evenodd" clip-rule="evenodd" d="M23.0303 3.96967C23.3232 4.26256 23.3232 4.73744 23.0303 5.03033L5.03033 23.0303C4.73744 23.3232 4.26256 23.3232 3.96967 23.0303C3.67678 22.7374 3.67678 22.2626 3.96967 21.9697L21.9697 3.96967C22.2626 3.67678 22.7374 3.67678 23.0303 3.96967Z" fill="#333333"/>
    <path fill-rule="evenodd" clip-rule="evenodd" d="M24.0303 6.96967C24.3232 7.26256 24.3232 7.73744 24.0303 8.03033L9.53033 22.5303C9.23744 22.8232 8.76256 22.8232 8.46967 22.5303C8.17678 22.2374 8.17678 21.7626 8.46967 21.4697L22.9697 6.96967C23.2626 6.67678 23.7374 6.67678 24.0303 6.96967Z" fill="#333333"/>
    <path fill-rule="evenodd" clip-rule="evenodd" d="M24.0303 10.9697C24.3232 11.2626 24.3232 11.7374 24.0303 12.0303L13.5303 22.5303C13.2374 22.8232 12.7626 22.8232 12.4697 22.5303C12.1768 22.2374 12.1768 21.7626 12.4697 21.4697L22.9697 10.9697C23.2626 10.6768 23.7374 10.6768 24.0303 10.9697Z" fill="#333333"/>
    <path fill-rule="evenodd" clip-rule="evenodd" d="M24.0303 14.9697C24.3232 15.2626 24.3232 15.7374 24.0303 16.0303L17.0303 23.0303C16.7374 23.3232 16.2626 23.3232 15.9697 23.0303C15.6768 22.7374 15.6768 22.2626 15.9697 21.9697L22.9697 14.9697C23.2626 14.6768 23.7374 14.6768 24.0303 14.9697Z" fill="#333333"/>
    <path fill-rule="evenodd" clip-rule="evenodd" d="M24.0303 18.9697C24.3232 19.2626 24.3232 19.7374 24.0303 20.0303L21.0303 23.0303C20.7374 23.3232 20.2626 23.3232 19.9697 23.0303C19.6768 22.7374 19.6768 22.2626 19.9697 21.9697L22.9697 18.9697C23.2626 18.6768 23.7374 18.6768 24.0303 18.9697Z" fill="#333333"/>
</svg>
