<svg width="26" height="27" viewBox="0 0 26 27" fill="none" xmlns="http://www.w3.org/2000/svg">
    <path fill-rule="evenodd" clip-rule="evenodd" d="M12.5 5.04834C12.9142 5.04834 13.25 5.38413 13.25 5.79834V6.23584C13.25 6.65005 12.9142 6.98584 12.5 6.98584C12.0858 6.98584 11.75 6.65005 11.75 6.23584V5.79834C11.75 5.38413 12.0858 5.04834 12.5 5.04834ZM12.5 8.11084C12.9142 8.11084 13.25 8.44663 13.25 8.86084V9.73584C13.25 10.1501 12.9142 10.4858 12.5 10.4858C12.0858 10.4858 11.75 10.1501 11.75 9.73584V8.86084C11.75 8.44663 12.0858 8.11084 12.5 8.11084ZM12.5 11.6108C12.9142 11.6108 13.25 11.9466 13.25 12.3608V13.2358C13.25 13.6501 12.9142 13.9858 12.5 13.9858C12.0858 13.9858 11.75 13.6501 11.75 13.2358V12.3608C11.75 11.9466 12.0858 11.6108 12.5 11.6108ZM12.5 15.1108C12.9142 15.1108 13.25 15.4466 13.25 15.8608V16.7358C13.25 17.1501 12.9142 17.4858 12.5 17.4858C12.0858 17.4858 11.75 17.1501 11.75 16.7358V15.8608C11.75 15.4466 12.0858 15.1108 12.5 15.1108ZM12.5 18.6108C12.9142 18.6108 13.25 18.9466 13.25 19.3608V19.7983C13.25 20.2126 12.9142 20.5483 12.5 20.5483C12.0858 20.5483 11.75 20.2126 11.75 19.7983V19.3608C11.75 18.9466 12.0858 18.6108 12.5 18.6108Z" fill="#333"/>
    <path fill-rule="evenodd" clip-rule="evenodd" d="M4.75 12.7983C4.75 12.3841 5.08579 12.0483 5.5 12.0483H5.9375C6.35171 12.0483 6.6875 12.3841 6.6875 12.7983C6.6875 13.2126 6.35171 13.5483 5.9375 13.5483H5.5C5.08579 13.5483 4.75 13.2126 4.75 12.7983ZM7.8125 12.7983C7.8125 12.3841 8.14829 12.0483 8.5625 12.0483H9.4375C9.85171 12.0483 10.1875 12.3841 10.1875 12.7983C10.1875 13.2126 9.85171 13.5483 9.4375 13.5483H8.5625C8.14829 13.5483 7.8125 13.2126 7.8125 12.7983ZM11.3125 12.7983C11.3125 12.3841 11.6483 12.0483 12.0625 12.0483H12.9375C13.3517 12.0483 13.6875 12.3841 13.6875 12.7983C13.6875 13.2126 13.3517 13.5483 12.9375 13.5483H12.0625C11.6483 13.5483 11.3125 13.2126 11.3125 12.7983ZM14.8125 12.7983C14.8125 12.3841 15.1483 12.0483 15.5625 12.0483H16.4375C16.8517 12.0483 17.1875 12.3841 17.1875 12.7983C17.1875 13.2126 16.8517 13.5483 16.4375 13.5483H15.5625C15.1483 13.5483 14.8125 13.2126 14.8125 12.7983ZM18.3125 12.7983C18.3125 12.3841 18.6483 12.0483 19.0625 12.0483H19.5C19.9142 12.0483 20.25 12.3841 20.25 12.7983C20.25 13.2126 19.9142 13.5483 19.5 13.5483H19.0625C18.6483 13.5483 18.3125 13.2126 18.3125 12.7983Z" fill="#333"/>
    <path fill-rule="evenodd" clip-rule="evenodd" d="M2.75 5.79834C2.75 4.27956 3.98122 3.04834 5.5 3.04834H19.5C21.0188 3.04834 22.25 4.27956 22.25 5.79834V19.7983C22.25 21.3171 21.0188 22.5483 19.5 22.5483H5.5C3.98122 22.5483 2.75 21.3171 2.75 19.7983V5.79834ZM5.5 4.54834C4.80964 4.54834 4.25 5.10798 4.25 5.79834V19.7983C4.25 20.4887 4.80964 21.0483 5.5 21.0483H19.5C20.1904 21.0483 20.75 20.4887 20.75 19.7983V5.79834C20.75 5.10798 20.1904 4.54834 19.5 4.54834H5.5Z" fill="#333"/>
</svg>
