<svg width="26" height="26" viewBox="0 0 26 26" fill="none" xmlns="http://www.w3.org/2000/svg">
<mask id="mask0" mask-type="alpha" maskUnits="userSpaceOnUse" x="2" y="2" width="22" height="22">
<path fill-rule="evenodd" clip-rule="evenodd" d="M13.75 20.3817L18.1265 16.0052C18.4194 15.7123 18.8943 15.7123 19.1872 16.0052C19.4801 16.2981 19.4801 16.773 19.1872 17.0659L13.5303 22.7227C13.2374 23.0156 12.7626 23.0156 12.4697 22.7227L6.81281 17.0659C6.51992 16.773 6.51992 16.2981 6.81281 16.0052C7.10571 15.7123 7.58058 15.7123 7.87347 16.0052L12.25 20.3817L12.25 3.80761C12.25 3.3934 12.5858 3.05761 13 3.05761C13.4142 3.05761 13.75 3.3934 13.75 3.80761L13.75 20.3817Z" fill="white"/>
</mask>
<g mask="url(#mask0)">
<rect width="26" height="26" fill="#333333"/>
</g>
</svg>
