<svg width="26" height="26" viewBox="0 0 26 26" fill="none" xmlns="http://www.w3.org/2000/svg">
    <path fill-rule="evenodd" clip-rule="evenodd" d="M11.0929 5.0407L10.5 5.5L9.90709 5.0407C10.0491 4.85733 10.268 4.75 10.5 4.75C10.732 4.75 10.9509 4.85733 11.0929 5.0407ZM10.5 6.75699C10.4229 6.86331 10.3398 6.97887 10.2515 7.10281C9.74265 7.81728 9.06535 8.80667 8.38931 9.90881C7.71186 11.0133 7.04394 12.2176 6.54761 13.3637C6.04387 14.5269 5.75 15.5563 5.75 16.3333C5.75 18.3856 7.75639 20.25 10.5 20.25C12.3864 20.25 13.9668 19.3461 14.7348 18.1053C14.9528 17.7531 15.415 17.6443 15.7672 17.8623C16.1195 18.0803 16.2283 18.5425 16.0103 18.8947C14.9384 20.6264 12.8453 21.75 10.5 21.75C7.16848 21.75 4.25 19.4357 4.25 16.3333C4.25 15.2437 4.64363 13.9856 5.17114 12.7676C5.70606 11.5324 6.41314 10.2617 7.11069 9.12452C7.80965 7.98499 8.50735 6.96605 9.02973 6.23261C9.29119 5.86552 9.50937 5.56903 9.66269 5.36368C9.73937 5.26098 9.79986 5.18101 9.84149 5.12634L9.88944 5.06361L9.90218 5.04706L9.90709 5.0407C9.90709 5.0407 9.90709 5.0407 10.5 5.5L11.0929 5.0407L11.0954 5.04396L11.1017 5.05206L11.125 5.08248C11.1453 5.10897 11.1749 5.14777 11.2129 5.19804C11.2889 5.29857 11.3986 5.44504 11.5351 5.63081C11.8079 6.00221 12.1882 6.53146 12.6199 7.16533C12.8531 7.50769 12.7645 7.97424 12.4222 8.20739C12.0798 8.44055 11.6133 8.35202 11.3801 8.00966C11.0456 7.51844 10.7429 7.092 10.5 6.75699Z" fill="white"/>
    <path fill-rule="evenodd" clip-rule="evenodd" d="M17 4.25C16.7961 4.25 16.601 4.333 16.4597 4.47988L16.4582 4.48142L16.4553 4.48447L16.4451 4.49507L16.4085 4.53383C16.377 4.56732 16.3318 4.6159 16.2747 4.67829C16.1606 4.80302 15.999 4.9832 15.8058 5.20849C15.4199 5.65824 14.9042 6.29189 14.3869 7.02601C13.8711 7.75805 13.3439 8.60373 12.9433 9.47683C12.5465 10.3418 12.25 11.2847 12.25 12.1975C12.25 14.7471 14.4129 16.75 17 16.75C19.5871 16.75 21.75 14.7471 21.75 12.1975C21.75 11.2847 21.4535 10.3418 21.0567 9.47683C20.6561 8.60373 20.1289 7.75805 19.6131 7.02601C19.0958 6.29189 18.5801 5.65824 18.1942 5.20849C18.001 4.9832 17.8394 4.80302 17.7253 4.67829C17.6682 4.6159 17.623 4.56732 17.5915 4.53383L17.5549 4.49507L17.5447 4.48447L17.5403 4.47988C17.399 4.333 17.2039 4.25 17 4.25ZM15.05 12.5C15.05 12.1963 14.8037 11.95 14.5 11.95C14.1962 11.95 13.95 12.1963 13.95 12.5C13.95 13.9083 15.0916 15.05 16.5 15.05C16.8037 15.05 17.05 14.8038 17.05 14.5C17.05 14.1963 16.8037 13.95 16.5 13.95C15.6991 13.95 15.05 13.3008 15.05 12.5Z" fill="white"/>
    <path fill-rule="evenodd" clip-rule="evenodd" d="M7.5 15.3C7.8866 15.3 8.2 15.6134 8.2 16C8.2 16.5189 8.43847 16.9637 8.80363 17.2918C9.17945 17.6295 9.64246 17.8 10 17.8C10.3866 17.8 10.7 18.1134 10.7 18.5C10.7 18.8866 10.3866 19.2 10 19.2C9.25297 19.2 8.46598 18.8705 7.86795 18.3332C7.25925 17.7863 6.8 16.9811 6.8 16C6.8 15.6134 7.1134 15.3 7.5 15.3Z" fill="white"/>
</svg>
