<svg width="978" height="1349" viewBox="0 0 978 1349" fill="none" xmlns="http://www.w3.org/2000/svg">
    <g filter="url(#filter0_d)">
        <rect width="768" height="1024" transform="translate(97 145)" fill="#E1E1E1"/>
        <mask id="mask0" mask-type="alpha" maskUnits="userSpaceOnUse" x="56" y="48" width="850" height="1221">
            <path fill-rule="evenodd" clip-rule="evenodd" d="M100 48C75.6995 48 56 67.6994 56 92V1225C56 1249.3 75.6995 1269 100 1269H862C886.301 1269 906 1249.3 906 1225V92C906 67.6995 886.301 48 862 48H100ZM107 148C101.477 148 97 152.477 97 158V1159C97 1164.52 101.477 1169 107 1169H855C860.523 1169 865 1164.52 865 1159V158C865 152.477 860.523 148 855 148H107Z" fill="white"/>
        </mask>
        <g mask="url(#mask0)">
            <path fill-rule="evenodd" clip-rule="evenodd" d="M100 48C75.6995 48 56 67.6994 56 92V1225C56 1249.3 75.6995 1269 100 1269H862C886.301 1269 906 1249.3 906 1225V92C906 67.6995 886.301 48 862 48H100ZM107 148C101.477 148 97 152.477 97 158V1159C97 1164.52 101.477 1169 107 1169H855C860.523 1169 865 1164.52 865 1159V158C865 152.477 860.523 148 855 148H107Z" fill="url(#paint0_linear)"/>
            <g filter="url(#filter1_f)">
                <rect x="46" y="38" width="870" height="1241" rx="54" stroke="#B09F9F" stroke-opacity="0.25" stroke-width="20"/>
            </g>
        </g>
        <rect x="98" y="149" width="766" height="1019" rx="9" stroke="#EFEFEF" stroke-width="2"/>
        <circle cx="481" cy="98" r="6" fill="#B09F9F" fill-opacity="0.2" stroke="url(#paint1_linear)" stroke-width="2"/>
        <circle cx="481" cy="1219" r="23.5" fill="url(#paint2_linear)" fill-opacity="0.2" stroke="url(#paint3_linear)" stroke-width="3"/>
    </g>
    <defs>
        <filter id="filter0_d" x="0" y="0" width="978" height="1349" filterUnits="userSpaceOnUse" color-interpolation-filters="sRGB">
            <feFlood flood-opacity="0" result="BackgroundImageFix"/>
            <feColorMatrix in="SourceAlpha" type="matrix" values="0 0 0 0 0 0 0 0 0 0 0 0 0 0 0 0 0 0 127 0"/>
            <feOffset dx="8" dy="16"/>
            <feGaussianBlur stdDeviation="32"/>
            <feColorMatrix type="matrix" values="0 0 0 0 0.827214 0 0 0 0 0.827214 0 0 0 0 0.827214 0 0 0 1 0"/>
            <feBlend mode="normal" in2="BackgroundImageFix" result="effect1_dropShadow"/>
            <feBlend mode="normal" in="SourceGraphic" in2="effect1_dropShadow" result="shape"/>
        </filter>
        <filter id="filter1_f" x="16" y="8" width="930" height="1301" filterUnits="userSpaceOnUse" color-interpolation-filters="sRGB">
            <feFlood flood-opacity="0" result="BackgroundImageFix"/>
            <feBlend mode="normal" in="SourceGraphic" in2="BackgroundImageFix" result="shape"/>
            <feGaussianBlur stdDeviation="10" result="effect1_foregroundBlur"/>
        </filter>
        <linearGradient id="paint0_linear" x1="481" y1="48" x2="481" y2="1269" gradientUnits="userSpaceOnUse">
            <stop stop-color="white"/>
            <stop offset="1" stop-color="#F8F8F8"/>
        </linearGradient>
        <linearGradient id="paint1_linear" x1="481" y1="93" x2="481" y2="103" gradientUnits="userSpaceOnUse">
            <stop stop-color="#B09F9F" stop-opacity="0.5"/>
            <stop offset="1" stop-color="#DBDBDB" stop-opacity="0.2"/>
        </linearGradient>
        <linearGradient id="paint2_linear" x1="481" y1="1197" x2="481" y2="1241" gradientUnits="userSpaceOnUse">
            <stop stop-color="#E0E0E0"/>
            <stop offset="1" stop-color="#F2F2F2"/>
        </linearGradient>
        <linearGradient id="paint3_linear" x1="481" y1="1197" x2="481" y2="1241" gradientUnits="userSpaceOnUse">
            <stop stop-color="#B09F9F" stop-opacity="0.5"/>
            <stop offset="1" stop-color="#DBDBDB" stop-opacity="0.2"/>
        </linearGradient>
    </defs>
</svg>
