<svg width="572" height="1002" viewBox="0 0 572 1002" fill="none" xmlns="http://www.w3.org/2000/svg">
<g filter="url(#filter0_d)">
<rect x="494" y="247" width="6" height="93" rx="2" fill="white"/>
<rect x="56" y="168" width="8" height="30" rx="2" fill="white"/>
<rect x="56" y="227" width="8" height="58" rx="2" fill="white"/>
<rect x="56" y="303" width="8" height="58" rx="2" fill="white"/>
<mask id="mask0" mask-type="alpha" maskUnits="userSpaceOnUse" x="59" y="48" width="437" height="874">
<path fill-rule="evenodd" clip-rule="evenodd" d="M430 80H125C106.222 80 91 95.2223 91 114V856C91 874.778 106.222 890 125 890H430C448.778 890 464 874.778 464 856V114C464 95.2223 448.778 80 430 80ZM125 48C88.5492 48 59 77.5492 59 114V856C59 892.451 88.5492 922 125 922H430C466.451 922 496 892.451 496 856V114C496 77.5492 466.451 48 430 48H125Z" fill="white"/>
</mask>
<g mask="url(#mask0)">
<path fill-rule="evenodd" clip-rule="evenodd" d="M430 80H125C106.222 80 91 95.2223 91 114V856C91 874.778 106.222 890 125 890H430C448.778 890 464 874.778 464 856V114C464 95.2223 448.778 80 430 80ZM125 48C88.5492 48 59 77.5492 59 114V856C59 892.451 88.5492 922 125 922H430C466.451 922 496 892.451 496 856V114C496 77.5492 466.451 48 430 48H125Z" fill="white"/>
<g filter="url(#filter1_i)">
<rect x="59" y="48" width="437" height="874" rx="66" fill="url(#paint0_linear)"/>
</g>
</g>
</g>
<defs>
<filter id="filter0_d" x="0" y="0" width="572" height="1002" filterUnits="userSpaceOnUse" color-interpolation-filters="sRGB">
<feFlood flood-opacity="0" result="BackgroundImageFix"/>
<feColorMatrix in="SourceAlpha" type="matrix" values="0 0 0 0 0 0 0 0 0 0 0 0 0 0 0 0 0 0 127 0"/>
<feOffset dx="8" dy="16"/>
<feGaussianBlur stdDeviation="32"/>
<feColorMatrix type="matrix" values="0 0 0 0 0.827214 0 0 0 0 0.827214 0 0 0 0 0.827214 0 0 0 1 0"/>
<feBlend mode="normal" in2="BackgroundImageFix" result="effect1_dropShadow"/>
<feBlend mode="normal" in="SourceGraphic" in2="effect1_dropShadow" result="shape"/>
</filter>
<filter id="filter1_i" x="59" y="48" width="437" height="874" filterUnits="userSpaceOnUse" color-interpolation-filters="sRGB">
<feFlood flood-opacity="0" result="BackgroundImageFix"/>
<feBlend mode="normal" in="SourceGraphic" in2="BackgroundImageFix" result="shape"/>
<feColorMatrix in="SourceAlpha" type="matrix" values="0 0 0 0 0 0 0 0 0 0 0 0 0 0 0 0 0 0 127 0" result="hardAlpha"/>
<feOffset/>
<feGaussianBlur stdDeviation="10"/>
<feComposite in2="hardAlpha" operator="arithmetic" k2="-1" k3="1"/>
<feColorMatrix type="matrix" values="0 0 0 0 0.691667 0 0 0 0 0.625382 0 0 0 0 0.625382 0 0 0 0.25 0"/>
<feBlend mode="normal" in2="shape" result="effect1_innerShadow"/>
</filter>
<linearGradient id="paint0_linear" x1="277.5" y1="47" x2="277.5" y2="923" gradientUnits="userSpaceOnUse">
<stop stop-color="white"/>
<stop offset="1" stop-color="#F8F8F8" stop-opacity="0"/>
</linearGradient>
</defs>
</svg>
