<svg width="26" height="26" viewBox="0 0 26 26" fill="none" xmlns="http://www.w3.org/2000/svg">
<mask id="mask0" mask-type="alpha" maskUnits="userSpaceOnUse" x="2" y="2" width="22" height="22">
<path fill-rule="evenodd" clip-rule="evenodd" d="M5.61827 13.75L9.9948 18.1265C10.2877 18.4194 10.2877 18.8943 9.9948 19.1872C9.7019 19.4801 9.22703 19.4801 8.93414 19.1872L3.27728 13.5303C2.98439 13.2374 2.98439 12.7626 3.27728 12.4697L8.93414 6.81281C9.22703 6.51992 9.7019 6.51992 9.9948 6.81281C10.2877 7.10571 10.2877 7.58058 9.9948 7.87347L5.61827 12.25L22.1924 12.25C22.6066 12.25 22.9424 12.5858 22.9424 13C22.9424 13.4142 22.6066 13.75 22.1924 13.75L5.61827 13.75Z" fill="white"/>
</mask>
<g mask="url(#mask0)">
<rect x="26" width="26" height="26" transform="rotate(90 26 0)" fill="#333333"/>
</g>
</svg>
