<svg width="27" height="27" fill="none" xmlns="http://www.w3.org/2000/svg"><path fill-rule="evenodd" clip-rule="evenodd" d="M13.787.807a.75.75 0 0 1 .463.693v9a.75.75 0 0 1-1.5 0V3.31l-3.5 3.5v2.94H11a.75.75 0 1 1 0 1.5H8.5a.75.75 0 0 1-.75-.75v-4a.75.75 0 0 1 .22-.53l5-5a.75.75 0 0 1 .817-.163zM.807 13.213a.75.75 0 0 1 .693-.463h9a.75.75 0 1 1 0 1.5H3.31l3.5 3.5h2.94V16a.75.75 0 1 1 1.5 0v2.5a.75.75 0 0 1-.75.75h-4a.75.75 0 0 1-.53-.22l-5-5a.75.75 0 0 1-.163-.817zM13.213 26.193a.75.75 0 0 1-.463-.693v-9a.75.75 0 1 1 1.5 0v7.19l3.5-3.5v-2.94H16a.75.75 0 0 1 0-1.5h2.5a.75.75 0 0 1 .75.75v4a.75.75 0 0 1-.22.53l-5 5a.75.75 0 0 1-.817.163zM26.193 13.787a.75.75 0 0 1-.693.463h-9a.75.75 0 0 1 0-1.5h7.19l-3.5-3.5h-2.94V11a.75.75 0 0 1-1.5 0V8.5a.75.75 0 0 1 .75-.75h4a.75.75 0 0 1 .53.22l5 5a.75.75 0 0 1 .163.817z M14.75 13.5a1.25 1.25 0 1 1-2.5 0 1.25 1.25 0 0 1 2.5 0z" fill="#333"/></svg>
