<svg width="2020" height="180" viewBox="0 0 2020 180" fill="none" xmlns="http://www.w3.org/2000/svg">
    <g filter="url(#filter0_d)">
        <path d="M56 42H1948L1829.73 65.6673C1821.97 67.2186 1814.09 68 1806.18 68H205.746C192.568 68 179.423 66.6977 166.502 64.1121L56 42Z" fill="#EDEDED"/>
        <mask id="mask0" mask-type="alpha" maskUnits="userSpaceOnUse" x="56" y="16" width="1892" height="26">
            <rect x="56" y="16" width="1892" height="26" rx="6" fill="#F8F8F8"/>
        </mask>
        <g mask="url(#mask0)">
            <rect x="56" y="16" width="1892" height="26" rx="6" fill="#F8F8F8"/>
            <g filter="url(#filter1_f)">
                <rect x="51" y="9" width="1902" height="38" rx="11" stroke="#B09F9F" stroke-opacity="0.25" stroke-width="10"/>
            </g>
        </g>
        <path d="M868 16H1137L1135.7 18.2106C1130.31 27.3738 1120.47 33 1109.84 33H895.158C884.527 33 874.69 27.3738 869.3 18.2106L868 16Z" fill="url(#paint0_linear)"/>
    </g>
    <defs>
        <filter id="filter0_d" x="0" y="0" width="2020" height="180" filterUnits="userSpaceOnUse" color-interpolation-filters="sRGB">
            <feFlood flood-opacity="0" result="BackgroundImageFix"/>
            <feColorMatrix in="SourceAlpha" type="matrix" values="0 0 0 0 0 0 0 0 0 0 0 0 0 0 0 0 0 0 127 0"/>
            <feOffset dx="8" dy="48"/>
            <feGaussianBlur stdDeviation="32"/>
            <feColorMatrix type="matrix" values="0 0 0 0 0.827214 0 0 0 0 0.827214 0 0 0 0 0.827214 0 0 0 1 0"/>
            <feBlend mode="normal" in2="BackgroundImageFix" result="effect1_dropShadow"/>
            <feBlend mode="normal" in="SourceGraphic" in2="effect1_dropShadow" result="shape"/>
        </filter>
        <filter id="filter1_f" x="32" y="-10" width="1940" height="76" filterUnits="userSpaceOnUse" color-interpolation-filters="sRGB">
            <feFlood flood-opacity="0" result="BackgroundImageFix"/>
            <feBlend mode="normal" in="SourceGraphic" in2="BackgroundImageFix" result="shape"/>
            <feGaussianBlur stdDeviation="7" result="effect1_foregroundBlur"/>
        </filter>
        <linearGradient id="paint0_linear" x1="1002.5" y1="16" x2="1002.5" y2="33" gradientUnits="userSpaceOnUse">
            <stop stop-color="#B09F9F" stop-opacity="0.1"/>
            <stop offset="1" stop-color="#B09F9F" stop-opacity="0.2"/>
        </linearGradient>
    </defs>
</svg>
