<svg width="1692" height="160" viewBox="0 0 1692 160" fill="none" xmlns="http://www.w3.org/2000/svg">
<g filter="url(#filter0_d)">
<path d="M56 22H1617L1477.17 46.237C1470.4 47.4102 1463.55 48 1456.68 48H223.205C211.756 48 200.328 47.0169 189.048 45.0616L56 22Z" fill="#EDEDED"/>
<mask id="mask0" mask-type="alpha" maskUnits="userSpaceOnUse" x="56" y="16" width="1564" height="8">
<rect x="56" y="16" width="1564" height="8" rx="4" fill="#F8F8F8"/>
</mask>
<g mask="url(#mask0)">
<rect x="56" y="16" width="1564" height="8" rx="4" fill="#F8F8F8"/>
<g filter="url(#filter1_f)">
<rect x="54" y="14" width="1568" height="12" rx="6" stroke="#B09F9F" stroke-opacity="0.25" stroke-width="4"/>
</g>
</g>
<path d="M704 16H964L959.364 17.8543C955.821 19.2717 952.039 20 948.223 20H719.777C715.961 20 712.179 19.2717 708.636 17.8543L704 16Z" fill="url(#paint0_linear)"/>
</g>
<defs>
<filter id="filter0_d" x="0" y="0" width="1692" height="160" filterUnits="userSpaceOnUse" color-interpolation-filters="sRGB">
<feFlood flood-opacity="0" result="BackgroundImageFix"/>
<feColorMatrix in="SourceAlpha" type="matrix" values="0 0 0 0 0 0 0 0 0 0 0 0 0 0 0 0 0 0 127 0"/>
<feOffset dx="8" dy="48"/>
<feGaussianBlur stdDeviation="32"/>
<feColorMatrix type="matrix" values="0 0 0 0 0.827214 0 0 0 0 0.827214 0 0 0 0 0.827214 0 0 0 1 0"/>
<feBlend mode="normal" in2="BackgroundImageFix" result="effect1_dropShadow"/>
<feBlend mode="normal" in="SourceGraphic" in2="effect1_dropShadow" result="shape"/>
</filter>
<filter id="filter1_f" x="50" y="10" width="1576" height="20" filterUnits="userSpaceOnUse" color-interpolation-filters="sRGB">
<feFlood flood-opacity="0" result="BackgroundImageFix"/>
<feBlend mode="normal" in="SourceGraphic" in2="BackgroundImageFix" result="shape"/>
<feGaussianBlur stdDeviation="1" result="effect1_foregroundBlur"/>
</filter>
<linearGradient id="paint0_linear" x1="834" y1="16" x2="834" y2="20" gradientUnits="userSpaceOnUse">
<stop stop-color="#B09F9F" stop-opacity="0.1"/>
<stop offset="1" stop-color="#B09F9F" stop-opacity="0.2"/>
</linearGradient>
</defs>
</svg>
