<svg width="32" height="32" viewBox="0 0 32 32" fill="none" xmlns="http://www.w3.org/2000/svg">
<mask id="mask0" mask-type="alpha" maskUnits="userSpaceOnUse" x="3" y="3" width="26" height="26">
<path fill-rule="evenodd" clip-rule="evenodd" d="M25.0852 15.0769L19.6987 9.69043C19.3382 9.32995 19.3382 8.74549 19.6987 8.385C20.0592 8.02452 20.6437 8.02452 21.0041 8.385L27.9664 15.3473C28.3269 15.7078 28.3269 16.2922 27.9664 16.6527L21.0041 23.615C20.6437 23.9755 20.0592 23.9755 19.6987 23.615C19.3382 23.2545 19.3382 22.67 19.6987 22.3096L25.0852 16.9231L4.68629 16.9231C4.17649 16.9231 3.76322 16.5098 3.76322 16C3.76322 15.4902 4.17649 15.0769 4.68629 15.0769L25.0852 15.0769Z" fill="white"/>
</mask>
<g mask="url(#mask0)">
<rect y="32" width="32" height="32" transform="rotate(-90 0 32)" fill="white"/>
</g>
</svg>
