<svg xmlns="http://www.w3.org/2000/svg" width="26" height="26" viewBox="0 0 26 26"><path d="M6.75 7.5a.75.75 0 0 1 .75-.75h7a.75.75 0 0 1 0 1.5h-7a.75.75 0 0 1-.75-.75zm0 3a.75.75 0 0 1 .75-.75h7a.75.75 0 0 1 0 1.5h-7a.75.75 0 0 1-.75-.75zm0 3a.75.75 0 0 1 .75-.75h4a.75.75 0 0 1 0 1.5h-4a.75.75 0 0 1-.75-.75z" clip-rule="evenodd"/><path fill-rule="evenodd" d="M3.75 5.5A2.75 2.75 0 0 1 6.5 2.75h10a2.75 2.75 0 0 1 2.75 2.75v11a2.75 2.75 0 0 1-2.75 2.75h-10a2.75 2.75 0 0 1-2.75-2.75v-11zM6.5 4.25c-.69 0-1.25.56-1.25 1.25v11c0 .69.56 1.25 1.25 1.25h10c.69 0 1.25-.56 1.25-1.25v-11c0-.69-.56-1.25-1.25-1.25h-10zM20.188 8.5a.75.75 0 0 1 .75-.75h.562c.183 0 .362.018.536.052a.75.75 0 0 1-.291 1.472 1.26 1.26 0 0 0-.245-.024h-.563a.75.75 0 0 1-.75-.75zm3.128.874a.75.75 0 0 1 .882.59c.034.174.052.353.052.536v.458a.75.75 0 0 1-1.5 0V10.5c0-.084-.008-.166-.024-.245a.75.75 0 0 1 .59-.881zm.184 3.584a.75.75 0 0 1 .75.75v.917a.75.75 0 0 1-1.5 0v-.917a.75.75 0 0 1 .75-.75zm0 3.667a.75.75 0 0 1 .75.75v.917a.75.75 0 0 1-1.5 0v-.917a.75.75 0 0 1 .75-.75zm-13 3.667a.75.75 0 0 1 .75.75v.458c0 .084.008.166.024.245a.75.75 0 1 1-1.472.29 2.76 2.76 0 0 1-.052-.535v-.458a.75.75 0 0 1 .75-.75zm13 0a.75.75 0 0 1 .75.75v.458c0 .183-.018.362-.052.536a.75.75 0 0 1-1.472-.291c.016-.079.024-.16.024-.245v-.458a.75.75 0 0 1 .75-.75zm-12.126 3.024a.75.75 0 0 1 .881-.59c.079.016.16.024.245.024h.563a.75.75 0 0 1 0 1.5H12.5a2.76 2.76 0 0 1-.536-.052.75.75 0 0 1-.59-.882zm11.252 0a.75.75 0 0 1-.59.882 2.76 2.76 0 0 1-.536.052h-.563a.75.75 0 0 1 0-1.5h.563c.084 0 .166-.008.245-.024a.75.75 0 0 1 .881.59zm-6.939.184a.75.75 0 0 1 .75-.75h1.125a.75.75 0 0 1 0 1.5h-1.125a.75.75 0 0 1-.75-.75z" clip-rule="evenodd"/></svg>