<svg width="26" height="26" viewBox="0 0 26 26" fill="none" xmlns="http://www.w3.org/2000/svg">
<circle r="1.65385" transform="matrix(1 0 0 -1 9.44242 12.75)" fill="#333333"/>
<circle r="1.65385" transform="matrix(1 0 0 -1 12.75 16.0577)" fill="#333333"/>
<circle r="1.65385" transform="matrix(1 0 0 -1 16.0577 12.75)" fill="#333333"/>
<circle r="1.65385" transform="matrix(1 0 0 -1 12.75 9.44233)" fill="#333333"/>
<circle r="1.10256" transform="matrix(1 0 0 -1 19.3653 9.44233)" fill="#333333"/>
<circle r="1.10256" transform="matrix(1 0 0 -1 19.3653 12.75)" fill="#333333"/>
<circle r="1.10256" transform="matrix(1 0 0 -1 19.3653 16.0577)" fill="#333333"/>
<circle r="1.10256" transform="matrix(1 0 0 -1 6.13467 9.44233)" fill="#333333"/>
<circle r="1.10256" transform="matrix(1 0 0 -1 12.75 6.13462)" fill="#333333"/>
<circle r="1.10256" transform="matrix(1 0 0 -1 9.44241 6.13462)" fill="#333333"/>
<circle r="1.10256" transform="matrix(1 0 0 -1 16.0576 6.13462)" fill="#333333"/>
<circle r="1.10256" transform="matrix(1 0 0 -1 16.0576 9.44233)" fill="#333333"/>
<circle r="1.10256" transform="matrix(1 0 0 -1 9.44241 9.44233)" fill="#333333"/>
<circle r="1.10256" transform="matrix(1 0 0 -1 16.0576 16.0577)" fill="#333333"/>
<circle r="1.10256" transform="matrix(1 0 0 -1 9.44241 16.0577)" fill="#333333"/>
<circle r="1.10256" transform="matrix(1 0 0 -1 6.13467 12.75)" fill="#333333"/>
<circle r="1.10256" transform="matrix(1 0 0 -1 6.13467 16.0577)" fill="#333333"/>
<circle r="1.10256" transform="matrix(1 0 0 -1 12.75 19.3654)" fill="#333333"/>
<circle r="1.10256" transform="matrix(1 0 0 -1 16.0576 19.3654)" fill="#333333"/>
<circle r="1.10256" transform="matrix(1 0 0 -1 9.44241 19.3654)" fill="#333333"/>
<circle r="0.826923" transform="matrix(1 0 0 -1 12.7499 22.6731)" fill="#333333"/>
<circle r="0.826923" transform="matrix(1 0 0 -1 16.0578 22.6731)" fill="#333333"/>
<circle r="0.826923" transform="matrix(1 0 0 -1 19.3655 22.6731)" fill="#333333"/>
<circle r="0.826923" transform="matrix(1 0 0 -1 19.3655 19.3654)" fill="#333333"/>
<circle r="0.826923" transform="matrix(1 0 0 -1 9.44228 22.6731)" fill="#333333"/>
<circle r="0.826923" transform="matrix(1 0 0 -1 6.13454 22.6731)" fill="#333333"/>
<circle r="0.826923" transform="matrix(1 0 0 -1 12.7499 2.8269)" fill="#333333"/>
<circle r="0.826923" transform="matrix(1 0 0 -1 16.0578 2.8269)" fill="#333333"/>
<circle r="0.826923" transform="matrix(1 0 0 -1 19.3655 2.8269)" fill="#333333"/>
<circle r="0.826923" transform="matrix(1 0 0 -1 9.44228 2.8269)" fill="#333333"/>
<circle r="0.826923" transform="matrix(1 0 0 -1 6.13454 2.8269)" fill="#333333"/>
<circle r="0.826923" transform="matrix(1 0 0 -1 6.13454 19.3654)" fill="#333333"/>
<circle r="0.826923" transform="matrix(1 0 0 -1 19.3655 6.13462)" fill="#333333"/>
<circle r="0.826923" transform="matrix(1 0 0 -1 22.6731 6.13462)" fill="#333333"/>
<circle r="0.826923" transform="matrix(1 0 0 -1 22.6731 9.44233)" fill="#333333"/>
<circle r="0.826923" transform="matrix(1 0 0 -1 22.6731 12.75)" fill="#333333"/>
<circle r="0.826923" transform="matrix(1 0 0 -1 22.6731 16.0577)" fill="#333333"/>
<circle r="0.826923" transform="matrix(1 0 0 -1 22.6731 19.3654)" fill="#333333"/>
<circle r="0.826923" transform="matrix(1 0 0 -1 2.82692 6.13462)" fill="#333333"/>
<circle r="0.826923" transform="matrix(1 0 0 -1 2.82692 9.44233)" fill="#333333"/>
<circle r="0.826923" transform="matrix(1 0 0 -1 2.82692 12.75)" fill="#333333"/>
<circle r="0.826923" transform="matrix(1 0 0 -1 2.82692 16.0577)" fill="#333333"/>
<circle r="0.826923" transform="matrix(1 0 0 -1 2.82692 19.3654)" fill="#333333"/>
<circle r="0.826923" transform="matrix(1 0 0 -1 6.13454 6.13462)" fill="#333333"/>
<circle r="3.30769" transform="matrix(1 0 0 -1 12.7501 12.75)" fill="#333333"/>
<path d="M11.0962 12.75C11.0962 11.8366 10.3558 11.0961 9.44237 11.0961C8.52897 11.0961 7.78852 11.8366 7.78852 12.75C7.78852 13.6634 8.52897 14.4038 9.44237 14.4038C10.3558 14.4038 11.0962 13.6634 11.0962 12.75Z" fill="#333333"/>
<path d="M14.4039 16.0577C14.4039 15.1443 13.6634 14.4038 12.75 14.4038C11.8366 14.4038 11.0962 15.1443 11.0962 16.0577C11.0962 16.9711 11.8366 17.7115 12.75 17.7115C13.6634 17.7115 14.4039 16.9711 14.4039 16.0577Z" fill="#333333"/>
<path d="M17.7115 12.75C17.7115 11.8366 16.9711 11.0961 16.0577 11.0961C15.1443 11.0961 14.4038 11.8366 14.4038 12.75C14.4038 13.6634 15.1443 14.4038 16.0577 14.4038C16.9711 14.4038 17.7115 13.6634 17.7115 12.75Z" fill="#333333"/>
<path d="M14.4039 9.44232C14.4039 8.52893 13.6634 7.78848 12.75 7.78848C11.8366 7.78848 11.0962 8.52893 11.0962 9.44232C11.0962 10.3557 11.8366 11.0962 12.75 11.0962C13.6634 11.0962 14.4039 10.3557 14.4039 9.44232Z" fill="#333333"/>
<path d="M20.4679 9.44233C20.4679 8.8334 19.9742 8.33977 19.3653 8.33977C18.7564 8.33977 18.2628 8.8334 18.2628 9.44233C18.2628 10.0513 18.7564 10.5449 19.3653 10.5449C19.9742 10.5449 20.4679 10.0513 20.4679 9.44233Z" fill="#333333"/>
<path d="M20.4679 12.75C20.4679 12.1411 19.9742 11.6474 19.3653 11.6474C18.7564 11.6474 18.2628 12.1411 18.2628 12.75C18.2628 13.3589 18.7564 13.8525 19.3653 13.8525C19.9742 13.8525 20.4679 13.3589 20.4679 12.75Z" fill="#333333"/>
<path d="M20.4679 16.0577C20.4679 15.4488 19.9742 14.9551 19.3653 14.9551C18.7564 14.9551 18.2628 15.4488 18.2628 16.0577C18.2628 16.6666 18.7564 17.1603 19.3653 17.1603C19.9742 17.1603 20.4679 16.6666 20.4679 16.0577Z" fill="#333333"/>
<path d="M7.23727 9.44233C7.23727 8.8334 6.74364 8.33977 6.13471 8.33977C5.52578 8.33977 5.03214 8.8334 5.03214 9.44233C5.03214 10.0513 5.52578 10.5449 6.13471 10.5449C6.74364 10.5449 7.23727 10.0513 7.23727 9.44233Z" fill="#333333"/>
<path d="M13.8526 6.13461C13.8526 5.52568 13.3589 5.03205 12.75 5.03205C12.1411 5.03205 11.6474 5.52568 11.6474 6.13461C11.6474 6.74354 12.1411 7.23718 12.75 7.23718C13.3589 7.23718 13.8526 6.74354 13.8526 6.13461Z" fill="#333333"/>
<path d="M10.5449 6.13461C10.5449 5.52568 10.0513 5.03205 9.44236 5.03205C8.83343 5.03205 8.3398 5.52568 8.3398 6.13461C8.3398 6.74354 8.83343 7.23718 9.44236 7.23718C10.0513 7.23718 10.5449 6.74354 10.5449 6.13461Z" fill="#333333"/>
<path d="M17.1602 6.13461C17.1602 5.52568 16.6666 5.03205 16.0577 5.03205C15.4487 5.03205 14.9551 5.52568 14.9551 6.13461C14.9551 6.74354 15.4487 7.23718 16.0577 7.23718C16.6666 7.23718 17.1602 6.74354 17.1602 6.13461Z" fill="#333333"/>
<path d="M17.1602 9.44233C17.1602 8.8334 16.6666 8.33977 16.0577 8.33977C15.4487 8.33977 14.9551 8.8334 14.9551 9.44233C14.9551 10.0513 15.4487 10.5449 16.0577 10.5449C16.6666 10.5449 17.1602 10.0513 17.1602 9.44233Z" fill="#333333"/>
<path d="M10.5449 9.44233C10.5449 8.8334 10.0513 8.33977 9.44236 8.33977C8.83343 8.33977 8.3398 8.8334 8.3398 9.44233C8.3398 10.0513 8.83343 10.5449 9.44236 10.5449C10.0513 10.5449 10.5449 10.0513 10.5449 9.44233Z" fill="#333333"/>
<path d="M17.1602 16.0577C17.1602 15.4488 16.6666 14.9551 16.0577 14.9551C15.4487 14.9551 14.9551 15.4488 14.9551 16.0577C14.9551 16.6666 15.4487 17.1603 16.0577 17.1603C16.6666 17.1603 17.1602 16.6666 17.1602 16.0577Z" fill="#333333"/>
<path d="M10.5449 16.0577C10.5449 15.4488 10.0513 14.9551 9.44236 14.9551C8.83343 14.9551 8.3398 15.4488 8.3398 16.0577C8.3398 16.6666 8.83343 17.1603 9.44236 17.1603C10.0513 17.1603 10.5449 16.6666 10.5449 16.0577Z" fill="#333333"/>
<path d="M7.23727 12.75C7.23727 12.1411 6.74364 11.6474 6.13471 11.6474C5.52578 11.6474 5.03214 12.1411 5.03214 12.75C5.03214 13.3589 5.52578 13.8525 6.13471 13.8525C6.74364 13.8525 7.23727 13.3589 7.23727 12.75Z" fill="#333333"/>
<path d="M7.23727 16.0577C7.23727 15.4488 6.74364 14.9551 6.13471 14.9551C5.52578 14.9551 5.03214 15.4488 5.03214 16.0577C5.03214 16.6666 5.52578 17.1603 6.13471 17.1603C6.74364 17.1603 7.23727 16.6666 7.23727 16.0577Z" fill="#333333"/>
<path d="M13.8526 19.3654C13.8526 18.7564 13.3589 18.2628 12.75 18.2628C12.1411 18.2628 11.6474 18.7564 11.6474 19.3654C11.6474 19.9743 12.1411 20.4679 12.75 20.4679C13.3589 20.4679 13.8526 19.9743 13.8526 19.3654Z" fill="#333333"/>
<path d="M17.1602 19.3654C17.1602 18.7564 16.6666 18.2628 16.0577 18.2628C15.4487 18.2628 14.9551 18.7564 14.9551 19.3654C14.9551 19.9743 15.4487 20.4679 16.0577 20.4679C16.6666 20.4679 17.1602 19.9743 17.1602 19.3654Z" fill="#333333"/>
<path d="M10.5449 19.3654C10.5449 18.7564 10.0513 18.2628 9.44236 18.2628C8.83343 18.2628 8.3398 18.7564 8.3398 19.3654C8.3398 19.9743 8.83343 20.4679 9.44236 20.4679C10.0513 20.4679 10.5449 19.9743 10.5449 19.3654Z" fill="#333333"/>
<path d="M13.5768 22.6731C13.5768 22.2164 13.2066 21.8462 12.7499 21.8462C12.2932 21.8462 11.923 22.2164 11.923 22.6731C11.923 23.1298 12.2932 23.5 12.7499 23.5C13.2066 23.5 13.5768 23.1298 13.5768 22.6731Z" fill="#333333"/>
<path d="M16.8847 22.6731C16.8847 22.2164 16.5145 21.8462 16.0578 21.8462C15.6011 21.8462 15.2309 22.2164 15.2309 22.6731C15.2309 23.1298 15.6011 23.5 16.0578 23.5C16.5145 23.5 16.8847 23.1298 16.8847 22.6731Z" fill="#333333"/>
<path d="M20.1924 22.6731C20.1924 22.2164 19.8221 21.8462 19.3654 21.8462C18.9087 21.8462 18.5385 22.2164 18.5385 22.6731C18.5385 23.1298 18.9087 23.5 19.3654 23.5C19.8221 23.5 20.1924 23.1298 20.1924 22.6731Z" fill="#333333"/>
<path d="M20.1924 19.3654C20.1924 18.9087 19.8221 18.5384 19.3654 18.5384C18.9087 18.5384 18.5385 18.9087 18.5385 19.3654C18.5385 19.8221 18.9087 20.1923 19.3654 20.1923C19.8221 20.1923 20.1924 19.8221 20.1924 19.3654Z" fill="#333333"/>
<path d="M10.2692 22.6731C10.2692 22.2164 9.89893 21.8462 9.44223 21.8462C8.98553 21.8462 8.61531 22.2164 8.61531 22.6731C8.61531 23.1298 8.98553 23.5 9.44223 23.5C9.89893 23.5 10.2692 23.1298 10.2692 22.6731Z" fill="#333333"/>
<path d="M6.9615 22.6731C6.9615 22.2164 6.59127 21.8462 6.13458 21.8462C5.67788 21.8462 5.30765 22.2164 5.30765 22.6731C5.30765 23.1298 5.67788 23.5 6.13458 23.5C6.59127 23.5 6.9615 23.1298 6.9615 22.6731Z" fill="#333333"/>
<path d="M13.5768 2.8269C13.5768 2.3702 13.2066 1.99998 12.7499 1.99998C12.2932 1.99998 11.923 2.3702 11.923 2.8269C11.923 3.2836 12.2932 3.65382 12.7499 3.65382C13.2066 3.65382 13.5768 3.2836 13.5768 2.8269Z" fill="#333333"/>
<path d="M16.8847 2.8269C16.8847 2.3702 16.5145 1.99998 16.0578 1.99998C15.6011 1.99998 15.2309 2.3702 15.2309 2.8269C15.2309 3.2836 15.6011 3.65382 16.0578 3.65382C16.5145 3.65382 16.8847 3.2836 16.8847 2.8269Z" fill="#333333"/>
<path d="M20.1924 2.8269C20.1924 2.3702 19.8221 1.99998 19.3654 1.99998C18.9087 1.99998 18.5385 2.3702 18.5385 2.8269C18.5385 3.2836 18.9087 3.65382 19.3654 3.65382C19.8221 3.65382 20.1924 3.2836 20.1924 2.8269Z" fill="#333333"/>
<path d="M10.2692 2.8269C10.2692 2.3702 9.89893 1.99998 9.44223 1.99998C8.98553 1.99998 8.61531 2.3702 8.61531 2.8269C8.61531 3.2836 8.98553 3.65382 9.44223 3.65382C9.89893 3.65382 10.2692 3.2836 10.2692 2.8269Z" fill="#333333"/>
<path d="M6.9615 2.8269C6.9615 2.3702 6.59127 1.99998 6.13458 1.99998C5.67788 1.99998 5.30765 2.3702 5.30765 2.8269C5.30765 3.2836 5.67788 3.65382 6.13458 3.65382C6.59127 3.65382 6.9615 3.2836 6.9615 2.8269Z" fill="#333333"/>
<path d="M6.9615 19.3654C6.9615 18.9087 6.59127 18.5384 6.13458 18.5384C5.67788 18.5384 5.30765 18.9087 5.30765 19.3654C5.30765 19.8221 5.67788 20.1923 6.13458 20.1923C6.59127 20.1923 6.9615 19.8221 6.9615 19.3654Z" fill="#333333"/>
<path d="M20.1924 6.13462C20.1924 5.67792 19.8221 5.30769 19.3654 5.30769C18.9087 5.30769 18.5385 5.67792 18.5385 6.13462C18.5385 6.59131 18.9087 6.96154 19.3654 6.96154C19.8221 6.96154 20.1924 6.59131 20.1924 6.13462Z" fill="#333333"/>
<path d="M23.5 6.13462C23.5 5.67792 23.1298 5.30769 22.6731 5.30769C22.2164 5.30769 21.8462 5.67792 21.8462 6.13462C21.8462 6.59131 22.2164 6.96154 22.6731 6.96154C23.1298 6.96154 23.5 6.59131 23.5 6.13462Z" fill="#333333"/>
<path d="M23.5 9.44233C23.5 8.98564 23.1298 8.61541 22.6731 8.61541C22.2164 8.61541 21.8462 8.98564 21.8462 9.44233C21.8462 9.89903 22.2164 10.2693 22.6731 10.2693C23.1298 10.2693 23.5 9.89903 23.5 9.44233Z" fill="#333333"/>
<path d="M23.5 12.75C23.5 12.2933 23.1298 11.9231 22.6731 11.9231C22.2164 11.9231 21.8462 12.2933 21.8462 12.75C21.8462 13.2067 22.2164 13.5769 22.6731 13.5769C23.1298 13.5769 23.5 13.2067 23.5 12.75Z" fill="#333333"/>
<path d="M23.5 16.0577C23.5 15.601 23.1298 15.2308 22.6731 15.2308C22.2164 15.2308 21.8462 15.601 21.8462 16.0577C21.8462 16.5144 22.2164 16.8846 22.6731 16.8846C23.1298 16.8846 23.5 16.5144 23.5 16.0577Z" fill="#333333"/>
<path d="M23.5 19.3654C23.5 18.9087 23.1298 18.5384 22.6731 18.5384C22.2164 18.5384 21.8462 18.9087 21.8462 19.3654C21.8462 19.8221 22.2164 20.1923 22.6731 20.1923C23.1298 20.1923 23.5 19.8221 23.5 19.3654Z" fill="#333333"/>
<path d="M3.65385 6.13462C3.65385 5.67792 3.28362 5.30769 2.82692 5.30769C2.37023 5.30769 2 5.67792 2 6.13462C2 6.59131 2.37023 6.96154 2.82692 6.96154C3.28362 6.96154 3.65385 6.59131 3.65385 6.13462Z" fill="#333333"/>
<path d="M3.65385 9.44233C3.65385 8.98564 3.28362 8.61541 2.82692 8.61541C2.37023 8.61541 2 8.98564 2 9.44233C2 9.89903 2.37023 10.2693 2.82692 10.2693C3.28362 10.2693 3.65385 9.89903 3.65385 9.44233Z" fill="#333333"/>
<path d="M3.65385 12.75C3.65385 12.2933 3.28362 11.9231 2.82692 11.9231C2.37023 11.9231 2 12.2933 2 12.75C2 13.2067 2.37023 13.5769 2.82692 13.5769C3.28362 13.5769 3.65385 13.2067 3.65385 12.75Z" fill="#333333"/>
<path d="M3.65385 16.0577C3.65385 15.601 3.28362 15.2308 2.82692 15.2308C2.37023 15.2308 2 15.601 2 16.0577C2 16.5144 2.37023 16.8846 2.82692 16.8846C3.28362 16.8846 3.65385 16.5144 3.65385 16.0577Z" fill="#333333"/>
<path d="M3.65385 19.3654C3.65385 18.9087 3.28362 18.5384 2.82692 18.5384C2.37023 18.5384 2 18.9087 2 19.3654C2 19.8221 2.37023 20.1923 2.82692 20.1923C3.28362 20.1923 3.65385 19.8221 3.65385 19.3654Z" fill="#333333"/>
<path d="M6.9615 6.13462C6.9615 5.67792 6.59127 5.30769 6.13458 5.30769C5.67788 5.30769 5.30765 5.67792 5.30765 6.13462C5.30765 6.59131 5.67788 6.96154 6.13458 6.96154C6.59127 6.96154 6.9615 6.59131 6.9615 6.13462Z" fill="#333333"/>
<path d="M16.0577 12.75C16.0577 10.9232 14.5768 9.44233 12.75 9.44233C10.9233 9.44233 9.44235 10.9232 9.44235 12.75C9.44235 14.5768 10.9233 16.0577 12.75 16.0577C14.5768 16.0577 16.0577 14.5768 16.0577 12.75Z" fill="#333333"/>
</svg>
