<svg width="64" height="64" viewBox="0 0 64 64" fill="none" xmlns="http://www.w3.org/2000/svg">
<g opacity="0.3">
<path fill-rule="evenodd" clip-rule="evenodd" d="M4.30762 15.9999C4.30762 12.2614 7.33831 9.23071 11.0768 9.23071H52.923C56.6615 9.23071 59.6922 12.2614 59.6922 15.9999V47.9999C59.6922 51.7385 56.6615 54.7692 52.923 54.7692H11.0768C7.3383 54.7692 4.30762 51.7385 4.30762 47.9999V15.9999ZM11.0768 12.923C9.37751 12.923 7.99992 14.3006 7.99992 15.9999V47.9999C7.99992 49.6993 9.37751 51.0769 11.0768 51.0769H52.923C54.6223 51.0769 55.9999 49.6993 55.9999 47.9999V15.9999C55.9999 14.3006 54.6223 12.923 52.923 12.923H11.0768Z" fill="#333333"/>
<path fill-rule="evenodd" clip-rule="evenodd" d="M23.9999 23.3846C23.9999 21.6478 22.4627 20.2028 20.7263 20.3137C19.0717 20.4193 17.8461 21.7285 17.8461 23.3846C17.8461 25.0406 19.0717 26.3498 20.7263 26.4554C22.4627 26.5663 23.9999 25.1214 23.9999 23.3846ZM20.491 16.6289C24.3573 16.382 27.6922 19.5184 27.6922 23.3846C27.6922 27.2507 24.3573 30.3871 20.491 30.1402C16.8892 29.9103 14.1538 26.9851 14.1538 23.3846C14.1538 19.784 16.8892 16.8589 20.491 16.6289Z" fill="#333333"/>
<path fill-rule="evenodd" clip-rule="evenodd" d="M34.6879 27.4156C36.8572 23.9449 41.9119 23.945 44.0811 27.4157L53.2578 42.0984C53.7982 42.963 53.5353 44.102 52.6707 44.6424C51.8061 45.1828 50.6671 44.9199 50.1267 44.0553L40.95 29.3726C40.2269 28.2157 38.542 28.2157 37.819 29.3726L29.8731 42.0854C29.3327 42.95 28.1937 43.2128 27.3291 42.6724C26.4645 42.132 26.2017 40.993 26.7421 40.1284L34.6879 27.4156Z" fill="#333333"/>
<path fill-rule="evenodd" clip-rule="evenodd" d="M17.782 37.0753C19.9993 34.2244 24.3082 34.2244 26.5256 37.0753L32.2264 44.405C32.8524 45.2098 32.7074 46.3697 31.9026 46.9957C31.0978 47.6216 29.9379 47.4767 29.3119 46.6718L23.611 39.3422C22.8719 38.3919 21.4356 38.3919 20.6965 39.3422L14.9957 46.6718C14.3697 47.4767 13.2098 47.6216 12.405 46.9957C11.6001 46.3697 11.4551 45.2098 12.0811 44.405L17.782 37.0753Z" fill="#333333"/>
</g>
</svg>
