<svg width="26" height="26" viewBox="0 0 26 26" fill="none" xmlns="http://www.w3.org/2000/svg">
<path fill-rule="evenodd" clip-rule="evenodd" d="M21.0303 4.96967C21.3232 5.26256 21.3232 5.73744 21.0303 6.03033L6.03033 21.0303C5.73744 21.3232 5.26256 21.3232 4.96967 21.0303C4.67678 20.7374 4.67678 20.2626 4.96967 19.9697L19.9697 4.96967C20.2626 4.67678 20.7374 4.67678 21.0303 4.96967Z" fill="#333333"/>
<path fill-rule="evenodd" clip-rule="evenodd" d="M22.5303 7.46967C22.8232 7.76256 22.8232 8.23744 22.5303 8.53033L8.53033 22.5303C8.23744 22.8232 7.76256 22.8232 7.46967 22.5303C7.17678 22.2374 7.17678 21.7626 7.46967 21.4697L21.4697 7.46967C21.7626 7.17678 22.2374 7.17678 22.5303 7.46967Z" fill="#333333"/>
<path fill-rule="evenodd" clip-rule="evenodd" d="M18.0303 3.96967C18.3232 4.26256 18.3232 4.73744 18.0303 5.03033L5.03033 18.0303C4.73744 18.3232 4.26256 18.3232 3.96967 18.0303C3.67678 17.7374 3.67678 17.2626 3.96967 16.9697L16.9697 3.96967C17.2626 3.67678 17.7374 3.67678 18.0303 3.96967Z" fill="#333333"/>
<path fill-rule="evenodd" clip-rule="evenodd" d="M15.0303 2.96967C15.3232 3.26256 15.3232 3.73744 15.0303 4.03033L4.03033 15.0303C3.73744 15.3232 3.26256 15.3232 2.96967 15.0303C2.67678 14.7374 2.67678 14.2626 2.96967 13.9697L13.9697 2.96967C14.2626 2.67678 14.7374 2.67678 15.0303 2.96967Z" fill="#333333"/>
<path fill-rule="evenodd" clip-rule="evenodd" d="M23.0303 10.9697C23.3232 11.2626 23.3232 11.7374 23.0303 12.0303L12.0303 23.0303C11.7374 23.3232 11.2626 23.3232 10.9697 23.0303C10.6768 22.7374 10.6768 22.2626 10.9697 21.9697L21.9697 10.9697C22.2626 10.6768 22.7374 10.6768 23.0303 10.9697Z" fill="#333333"/>
<path fill-rule="evenodd" clip-rule="evenodd" d="M10.5303 3.46967C10.8232 3.76256 10.8232 4.23744 10.5303 4.53033L4.53033 10.5303C4.23744 10.8232 3.76256 10.8232 3.46967 10.5303C3.17678 10.2374 3.17678 9.76256 3.46967 9.46967L9.46967 3.46967C9.76256 3.17678 10.2374 3.17678 10.5303 3.46967Z" fill="#333333"/>
<path fill-rule="evenodd" clip-rule="evenodd" d="M22.5303 15.4697C22.8232 15.7626 22.8232 16.2374 22.5303 16.5303L16.5303 22.5303C16.2374 22.8232 15.7626 22.8232 15.4697 22.5303C15.1768 22.2374 15.1768 21.7626 15.4697 21.4697L21.4697 15.4697C21.7626 15.1768 22.2374 15.1768 22.5303 15.4697Z" fill="#333333"/>
<path fill-rule="evenodd" clip-rule="evenodd" d="M10.0303 5.96967C10.3232 6.26256 10.3232 6.73744 10.0303 7.03033L7.03033 10.0303C6.73744 10.3232 6.26256 10.3232 5.96967 10.0303C5.67678 9.73744 5.67678 9.26256 5.96967 8.96967L8.96967 5.96967C9.26256 5.67678 9.73744 5.67678 10.0303 5.96967Z" fill="#333333"/>
<path fill-rule="evenodd" clip-rule="evenodd" d="M20.0303 15.9697C20.3232 16.2626 20.3232 16.7374 20.0303 17.0303L17.0303 20.0303C16.7374 20.3232 16.2626 20.3232 15.9697 20.0303C15.6768 19.7374 15.6768 19.2626 15.9697 18.9697L18.9697 15.9697C19.2626 15.6768 19.7374 15.6768 20.0303 15.9697Z" fill="#333333"/>
<path fill-rule="evenodd" clip-rule="evenodd" d="M6.03033 3.96967C6.32322 4.26256 6.32322 4.73744 6.03033 5.03033L5.03033 6.03033C4.73744 6.32322 4.26256 6.32322 3.96967 6.03033C3.67678 5.73744 3.67678 5.26256 3.96967 4.96967L4.96967 3.96967C5.26256 3.67678 5.73744 3.67678 6.03033 3.96967Z" fill="#333333"/>
<path fill-rule="evenodd" clip-rule="evenodd" d="M22.0303 19.9697C22.3232 20.2626 22.3232 20.7374 22.0303 21.0303L21.0303 22.0303C20.7374 22.3232 20.2626 22.3232 19.9697 22.0303C19.6768 21.7374 19.6768 21.2626 19.9697 20.9697L20.9697 19.9697C21.2626 19.6768 21.7374 19.6768 22.0303 19.9697Z" fill="#333333"/>
<path fill-rule="evenodd" clip-rule="evenodd" d="M14.0303 5.96967C14.3232 6.26256 14.3232 6.73744 14.0303 7.03033L7.03033 14.0303C6.73744 14.3232 6.26256 14.3232 5.96967 14.0303C5.67678 13.7374 5.67678 13.2626 5.96967 12.9697L12.9697 5.96967C13.2626 5.67678 13.7374 5.67678 14.0303 5.96967Z" fill="#333333"/>
<path fill-rule="evenodd" clip-rule="evenodd" d="M20.0303 11.9697C20.3232 12.2626 20.3232 12.7374 20.0303 13.0303L13.0303 20.0303C12.7374 20.3232 12.2626 20.3232 11.9697 20.0303C11.6768 19.7374 11.6768 19.2626 11.9697 18.9697L18.9697 11.9697C19.2626 11.6768 19.7374 11.6768 20.0303 11.9697Z" fill="#333333"/>
<path fill-rule="evenodd" clip-rule="evenodd" d="M19.0303 8.96967C19.3232 9.26256 19.3232 9.73744 19.0303 10.0303L10.0303 19.0303C9.73744 19.3232 9.26256 19.3232 8.96967 19.0303C8.67678 18.7374 8.67678 18.2626 8.96967 17.9697L17.9697 8.96967C18.2626 8.67678 18.7374 8.67678 19.0303 8.96967Z" fill="#333333"/>
<path fill-rule="evenodd" clip-rule="evenodd" d="M17.0303 6.96967C17.3232 7.26256 17.3232 7.73744 17.0303 8.03033L8.03033 17.0303C7.73744 17.3232 7.26256 17.3232 6.96967 17.0303C6.67678 16.7374 6.67678 16.2626 6.96967 15.9697L15.9697 6.96967C16.2626 6.67678 16.7374 6.67678 17.0303 6.96967Z" fill="#333333"/>
<path d="M18.5 13C18.5 16.0376 16.0376 18.5 13 18.5C9.96243 18.5 7.5 16.0376 7.5 13C7.5 9.96243 9.96243 7.5 13 7.5C16.0376 7.5 18.5 9.96243 18.5 13Z" fill="#333333"/>
</svg>
