<svg width="20" height="20" viewBox="0 0 20 20" fill="none" xmlns="http://www.w3.org/2000/svg">
<g opacity="0.5">
<path fill-rule="evenodd" clip-rule="evenodd" d="M8.89967 12.0395L15.9616 4.88861V8.84606C15.9616 9.16469 16.2199 9.42298 16.5385 9.42298C16.8571 9.42298 17.1154 9.16469 17.1154 8.84606V3.46144C17.1154 3.14282 16.8571 2.88452 16.5385 2.88452H11.1539C10.8352 2.88452 10.577 3.14282 10.577 3.46144C10.577 3.78007 10.8352 4.03837 11.1539 4.03837H15.1796L8.07868 11.2288C7.85479 11.4555 7.85708 11.8208 8.08379 12.0446C8.3105 12.2685 8.67578 12.2662 8.89967 12.0395ZM14.2308 11.3461C13.9122 11.3461 13.6539 11.6044 13.6539 11.923V14.9999C13.6539 15.5309 13.2234 15.9614 12.6923 15.9614H5.00003C4.46899 15.9614 4.03849 15.5309 4.03849 14.9999V7.3076C4.03849 6.77656 4.46899 6.34606 5.00003 6.34606H8.07695C8.39558 6.34606 8.65387 6.08776 8.65387 5.76914C8.65387 5.45051 8.39558 5.19221 8.07695 5.19221H5.00003C3.83173 5.19221 2.88464 6.1393 2.88464 7.3076V14.9999C2.88464 16.1682 3.83173 17.1153 5.00003 17.1153H12.6923C13.8606 17.1153 14.8077 16.1682 14.8077 14.9999V11.923C14.8077 11.6044 14.5494 11.3461 14.2308 11.3461Z" fill="white"/>
</g>
</svg>
