<svg width="26" height="26" viewBox="0 0 26 26" fill="none" xmlns="http://www.w3.org/2000/svg">
<path fill-rule="evenodd" clip-rule="evenodd" d="M8.75 4.5C8.75 4.08579 9.08579 3.75 9.5 3.75H10C10.4142 3.75 10.75 4.08579 10.75 4.5C10.75 4.91421 10.4142 5.25 10 5.25H9.5C9.08579 5.25 8.75 4.91421 8.75 4.5ZM12.25 4.5C12.25 4.08579 12.5858 3.75 13 3.75H14C14.4142 3.75 14.75 4.08579 14.75 4.5C14.75 4.91421 14.4142 5.25 14 5.25H13C12.5858 5.25 12.25 4.91421 12.25 4.5ZM16.25 4.5C16.25 4.08579 16.5858 3.75 17 3.75H18C18.4142 3.75 18.75 4.08579 18.75 4.5C18.75 4.91421 18.4142 5.25 18 5.25H17C16.5858 5.25 16.25 4.91421 16.25 4.5ZM20.25 4.5C20.25 4.08579 20.5858 3.75 21 3.75H21.5C21.9142 3.75 22.25 4.08579 22.25 4.5V5.03125C22.25 5.44546 21.9142 5.78125 21.5 5.78125C21.1492 5.78125 20.8546 5.54034 20.7727 5.21492C20.4696 5.11863 20.25 4.83496 20.25 4.5ZM21.5 7.46875C21.9142 7.46875 22.25 7.80454 22.25 8.21875V9.28125C22.25 9.69546 21.9142 10.0312 21.5 10.0312C21.0858 10.0312 20.75 9.69546 20.75 9.28125V8.21875C20.75 7.80454 21.0858 7.46875 21.5 7.46875ZM21.5 11.7188C21.9142 11.7188 22.25 12.0545 22.25 12.4688V13.5312C22.25 13.9455 21.9142 14.2812 21.5 14.2812C21.0858 14.2812 20.75 13.9455 20.75 13.5312V12.4688C20.75 12.0545 21.0858 11.7188 21.5 11.7188ZM21.5 15.9688C21.9142 15.9688 22.25 16.3045 22.25 16.7188V17.7812C22.25 18.1955 21.9142 18.5312 21.5 18.5312C21.0858 18.5312 20.75 18.1955 20.75 17.7812V16.7188C20.75 16.3045 21.0858 15.9688 21.5 15.9688ZM21.5 20.2188C21.9142 20.2188 22.25 20.5545 22.25 20.9688V21.5C22.25 21.9142 21.9142 22.25 21.5 22.25H21C20.5858 22.25 20.25 21.9142 20.25 21.5C20.25 21.165 20.4696 20.8814 20.7727 20.7851C20.8546 20.4597 21.1492 20.2188 21.5 20.2188ZM8.75 21.5C8.75 21.0858 9.08579 20.75 9.5 20.75H10C10.4142 20.75 10.75 21.0858 10.75 21.5C10.75 21.9142 10.4142 22.25 10 22.25H9.5C9.08579 22.25 8.75 21.9142 8.75 21.5ZM12.25 21.5C12.25 21.0858 12.5858 20.75 13 20.75H14C14.4142 20.75 14.75 21.0858 14.75 21.5C14.75 21.9142 14.4142 22.25 14 22.25H13C12.5858 22.25 12.25 21.9142 12.25 21.5ZM16.25 21.5C16.25 21.0858 16.5858 20.75 17 20.75H18C18.4142 20.75 18.75 21.0858 18.75 21.5C18.75 21.9142 18.4142 22.25 18 22.25H17C16.5858 22.25 16.25 21.9142 16.25 21.5Z" fill="#333333"/>
<path fill-rule="evenodd" clip-rule="evenodd" d="M4.96967 3.96967C5.26256 3.67678 5.73744 3.67678 6.03033 3.96967L9.03033 6.96967C9.32322 7.26256 9.32322 7.73744 9.03033 8.03033C8.73744 8.32322 8.26256 8.32322 7.96967 8.03033L6.25 6.31066V19.6893L7.96967 17.9697C8.26256 17.6768 8.73744 17.6768 9.03033 17.9697C9.32322 18.2626 9.32322 18.7374 9.03033 19.0303L6.03033 22.0303C5.73744 22.3232 5.26256 22.3232 4.96967 22.0303L1.96967 19.0303C1.67678 18.7374 1.67678 18.2626 1.96967 17.9697C2.26256 17.6768 2.73744 17.6768 3.03033 17.9697L4.75 19.6893V6.31066L3.03033 8.03033C2.73744 8.32322 2.26256 8.32322 1.96967 8.03033C1.67678 7.73744 1.67678 7.26256 1.96967 6.96967L4.96967 3.96967Z" fill="#333333"/>
</svg>
