<svg xmlns="http://www.w3.org/2000/svg" width="26" height="26" fill-rule="evenodd" stroke-miterlimit="1.414" clip-rule="evenodd" stroke-linejoin="round"><path  fill-rule="nonzero" d="M5.302 18.922a6.777 6.777 0 0 1 2.102 2.304l2.327-.309a1.25 1.25 0 0 0 .719-.355l7.541-7.541a.75.75 0 0 1 1.061 1.06l-7.541 7.542a2.748 2.748 0 0 1-1.583.781l-6.329.839a.75.75 0 0 1-.82-.949l1.857-6.502c.129-.449.37-.858.7-1.189l7.123-7.123a.75.75 0 1 1 1.061 1.061l-7.123 7.123c-.15.15-.26.336-.318.54l-.777 2.718zm14.763-6.771a.837.837 0 0 1-.145-.145L14.543 6.61a.684.684 0 0 1-.155-.155l-.756-.759c-.706-.708.356-1.767 1.062-1.059l.304.305 1.061-1.061a2.75 2.75 0 0 1 3.889.024l2.691 2.725a2.75 2.75 0 0 1-.013 3.877l-1.042 1.043.29.291c.705.708-.357 1.767-1.063 1.059l-.746-.749zm.46-1.663l1.041-1.042a1.25 1.25 0 0 0 .005-1.762L18.88 4.959a1.251 1.251 0 0 0-1.773-.005l-1.051 1.05 4.469 4.484zm-6.204-1.12a.752.752 0 0 1 1.061 0 .752.752 0 0 1 0 1.061L8.79 17.02a.749.749 0 1 1-1.06-1.06l6.591-6.592zm1.846 1.794a.75.75 0 1 1 1.061 1.061l-6.51 6.51a.75.75 0 0 1-1.06-1.061l6.509-6.51z"/></svg>