<svg width="27" height="26" viewBox="0 0 27 26" fill="none" xmlns="http://www.w3.org/2000/svg">
<path fill-rule="evenodd" clip-rule="evenodd" d="M17.1738 2.75C18.6926 2.75 19.9238 3.98122 19.9238 5.5V19.5C19.9238 21.0188 18.6926 22.25 17.1738 22.25H10.1738C8.65505 22.25 7.42383 21.0188 7.42383 19.5V5.5C7.42383 3.98122 8.65505 2.75 10.1738 2.75H17.1738ZM17.1738 4.25H10.1738C9.48347 4.25 8.92383 4.80964 8.92383 5.5V19.5C8.92383 20.1904 9.48347 20.75 10.1738 20.75H17.1738C17.8642 20.75 18.4238 20.1904 18.4238 19.5V5.5C18.4238 4.80964 17.8642 4.25 17.1738 4.25ZM15.1738 6.25H12.1738C11.7596 6.25 11.4238 5.91421 11.4238 5.5C11.4238 5.08579 11.7596 4.75 12.1738 4.75H15.1738C15.588 4.75 15.9238 5.08579 15.9238 5.5C15.9238 5.91421 15.588 6.25 15.1738 6.25Z" fill="#212121"/>
<mask id="mask0" mask-type="alpha" maskUnits="userSpaceOnUse" x="7" y="2" width="13" height="21">
<path fill-rule="evenodd" clip-rule="evenodd" d="M17.1738 2.75C18.6926 2.75 19.9238 3.98122 19.9238 5.5V19.5C19.9238 21.0188 18.6926 22.25 17.1738 22.25H10.1738C8.65505 22.25 7.42383 21.0188 7.42383 19.5V5.5C7.42383 3.98122 8.65505 2.75 10.1738 2.75H17.1738ZM17.1738 4.25H10.1738C9.48347 4.25 8.92383 4.80964 8.92383 5.5V19.5C8.92383 20.1904 9.48347 20.75 10.1738 20.75H17.1738C17.8642 20.75 18.4238 20.1904 18.4238 19.5V5.5C18.4238 4.80964 17.8642 4.25 17.1738 4.25ZM15.1738 6.25H12.1738C11.7596 6.25 11.4238 5.91421 11.4238 5.5C11.4238 5.08579 11.7596 4.75 12.1738 4.75H15.1738C15.588 4.75 15.9238 5.08579 15.9238 5.5C15.9238 5.91421 15.588 6.25 15.1738 6.25Z" fill="white"/>
</mask>
<g mask="url(#mask0)">
<rect x="0.673828" width="26" height="26" fill="white"/>
</g>
</svg>
