<svg width="26" height="26" viewBox="0 0 26 26" fill="none" xmlns="http://www.w3.org/2000/svg">
<path fill-rule="evenodd" clip-rule="evenodd" d="M17.5545 8.56574C17.8475 8.85859 17.8475 9.33347 17.5547 9.6264L9.35841 17.8248C9.06555 18.1178 8.59068 18.1178 8.29775 17.825C8.00482 17.5321 8.00475 17.0572 8.29761 16.7643L16.4939 8.56588C16.7867 8.27295 17.2616 8.27288 17.5545 8.56574Z" fill="#333333"/>
<path fill-rule="evenodd" clip-rule="evenodd" d="M9.35158 10.9928C9.64447 11.2857 9.64447 11.7606 9.35158 12.0535L6.87671 14.5284C5.6075 15.7976 5.6075 17.8553 6.87671 19.1245C8.14591 20.3938 10.2037 20.3938 11.4729 19.1245L13.9478 16.6497C14.2407 16.3568 14.7155 16.3568 15.0084 16.6497C15.3013 16.9426 15.3013 17.4174 15.0084 17.7103L12.5336 20.1852C10.6786 22.0402 7.67104 22.0402 5.81605 20.1852C3.96106 18.3302 3.96106 15.3227 5.81605 13.4677L8.29092 10.9928C8.58381 10.6999 9.05869 10.6999 9.35158 10.9928Z" fill="#333333"/>
<path fill-rule="evenodd" clip-rule="evenodd" d="M16.6444 15.0136C16.3515 14.7207 16.3515 14.2459 16.6444 13.953L19.1193 11.4781C20.3885 10.2089 20.3885 8.15111 19.1193 6.8819C17.8501 5.6127 15.7923 5.6127 14.5231 6.8819L12.0482 9.35678C11.7553 9.64967 11.2805 9.64967 10.9876 9.35678C10.6947 9.06388 10.6947 8.58901 10.9876 8.29612L13.4625 5.82124C15.3174 3.96625 18.325 3.96625 20.18 5.82124C22.035 7.67623 22.035 10.6838 20.18 12.5388L17.7051 15.0136C17.4122 15.3065 16.9373 15.3065 16.6444 15.0136Z" fill="#333333"/>
</svg>
