<svg width="26" height="26" viewBox="0 0 26 26" fill="none" xmlns="http://www.w3.org/2000/svg">
<mask id="mask0" mask-type="alpha" maskUnits="userSpaceOnUse" x="3" y="2" width="20" height="22">
<path fill-rule="evenodd" clip-rule="evenodd" d="M12.5 20.25C7.66751 20.25 3.75 16.3325 3.75 11.5C3.75 6.66751 7.66751 2.75 12.5 2.75C17.3325 2.75 21.25 6.66751 21.25 11.5C21.25 12.5471 21.0657 13.57 20.7099 14.5328C20.5663 14.9214 20.135 15.1199 19.7464 14.9764C19.3579 14.8328 19.1593 14.4014 19.3029 14.0129C19.5974 13.2159 19.75 12.369 19.75 11.5C19.75 7.49594 16.5041 4.25 12.5 4.25C8.49594 4.25 5.25 7.49594 5.25 11.5C5.25 15.5041 8.49594 18.75 12.5 18.75C14.4479 18.75 16.272 17.9793 17.623 16.63C17.9158 16.3377 18.39 16.3376 18.6828 16.6299L22.029 19.9701C22.8744 20.814 22.8756 22.1835 22.0317 23.029C21.1852 23.8755 19.8148 23.8755 18.9697 23.0303L17.4697 21.5303C17.1768 21.2374 17.1768 20.7626 17.4697 20.4697C17.7626 20.1768 18.2374 20.1768 18.5303 20.4697L20.0303 21.9697C20.2897 22.2291 20.7103 22.2291 20.9697 21.9697C21.2288 21.7101 21.2284 21.2904 20.9693 21.0317L18.1306 18.1981C16.5716 19.5105 14.5936 20.25 12.5 20.25Z" fill="white"/>
</mask>
<g mask="url(#mask0)">
<rect width="26" height="26" fill="#333333"/>
</g>
</svg>
