<svg xmlns="http://www.w3.org/2000/svg" width="26" height="26" viewBox="0 0 26 26"><path d="M12.528 22.583a.75.75 0 0 0 .944 0l6-4.857a.75.75 0 1 0-.944-1.166l-4.778 3.868V6a.75.75 0 0 0-1.5 0v14.428L7.472 16.56a.75.75 0 0 0-.944 1.166l6 4.857zM3.75 7c0 .414.336.75.75.75H5a.75.75 0 0 0 0-1.5h-.5a.75.75 0 0 0-.75.75zm4 0c0 .414.336.75.75.75H9a.75.75 0 1 0 0-1.5h-.5a.75.75 0 0 0-.75.75zm8 0c0 .414.336.75.75.75h.5a.75.75 0 0 0 0-1.5h-.5a.75.75 0 0 0-.75.75zm4 0c0 .414.336.75.75.75h.5a.75.75 0 0 0 0-1.5h-.5a.75.75 0 0 0-.75.75zm-14-3c0 .414.336.75.75.75H7a.75.75 0 1 0 0-1.5h-.5a.75.75 0 0 0-.75.75zm4 0c0 .414.336.75.75.75h.5a.75.75 0 0 0 0-1.5h-.5a.75.75 0 0 0-.75.75zm12 0c0 .414.336.75.75.75h.5a.75.75 0 0 0 0-1.5h-.5a.75.75 0 0 0-.75.75zm-20 0c0 .414.336.75.75.75H3a.75.75 0 0 0 0-1.5h-.5a.75.75 0 0 0-.75.75zm16 0c0 .414.336.75.75.75h.5a.75.75 0 0 0 0-1.5h-.5a.75.75 0 0 0-.75.75zm-4 0c0 .414.336.75.75.75h.5a.75.75 0 0 0 0-1.5h-.5a.75.75 0 0 0-.75.75z"/></svg>