<svg width="24" height="24" viewBox="0 0 24 24" fill="none" xmlns="http://www.w3.org/2000/svg">
<path fill-rule="evenodd" clip-rule="evenodd" d="M17.525 12.15L5.525 12.152C5.17983 12.152 4.89996 11.8723 4.8999 11.5271C4.89985 11.1819 5.17962 10.902 5.5248 10.902L17.5248 10.9C17.87 10.9 18.1498 11.1797 18.1499 11.5249C18.15 11.8701 17.8702 12.15 17.525 12.15Z" fill="#212121"/>
<path fill-rule="evenodd" clip-rule="evenodd" d="M11.5249 4.90002C11.8701 4.90002 12.1499 5.17985 12.1499 5.52502V17.525C12.1499 17.8702 11.8701 18.15 11.5249 18.15C11.1797 18.15 10.8999 17.8702 10.8999 17.525V5.52502C10.8999 5.17985 11.1797 4.90002 11.5249 4.90002Z" fill="#212121"/>
</svg>
