<svg xmlns="http://www.w3.org/2000/svg" width="26" height="26" viewBox="0 0 26 26"><path d="M11.253 7.934A.75.75 0 0 1 12 7.25h2a.75.75 0 0 1 .748.688l.942 11.307a.75.75 0 1 1-1.495.124L13.31 8.75h-.623l-.938 10.623a.75.75 0 0 1-1.494-.132l.998-11.307z" clip-rule="evenodd"/><path fill-rule="evenodd" d="M13 3.75a1.75 1.75 0 1 0 0 3.5 1.75 1.75 0 0 0 0-3.5zM9.75 5.5a3.25 3.25 0 1 1 6.5 0 3.25 3.25 0 0 1-6.5 0zm-4.502 7.42a1.75 1.75 0 0 0-2.423.505L.906 16.353a.75.75 0 0 0 1.255.822l1.918-2.928a.25.25 0 0 1 .347-.072l2.927 1.919a.75.75 0 0 0 .822-1.255l-2.927-1.918zm15.614 0a1.75 1.75 0 0 1 2.423.505l1.645 2.51a.75.75 0 1 1-1.255.822l-1.644-2.51a.25.25 0 0 0-.346-.072l-2.51 1.645a.75.75 0 0 1-.822-1.255l2.51-1.644z" clip-rule="evenodd"/><path fill-rule="evenodd" d="M12.25 7.75a.75.75 0 0 1-.75.75H7.75a.75.75 0 0 1 0-1.5h3.75a.75.75 0 0 1 .75.75zm6.75 0a.75.75 0 0 1-.75.75h-4.14a.75.75 0 1 1 0-1.5h4.14a.75.75 0 0 1 .75.75zm3.025 5a.75.75 0 0 1 .712.787c-.263 5.33-4.405 9.638-9.663 10.16a.75.75 0 0 1-.148-1.493 9.252 9.252 0 0 0 8.313-8.74.75.75 0 0 1 .786-.713z" clip-rule="evenodd"/><path fill-rule="evenodd" d="M3.975 12.75a.75.75 0 0 0-.712.787c.263 5.33 4.405 9.638 9.663 10.16a.75.75 0 0 0 .148-1.493 9.252 9.252 0 0 1-8.313-8.74.75.75 0 0 0-.786-.713z" clip-rule="evenodd"/></svg>