<svg width="26" height="26" viewBox="0 0 26 26" fill="none" xmlns="http://www.w3.org/2000/svg">
<path fill-rule="evenodd" clip-rule="evenodd" d="M3.75 4.5C3.75 4.08579 4.08579 3.75 4.5 3.75H5.03125C5.44546 3.75 5.78125 4.08579 5.78125 4.5C5.78125 4.84729 5.5452 5.13945 5.22479 5.22479C5.13945 5.5452 4.84729 5.78125 4.5 5.78125C4.08579 5.78125 3.75 5.44546 3.75 5.03125V4.5Z" fill="#9A4CBD"/>
<path d="M4.5 4.4375C4.91421 4.4375 5.25 4.77329 5.25 5.1875V6.25C5.25 6.66421 4.91421 7 4.5 7C4.08579 7 3.75 6.66421 3.75 6.25V5.1875C3.75 4.77329 4.08579 4.4375 4.5 4.4375Z" fill="#9A4CBD"/>
<path d="M4.4375 4.5C4.4375 4.08579 4.77329 3.75 5.1875 3.75H6.25C6.66421 3.75 7 4.08579 7 4.5C7 4.91421 6.66421 5.25 6.25 5.25H5.1875C4.77329 5.25 4.4375 4.91421 4.4375 4.5Z" fill="#9A4CBD"/>
<path fill-rule="evenodd" clip-rule="evenodd" d="M22.25 4.5C22.25 4.08579 21.9142 3.75 21.5 3.75H20.9688C20.5545 3.75 20.2188 4.08579 20.2188 4.5C20.2188 4.84729 20.4548 5.13945 20.7752 5.22479C20.8605 5.5452 21.1527 5.78125 21.5 5.78125C21.9142 5.78125 22.25 5.44546 22.25 5.03125V4.5Z" fill="#9A4CBD"/>
<path d="M21.5 4.4375C21.0858 4.4375 20.75 4.77329 20.75 5.1875V6.25C20.75 6.66421 21.0858 7 21.5 7C21.9142 7 22.25 6.66421 22.25 6.25V5.1875C22.25 4.77329 21.9142 4.4375 21.5 4.4375Z" fill="#9A4CBD"/>
<path d="M21.5625 4.5C21.5625 4.08579 21.2267 3.75 20.8125 3.75H19.75C19.3358 3.75 19 4.08579 19 4.5C19 4.91421 19.3358 5.25 19.75 5.25H20.8125C21.2267 5.25 21.5625 4.91421 21.5625 4.5Z" fill="#9A4CBD"/>
<path fill-rule="evenodd" clip-rule="evenodd" d="M3.75 21.5C3.75 21.9142 4.08579 22.25 4.5 22.25H5.03125C5.44546 22.25 5.78125 21.9142 5.78125 21.5C5.78125 21.1527 5.5452 20.8605 5.22479 20.7752C5.13945 20.4548 4.84729 20.2188 4.5 20.2188C4.08579 20.2188 3.75 20.5545 3.75 20.9688V21.5Z" fill="#9A4CBD"/>
<path d="M4.5 21.5625C4.91421 21.5625 5.25 21.2267 5.25 20.8125V19.75C5.25 19.3358 4.91421 19 4.5 19C4.08579 19 3.75 19.3358 3.75 19.75V20.8125C3.75 21.2267 4.08579 21.5625 4.5 21.5625Z" fill="#9A4CBD"/>
<path d="M4.4375 21.5C4.4375 21.9142 4.77329 22.25 5.1875 22.25H6.25C6.66421 22.25 7 21.9142 7 21.5C7 21.0858 6.66421 20.75 6.25 20.75H5.1875C4.77329 20.75 4.4375 21.0858 4.4375 21.5Z" fill="#9A4CBD"/>
<path fill-rule="evenodd" clip-rule="evenodd" d="M22.25 21.5C22.25 21.9142 21.9142 22.25 21.5 22.25H20.9688C20.5545 22.25 20.2188 21.9142 20.2188 21.5C20.2188 21.1527 20.4548 20.8605 20.7752 20.7752C20.8605 20.4548 21.1527 20.2188 21.5 20.2188C21.9142 20.2188 22.25 20.5545 22.25 20.9688V21.5Z" fill="#9A4CBD"/>
<path d="M21.5 21.5625C21.0858 21.5625 20.75 21.2267 20.75 20.8125V19.75C20.75 19.3358 21.0858 19 21.5 19C21.9142 19 22.25 19.3358 22.25 19.75V20.8125C22.25 21.2267 21.9142 21.5625 21.5 21.5625Z" fill="#9A4CBD"/>
<path d="M21.5625 21.5C21.5625 21.9142 21.2267 22.25 20.8125 22.25H19.75C19.3358 22.25 19 21.9142 19 21.5C19 21.0858 19.3358 20.75 19.75 20.75H20.8125C21.2267 20.75 21.5625 21.0858 21.5625 21.5Z" fill="#9A4CBD"/>
<path fill-rule="evenodd" clip-rule="evenodd" d="M18.75 10.5C18.75 9.5335 19.5335 8.75 20.5 8.75H22.5C23.4665 8.75 24.25 9.5335 24.25 10.5V15.5C24.25 16.4665 23.4665 17.25 22.5 17.25H20.5C19.5335 17.25 18.75 16.4665 18.75 15.5V10.5ZM20.5 10.25C20.3619 10.25 20.25 10.3619 20.25 10.5V15.5C20.25 15.6381 20.3619 15.75 20.5 15.75H22.5C22.6381 15.75 22.75 15.6381 22.75 15.5V10.5C22.75 10.3619 22.6381 10.25 22.5 10.25H20.5Z" fill="#9A4CBD"/>
<path fill-rule="evenodd" clip-rule="evenodd" d="M1.75 10.5C1.75 9.5335 2.5335 8.75 3.5 8.75H5.5C6.4665 8.75 7.25 9.5335 7.25 10.5V15.5C7.25 16.4665 6.4665 17.25 5.5 17.25H3.5C2.5335 17.25 1.75 16.4665 1.75 15.5V10.5ZM3.5 10.25C3.36193 10.25 3.25 10.3619 3.25 10.5V15.5C3.25 15.6381 3.36193 15.75 3.5 15.75H5.5C5.63807 15.75 5.75 15.6381 5.75 15.5V10.5C5.75 10.3619 5.63807 10.25 5.5 10.25H3.5Z" fill="#9A4CBD"/>
<path fill-rule="evenodd" clip-rule="evenodd" d="M8.75 20.5C8.75 19.5335 9.5335 18.75 10.5 18.75H15.5C16.4665 18.75 17.25 19.5335 17.25 20.5V22.5C17.25 23.4665 16.4665 24.25 15.5 24.25H10.5C9.5335 24.25 8.75 23.4665 8.75 22.5V20.5ZM10.5 20.25C10.3619 20.25 10.25 20.3619 10.25 20.5V22.5C10.25 22.6381 10.3619 22.75 10.5 22.75H15.5C15.6381 22.75 15.75 22.6381 15.75 22.5V20.5C15.75 20.3619 15.6381 20.25 15.5 20.25H10.5Z" fill="#9A4CBD"/>
<path fill-rule="evenodd" clip-rule="evenodd" d="M8.75 3.5C8.75 2.5335 9.5335 1.75 10.5 1.75H15.5C16.4665 1.75 17.25 2.5335 17.25 3.5V5.5C17.25 6.4665 16.4665 7.25 15.5 7.25H10.5C9.5335 7.25 8.75 6.4665 8.75 5.5V3.5ZM10.5 3.25C10.3619 3.25 10.25 3.36193 10.25 3.5V5.5C10.25 5.63807 10.3619 5.75 10.5 5.75H15.5C15.6381 5.75 15.75 5.63807 15.75 5.5V3.5C15.75 3.36193 15.6381 3.25 15.5 3.25H10.5Z" fill="#9A4CBD"/>
<path fill-rule="evenodd" clip-rule="evenodd" d="M8.75 9.5C8.75 9.08579 9.08579 8.75 9.5 8.75H9.9375C10.3517 8.75 10.6875 9.08579 10.6875 9.5C10.6875 9.8211 10.4857 10.0951 10.202 10.202C10.0951 10.4857 9.8211 10.6875 9.5 10.6875C9.08579 10.6875 8.75 10.3517 8.75 9.9375V9.5ZM11.8125 9.5C11.8125 9.08579 12.1483 8.75 12.5625 8.75H13.4375C13.8517 8.75 14.1875 9.08579 14.1875 9.5C14.1875 9.91421 13.8517 10.25 13.4375 10.25H12.5625C12.1483 10.25 11.8125 9.91421 11.8125 9.5ZM15.3125 9.5C15.3125 9.08579 15.6483 8.75 16.0625 8.75H16.5C16.9142 8.75 17.25 9.08579 17.25 9.5V9.9375C17.25 10.3517 16.9142 10.6875 16.5 10.6875C16.1789 10.6875 15.9049 10.4857 15.798 10.202C15.5143 10.0951 15.3125 9.8211 15.3125 9.5ZM9.5 11.8125C9.91421 11.8125 10.25 12.1483 10.25 12.5625V13.4375C10.25 13.8517 9.91421 14.1875 9.5 14.1875C9.08579 14.1875 8.75 13.8517 8.75 13.4375V12.5625C8.75 12.1483 9.08579 11.8125 9.5 11.8125ZM16.5 11.8125C16.9142 11.8125 17.25 12.1483 17.25 12.5625V13.4375C17.25 13.8517 16.9142 14.1875 16.5 14.1875C16.0858 14.1875 15.75 13.8517 15.75 13.4375V12.5625C15.75 12.1483 16.0858 11.8125 16.5 11.8125ZM10.202 15.798C10.0951 15.5143 9.8211 15.3125 9.5 15.3125C9.08579 15.3125 8.75 15.6483 8.75 16.0625V16.5C8.75 16.9142 9.08579 17.25 9.5 17.25H9.9375C10.3517 17.25 10.6875 16.9142 10.6875 16.5C10.6875 16.1789 10.4857 15.9049 10.202 15.798ZM16.5 15.3125C16.9142 15.3125 17.25 15.6483 17.25 16.0625V16.5C17.25 16.9142 16.9142 17.25 16.5 17.25H16.0625C15.6483 17.25 15.3125 16.9142 15.3125 16.5C15.3125 16.1789 15.5143 15.9049 15.798 15.798C15.9049 15.5143 16.1789 15.3125 16.5 15.3125ZM11.8125 16.5C11.8125 16.0858 12.1483 15.75 12.5625 15.75H13.4375C13.8517 15.75 14.1875 16.0858 14.1875 16.5C14.1875 16.9142 13.8517 17.25 13.4375 17.25H12.5625C12.1483 17.25 11.8125 16.9142 11.8125 16.5Z" fill="#9A4CBD"/>
</svg>
