<svg xmlns="http://www.w3.org/2000/svg" width="26" height="26" viewBox="0 0 26 26"><path  d="M20.844 5.298a4.75 4.75 0 0 0-6.715-.003l-1.18 1.18-.81.811a.75.75 0 1 0 1.06 1.06l.811-.81 1.18-1.18a3.25 3.25 0 0 1 4.596 4.596l-2.834 2.834a3.25 3.25 0 0 1-4.593-.003.75.75 0 0 0-1.06 0l-2.35 2.35a.75.75 0 0 0 1.061 1.06l1.872-1.872a4.74 4.74 0 0 0 6.13-.474l2.835-2.834a4.753 4.753 0 0 0-.003-6.715zm-7.991 12.587l-.775.775-1.126 1.126a3.25 3.25 0 0 1-4.596-4.596l2.834-2.834a3.25 3.25 0 0 1 4.593.003.75.75 0 0 0 1.061 0l3.196-3.197a.75.75 0 0 0-1.06-1.06l-2.72 2.72a4.74 4.74 0 0 0-6.13.473L5.294 14.13a4.75 4.75 0 0 0 6.718 6.718l1.126-1.126.775-.775a.75.75 0 1 0-1.061-1.06z"/></svg>