<svg width="20" height="20" viewBox="0 0 20 20" fill="none" xmlns="http://www.w3.org/2000/svg">
<path fill-rule="evenodd" clip-rule="evenodd" d="M8.97 7.03C9.26551 7.30536 9.72601 7.29723 10.0116 7.01162C10.2972 6.72601 10.3054 6.26551 10.03 5.97L8.56 4.5L10.81 2.25H16.69L11.077 7.862C10.7929 8.15642 10.7972 8.6242 11.0866 8.91336C11.3761 9.20253 11.8439 9.20637 12.138 8.922L19.03 2.03C19.2442 1.81551 19.3083 1.49316 19.1923 1.21308C19.0763 0.932995 18.8031 0.750267 18.5 0.75H10.5C10.3012 0.750175 10.1105 0.829308 9.97 0.97L6.97 3.97C6.67755 4.26282 6.67755 4.73718 6.97 5.03L8.97 7.03ZM11.03 12.97C10.7345 12.6946 10.274 12.7028 9.98838 12.9884C9.70277 13.274 9.69464 13.7345 9.97 14.03L11.44 15.5L9.19 17.75H3.31L8.84 12.22C9.11536 11.9245 9.10723 11.464 8.82162 11.1784C8.53601 10.8928 8.07551 10.8846 7.78 11.16L0.97 17.97C0.75578 18.1845 0.691742 18.5068 0.807713 18.7869C0.923684 19.067 1.19686 19.2497 1.5 19.25H9.5C9.69884 19.2498 9.88948 19.1707 10.03 19.03L13.03 16.03C13.3225 15.7372 13.3225 15.2628 13.03 14.97L11.03 12.97ZM10 11C9.44771 11 9 10.5523 9 10C9 9.44771 9.44771 9 10 9C10.5523 9 11 9.44771 11 10C11 10.5523 10.5523 11 10 11ZM5.03 13.03L7.03 11.03C7.30536 10.7345 7.29723 10.274 7.01162 9.98838C6.72601 9.70277 6.26551 9.69464 5.97 9.97L4.5 11.44L2.25 9.19V3.31L7.76 8.822C7.94953 9.01171 8.22587 9.08589 8.48493 9.01661C8.74398 8.94733 8.9464 8.7451 9.01593 8.48611C9.08545 8.22712 9.01153 7.95071 8.822 7.761L2.03 0.97C1.81551 0.75578 1.49316 0.691742 1.21308 0.807713C0.932995 0.923684 0.750267 1.19686 0.75 1.5V9.5C0.750175 9.69884 0.829308 9.88948 0.97 10.03L3.97 13.03C4.26282 13.3225 4.73718 13.3225 5.03 13.03ZM16.03 6.97L19.03 9.97C19.1707 10.1105 19.2498 10.3012 19.25 10.5V18.5C19.2497 18.8031 19.067 19.0763 18.7869 19.1923C18.5068 19.3083 18.1845 19.2442 17.97 19.03L11.038 12.097C10.7626 11.8015 10.7708 11.341 11.0564 11.0554C11.342 10.7698 11.8025 10.7616 12.098 11.037L17.75 16.689V10.811L15.504 8.565L14.016 10.076C13.7242 10.3636 13.2556 10.3637 12.9635 10.0763C12.6715 9.78895 12.6642 9.32041 12.947 9.024L14.966 6.974C15.1063 6.83179 15.2974 6.7514 15.4972 6.75065C15.6969 6.7499 15.8887 6.82885 16.03 6.97Z" fill="#212121"/>
</svg>
