<svg width="27" height="26" viewBox="0 0 27 26" fill="none" xmlns="http://www.w3.org/2000/svg">
<path fill-rule="evenodd" clip-rule="evenodd" d="M14.4233 20.25H22.1733C23.6921 20.25 24.9233 19.0188 24.9233 17.5V5.5C24.9233 3.98122 23.6921 2.75 22.1733 2.75H5.17334C3.65456 2.75 2.42334 3.98122 2.42334 5.5V17.5C2.42334 19.0188 3.65456 20.25 5.17334 20.25H10.6733C11.0876 20.25 11.4233 19.9142 11.4233 19.5C11.4233 19.0858 11.0876 18.75 10.6733 18.75H5.17334C4.48298 18.75 3.92334 18.1904 3.92334 17.5V5.5C3.92334 4.80964 4.48298 4.25 5.17334 4.25H22.1733C22.8637 4.25 23.4233 4.80964 23.4233 5.5V17.5C23.4233 18.1904 22.8637 18.75 22.1733 18.75H13.6938C13.3099 18.75 12.9933 19.0386 12.9491 19.4107C12.9323 19.4731 12.9233 19.5386 12.9233 19.6063V22.75H9.17334C8.75913 22.75 8.42334 23.0858 8.42334 23.5C8.42334 23.9142 8.75913 24.25 9.17334 24.25H18.1733C18.5876 24.25 18.9233 23.9142 18.9233 23.5C18.9233 23.0858 18.5876 22.75 18.1733 22.75H14.4233V20.25ZM22.1733 17.25H5.17334C4.75913 17.25 4.42334 16.9142 4.42334 16.5C4.42334 16.0858 4.75913 15.75 5.17334 15.75H22.1733C22.5876 15.75 22.9233 16.0858 22.9233 16.5C22.9233 16.9142 22.5876 17.25 22.1733 17.25Z" fill="#212121"/>
<mask id="mask0" mask-type="alpha" maskUnits="userSpaceOnUse" x="2" y="2" width="23" height="23">
<path fill-rule="evenodd" clip-rule="evenodd" d="M14.4233 20.25H22.1733C23.6921 20.25 24.9233 19.0188 24.9233 17.5V5.5C24.9233 3.98122 23.6921 2.75 22.1733 2.75H5.17334C3.65456 2.75 2.42334 3.98122 2.42334 5.5V17.5C2.42334 19.0188 3.65456 20.25 5.17334 20.25H10.6733C11.0876 20.25 11.4233 19.9142 11.4233 19.5C11.4233 19.0858 11.0876 18.75 10.6733 18.75H5.17334C4.48298 18.75 3.92334 18.1904 3.92334 17.5V5.5C3.92334 4.80964 4.48298 4.25 5.17334 4.25H22.1733C22.8637 4.25 23.4233 4.80964 23.4233 5.5V17.5C23.4233 18.1904 22.8637 18.75 22.1733 18.75H13.6938C13.3099 18.75 12.9933 19.0386 12.9491 19.4107C12.9323 19.4731 12.9233 19.5386 12.9233 19.6063V22.75H9.17334C8.75913 22.75 8.42334 23.0858 8.42334 23.5C8.42334 23.9142 8.75913 24.25 9.17334 24.25H18.1733C18.5876 24.25 18.9233 23.9142 18.9233 23.5C18.9233 23.0858 18.5876 22.75 18.1733 22.75H14.4233V20.25ZM22.1733 17.25H5.17334C4.75913 17.25 4.42334 16.9142 4.42334 16.5C4.42334 16.0858 4.75913 15.75 5.17334 15.75H22.1733C22.5876 15.75 22.9233 16.0858 22.9233 16.5C22.9233 16.9142 22.5876 17.25 22.1733 17.25Z" fill="white"/>
</mask>
<g mask="url(#mask0)">
<rect x="0.67334" width="26" height="26" fill="white"/>
</g>
</svg>
