<svg width="26px" height="26px" viewBox="0 0 26 26" version="1.1" xmlns="http://www.w3.org/2000/svg"><path d="M13,23.75c-5.937,0 -10.75,-4.813 -10.75,-10.75c0,-5.937 4.813,-10.75 10.75,-10.75c5.937,0 10.75,4.813 10.75,10.75c0,5.937 -4.813,10.75 -10.75,10.75Zm0,-1.5c5.109,0 9.25,-4.141 9.25,-9.25c0,-5.109 -4.141,-9.25 -9.25,-9.25c-5.109,0 -9.25,4.141 -9.25,9.25c0,5.109 4.141,9.25 9.25,9.25Zm-1.736,-13.672c-0.8,0.35 -1.243,0.945 -1.263,1.968c0.007,0.034 0.017,0.072 0.027,0.112c0.037,0.14 0.083,0.278 0.136,0.402c0.044,0.104 0.091,0.19 0.135,0.251c0.243,0.336 0.168,0.805 -0.168,1.047c-0.336,0.243 -0.805,0.168 -1.047,-0.168c-0.116,-0.16 -0.214,-0.341 -0.299,-0.54c-0.085,-0.198 -0.153,-0.403 -0.207,-0.608c-0.019,-0.071 -0.035,-0.138 -0.048,-0.199c-0.007,-0.034 -0.007,-0.034 -0.018,-0.087l-0.012,-0.136c0,-1.694 0.821,-2.83 2.165,-3.416c0.471,-0.206 0.979,-0.332 1.509,-0.398c0.348,-0.044 0.612,-0.055 0.945,-0.055c0.295,0 0.511,0.008 0.799,0.039c0.431,0.046 0.85,0.136 1.25,0.281c1.455,0.53 2.374,1.696 2.402,3.538c0.024,1.603 -0.602,2.324 -2.127,3.154c-0.1,0.055 -0.1,0.055 -0.198,0.108c-1.123,0.615 -1.489,1.047 -1.541,2.164c-0.019,0.414 -0.371,0.734 -0.784,0.714c-0.414,-0.019 -0.734,-0.37 -0.714,-0.784c0.081,-1.739 0.784,-2.569 2.318,-3.409c0.103,-0.056 0.103,-0.056 0.202,-0.11c1.088,-0.592 1.357,-0.903 1.344,-1.814c-0.018,-1.189 -0.52,-1.825 -1.415,-2.151c-0.494,-0.18 -0.957,-0.23 -1.536,-0.23c-0.276,0 -0.485,0.009 -0.759,0.043c-0.397,0.05 -0.769,0.142 -1.096,0.284Zm1.736,11.672c-0.69,0 -1.25,-0.56 -1.25,-1.25c0,-0.69 0.56,-1.25 1.25,-1.25c0.69,0 1.25,0.56 1.25,1.25c0,0.69 -0.56,1.25 -1.25,1.25Z" style="fill:#212121;fill-rule:nonzero;"/></svg>
