<svg width="26" height="26" viewBox="0 0 26 26" fill="none" xmlns="http://www.w3.org/2000/svg">
<path fill-rule="evenodd" clip-rule="evenodd" d="M7.96967 3.96967C8.26256 3.67678 8.73744 3.67678 9.03033 3.96967L12.0303 6.96967C12.3232 7.26256 12.3232 7.73744 12.0303 8.03033C11.7374 8.32322 11.2626 8.32322 10.9697 8.03033L9.25 6.31066V19.6893L10.9697 17.9697C11.2626 17.6768 11.7374 17.6768 12.0303 17.9697C12.3232 18.2626 12.3232 18.7374 12.0303 19.0303L9.03033 22.0303C8.73744 22.3232 8.26256 22.3232 7.96967 22.0303L4.96967 19.0303C4.67678 18.7374 4.67678 18.2626 4.96967 17.9697C5.26256 17.6768 5.73744 17.6768 6.03033 17.9697L7.75 19.6893V6.31066L6.03033 8.03033C5.73744 8.32322 5.26256 8.32322 4.96967 8.03033C4.67678 7.73744 4.67678 7.26256 4.96967 6.96967L7.96967 3.96967Z" fill="#333333"/>
<path d="M4.5 13.5H12.5" stroke="#333333" stroke-width="1.5" stroke-linecap="round" stroke-linejoin="round" stroke-dasharray="1 3"/>
<path d="M15.9257 9L18.9132 14.2828M18.9132 14.2828L21 9M18.9132 14.2828L17.8654 16.8481C17.7118 17.2242 17.3459 17.47 16.9396 17.47H16.3036" stroke="#333333" stroke-width="1.5" stroke-linecap="round" stroke-linejoin="round"/>
</svg>
