<svg xmlns="http://www.w3.org/2000/svg" width="26" height="26" viewBox="0 0 26 26" fill="#9A4CBD"><path d="M19.5 3.25a3.25 3.25 0 0 0-3.25 3.25v4a1.75 1.75 0 0 1-1.75 1.75h-10c-.69 0-1.25.56-1.25 1.25v6.994a2.257 2.257 0 0 0 2.253 2.256h10.994a2.253 2.253 0 0 0 2.253-2.256V13.5c0-.69-.56-1.25-1.25-1.25h.003a.75.75 0 0 1 0-1.5H17.5a2.75 2.75 0 0 1 2.75 2.75v6.994a3.753 3.753 0 0 1-3.753 3.756H5.503a3.757 3.757 0 0 1-3.753-3.756V13.5a2.75 2.75 0 0 1 2.75-2.75h10a.25.25 0 0 0 .25-.25v-4a4.75 4.75 0 0 1 4.75-4.75h1a4.75 4.75 0 0 1 4.75 4.75v1a.75.75 0 0 1-1.5 0v-1a3.25 3.25 0 0 0-3.25-3.25h-1z M8.75 16.5a2.75 2.75 0 1 1 5.5 0 2.75 2.75 0 0 1-5.5 0zm2.75-1.25a1.25 1.25 0 1 0 0 2.5 1.25 1.25 0 0 0 0-2.5z M11.5 17.75a.75.75 0 0 1 .75.75v2a.75.75 0 0 1-1.5 0v-2a.75.75 0 0 1 .75-.75z"/></svg>
