<svg width="26" height="26" viewBox="0 0 26 26" fill="none" xmlns="http://www.w3.org/2000/svg">
<path fill-rule="evenodd" clip-rule="evenodd" d="M2.75 20.5C2.75 19.5335 3.5335 18.75 4.5 18.75H21.5C22.4665 18.75 23.25 19.5335 23.25 20.5V22.5C23.25 23.4665 22.4665 24.25 21.5 24.25H4.5C3.5335 24.25 2.75 23.4665 2.75 22.5V20.5ZM4.5 20.25C4.36193 20.25 4.25 20.3619 4.25 20.5V22.5C4.25 22.6381 4.36193 22.75 4.5 22.75H21.5C21.6381 22.75 21.75 22.6381 21.75 22.5V20.5C21.75 20.3619 21.6381 20.25 21.5 20.25H4.5Z" fill="#333333"/>
<path fill-rule="evenodd" clip-rule="evenodd" d="M2.75 3.5C2.75 2.5335 3.5335 1.75 4.5 1.75H21.5C22.4665 1.75 23.25 2.5335 23.25 3.5V5.5C23.25 6.4665 22.4665 7.25 21.5 7.25H4.5C3.5335 7.25 2.75 6.4665 2.75 5.5V3.5ZM4.5 3.25C4.36193 3.25 4.25 3.36193 4.25 3.5V5.5C4.25 5.63807 4.36193 5.75 4.5 5.75H21.5C21.6381 5.75 21.75 5.63807 21.75 5.5V3.5C21.75 3.36193 21.6381 3.25 21.5 3.25H4.5Z" fill="#333333"/>
<path fill-rule="evenodd" clip-rule="evenodd" d="M2.75 9.5C2.75 9.08579 3.08579 8.75 3.5 8.75H3.975C4.38922 8.75 4.725 9.08579 4.725 9.5C4.725 9.8372 4.50247 10.1224 4.19626 10.2168C4.08548 10.4927 3.81549 10.6875 3.5 10.6875C3.08579 10.6875 2.75 10.3517 2.75 9.9375V9.5ZM6.075 9.5C6.075 9.08579 6.41079 8.75 6.825 8.75H7.775C8.18922 8.75 8.525 9.08579 8.525 9.5C8.525 9.91421 8.18922 10.25 7.775 10.25H6.825C6.41079 10.25 6.075 9.91421 6.075 9.5ZM9.875 9.5C9.875 9.08579 10.2108 8.75 10.625 8.75H11.575C11.9892 8.75 12.325 9.08579 12.325 9.5C12.325 9.91421 11.9892 10.25 11.575 10.25H10.625C10.2108 10.25 9.875 9.91421 9.875 9.5ZM13.675 9.5C13.675 9.08579 14.0108 8.75 14.425 8.75H15.375C15.7892 8.75 16.125 9.08579 16.125 9.5C16.125 9.91421 15.7892 10.25 15.375 10.25H14.425C14.0108 10.25 13.675 9.91421 13.675 9.5ZM17.475 9.5C17.475 9.08579 17.8108 8.75 18.225 8.75H19.175C19.5892 8.75 19.925 9.08579 19.925 9.5C19.925 9.91421 19.5892 10.25 19.175 10.25H18.225C17.8108 10.25 17.475 9.91421 17.475 9.5ZM21.275 9.5C21.275 9.08579 21.6108 8.75 22.025 8.75H22.5C22.9142 8.75 23.25 9.08579 23.25 9.5V9.9375C23.25 10.3517 22.9142 10.6875 22.5 10.6875C22.1845 10.6875 21.9145 10.4927 21.8037 10.2168C21.4975 10.1224 21.275 9.8372 21.275 9.5ZM3.5 11.8125C3.91421 11.8125 4.25 12.1483 4.25 12.5625V13.4375C4.25 13.8517 3.91421 14.1875 3.5 14.1875C3.08579 14.1875 2.75 13.8517 2.75 13.4375V12.5625C2.75 12.1483 3.08579 11.8125 3.5 11.8125ZM22.5 11.8125C22.9142 11.8125 23.25 12.1483 23.25 12.5625V13.4375C23.25 13.8517 22.9142 14.1875 22.5 14.1875C22.0858 14.1875 21.75 13.8517 21.75 13.4375V12.5625C21.75 12.1483 22.0858 11.8125 22.5 11.8125ZM4.19626 15.7832C4.08548 15.5073 3.81549 15.3125 3.5 15.3125C3.08579 15.3125 2.75 15.6483 2.75 16.0625V16.5C2.75 16.9142 3.08579 17.25 3.5 17.25H3.975C4.38921 17.25 4.725 16.9142 4.725 16.5C4.725 16.1628 4.50247 15.8776 4.19626 15.7832ZM22.5 15.3125C22.9142 15.3125 23.25 15.6483 23.25 16.0625V16.5C23.25 16.9142 22.9142 17.25 22.5 17.25H22.025C21.6108 17.25 21.275 16.9142 21.275 16.5C21.275 16.1628 21.4975 15.8776 21.8037 15.7832C21.9145 15.5073 22.1845 15.3125 22.5 15.3125ZM6.075 16.5C6.075 16.0858 6.41079 15.75 6.825 15.75H7.775C8.18921 15.75 8.525 16.0858 8.525 16.5C8.525 16.9142 8.18921 17.25 7.775 17.25H6.825C6.41079 17.25 6.075 16.9142 6.075 16.5ZM9.875 16.5C9.875 16.0858 10.2108 15.75 10.625 15.75H11.575C11.9892 15.75 12.325 16.0858 12.325 16.5C12.325 16.9142 11.9892 17.25 11.575 17.25H10.625C10.2108 17.25 9.875 16.9142 9.875 16.5ZM13.675 16.5C13.675 16.0858 14.0108 15.75 14.425 15.75H15.375C15.7892 15.75 16.125 16.0858 16.125 16.5C16.125 16.9142 15.7892 17.25 15.375 17.25H14.425C14.0108 17.25 13.675 16.9142 13.675 16.5ZM17.475 16.5C17.475 16.0858 17.8108 15.75 18.225 15.75H19.175C19.5892 15.75 19.925 16.0858 19.925 16.5C19.925 16.9142 19.5892 17.25 19.175 17.25H18.225C17.8108 17.25 17.475 16.9142 17.475 16.5Z" fill="#333333"/>
</svg>
