<svg width="26" height="26" viewBox="0 0 26 26" fill="none" xmlns="http://www.w3.org/2000/svg">
<path fill-rule="evenodd" clip-rule="evenodd" d="M1.75 5.5C1.75 3.98122 2.98122 2.75 4.5 2.75H21.5C23.0188 2.75 24.25 3.98122 24.25 5.5V17.5C24.25 19.0188 23.0188 20.25 21.5 20.25H13.0205C12.6063 20.25 12.2705 19.9142 12.2705 19.5C12.2705 19.0858 12.6063 18.75 13.0205 18.75H21.5C22.1904 18.75 22.75 18.1904 22.75 17.5V5.5C22.75 4.80964 22.1904 4.25 21.5 4.25H4.5C3.80964 4.25 3.25 4.80964 3.25 5.5V17.5C3.25 18.1904 3.80964 18.75 4.5 18.75H10C10.4142 18.75 10.75 19.0858 10.75 19.5C10.75 19.9142 10.4142 20.25 10 20.25H4.5C2.98122 20.25 1.75 19.0188 1.75 17.5V5.5Z" fill="#333333"/>
<path fill-rule="evenodd" clip-rule="evenodd" d="M4.25 16.5C4.25 16.0858 4.58579 15.75 5 15.75H21C21.4142 15.75 21.75 16.0858 21.75 16.5C21.75 16.9142 21.4142 17.25 21 17.25H5C4.58579 17.25 4.25 16.9142 4.25 16.5Z" fill="#333333"/>
<path fill-rule="evenodd" clip-rule="evenodd" d="M7.75 23.5C7.75 23.0858 8.08579 22.75 8.5 22.75H17.5C17.9142 22.75 18.25 23.0858 18.25 23.5C18.25 23.9142 17.9142 24.25 17.5 24.25H8.5C8.08579 24.25 7.75 23.9142 7.75 23.5Z" fill="#333333"/>
<path fill-rule="evenodd" clip-rule="evenodd" d="M13 18.8563C13.4142 18.8563 13.75 19.1921 13.75 19.6063V23.4524C13.75 23.8666 13.4142 24.2024 13 24.2024C12.5858 24.2024 12.25 23.8666 12.25 23.4524V19.6063C12.25 19.1921 12.5858 18.8563 13 18.8563Z" fill="#333333"/>
</svg>
