<svg xmlns="http://www.w3.org/2000/svg" width="26" height="26" viewBox="0 0 26 26"><path  d="M21.457 5.487a.768.768 0 0 0-.108-.163l-.13-.13a.77.77 0 0 0-.161-.111 4.747 4.747 0 0 0-6.436.188l-.2.197a.75.75 0 0 0 1.052 1.07l.2-.197a3.257 3.257 0 0 1 4.536-.022 3.275 3.275 0 0 1-.06 4.544l-9.358 9.357a3.216 3.216 0 0 1-4.501.033 3.245 3.245 0 0 1 .079-4.524l5.798-5.724a1.263 1.263 0 0 1 1.775.007l.175.175a1.225 1.225 0 0 1-.007 1.742l-5.14 5.037a.75.75 0 0 0 1.05 1.071l5.14-5.036a2.725 2.725 0 0 0 .018-3.874l-.176-.176a2.763 2.763 0 0 0-3.89-.013l-5.797 5.724a4.734 4.734 0 0 0-.272 6.423.77.77 0 0 0 .109.164l.129.13a.771.771 0 0 0 .163.111 4.704 4.704 0 0 0 6.408-.21l9.357-9.357a4.765 4.765 0 0 0 .247-6.436z"/></svg>