<svg width="26" height="26" viewBox="0 0 26 26" fill="none" xmlns="http://www.w3.org/2000/svg">
<path fill-rule="evenodd" clip-rule="evenodd" d="M6.46967 6.46967C6.76256 6.17678 7.23744 6.17678 7.53033 6.46967L13 11.9393L18.4697 6.46967C18.7626 6.17678 19.2374 6.17678 19.5303 6.46967C19.8232 6.76256 19.8232 7.23744 19.5303 7.53033L14.0607 13L19.5303 18.4697C19.8232 18.7626 19.8232 19.2374 19.5303 19.5303C19.2374 19.8232 18.7626 19.8232 18.4697 19.5303L13 14.0607L7.53033 19.5303C7.23744 19.8232 6.76256 19.8232 6.46967 19.5303C6.17678 19.2374 6.17678 18.7626 6.46967 18.4697L11.9393 13L6.46967 7.53033C6.17678 7.23744 6.17678 6.76256 6.46967 6.46967Z" fill="#333333"/>
</svg>
