<svg width="26" height="26" fill="none" xmlns="http://www.w3.org/2000/svg"><path d="M5.25 10c0-.2.08-.39.22-.531 1.244-1.24 3.097-1.634 4.504-1.75a13.93 13.93 0 0 1 2.204-.004l4.746-5.695a.75.75 0 0 1 1.106-.05l6 6a.75.75 0 0 1-.05 1.106l-3.5 2.917a.75.75 0 1 1-.96-1.152l2.869-2.391L17.55 3.61l-4.474 5.37a.75.75 0 0 1-.675.262h-.007l-.03-.004a10.913 10.913 0 0 0-.622-.05 12.432 12.432 0 0 0-1.643.024c-1.045.087-2.14.33-2.975.85l8.81 8.81c.52-.841.763-1.938.85-2.98a12.422 12.422 0 0 0-.002-2.05L13.97 11.03a.75.75 0 1 1 1.06-1.06l3 3c.238.268.214.4.238.65a13.908 13.908 0 0 1 .012 2.398c-.119 1.407-.513 3.256-1.746 4.508a.75.75 0 0 1-1.064.004L11 16.06l-6.97 6.97a.75.75 0 0 1-1.06-1.06L9.94 15l-4.47-4.47a.75.75 0 0 1-.22-.53z" fill="#333"/></svg>
