<svg width="26" height="26" viewBox="0 0 26 26" fill="none" xmlns="http://www.w3.org/2000/svg">
<path d="M17.5 13.5C17.5 15.7091 15.7091 17.5 13.5 17.5C11.2909 17.5 9.5 15.7091 9.5 13.5C9.5 11.2909 11.2909 9.5 13.5 9.5C15.7091 9.5 17.5 11.2909 17.5 13.5Z" fill="#333333"/>
<path fill-rule="evenodd" clip-rule="evenodd" d="M13.5 7.25C10.0482 7.25 7.25 10.0482 7.25 13.5C7.25 16.9518 10.0482 19.75 13.5 19.75C16.9518 19.75 19.75 16.9518 19.75 13.5C19.75 10.0482 16.9518 7.25 13.5 7.25ZM5.75 13.5C5.75 9.21979 9.21979 5.75 13.5 5.75C17.7802 5.75 21.25 9.21979 21.25 13.5C21.25 17.7802 17.7802 21.25 13.5 21.25C9.21979 21.25 5.75 17.7802 5.75 13.5Z" fill="#333333"/>
<path fill-rule="evenodd" clip-rule="evenodd" d="M13.5 2.75C13.9142 2.75 14.25 3.08579 14.25 3.5V6.5C14.25 6.91421 13.9142 7.25 13.5 7.25C13.0858 7.25 12.75 6.91421 12.75 6.5V3.5C12.75 3.08579 13.0858 2.75 13.5 2.75Z" fill="#333333"/>
<path fill-rule="evenodd" clip-rule="evenodd" d="M19.75 13.5C19.75 13.0858 20.0858 12.75 20.5 12.75H23.5C23.9142 12.75 24.25 13.0858 24.25 13.5C24.25 13.9142 23.9142 14.25 23.5 14.25H20.5C20.0858 14.25 19.75 13.9142 19.75 13.5Z" fill="#333333"/>
<path fill-rule="evenodd" clip-rule="evenodd" d="M2.75 13.5C2.75 13.0858 3.08579 12.75 3.5 12.75H6.5C6.91421 12.75 7.25 13.0858 7.25 13.5C7.25 13.9142 6.91421 14.25 6.5 14.25H3.5C3.08579 14.25 2.75 13.9142 2.75 13.5Z" fill="#333333"/>
<path fill-rule="evenodd" clip-rule="evenodd" d="M13.5 19.75C13.9142 19.75 14.25 20.0858 14.25 20.5V23.5C14.25 23.9142 13.9142 24.25 13.5 24.25C13.0858 24.25 12.75 23.9142 12.75 23.5V20.5C12.75 20.0858 13.0858 19.75 13.5 19.75Z" fill="#333333"/>
</svg>
