<svg xmlns="http://www.w3.org/2000/svg" width="26" height="26" viewBox="0 0 26 26"><path d="M16.484 7.578c.515 0 .933.418.933.934v6.457c0 .844-.182 1.583-.547 2.219a3.62 3.62 0 0 1-1.57 1.46c-.682.339-1.5.508-2.453.508-1.417 0-2.518-.375-3.305-1.125-.786-.75-1.18-1.781-1.18-3.093V8.515a.938.938 0 0 1 1.876 0v6.289c0 .942.218 1.638.656 2.086.437.448 1.11.672 2.015.672 1.76 0 2.641-.925 2.641-2.774V8.512c0-.516.418-.934.934-.934zM7.75 21.5a.75.75 0 0 1 .75-.75h9a.75.75 0 0 1 0 1.5h-9a.75.75 0 0 1-.75-.75z"/></svg>