<svg width="24" height="24" viewBox="0 0 24 24" fill="none" xmlns="http://www.w3.org/2000/svg">
<path fill-rule="evenodd" clip-rule="evenodd" d="M9.5 5.125C9.29289 5.125 9.125 5.29289 9.125 5.5V5.875H13.875V5.5C13.875 5.29289 13.7071 5.125 13.5 5.125H9.5ZM15.125 5.875V5.5C15.125 4.60254 14.3975 3.875 13.5 3.875H9.5C8.60254 3.875 7.875 4.60254 7.875 5.5V5.875H3.5C3.15482 5.875 2.875 6.15482 2.875 6.5C2.875 6.84518 3.15482 7.125 3.5 7.125H19.5C19.8452 7.125 20.125 6.84518 20.125 6.5C20.125 6.15482 19.8452 5.875 19.5 5.875H15.125ZM6.43781 8.8781C6.78128 8.84376 7.08755 9.09435 7.1219 9.43781L7.9418 17.6368C8.01209 18.3397 8.60357 18.875 9.30998 18.875H13.69C14.3964 18.875 14.9879 18.3397 15.0582 17.6368L15.8781 9.43781C15.9124 9.09435 16.2187 8.84376 16.5622 8.8781C16.9057 8.91245 17.1562 9.21872 17.1219 9.56219L16.302 17.7612C16.1678 19.1031 15.0386 20.125 13.69 20.125H9.30998C7.96138 20.125 6.83219 19.1031 6.698 17.7612L5.8781 9.56219C5.84376 9.21872 6.09435 8.91245 6.43781 8.8781ZM9.72769 8.8754C10.0727 8.86308 10.3623 9.13273 10.3746 9.47769L10.6246 16.4777C10.6369 16.8227 10.3673 17.1123 10.0223 17.1246C9.67735 17.1369 9.38772 16.8673 9.3754 16.5223L9.1254 9.52231C9.11308 9.17735 9.38273 8.88772 9.72769 8.8754ZM13.2723 8.8754C13.6173 8.88772 13.8869 9.17735 13.8746 9.52231L13.6246 16.5223C13.6123 16.8673 13.3227 17.1369 12.9777 17.1246C12.6327 17.1123 12.3631 16.8227 12.3754 16.4777L12.6254 9.47769C12.6377 9.13273 12.9273 8.86308 13.2723 8.8754Z" fill="#333333"/>
</svg>
