<svg width="26" height="26" fill="none" xmlns="http://www.w3.org/2000/svg"><path fill-rule="evenodd" clip-rule="evenodd" d="M3.807 13.787a.75.75 0 0 1 .163-.817l9.5-9.5a.75.75 0 0 1 1.06 0l8.086 8.086a2.75 2.75 0 0 1 0 3.889l-4.664 4.663a2.75 2.75 0 0 1-3.9-.01L8.27 14.25H4.5a.75.75 0 0 1-.693-.463zm2.504-1.037h2.272c.2 0 .392.08.533.223l6.003 6.07a1.25 1.25 0 0 0 1.773.005l4.663-4.664a1.25 1.25 0 0 0 0-1.768L14 5.061 6.31 12.75z M6 19.427c0 1.145-.895 2.073-2 2.073s-2-.928-2-2.073c0-1.078.845-2.507 1.436-3.375.477-.699.601-.772 1.128 0C5.155 16.92 6 18.35 6 19.427z M10.9 13.5a.6.6 0 0 1 .6-.6h9a.6.6 0 1 1 0 1.2h-9a.6.6 0 0 1-.6-.6zM12.9 15.5a.6.6 0 0 1 .6-.6h5a.6.6 0 1 1 0 1.2h-5a.6.6 0 0 1-.6-.6zM14.9 17.5a.6.6 0 0 1 .6-.6h1a.6.6 0 1 1 0 1.2h-1a.6.6 0 0 1-.6-.6z" fill="#fff"/></svg>
