<svg width="32" height="32" viewBox="0 0 32 32" fill="none" xmlns="http://www.w3.org/2000/svg">
<mask id="mask0" mask-type="alpha" maskUnits="userSpaceOnUse" x="3" y="3" width="26" height="26">
<path fill-rule="evenodd" clip-rule="evenodd" d="M6.9148 16.9231L12.3013 22.3096C12.6618 22.6701 12.6618 23.2545 12.3013 23.615C11.9408 23.9755 11.3563 23.9755 10.9959 23.615L4.03358 16.6527C3.6731 16.2922 3.6731 15.7078 4.03358 15.3473L10.9959 8.38501C11.3563 8.02452 11.9408 8.02452 12.3013 8.38501C12.6618 8.74549 12.6618 9.32995 12.3013 9.69043L6.9148 15.0769L27.3137 15.0769C27.8235 15.0769 28.2368 15.4902 28.2368 16C28.2368 16.5098 27.8235 16.9231 27.3137 16.9231L6.9148 16.9231Z" fill="white"/>
</mask>
<g mask="url(#mask0)">
<rect x="32" width="32" height="32" transform="rotate(90 32 0)" fill="#333333"/>
</g>
</svg>
