<svg xmlns="http://www.w3.org/2000/svg" width="26" height="26"  viewBox="0 0 26 26"><path  d="M13.5 1.75a.75.75 0 0 1 .75.75V4a.75.75 0 0 1-1.5 0V2.5a.75.75 0 0 1 .75-.75zm-6.86 1.1a.75.75 0 0 1 1.025.275l.985 1.706a.75.75 0 1 1-1.3.75l-.984-1.706A.75.75 0 0 1 6.64 2.85zm12.985 0a.75.75 0 0 1 .274 1.025l-.994 1.722a.75.75 0 0 1-1.299-.75l.994-1.722a.75.75 0 0 1 1.025-.275zM5.175 9.544C6.626 7.652 9.079 5.75 13 5.75c3.921 0 6.387 1.902 7.849 3.791a11.83 11.83 0 0 1 1.827 3.424 7.5 7.5 0 0 1 .096.319l.006.02.002.007v.003l-.05.014.05-.013a.75.75 0 0 1-.028.46l-.047-.02.047.02-.002.003-.002.006-.008.019a9.217 9.217 0 0 1-.135.31 15.278 15.278 0 0 1-2.141 3.37C18.913 19.323 16.46 21.25 13 21.25c-3.46 0-5.9-1.927-7.44-3.77a15.125 15.125 0 0 1-2.116-3.372 9.223 9.223 0 0 1-.133-.31l-.007-.02-.003-.005v-.002l-.05-.252.021-.2.002-.009.006-.02a7.218 7.218 0 0 1 .094-.319 11.727 11.727 0 0 1 1.802-3.426zM3.25 13.519l.022-.2a.752.752 0 0 0 .028.45l-.05-.25zm1.544-.066l.018.04a13.63 13.63 0 0 0 1.9 3.026C8.096 18.177 10.155 19.75 13 19.75c2.845 0 4.918-1.574 6.317-3.233a13.781 13.781 0 0 0 1.864-2.9 3.66 3.66 0 0 0-.142-.178 5.669 5.669 0 0 0-1.24-1.06 8.748 8.748 0 0 0-2.022-.948A4.75 4.75 0 1 1 8.75 13.5a.75.75 0 0 1 1.5 0 3.25 3.25 0 1 0 5.28-2.537.76.76 0 0 1-.057-.052 18.419 18.419 0 0 0-2.5-.161c-2.202 0-3.846.333-5.059.774a.75.75 0 0 1-.511-1.41c1.396-.507 3.216-.864 5.57-.864 3.14 0 5.335.635 6.838 1.406a9.735 9.735 0 0 0-.149-.197C18.416 8.849 16.355 7.25 13 7.25s-5.401 1.598-6.633 3.206a10.224 10.224 0 0 0-1.565 2.972l-.008.025zM1.891 6.875A.75.75 0 0 1 2.916 6.6l.98.566a.75.75 0 0 1-.75 1.3l-.98-.566a.75.75 0 0 1-.275-1.025zm22.218 0a.75.75 0 0 1-.275 1.025l-.832.48a.75.75 0 1 1-.75-1.299l.832-.48a.75.75 0 0 1 1.025.274z M13.5 15a1.5 1.5 0 1 0 0-3 1.5 1.5 0 0 0 0 3z" clip-rule="evenodd"/></svg>
