<svg xmlns="http://www.w3.org/2000/svg" width="26" height="26" viewBox="0 0 26 26"><path d="M8.9 8.38a1 1 0 0 1 1-1h2.39c2.116 0 2.71.45 3.172.75.704.46 1.055 1.183 1.055 2.173 0 .666-.172 1.418-.515 1.861-.344.443-.605.659-1.25.774v.078c.801.15 1.39.45 1.765.898.38.443.57 1.044.57 1.805 0 1.026-.359 1.83-1.078 2.414-.713.578-1.708.867-2.984.867H9.9a1 1 0 0 1-1-1V8.38zm1.867 3.917h1.797c.781 0 1.117-.06 1.476-.305.36-.25.54-.869.54-1.463 0-.536-.196-.924-.586-1.164-.386-.24-.766-.422-1.61-.422h-1.617v3.354zm0 1.515v3.618h1.985c.78 0 1.37-.149 1.765-.446.401-.302.602-.776.602-1.422 0-.593-.204-1.033-.61-1.32-.406-.286-1.023-.43-1.851-.43h-1.89z"/></svg>