<svg width="26" height="26" viewBox="0 0 26 26" fill="none" xmlns="http://www.w3.org/2000/svg">
<path fill-rule="evenodd" clip-rule="evenodd" d="M5.25 7.5C5.25 6.5335 6.0335 5.75 7 5.75H19C19.9665 5.75 20.75 6.5335 20.75 7.5C20.75 8.4665 19.9665 9.25 19 9.25H7C6.0335 9.25 5.25 8.4665 5.25 7.5Z" fill="#333333"/>
<path fill-rule="evenodd" clip-rule="evenodd" d="M5.25 13.5C5.25 12.8096 5.80964 12.25 6.5 12.25H19.5C20.1904 12.25 20.75 12.8096 20.75 13.5C20.75 14.1904 20.1904 14.75 19.5 14.75H6.5C5.80964 14.75 5.25 14.1904 5.25 13.5Z" fill="#333333"/>
<path fill-rule="evenodd" clip-rule="evenodd" d="M5.25 18.5C5.25 18.0858 5.58579 17.75 6 17.75H20C20.4142 17.75 20.75 18.0858 20.75 18.5C20.75 18.9142 20.4142 19.25 20 19.25H6C5.58579 19.25 5.25 18.9142 5.25 18.5Z" fill="#333333"/>
</svg>
