<svg width="26" height="26" viewBox="0 0 26 26" fill="none" xmlns="http://www.w3.org/2000/svg">
    <path fill-rule="evenodd" clip-rule="evenodd" d="M2.75 3.5C2.75 3.08579 3.08579 2.75 3.5 2.75H4.03125C4.44546 2.75 4.78125 3.08579 4.78125 3.5C4.78125 3.84729 4.5452 4.13945 4.22479 4.22479C4.13945 4.5452 3.84729 4.78125 3.5 4.78125C3.08579 4.78125 2.75 4.44546 2.75 4.03125V3.5Z" fill="#333333"/>
    <path d="M3.5 3.4375C3.91421 3.4375 4.25 3.77329 4.25 4.1875V5.25C4.25 5.66421 3.91421 6 3.5 6C3.08579 6 2.75 5.66421 2.75 5.25V4.1875C2.75 3.77329 3.08579 3.4375 3.5 3.4375Z" fill="#333333"/>
    <path d="M3.4375 3.5C3.4375 3.08579 3.77329 2.75 4.1875 2.75H5.25C5.66421 2.75 6 3.08579 6 3.5C6 3.91421 5.66421 4.25 5.25 4.25H4.1875C3.77329 4.25 3.4375 3.91421 3.4375 3.5Z" fill="#333333"/>
    <path fill-rule="evenodd" clip-rule="evenodd" d="M23.25 3.5C23.25 3.08579 22.9142 2.75 22.5 2.75H21.9688C21.5545 2.75 21.2188 3.08579 21.2188 3.5C21.2188 3.84729 21.4548 4.13945 21.7752 4.22479C21.8605 4.5452 22.1527 4.78125 22.5 4.78125C22.9142 4.78125 23.25 4.44546 23.25 4.03125V3.5Z" fill="#333333"/>
    <path d="M22.5 3.4375C22.0858 3.4375 21.75 3.77329 21.75 4.1875V5.25C21.75 5.66421 22.0858 6 22.5 6C22.9142 6 23.25 5.66421 23.25 5.25V4.1875C23.25 3.77329 22.9142 3.4375 22.5 3.4375Z" fill="#333333"/>
    <path d="M22.5625 3.5C22.5625 3.08579 22.2267 2.75 21.8125 2.75H20.75C20.3358 2.75 20 3.08579 20 3.5C20 3.91421 20.3358 4.25 20.75 4.25H21.8125C22.2267 4.25 22.5625 3.91421 22.5625 3.5Z" fill="#333333"/>
    <path fill-rule="evenodd" clip-rule="evenodd" d="M2.75 22.5C2.75 22.9142 3.08579 23.25 3.5 23.25H4.03125C4.44546 23.25 4.78125 22.9142 4.78125 22.5C4.78125 22.1527 4.5452 21.8605 4.22479 21.7752C4.13945 21.4548 3.84729 21.2188 3.5 21.2188C3.08579 21.2188 2.75 21.5545 2.75 21.9688V22.5Z" fill="#333333"/>
    <path d="M3.5 22.5625C3.91421 22.5625 4.25 22.2267 4.25 21.8125V20.75C4.25 20.3358 3.91421 20 3.5 20C3.08579 20 2.75 20.3358 2.75 20.75V21.8125C2.75 22.2267 3.08579 22.5625 3.5 22.5625Z" fill="#333333"/>
    <path d="M3.4375 22.5C3.4375 22.9142 3.77329 23.25 4.1875 23.25H5.25C5.66421 23.25 6 22.9142 6 22.5C6 22.0858 5.66421 21.75 5.25 21.75H4.1875C3.77329 21.75 3.4375 22.0858 3.4375 22.5Z" fill="#333333"/>
    <path fill-rule="evenodd" clip-rule="evenodd" d="M23.25 22.5C23.25 22.9142 22.9142 23.25 22.5 23.25H21.9688C21.5545 23.25 21.2188 22.9142 21.2188 22.5C21.2188 22.1527 21.4548 21.8605 21.7752 21.7752C21.8605 21.4548 22.1527 21.2188 22.5 21.2188C22.9142 21.2188 23.25 21.5545 23.25 21.9688V22.5Z" fill="#333333"/>
    <path d="M22.5 22.5625C22.0858 22.5625 21.75 22.2267 21.75 21.8125V20.75C21.75 20.3358 22.0858 20 22.5 20C22.9142 20 23.25 20.3358 23.25 20.75V21.8125C23.25 22.2267 22.9142 22.5625 22.5 22.5625Z" fill="#333333"/>
    <path d="M22.5625 22.5C22.5625 22.9142 22.2267 23.25 21.8125 23.25H20.75C20.3358 23.25 20 22.9142 20 22.5C20 22.0858 20.3358 21.75 20.75 21.75H21.8125C22.2267 21.75 22.5625 22.0858 22.5625 22.5Z" fill="#333333"/>
    <path fill-rule="evenodd" clip-rule="evenodd" d="M18.75 10.5C18.75 9.5335 19.5335 8.75 20.5 8.75H22.5C23.4665 8.75 24.25 9.5335 24.25 10.5V15.5C24.25 16.4665 23.4665 17.25 22.5 17.25H20.5C19.5335 17.25 18.75 16.4665 18.75 15.5V10.5Z" fill="#333333"/>
    <path fill-rule="evenodd" clip-rule="evenodd" d="M1.75 10.5C1.75 9.5335 2.5335 8.75 3.5 8.75H5.5C6.4665 8.75 7.25 9.5335 7.25 10.5V15.5C7.25 16.4665 6.4665 17.25 5.5 17.25H3.5C2.5335 17.25 1.75 16.4665 1.75 15.5V10.5Z" fill="#333333"/>
    <path fill-rule="evenodd" clip-rule="evenodd" d="M8.75 20.5C8.75 19.5335 9.5335 18.75 10.5 18.75H15.5C16.4665 18.75 17.25 19.5335 17.25 20.5V22.5C17.25 23.4665 16.4665 24.25 15.5 24.25H10.5C9.5335 24.25 8.75 23.4665 8.75 22.5V20.5Z" fill="#333333"/>
    <path fill-rule="evenodd" clip-rule="evenodd" d="M8.75 3.5C8.75 2.5335 9.5335 1.75 10.5 1.75H15.5C16.4665 1.75 17.25 2.5335 17.25 3.5V5.5C17.25 6.4665 16.4665 7.25 15.5 7.25H10.5C9.5335 7.25 8.75 6.4665 8.75 5.5V3.5Z" fill="#333333"/>
</svg>
