<svg xmlns="http://www.w3.org/2000/svg" width="26" height="26" viewBox="0 0 26 26"><path d="M10.25 4.166a9.254 9.254 0 0 1 0 17.668A9.25 9.25 0 1 0 13 3.75c-.958 0-1.882.146-2.75.416zm-2.921-.3A10.703 10.703 0 0 1 13 2.25c5.937 0 10.75 4.813 10.75 10.75S18.937 23.75 13 23.75c-2.08 0-4.025-.592-5.671-1.616a.75.75 0 0 1 .376-1.387 7.75 7.75 0 0 0 0-15.494.75.75 0 0 1-.376-1.387zM5.888 5.93a.75.75 0 0 1 .082 1.058l-.15.18a.75.75 0 1 1-1.163-.947c.057-.07.115-.14.174-.209a.75.75 0 0 1 1.057-.082zM3.985 8.602a.75.75 0 0 1 .42.974 9.19 9.19 0 0 0-.163.439.75.75 0 1 1-1.42-.484c.059-.172.122-.342.189-.51a.75.75 0 0 1 .974-.42zm-.963 3.396a.75.75 0 0 1 .73.768 9.437 9.437 0 0 0 0 .468.75.75 0 0 1-1.499.037 10.983 10.983 0 0 1 0-.542.75.75 0 0 1 .769-.731zm.268 3.52a.75.75 0 0 1 .952.467c.05.148.105.294.162.439a.75.75 0 1 1-1.393.555c-.067-.168-.13-.338-.189-.51a.75.75 0 0 1 .468-.952zm1.475 3.206a.75.75 0 0 1 1.055.109l.15.18a.75.75 0 1 1-1.14.975 11.086 11.086 0 0 1-.173-.209.75.75 0 0 1 .108-1.055z" clip-rule="evenodd"/></svg>