<svg width="24" height="24" viewBox="0 0 24 24" fill="none" xmlns="http://www.w3.org/2000/svg">
<path fill-rule="evenodd" clip-rule="evenodd" d="M6.62165 3.39338C6.62165 3.08963 6.8679 2.84338 7.17165 2.84338L11.4143 2.84338C11.7181 2.84338 11.9643 3.08963 11.9643 3.39338V7.63602C11.9643 7.93978 11.7181 8.18602 11.4143 8.18602C11.1105 8.18602 10.8643 7.93978 10.8643 7.63602V3.94338L7.17165 3.94338C6.8679 3.94338 6.62165 3.69714 6.62165 3.39338Z" fill="#333333"/>
<path fill-rule="evenodd" clip-rule="evenodd" d="M5.31549 16.5632C3.11879 14.3665 3.11879 10.805 5.31549 8.60829L10.6188 3.30499C10.8629 3.06091 11.2586 3.06091 11.5027 3.30499C11.7468 3.54907 11.7468 3.9448 11.5027 4.18887L6.19938 9.49217C4.49083 11.2007 4.49083 13.9708 6.19938 15.6794L7.19938 16.6794C7.44345 16.9234 7.44345 17.3192 7.19938 17.5632C6.9553 17.8073 6.55957 17.8073 6.31549 17.5632L5.31549 16.5632Z" fill="#333333"/>
<path fill-rule="evenodd" clip-rule="evenodd" d="M12.6142 15.7888C12.3105 15.787 12.0628 16.0318 12.061 16.3356L12.0359 20.6033C12.035 20.7503 12.093 20.8916 12.1969 20.9955C12.3009 21.0994 12.4421 21.1574 12.5891 21.1566L16.8569 21.1315C17.1606 21.1297 17.4054 20.882 17.4036 20.5782C17.4018 20.2745 17.1541 20.0297 16.8504 20.0315L13.1391 20.0533L13.161 16.3421C13.1628 16.0383 12.918 15.7906 12.6142 15.7888Z" fill="#333333"/>
<path fill-rule="evenodd" clip-rule="evenodd" d="M16.4472 6.08317C16.6913 5.83909 17.087 5.83909 17.3311 6.08317L18.6847 7.43672C20.8814 9.63342 20.8814 13.195 18.6847 15.3917L13.3814 20.695C13.1373 20.939 12.7416 20.939 12.4975 20.695C12.2534 20.4509 12.2534 20.0552 12.4975 19.8111L17.8008 14.5078C19.5093 12.7992 19.5093 10.0291 17.8008 8.3206L16.4472 6.96705C16.2032 6.72297 16.2032 6.32724 16.4472 6.08317Z" fill="#333333"/>
</svg>
