<svg width="26" height="27" viewBox="0 0 26 27" fill="none" xmlns="http://www.w3.org/2000/svg">
<path fill-rule="evenodd" clip-rule="evenodd" d="M22.1893 4.79834C22.1893 4.38413 21.8536 4.04834 21.4393 4.04834H17.5C17.0858 4.04834 16.75 4.38413 16.75 4.79834C16.75 5.21255 17.0858 5.54834 17.5 5.54834H20.6893V8.79834C20.6893 9.21255 21.0251 9.54834 21.4393 9.54834C21.8536 9.54834 22.1893 9.21255 22.1893 8.79834V4.79834ZM9.25 4.79834C9.25 4.38413 8.91421 4.04834 8.5 4.04834H4.5C4.08579 4.04834 3.75 4.38413 3.75 4.79834V8.79834C3.75 9.21255 4.08579 9.54834 4.5 9.54834C4.91421 9.54834 5.25 9.21255 5.25 8.79834V5.54834H8.5C8.91421 5.54834 9.25 5.21255 9.25 4.79834ZM16.4697 9.76801C16.1768 9.47512 15.7019 9.47512 15.409 9.76801L12.9697 12.2073L10.5303 9.76801C10.2374 9.47512 9.76256 9.47512 9.46967 9.76801C9.17678 10.0609 9.17678 10.5358 9.46967 10.8287L11.909 13.268L9.46967 15.7073C9.17678 16.0002 9.17678 16.4751 9.46967 16.768C9.76256 17.0609 10.2374 17.0609 10.5303 16.768L12.9697 14.3287L15.409 16.768C15.7019 17.0609 16.1768 17.0609 16.4697 16.768C16.7626 16.4751 16.7626 16.0002 16.4697 15.7073L14.0303 13.268L16.4697 10.8287C16.7626 10.5358 16.7626 10.0609 16.4697 9.76801ZM21.5 17.0483C21.0858 17.0483 20.75 17.3841 20.75 17.7983V21.0483H17.5C17.0858 21.0483 16.75 21.3841 16.75 21.7983C16.75 22.2126 17.0858 22.5483 17.5 22.5483H21.5C21.9142 22.5483 22.25 22.2126 22.25 21.7983V17.7983C22.25 17.3841 21.9142 17.0483 21.5 17.0483ZM4.5 17.0483C4.08579 17.0483 3.75 17.3841 3.75 17.7983V21.7377C3.75 22.1519 4.08579 22.4877 4.5 22.4877H8.5C8.91421 22.4877 9.25 22.1519 9.25 21.7377C9.25 21.3235 8.91421 20.9877 8.5 20.9877H5.25V17.7983C5.25 17.3841 4.91421 17.0483 4.5 17.0483Z" fill="#333333"/>
</svg>
