<svg width="26" height="26" viewBox="0 0 26 26" fill="none" xmlns="http://www.w3.org/2000/svg">
<path d="M11.9948 2.43414C11.7019 2.14125 11.227 2.14125 10.9341 2.43414C10.6412 2.72703 10.6412 3.20191 10.9341 3.4948L13.1893 5.75001H13C8.44365 5.75001 4.75 9.44366 4.75 14C4.75 18.5564 8.44365 22.25 13 22.25C17.5563 22.25 21.25 18.5564 21.25 14C21.25 11.8486 20.4255 9.88812 19.0766 8.41991C18.7964 8.11488 18.322 8.09478 18.0169 8.37502C17.7119 8.65525 17.6918 9.1297 17.9721 9.43473C19.0767 10.637 19.75 12.239 19.75 14C19.75 17.7279 16.7279 20.75 13 20.75C9.27208 20.75 6.25 17.7279 6.25 14C6.25 10.2721 9.27208 7.25001 13 7.25001H13.1893L10.9341 9.50521C10.6412 9.7981 10.6412 10.273 10.9341 10.5659C11.227 10.8588 11.7019 10.8588 11.9948 10.5659L15.5303 7.03033C15.8232 6.73744 15.8232 6.26257 15.5303 5.96967L11.9948 2.43414Z" fill="#333333"/>
</svg>
