<svg width="26" height="26" viewBox="0 0 26 26" fill="none" xmlns="http://www.w3.org/2000/svg">
<path fill-rule="evenodd" clip-rule="evenodd" d="M3.75 4.5C3.75 4.08579 4.08579 3.75 4.5 3.75H5.03125C5.44546 3.75 5.78125 4.08579 5.78125 4.5C5.78125 4.85085 5.54034 5.14543 5.21492 5.22735C5.11863 5.53042 4.83496 5.75 4.5 5.75C4.08579 5.75 3.75 5.41421 3.75 5V4.5ZM7.46875 4.5C7.46875 4.08579 7.80454 3.75 8.21875 3.75H9.28125C9.69546 3.75 10.0312 4.08579 10.0312 4.5C10.0312 4.91421 9.69546 5.25 9.28125 5.25H8.21875C7.80454 5.25 7.46875 4.91421 7.46875 4.5ZM11.7188 4.5C11.7188 4.08579 12.0545 3.75 12.4688 3.75H13.5312C13.9455 3.75 14.2812 4.08579 14.2812 4.5C14.2812 4.91421 13.9455 5.25 13.5312 5.25H12.4688C12.0545 5.25 11.7188 4.91421 11.7188 4.5ZM15.9688 4.5C15.9688 4.08579 16.3045 3.75 16.7188 3.75H17.7812C18.1955 3.75 18.5312 4.08579 18.5312 4.5C18.5312 4.91421 18.1955 5.25 17.7812 5.25H16.7188C16.3045 5.25 15.9688 4.91421 15.9688 4.5ZM20.2188 4.5C20.2188 4.08579 20.5545 3.75 20.9688 3.75H21.5C21.9142 3.75 22.25 4.08579 22.25 4.5V5C22.25 5.41421 21.9142 5.75 21.5 5.75C21.165 5.75 20.8814 5.53042 20.7851 5.22735C20.4597 5.14543 20.2188 4.85085 20.2188 4.5ZM21.5 7.25C21.9142 7.25 22.25 7.58579 22.25 8V9C22.25 9.41421 21.9142 9.75 21.5 9.75C21.0858 9.75 20.75 9.41421 20.75 9V8C20.75 7.58579 21.0858 7.25 21.5 7.25ZM4.5 7.25C4.91421 7.25 5.25 7.58579 5.25 8V9C5.25 9.41421 4.91421 9.75 4.5 9.75C4.08579 9.75 3.75 9.41421 3.75 9V8C3.75 7.58579 4.08579 7.25 4.5 7.25ZM4.5 11.25C4.91421 11.25 5.25 11.5858 5.25 12V13C5.25 13.4142 4.91421 13.75 4.5 13.75C4.08579 13.75 3.75 13.4142 3.75 13V12C3.75 11.5858 4.08579 11.25 4.5 11.25ZM21.5 11.25C21.9142 11.25 22.25 11.5858 22.25 12V13C22.25 13.4142 21.9142 13.75 21.5 13.75C21.0858 13.75 20.75 13.4142 20.75 13V12C20.75 11.5858 21.0858 11.25 21.5 11.25ZM4.5 15.25C4.91421 15.25 5.25 15.5858 5.25 16V16.5C5.25 16.9142 4.91421 17.25 4.5 17.25C4.08579 17.25 3.75 16.9142 3.75 16.5V16C3.75 15.5858 4.08579 15.25 4.5 15.25ZM21.5 15.25C21.9142 15.25 22.25 15.5858 22.25 16V16.5C22.25 16.9142 21.9142 17.25 21.5 17.25C21.0858 17.25 20.75 16.9142 20.75 16.5V16C20.75 15.5858 21.0858 15.25 21.5 15.25Z" fill="#333333"/>
<path fill-rule="evenodd" clip-rule="evenodd" d="M8.03033 16.9697C8.32322 17.2626 8.32322 17.7374 8.03033 18.0303L6.31066 19.75H19.6893L17.9697 18.0303C17.6768 17.7374 17.6768 17.2626 17.9697 16.9697C18.2626 16.6768 18.7374 16.6768 19.0303 16.9697L22.0303 19.9697C22.3232 20.2626 22.3232 20.7374 22.0303 21.0303L19.0303 24.0303C18.7374 24.3232 18.2626 24.3232 17.9697 24.0303C17.6768 23.7374 17.6768 23.2626 17.9697 22.9697L19.6893 21.25H6.31066L8.03033 22.9697C8.32322 23.2626 8.32322 23.7374 8.03033 24.0303C7.73744 24.3232 7.26256 24.3232 6.96967 24.0303L3.96967 21.0303C3.67678 20.7374 3.67678 20.2626 3.96967 19.9697L6.96967 16.9697C7.26256 16.6768 7.73744 16.6768 8.03033 16.9697Z" fill="#333333"/>
</svg>
