<svg width="26" height="26" viewBox="0 0 26 26" fill="none" xmlns="http://www.w3.org/2000/svg">
<path fill-rule="evenodd" clip-rule="evenodd" d="M17.9445 3.88383C16.8705 2.80988 15.1293 2.80988 14.0554 3.88383L4.38383 13.5554C3.30988 14.6293 3.30988 16.3705 4.38383 17.4445L7.68928 20.7499H5.49994C5.08573 20.7499 4.74994 21.0857 4.74994 21.4999C4.74994 21.9142 5.08573 22.2499 5.49994 22.2499H19.4999C19.9142 22.2499 20.2499 21.9142 20.2499 21.4999C20.2499 21.0857 19.9142 20.7499 19.4999 20.7499H14.3106L22.6161 12.4445C23.69 11.3705 23.69 9.62934 22.6161 8.5554L17.9445 3.88383ZM12.1893 20.7499H9.8106L5.44449 16.3838C4.95633 15.8957 4.95633 15.1042 5.44449 14.6161L9.74994 10.3106L9.75217 10.3128L15.5403 4.52472C15.8332 4.23183 16.3081 4.23183 16.6009 4.52472C16.8938 4.81762 16.8938 5.29249 16.6009 5.58538L12.227 9.95928C11.446 10.7403 11.446 12.0067 12.227 12.7877L15.4822 16.0428C15.8727 16.4334 15.8727 17.0665 15.4822 17.457L12.1893 20.7499Z" fill="#333333"/>
</svg>
