
<svg width="26" height="26" fill="none" xmlns="http://www.w3.org/2000/svg"><path fill-rule="evenodd" clip-rule="evenodd" d="M10.5 5.389a1.508 1.508 0 00-.03 2.158L15.912 13h-3.479a3 3 0 00-2.121.879L6.53 17.66a.75.75 0 01-1.06-1.06l5.06-5.07a.75.75 0 10-1.06-1.06l-5.496 5.495a2.75 2.75 0 00-.791 1.67l-.394 3.938a1.496 1.496 0 001.637 1.638l3.938-.394a2.75 2.75 0 001.671-.791l7.45-7.45.947.95a1.481 1.481 0 002.067.029 2.943 2.943 0 00.777-3.04l-.375-1.163a.25.25 0 01.061-.254l1.542-1.541a4.289 4.289 0 00-6.066-6.066l-1.53 1.53a.25.25 0 01-.254.06l-1.132-.37a3.022 3.022 0 00-3.022.678zm1.032 1.099l-.002-.002v-.007l.002-.002c.406-.385.99-.516 1.522-.342l1.132.372a1.75 1.75 0 001.783-.425l1.53-1.53a2.789 2.789 0 013.944 3.944l-1.541 1.541a1.75 1.75 0 00-.428 1.775l.375 1.164a1.443 1.443 0 01-.368 1.477l-7.949-7.965z" fill="#333"/></svg>