<svg width="26" height="26" fill="none" xmlns="http://www.w3.org/2000/svg"><path d="M10.547 19l2.43-11.422h1.835L12.383 19h-1.835z M8.5 7.75A.75.75 0 0 1 9.25 7h9a.75.75 0 0 1 0 1.5h-9a.75.75 0 0 1-.75-.75zM9.5 18.75a.75.75 0 0 1 .75-.75h3a.75.75 0 0 1 0 1.5h-3a.75.75 0 0 1-.75-.75z M9.443 7.026a.75.75 0 0 1 .53.918l-.258.966a.75.75 0 0 1-1.45-.388l.26-.966a.75.75 0 0 1 .918-.53zM18.443 7.026a.75.75 0 0 1 .53.918l-.258.966a.75.75 0 1 1-1.45-.388l.26-.966a.75.75 0 0 1 .918-.53z" fill="#333"/></svg>
