<svg width="26" height="26" fill="none" xmlns="http://www.w3.org/2000/svg"><path d="M4.65 4.5c0-.47.38-.85.85-.85h4c7.097 0 12.85 5.753 12.85 12.85v3a.85.85 0 11-1.7 0v-3c0-6.158-4.992-11.15-11.15-11.15h-4a.85.85 0 01-.85-.85zM5.5 6.75a.75.75 0 01.75.75v.417a.75.75 0 11-1.5 0V7.5a.75.75 0 01.75-.75zm0 2.917a.75.75 0 01.75.75v.833a.75.75 0 01-1.5 0v-.833a.75.75 0 01.75-.75zM5.5 13a.75.75 0 01.75.75v.833a.75.75 0 01-1.5 0v-.833A.75.75 0 015.5 13zm4.458 6.5a.75.75 0 01.75-.75h.917a.75.75 0 010 1.5h-.917a.75.75 0 01-.75-.75zm3.667 0a.75.75 0 01.75-.75h.917a.75.75 0 010 1.5h-.917a.75.75 0 01-.75-.75zm3.667 0a.75.75 0 01.75-.75h.458a.75.75 0 010 1.5h-.458a.75.75 0 01-.75-.75z M5.5 16.313a.75.75 0 01.75.75v.833a.75.75 0 01-1.5 0v-.834a.75.75 0 01.75-.75zM6.302 19.516a.75.75 0 01.75-.75h.917a.75.75 0 010 1.5h-.917a.75.75 0 01-.75-.75z" fill="#333"/></svg>
