<svg xmlns="http://www.w3.org/2000/svg" width="26" height="26" viewBox="0 0 26 26" fill="#9A4CBD"><path fill-rule="evenodd" d="M19.503 12.25a.75.75 0 0 1 0-1.5 2.747 2.747 0 0 1 2.747 2.747v6.997a3.753 3.753 0 0 1-3.753 3.756H7.503a3.757 3.757 0 0 1-3.753-3.756V13.5a2.75 2.75 0 0 1 2.75-2.75h10a.25.25 0 0 0 .25-.25v-3a3.25 3.25 0 0 0-3.25-3.25h-1A3.25 3.25 0 0 0 9.25 7.5v2a.75.75 0 0 1-1.5 0v-2a4.75 4.75 0 0 1 4.75-4.75h1a4.75 4.75 0 0 1 4.75 4.75v3a1.75 1.75 0 0 1-1.75 1.75h-10c-.69 0-1.25.56-1.25 1.25v6.994a2.257 2.257 0 0 0 2.253 2.256h10.994a2.253 2.253 0 0 0 2.253-2.256v-6.997c0-.689-.558-1.247-1.247-1.247zm-6.753 6.896a2.751 2.751 0 1 1 1.5 0V20.5a.75.75 0 0 1-1.5 0v-1.354zm2-2.646a1.25 1.25 0 1 1-2.5 0 1.25 1.25 0 0 1 2.5 0z" clip-rule="evenodd"/></svg>
