<svg xmlns="http://www.w3.org/2000/svg" width="26" height="26" viewBox="0 0 26 26"><path  d="M10.539 22.532l4.811-3.141.008-1.097a.75.75 0 0 1 1.5.011l-.011 1.5a.748.748 0 0 1-.34.622l-6.387 4.17a.75.75 0 0 1-1.159-.669l.279-5.143a.748.748 0 0 1 .385-.614c5.444-3.031 9.094-5.478 10.924-7.308 1.6-1.6 2.419-3.569 2.609-5.677a9.492 9.492 0 0 0-.044-2.158 5.652 5.652 0 0 0-.101-.533 6.374 6.374 0 0 0-.577-.106 9.775 9.775 0 0 0-2.161-.047c-2.104.184-4.058.992-5.656 2.59-1.848 1.848-4.293 5.519-7.304 10.989a.75.75 0 0 1-.654.388l-5.337.021a.75.75 0 0 1-.631-1.16L4.86 8.785a.751.751 0 0 1 .621-.34l1.537-.013a.75.75 0 1 1 .014 1.5l-1.136.01-3.187 4.882 3.506-.013c2.977-5.373 5.415-9.012 7.343-10.939C15.424 2.006 17.71 1.06 20.144.848c1.665-.145 3.461.105 3.91.469.493.4.757 2.241.598 4.004-.22 2.437-1.176 4.736-3.042 6.602-1.912 1.913-5.536 4.355-10.894 7.356l-.177 3.253zm-4.848-1.663a.749.749 0 1 1-1.06-1.06l5.657-5.657a.749.749 0 1 1 1.06 1.06l-5.657 5.657zm10.845-8.619a3.25 3.25 0 1 1 0-6.5 3.25 3.25 0 0 1 0 6.5zm0-1.5a1.75 1.75 0 1 0-.001-3.501 1.75 1.75 0 0 0 .001 3.501z"/></svg>