<svg width="26" height="26" viewBox="0 0 26 26" fill="none" xmlns="http://www.w3.org/2000/svg">
<path fill-rule="evenodd" clip-rule="evenodd" d="M4.5 3.25C3.80964 3.25 3.25 3.80964 3.25 4.5V8.5C3.25 8.63807 3.36193 8.75 3.5 8.75H5.5C5.63807 8.75 5.75 8.63807 5.75 8.5V6.5C5.75 6.08579 6.08579 5.75 6.5 5.75H8.5C8.63807 5.75 8.75 5.63807 8.75 5.5V3.5C8.75 3.36193 8.63807 3.25 8.5 3.25H4.5ZM1.75 4.5C1.75 2.98122 2.98122 1.75 4.5 1.75H8.5C9.4665 1.75 10.25 2.5335 10.25 3.5V5.5C10.25 6.4665 9.4665 7.25 8.5 7.25H7.25V8.5C7.25 9.4665 6.4665 10.25 5.5 10.25H3.5C2.5335 10.25 1.75 9.4665 1.75 8.5V4.5Z" fill="#333333"/>
<path fill-rule="evenodd" clip-rule="evenodd" d="M21.5 3.25C22.1904 3.25 22.75 3.80964 22.75 4.5V8.5C22.75 8.63807 22.6381 8.75 22.5 8.75H20.5C20.3619 8.75 20.25 8.63807 20.25 8.5V6.5C20.25 6.08579 19.9142 5.75 19.5 5.75H17.5C17.3619 5.75 17.25 5.63807 17.25 5.5V3.5C17.25 3.36193 17.3619 3.25 17.5 3.25H21.5ZM24.25 4.5C24.25 2.98122 23.0188 1.75 21.5 1.75H17.5C16.5335 1.75 15.75 2.5335 15.75 3.5V5.5C15.75 6.4665 16.5335 7.25 17.5 7.25H18.75V8.5C18.75 9.4665 19.5335 10.25 20.5 10.25H22.5C23.4665 10.25 24.25 9.4665 24.25 8.5V4.5Z" fill="#333333"/>
<path fill-rule="evenodd" clip-rule="evenodd" d="M1.75 21.5C1.75 23.0188 2.98122 24.25 4.5 24.25H8.5C9.4665 24.25 10.25 23.4665 10.25 22.5V20.5C10.25 19.5335 9.4665 18.75 8.5 18.75H7.25V17.5C7.25 16.5335 6.4665 15.75 5.5 15.75H3.5C2.5335 15.75 1.75 16.5335 1.75 17.5V21.5Z" fill="#333333"/>
<path fill-rule="evenodd" clip-rule="evenodd" d="M21.5 22.75C22.1904 22.75 22.75 22.1904 22.75 21.5V17.5C22.75 17.3619 22.6381 17.25 22.5 17.25H20.5C20.3619 17.25 20.25 17.3619 20.25 17.5V19.5C20.25 19.9142 19.9142 20.25 19.5 20.25H17.5C17.3619 20.25 17.25 20.3619 17.25 20.5V22.5C17.25 22.6381 17.3619 22.75 17.5 22.75H21.5ZM24.25 21.5C24.25 23.0188 23.0188 24.25 21.5 24.25H17.5C16.5335 24.25 15.75 23.4665 15.75 22.5V20.5C15.75 19.5335 16.5335 18.75 17.5 18.75H18.75V17.5C18.75 16.5335 19.5335 15.75 20.5 15.75H22.5C23.4665 15.75 24.25 16.5335 24.25 17.5V21.5Z" fill="#333333"/>
</svg>
