<svg width="26" height="26" viewBox="0 0 26 26" fill="none" xmlns="http://www.w3.org/2000/svg">
<path d="M13 21.5V13.5" stroke="#333333" stroke-width="1.5" stroke-linecap="round" stroke-linejoin="round" stroke-dasharray="1 3"/>
<path fill-rule="evenodd" clip-rule="evenodd" d="M8.03033 13.9697C8.32322 14.2626 8.32322 14.7374 8.03033 15.0303L6.31066 16.75H19.6893L17.9697 15.0303C17.6768 14.7374 17.6768 14.2626 17.9697 13.9697C18.2626 13.6768 18.7374 13.6768 19.0303 13.9697L22.0303 16.9697C22.3232 17.2626 22.3232 17.7374 22.0303 18.0303L19.0303 21.0303C18.7374 21.3232 18.2626 21.3232 17.9697 21.0303C17.6768 20.7374 17.6768 20.2626 17.9697 19.9697L19.6893 18.25H6.31066L8.03033 19.9697C8.32322 20.2626 8.32322 20.7374 8.03033 21.0303C7.73744 21.3232 7.26256 21.3232 6.96967 21.0303L3.96967 18.0303C3.67678 17.7374 3.67678 17.2626 3.96967 16.9697L6.96967 13.9697C7.26256 13.6768 7.73744 13.6768 8.03033 13.9697Z" fill="#333333"/>
<path d="M10.5 4.5L13 8M13 8L15.5 11.5M13 8L15.5 4.5M13 8L10.5 11.5" stroke="#333333" stroke-width="1.5" stroke-linecap="round" stroke-linejoin="round"/>
</svg>
