<svg xmlns="http://www.w3.org/2000/svg" width="26" height="26" fill-rule="evenodd" stroke-miterlimit="1.414" clip-rule="evenodd" stroke-linejoin="round"><path fill-rule="nonzero" d="M16.092 3.961L5.54 14.513l.188 3.214a.75.75 0 0 1-1.498.087l-.207-3.55a.745.745 0 0 1 .218-.574l11.32-11.32a.75.75 0 0 1 1.061 0l7.778 7.778a.75.75 0 0 1 0 1.061l-11.32 11.32a.751.751 0 0 1-.574.218l-2.949-.172a.75.75 0 0 1 .088-1.498l2.612.153 10.552-10.552-6.717-6.717zM10.601 19.61a.75.75 0 1 1-.473-1.423A1.25 1.25 0 1 0 8.483 17c0 .084.006.142.047.456.29 2.232-.602 3.758-4.193 5.258a21.31 21.31 0 0 1-1.086.417.75.75 0 1 1-.502-1.413c.36-.128.697-.258 1.01-.388 2.97-1.241 3.486-2.123 3.283-3.68-.052-.401-.059-.471-.059-.65a2.75 2.75 0 1 1 3.618 2.61z"/></svg>
