<svg width="26" height="26" viewBox="0 0 26 26" fill="none" xmlns="http://www.w3.org/2000/svg">
    <path fill-rule="evenodd" clip-rule="evenodd" d="M18.75 10.5C18.75 9.5335 19.5335 8.75 20.5 8.75H22.5C23.4665 8.75 24.25 9.5335 24.25 10.5V15.5C24.25 16.4665 23.4665 17.25 22.5 17.25H20.5C19.5335 17.25 18.75 16.4665 18.75 15.5V10.5Z" fill="#333333"/>
    <path fill-rule="evenodd" clip-rule="evenodd" d="M1.75 10.5C1.75 9.5335 2.5335 8.75 3.5 8.75H5.5C6.4665 8.75 7.25 9.5335 7.25 10.5V15.5C7.25 16.4665 6.4665 17.25 5.5 17.25H3.5C2.5335 17.25 1.75 16.4665 1.75 15.5V10.5Z" fill="#333333"/>
    <path fill-rule="evenodd" clip-rule="evenodd" d="M8.75 20.5C8.75 19.5335 9.5335 18.75 10.5 18.75H15.5C16.4665 18.75 17.25 19.5335 17.25 20.5V22.5C17.25 23.4665 16.4665 24.25 15.5 24.25H10.5C9.5335 24.25 8.75 23.4665 8.75 22.5V20.5Z" fill="#333333"/>
    <path fill-rule="evenodd" clip-rule="evenodd" d="M8.75 3.5C8.75 2.5335 9.5335 1.75 10.5 1.75H15.5C16.4665 1.75 17.25 2.5335 17.25 3.5V5.5C17.25 6.4665 16.4665 7.25 15.5 7.25H10.5C9.5335 7.25 8.75 6.4665 8.75 5.5V3.5Z" fill="#333333"/>
    <path fill-rule="evenodd" clip-rule="evenodd" d="M8.75 9.5C8.75 9.08579 9.08579 8.75 9.5 8.75H9.9375C10.3517 8.75 10.6875 9.08579 10.6875 9.5C10.6875 9.8211 10.4857 10.0951 10.202 10.202C10.0951 10.4857 9.8211 10.6875 9.5 10.6875C9.08579 10.6875 8.75 10.3517 8.75 9.9375V9.5ZM11.8125 9.5C11.8125 9.08579 12.1483 8.75 12.5625 8.75H13.4375C13.8517 8.75 14.1875 9.08579 14.1875 9.5C14.1875 9.91421 13.8517 10.25 13.4375 10.25H12.5625C12.1483 10.25 11.8125 9.91421 11.8125 9.5ZM15.3125 9.5C15.3125 9.08579 15.6483 8.75 16.0625 8.75H16.5C16.9142 8.75 17.25 9.08579 17.25 9.5V9.9375C17.25 10.3517 16.9142 10.6875 16.5 10.6875C16.1789 10.6875 15.9049 10.4857 15.798 10.202C15.5143 10.0951 15.3125 9.8211 15.3125 9.5ZM9.5 11.8125C9.91421 11.8125 10.25 12.1483 10.25 12.5625V13.4375C10.25 13.8517 9.91421 14.1875 9.5 14.1875C9.08579 14.1875 8.75 13.8517 8.75 13.4375V12.5625C8.75 12.1483 9.08579 11.8125 9.5 11.8125ZM16.5 11.8125C16.9142 11.8125 17.25 12.1483 17.25 12.5625V13.4375C17.25 13.8517 16.9142 14.1875 16.5 14.1875C16.0858 14.1875 15.75 13.8517 15.75 13.4375V12.5625C15.75 12.1483 16.0858 11.8125 16.5 11.8125ZM10.202 15.798C10.0951 15.5143 9.8211 15.3125 9.5 15.3125C9.08579 15.3125 8.75 15.6483 8.75 16.0625V16.5C8.75 16.9142 9.08579 17.25 9.5 17.25H9.9375C10.3517 17.25 10.6875 16.9142 10.6875 16.5C10.6875 16.1789 10.4857 15.9049 10.202 15.798ZM16.5 15.3125C16.9142 15.3125 17.25 15.6483 17.25 16.0625V16.5C17.25 16.9142 16.9142 17.25 16.5 17.25H16.0625C15.6483 17.25 15.3125 16.9142 15.3125 16.5C15.3125 16.1789 15.5143 15.9049 15.798 15.798C15.9049 15.5143 16.1789 15.3125 16.5 15.3125ZM11.8125 16.5C11.8125 16.0858 12.1483 15.75 12.5625 15.75H13.4375C13.8517 15.75 14.1875 16.0858 14.1875 16.5C14.1875 16.9142 13.8517 17.25 13.4375 17.25H12.5625C12.1483 17.25 11.8125 16.9142 11.8125 16.5Z" fill="#333333"/>
</svg>
