<svg xmlns="http://www.w3.org/2000/svg" width="26" height="26" viewBox="0 0 26 26"><path fill-rule="evenodd" d="M12.528 3.417a.75.75 0 0 1 .944 0l6 4.857a.75.75 0 1 1-.944 1.166L13.75 5.572V20a.75.75 0 0 1-1.5 0V5.572L7.472 9.44a.75.75 0 1 1-.944-1.166l6-4.857zM19.75 19a.75.75 0 0 1 .75-.75h.5a.75.75 0 0 1 0 1.5h-.5a.75.75 0 0 1-.75-.75zm-12 0a.75.75 0 0 1 .75-.75H9a.75.75 0 0 1 0 1.5h-.5a.75.75 0 0 1-.75-.75zm8 0a.75.75 0 0 1 .75-.75h.5a.75.75 0 0 1 0 1.5h-.5a.75.75 0 0 1-.75-.75zm-12 0a.75.75 0 0 1 .75-.75H5a.75.75 0 0 1 0 1.5h-.5a.75.75 0 0 1-.75-.75zm18 3a.75.75 0 0 1 .75-.75h.5a.75.75 0 0 1 0 1.5h-.5a.75.75 0 0 1-.75-.75zm-20 0a.75.75 0 0 1 .75-.75H3a.75.75 0 0 1 0 1.5h-.5a.75.75 0 0 1-.75-.75zm4 0a.75.75 0 0 1 .75-.75H7a.75.75 0 0 1 0 1.5h-.5a.75.75 0 0 1-.75-.75zm4 0a.75.75 0 0 1 .75-.75h.5a.75.75 0 0 1 0 1.5h-.5a.75.75 0 0 1-.75-.75zm4 0a.75.75 0 0 1 .75-.75h.5a.75.75 0 0 1 0 1.5h-.5a.75.75 0 0 1-.75-.75zm4 0a.75.75 0 0 1 .75-.75h.5a.75.75 0 0 1 0 1.5h-.5a.75.75 0 0 1-.75-.75z"/></svg>