<svg width="27" height="26" viewBox="0 0 27 26" fill="none" xmlns="http://www.w3.org/2000/svg">
<path fill-rule="evenodd" clip-rule="evenodd" d="M19.1733 23.25H8.17334C6.65456 23.25 5.42334 22.0188 5.42334 20.5V4.5C5.42334 2.98122 6.65456 1.75 8.17334 1.75H19.1733C20.6921 1.75 21.9233 2.98122 21.9233 4.5V20.5C21.9233 22.0188 20.6921 23.25 19.1733 23.25ZM19.1733 21.75C19.8637 21.75 20.4233 21.1904 20.4233 20.5V4.5C20.4233 3.80964 19.8637 3.25 19.1733 3.25H8.17334C7.48298 3.25 6.92334 3.80964 6.92334 4.5V20.5C6.92334 21.1904 7.48298 21.75 8.17334 21.75H19.1733ZM18.1733 20.25H9.17334C8.75913 20.25 8.42334 19.9142 8.42334 19.5C8.42334 19.0858 8.75913 18.75 9.17334 18.75H18.1733C18.5876 18.75 18.9233 19.0858 18.9233 19.5C18.9233 19.9142 18.5876 20.25 18.1733 20.25Z" fill="#212121"/>
<mask id="mask0" mask-type="alpha" maskUnits="userSpaceOnUse" x="5" y="1" width="17" height="23">
<path fill-rule="evenodd" clip-rule="evenodd" d="M19.1733 23.25H8.17334C6.65456 23.25 5.42334 22.0188 5.42334 20.5V4.5C5.42334 2.98122 6.65456 1.75 8.17334 1.75H19.1733C20.6921 1.75 21.9233 2.98122 21.9233 4.5V20.5C21.9233 22.0188 20.6921 23.25 19.1733 23.25ZM19.1733 21.75C19.8637 21.75 20.4233 21.1904 20.4233 20.5V4.5C20.4233 3.80964 19.8637 3.25 19.1733 3.25H8.17334C7.48298 3.25 6.92334 3.80964 6.92334 4.5V20.5C6.92334 21.1904 7.48298 21.75 8.17334 21.75H19.1733ZM18.1733 20.25H9.17334C8.75913 20.25 8.42334 19.9142 8.42334 19.5C8.42334 19.0858 8.75913 18.75 9.17334 18.75H18.1733C18.5876 18.75 18.9233 19.0858 18.9233 19.5C18.9233 19.9142 18.5876 20.25 18.1733 20.25Z" fill="white"/>
</mask>
<g mask="url(#mask0)">
<rect x="0.67334" width="26" height="26" fill="white"/>
</g>
</svg>
