<svg width="20" height="22" viewBox="0 0 20 22" fill="none" xmlns="http://www.w3.org/2000/svg">
<path fill-rule="evenodd" clip-rule="evenodd" d="M18.311 12.6232C18.9979 13.0187 19.4792 13.6931 19.63 14.4712H19.631C19.8357 15.528 19.406 16.6072 18.5309 17.234C17.6557 17.8608 16.4956 17.9203 15.561 17.3862L14.435 16.7362C14.201 16.6032 14.0563 16.355 14.0557 16.0859C14.0551 15.8168 14.1988 15.5679 14.4321 15.4339C14.6655 15.2998 14.9528 15.3011 15.185 15.4372L16.311 16.0882C16.7367 16.3282 17.2629 16.299 17.6595 16.0134C18.056 15.7279 18.2506 15.238 18.158 14.7582C18.0902 14.4059 17.8722 14.1007 17.561 13.9222L16.436 13.2722C16.1491 13.1067 16.0048 12.7726 16.081 12.4502C16.3062 11.4967 16.3062 10.5038 16.081 9.55023C16.0048 9.22791 16.1491 8.89379 16.436 8.72823L17.561 8.07823C18.1538 7.73073 18.3549 6.96993 18.0113 6.37487C17.6678 5.77981 16.9083 5.57362 16.311 5.91323L15.184 6.56323C14.8969 6.72907 14.5351 6.68679 14.294 6.45923C13.5833 5.78591 12.7241 5.2892 11.786 5.00923C11.4679 4.91455 11.2499 4.62209 11.25 4.29023V2.99223C11.25 2.30188 10.6903 1.74223 9.99999 1.74223C9.30963 1.74223 8.74999 2.30188 8.74999 2.99223V4.28923C8.75051 4.62146 8.5324 4.91444 8.21399 5.00923C7.27549 5.28905 6.416 5.78577 5.70499 6.45923C5.46391 6.68679 5.10204 6.72907 4.81499 6.56323L3.68899 5.91323C3.09167 5.57362 2.33221 5.77981 1.98865 6.37487C1.64508 6.96993 1.84622 7.73073 2.43899 8.07823L3.56399 8.72823C3.85084 8.89379 3.99513 9.22791 3.91899 9.55023C3.69381 10.5038 3.69381 11.4967 3.91899 12.4502C3.99513 12.7726 3.85084 13.1067 3.56399 13.2722L2.43899 13.9222C1.84622 14.2697 1.64508 15.0305 1.98865 15.6256C2.33221 16.2207 3.09167 16.4268 3.68899 16.0872L4.81599 15.4372C5.10304 15.2714 5.46491 15.3137 5.70599 15.5412C6.41671 16.2146 7.27585 16.7113 8.21399 16.9912C8.53205 17.0859 8.75007 17.3784 8.74999 17.7102V19.0102C8.74999 19.7006 9.30963 20.2602 9.99999 20.2602C10.6903 20.2602 11.25 19.7006 11.25 19.0102V17.7102C11.25 17.296 11.5858 16.9602 12 16.9602C12.4142 16.9602 12.75 17.296 12.75 17.7102V19.0092C12.75 20.528 11.5188 21.7592 9.99999 21.7592C8.48121 21.7592 7.24999 20.528 7.24999 19.0092V18.2342C6.47527 17.9397 5.75303 17.5224 5.11099 16.9982L4.43899 17.3862C3.12488 18.1334 1.45408 17.6798 0.698235 16.3706C-0.0576135 15.0615 0.384903 13.3878 1.68899 12.6232L2.35999 12.2352C2.29048 11.8272 2.2537 11.4142 2.24999 11.0002C2.25365 10.586 2.29043 10.1726 2.35999 9.76423L1.68899 9.37623C0.384903 8.61172 -0.0576135 6.93795 0.698235 5.62883C1.45408 4.3197 3.12488 3.86609 4.43899 4.61323L5.11099 5.00123C5.75303 4.4771 6.47527 4.05976 7.24999 3.76523V2.99023C7.24999 1.47145 8.48121 0.240234 9.99999 0.240234C11.5188 0.240234 12.75 1.47145 12.75 2.99023V3.76623C13.5247 4.06076 14.247 4.4781 14.889 5.00223L15.561 4.61423C16.8751 3.86709 18.5459 4.32069 19.3017 5.62983C20.0576 6.93896 19.6151 8.61272 18.311 9.37723L17.64 9.76523C17.7095 10.1733 17.7463 10.5863 17.75 11.0002C17.7463 11.4142 17.7095 11.8272 17.64 12.2352L18.311 12.6232ZM6.9247 9.17977C7.10794 9.10212 7.31454 9.10049 7.49899 9.17523C7.68332 9.25002 7.83039 9.39497 7.90785 9.57819C7.9853 9.76142 7.98679 9.96791 7.91199 10.1522C7.80445 10.4182 7.74943 10.7024 7.74999 10.9892C7.75001 12.2244 8.75021 13.2262 9.98534 13.2282C11.2205 13.2302 12.2239 12.2317 12.228 10.9965C12.232 9.76141 11.2351 8.7563 9.99999 8.75023C9.58578 8.75023 9.24999 8.41445 9.24999 8.00023C9.24999 7.58602 9.58578 7.25023 9.99999 7.25023C11.6502 7.25122 13.106 8.33025 13.5869 9.90879C14.0678 11.4873 13.4609 13.1948 12.0916 14.1157C10.7223 15.0365 8.912 14.9547 7.63141 13.9139C6.35082 12.8732 5.90054 11.1179 6.52199 9.58923C6.59658 9.40472 6.74145 9.25742 6.9247 9.17977Z" fill="#29BC50"/>
<mask id="mask0" mask-type="alpha" maskUnits="userSpaceOnUse" x="0" y="0" width="20" height="22">
<path fill-rule="evenodd" clip-rule="evenodd" d="M18.311 12.6232C18.9979 13.0187 19.4792 13.6931 19.63 14.4712H19.631C19.8357 15.528 19.406 16.6072 18.5309 17.234C17.6557 17.8608 16.4956 17.9203 15.561 17.3862L14.435 16.7362C14.201 16.6032 14.0563 16.355 14.0557 16.0859C14.0551 15.8168 14.1988 15.5679 14.4321 15.4339C14.6655 15.2998 14.9528 15.3011 15.185 15.4372L16.311 16.0882C16.7367 16.3282 17.2629 16.299 17.6595 16.0134C18.056 15.7279 18.2506 15.238 18.158 14.7582C18.0902 14.4059 17.8722 14.1007 17.561 13.9222L16.436 13.2722C16.1491 13.1067 16.0048 12.7726 16.081 12.4502C16.3062 11.4967 16.3062 10.5038 16.081 9.55023C16.0048 9.22791 16.1491 8.89379 16.436 8.72823L17.561 8.07823C18.1538 7.73073 18.3549 6.96993 18.0113 6.37487C17.6678 5.77981 16.9083 5.57362 16.311 5.91323L15.184 6.56323C14.8969 6.72907 14.5351 6.68679 14.294 6.45923C13.5833 5.78591 12.7241 5.2892 11.786 5.00923C11.4679 4.91455 11.2499 4.62209 11.25 4.29023V2.99223C11.25 2.30188 10.6903 1.74223 9.99999 1.74223C9.30963 1.74223 8.74999 2.30188 8.74999 2.99223V4.28923C8.75051 4.62146 8.5324 4.91444 8.21399 5.00923C7.27549 5.28905 6.416 5.78577 5.70499 6.45923C5.46391 6.68679 5.10204 6.72907 4.81499 6.56323L3.68899 5.91323C3.09167 5.57362 2.33221 5.77981 1.98865 6.37487C1.64508 6.96993 1.84622 7.73073 2.43899 8.07823L3.56399 8.72823C3.85084 8.89379 3.99513 9.22791 3.91899 9.55023C3.69381 10.5038 3.69381 11.4967 3.91899 12.4502C3.99513 12.7726 3.85084 13.1067 3.56399 13.2722L2.43899 13.9222C1.84622 14.2697 1.64508 15.0305 1.98865 15.6256C2.33221 16.2207 3.09167 16.4268 3.68899 16.0872L4.81599 15.4372C5.10304 15.2714 5.46491 15.3137 5.70599 15.5412C6.41671 16.2146 7.27585 16.7113 8.21399 16.9912C8.53205 17.0859 8.75007 17.3784 8.74999 17.7102V19.0102C8.74999 19.7006 9.30963 20.2602 9.99999 20.2602C10.6903 20.2602 11.25 19.7006 11.25 19.0102V17.7102C11.25 17.296 11.5858 16.9602 12 16.9602C12.4142 16.9602 12.75 17.296 12.75 17.7102V19.0092C12.75 20.528 11.5188 21.7592 9.99999 21.7592C8.48121 21.7592 7.24999 20.528 7.24999 19.0092V18.2342C6.47527 17.9397 5.75303 17.5224 5.11099 16.9982L4.43899 17.3862C3.12488 18.1334 1.45408 17.6798 0.698235 16.3706C-0.0576135 15.0615 0.384903 13.3878 1.68899 12.6232L2.35999 12.2352C2.29048 11.8272 2.2537 11.4142 2.24999 11.0002C2.25365 10.586 2.29043 10.1726 2.35999 9.76423L1.68899 9.37623C0.384903 8.61172 -0.0576135 6.93795 0.698235 5.62883C1.45408 4.3197 3.12488 3.86609 4.43899 4.61323L5.11099 5.00123C5.75303 4.4771 6.47527 4.05976 7.24999 3.76523V2.99023C7.24999 1.47145 8.48121 0.240234 9.99999 0.240234C11.5188 0.240234 12.75 1.47145 12.75 2.99023V3.76623C13.5247 4.06076 14.247 4.4781 14.889 5.00223L15.561 4.61423C16.8751 3.86709 18.5459 4.32069 19.3017 5.62983C20.0576 6.93896 19.6151 8.61272 18.311 9.37723L17.64 9.76523C17.7095 10.1733 17.7463 10.5863 17.75 11.0002C17.7463 11.4142 17.7095 11.8272 17.64 12.2352L18.311 12.6232ZM6.9247 9.17977C7.10794 9.10212 7.31454 9.10049 7.49899 9.17523C7.68332 9.25002 7.83039 9.39497 7.90785 9.57819C7.9853 9.76142 7.98679 9.96791 7.91199 10.1522C7.80445 10.4182 7.74943 10.7024 7.74999 10.9892C7.75001 12.2244 8.75021 13.2262 9.98534 13.2282C11.2205 13.2302 12.2239 12.2317 12.228 10.9965C12.232 9.76141 11.2351 8.7563 9.99999 8.75023C9.58578 8.75023 9.24999 8.41445 9.24999 8.00023C9.24999 7.58602 9.58578 7.25023 9.99999 7.25023C11.6502 7.25122 13.106 8.33025 13.5869 9.90879C14.0678 11.4873 13.4609 13.1948 12.0916 14.1157C10.7223 15.0365 8.912 14.9547 7.63141 13.9139C6.35082 12.8732 5.90054 11.1179 6.52199 9.58923C6.59658 9.40472 6.74145 9.25742 6.9247 9.17977Z" fill="white"/>
</mask>
<g mask="url(#mask0)">
<rect x="-3" y="-2" width="26" height="26" fill="#29BC50"/>
</g>
</svg>
