<svg width="26" height="26" viewBox="0 0 26 26" fill="none" xmlns="http://www.w3.org/2000/svg">
<path fill-rule="evenodd" clip-rule="evenodd" d="M1.75 6.5C1.75 4.98122 2.98122 3.75 4.5 3.75H21.5C23.0188 3.75 24.25 4.98122 24.25 6.5V19.5C24.25 21.0188 23.0188 22.25 21.5 22.25H4.5C2.98122 22.25 1.75 21.0188 1.75 19.5V6.5ZM4.5 5.25C3.80964 5.25 3.25 5.80964 3.25 6.5V19.5C3.25 20.1904 3.80964 20.75 4.5 20.75H21.5C22.1904 20.75 22.75 20.1904 22.75 19.5V6.5C22.75 5.80964 22.1904 5.25 21.5 5.25H4.5Z" fill="#333333"/>
<path fill-rule="evenodd" clip-rule="evenodd" d="M9.74999 9.5C9.74999 8.79443 9.12552 8.20742 8.42009 8.25246C7.74792 8.29538 7.25 8.82722 7.25 9.5C7.25 10.1728 7.74792 10.7046 8.42009 10.7475C9.12552 10.7926 9.74999 10.2056 9.74999 9.5ZM8.32451 6.75551C9.89518 6.65522 11.25 7.92937 11.25 9.5C11.25 11.0706 9.89518 12.3448 8.32451 12.2445C6.86127 12.1511 5.75 10.9627 5.75 9.5C5.75 8.03726 6.86127 6.84894 8.32451 6.75551Z" fill="#333333"/>
<path fill-rule="evenodd" clip-rule="evenodd" d="M14.092 11.1376C14.9733 9.72765 17.0267 9.72767 17.908 11.1377L21.636 17.1025C21.8555 17.4538 21.7488 17.9165 21.3975 18.136C21.0462 18.3555 20.5835 18.2488 20.364 17.8975L16.636 11.9327C16.3422 11.4627 15.6577 11.4626 15.364 11.9326L12.136 17.0972C11.9165 17.4485 11.4537 17.5552 11.1025 17.3357C10.7512 17.1161 10.6445 16.6534 10.864 16.3022L14.092 11.1376Z" fill="#333333"/>
<path fill-rule="evenodd" clip-rule="evenodd" d="M7.22396 15.0619C8.12476 13.9037 9.87524 13.9037 10.776 15.0619L13.092 18.0395C13.3463 18.3665 13.2874 18.8377 12.9605 19.092C12.6335 19.3463 12.1623 19.2874 11.908 18.9605L9.59201 15.9828C9.29175 15.5967 8.70825 15.5967 8.40799 15.9828L6.09201 18.9605C5.83771 19.2874 5.3665 19.3463 5.03954 19.092C4.71258 18.8377 4.65368 18.3665 4.90799 18.0395L7.22396 15.0619Z" fill="#333333"/>
</svg>
