<svg width="26" height="26" viewBox="0 0 26 26" fill="none" xmlns="http://www.w3.org/2000/svg">
<path fill-rule="evenodd" clip-rule="evenodd" d="M8.75 4.5C8.75 4.08579 9.08579 3.75 9.5 3.75C9.66767 3.75 9.83462 3.75324 10.0008 3.75967C10.4147 3.77567 10.7373 4.12418 10.7213 4.53808C10.7052 4.95199 10.3567 5.27455 9.94284 5.25855C9.79597 5.25287 9.64834 5.25 9.5 5.25C9.08579 5.25 8.75 4.91421 8.75 4.5ZM12.0367 4.7445C12.1489 4.34578 12.5631 4.11355 12.9619 4.22579C13.2847 4.31667 13.6023 4.41993 13.9142 4.53504C14.3028 4.67845 14.5016 5.10972 14.3582 5.49832C14.2148 5.88692 13.7835 6.08568 13.3949 5.94227C13.1199 5.8408 12.84 5.74977 12.5554 5.66967C12.1567 5.55743 11.9244 5.14321 12.0367 4.7445ZM15.5442 6.10398C15.7746 5.75978 16.2404 5.66755 16.5846 5.89799C16.8624 6.08393 17.1324 6.28049 17.3941 6.48707C17.7192 6.74372 17.7747 7.21534 17.518 7.54046C17.2614 7.86558 16.7898 7.92108 16.4647 7.66443C16.2336 7.48205 15.9953 7.30855 15.7501 7.14444C15.406 6.91401 15.3137 6.44817 15.5442 6.10398ZM18.4595 8.48196C18.7847 8.22531 19.2563 8.28081 19.5129 8.60593C19.7195 8.86762 19.9161 9.13763 20.102 9.41537C20.3324 9.75957 20.2402 10.2254 19.896 10.4558C19.5518 10.6863 19.086 10.5941 18.8556 10.2499C18.6915 10.0047 18.518 9.76639 18.3356 9.53535C18.0789 9.21023 18.1344 8.73861 18.4595 8.48196ZM20.5017 11.6418C20.8903 11.4984 21.3216 11.6972 21.465 12.0858C21.5801 12.3977 21.6833 12.7153 21.7742 13.0381C21.8865 13.4369 21.6542 13.8511 21.2555 13.9633C20.8568 14.0756 20.4426 13.8433 20.3303 13.4446C20.2502 13.16 20.1592 12.8801 20.0577 12.6051C19.9143 12.2165 20.1131 11.7852 20.5017 11.6418ZM21.4619 15.2787C21.8758 15.2627 22.2243 15.5853 22.2403 15.9992C22.2468 16.1654 22.25 16.3323 22.25 16.5C22.25 16.9142 21.9142 17.25 21.5 17.25C21.0858 17.25 20.75 16.9142 20.75 16.5C20.75 16.3517 20.7471 16.204 20.7415 16.0572C20.7255 15.6433 21.048 15.2948 21.4619 15.2787Z" fill="#333333"/>
<path fill-rule="evenodd" clip-rule="evenodd" d="M4.96967 3.96967C5.26256 3.67678 5.73744 3.67678 6.03033 3.96967L9.03033 6.96967C9.32322 7.26256 9.32322 7.73744 9.03033 8.03033C8.73744 8.32322 8.26256 8.32322 7.96967 8.03033L6.25 6.31066V19.75H19.6893L17.9697 18.0303C17.6768 17.7374 17.6768 17.2626 17.9697 16.9697C18.2626 16.6768 18.7374 16.6768 19.0303 16.9697L22.0303 19.9697C22.3232 20.2626 22.3232 20.7374 22.0303 21.0303L19.0303 24.0303C18.7374 24.3232 18.2626 24.3232 17.9697 24.0303C17.6768 23.7374 17.6768 23.2626 17.9697 22.9697L19.6893 21.25H5.5C5.08579 21.25 4.75 20.9142 4.75 20.5V6.31066L3.03033 8.03033C2.73744 8.32322 2.26256 8.32322 1.96967 8.03033C1.67678 7.73744 1.67678 7.26256 1.96967 6.96967L4.96967 3.96967Z" fill="#333333"/>
<path fill-rule="evenodd" clip-rule="evenodd" d="M7.83491 14.3856C8.02636 14.0183 8.47932 13.8757 8.84664 14.0672C10.1653 14.7544 11.2456 15.8347 11.9329 17.1534C12.1243 17.5207 11.9817 17.9736 11.6144 18.1651C11.2471 18.3565 10.7941 18.214 10.6027 17.8466C10.0575 16.8005 9.19947 15.9426 8.15336 15.3973C7.78604 15.2059 7.64347 14.7529 7.83491 14.3856Z" fill="#333333"/>
</svg>
