<svg width="26" height="26" viewBox="0 0 26 26" fill="none" xmlns="http://www.w3.org/2000/svg">
<path fill-rule="evenodd" clip-rule="evenodd" d="M1.75 5.5C1.75 3.98122 2.98122 2.75 4.5 2.75H21.5C23.0188 2.75 24.25 3.98122 24.25 5.5V20.5C24.25 22.0188 23.0188 23.25 21.5 23.25H4.5C2.98122 23.25 1.75 22.0188 1.75 20.5V5.5ZM4.5 4.25C3.80964 4.25 3.25 4.80964 3.25 5.5V20.5C3.25 21.1904 3.80964 21.75 4.5 21.75H21.5C22.1904 21.75 22.75 21.1904 22.75 20.5V5.5C22.75 4.80964 22.1904 4.25 21.5 4.25H4.5ZM7.5 16.75C7.91421 16.75 8.25 17.0858 8.25 17.5V19.5C8.25 19.9142 7.91421 20.25 7.5 20.25C7.08579 20.25 6.75 19.9142 6.75 19.5V19.25H5.5C5.08579 19.25 4.75 18.9142 4.75 18.5C4.75 18.0858 5.08579 17.75 5.5 17.75H6.75V17.5C6.75 17.0858 7.08579 16.75 7.5 16.75ZM9.75 18.5C9.75 18.0858 10.0858 17.75 10.5 17.75H20.5C20.9142 17.75 21.25 18.0858 21.25 18.5C21.25 18.9142 20.9142 19.25 20.5 19.25H10.5C10.0858 19.25 9.75 18.9142 9.75 18.5Z" fill="rgba(51, 51, 51, 0.3)"/>
<path fill-rule="evenodd" clip-rule="evenodd" d="M11.1597 7.33167C11.411 7.20366 11.713 7.22753 11.9411 7.39345L17.4411 11.3935C17.6352 11.5346 17.75 11.7601 17.75 12C17.75 12.24 17.6352 12.4654 17.4411 12.6066L11.9411 16.6066C11.713 16.7725 11.411 16.7963 11.1597 16.6683C10.9083 16.5403 10.75 16.2821 10.75 16V8C10.75 7.71791 10.9083 7.45967 11.1597 7.33167ZM12.25 9.47283V14.5272L15.7249 12L12.25 9.47283Z" fill="rgba(51, 51, 51, 0.3)"/>
</svg>
