<svg width="26" height="26" viewBox="0 0 26 26" fill="none" xmlns="http://www.w3.org/2000/svg">
<path d="M13.2528 6C12.4244 6 11.7528 6.67157 11.7528 7.5V16.1674L10.0203 13.589C9.55829 12.9014 8.62631 12.7186 7.9387 13.1806C7.25109 13.6427 7.06823 14.5746 7.53027 15.2622L12.4257 22.5476C13.084 23.8539 14.4373 24.75 16 24.75H19.75C21.9591 24.75 23.75 22.9591 23.75 20.75L23.75 15.2591C23.75 14.4301 23.0779 13.758 22.2489 13.758C21.4474 13.758 20.7926 14.3862 20.7499 15.1771V14.2522C20.7499 13.4236 20.0782 12.7519 19.2496 12.7519C18.4322 12.7519 17.7674 13.4056 17.7496 14.2187V13.2457C17.7496 12.4173 17.0781 11.7457 16.2496 11.7457C15.4544 11.7457 14.8038 12.3645 14.7528 13.1468V7.5C14.7528 6.67157 14.0813 6 13.2528 6Z" stroke="black" stroke-width="1.5" stroke-linecap="round" stroke-linejoin="round"/>
<path d="M23.2791 11.7067V3.10449H3.15137V23.3451H9.86062" stroke="#333333" stroke-width="1.5" stroke-linecap="round" stroke-linejoin="round" stroke-dasharray="1 3"/>
<path fill-rule="evenodd" clip-rule="evenodd" d="M3.15137 2.35449C2.73715 2.35449 2.40137 2.69028 2.40137 3.10449V3.61051C2.40137 4.02472 2.73715 4.36051 3.15137 4.36051C3.49184 4.36051 3.77932 4.13364 3.87089 3.82282C4.17964 3.72997 4.40456 3.4435 4.40456 3.10449C4.40456 2.69028 4.06877 2.35449 3.65456 2.35449H3.15137ZM6.67373 2.35449C6.25951 2.35449 5.92373 2.69028 5.92373 3.10449C5.92373 3.51871 6.25951 3.85449 6.67373 3.85449H7.68012C8.09433 3.85449 8.43012 3.51871 8.43012 3.10449C8.43012 2.69028 8.09433 2.35449 7.68012 2.35449H6.67373ZM10.6993 2.35449C10.2851 2.35449 9.94928 2.69028 9.94928 3.10449C9.94928 3.51871 10.2851 3.85449 10.6993 3.85449H11.7057C12.1199 3.85449 12.4557 3.51871 12.4557 3.10449C12.4557 2.69028 12.1199 2.35449 11.7057 2.35449H10.6993ZM14.7248 2.35449C14.3106 2.35449 13.9748 2.69028 13.9748 3.10449C13.9748 3.51871 14.3106 3.85449 14.7248 3.85449H15.7312C16.1454 3.85449 16.4812 3.51871 16.4812 3.10449C16.4812 2.69028 16.1454 2.35449 15.7312 2.35449H14.7248ZM18.7504 2.35449C18.3362 2.35449 18.0004 2.69028 18.0004 3.10449C18.0004 3.51871 18.3362 3.85449 18.7504 3.85449H19.7568C20.171 3.85449 20.5068 3.51871 20.5068 3.10449C20.5068 2.69028 20.171 2.35449 19.7568 2.35449H18.7504ZM22.7759 2.35449C22.3617 2.35449 22.0259 2.69028 22.0259 3.10449C22.0259 3.4401 22.2464 3.72422 22.5504 3.81997C22.6302 4.14834 22.9262 4.39213 23.2791 4.39213C23.6934 4.39213 24.0291 4.05634 24.0291 3.64213V3.10449C24.0291 2.69028 23.6934 2.35449 23.2791 2.35449H22.7759ZM3.90137 6.6466C3.90137 6.23239 3.56558 5.8966 3.15137 5.8966C2.73715 5.8966 2.40137 6.23239 2.40137 6.6466V7.65864C2.40137 8.07285 2.73715 8.40864 3.15137 8.40864C3.56558 8.40864 3.90137 8.07285 3.90137 7.65864V6.6466ZM24.0291 6.86796C24.0291 6.45374 23.6934 6.11796 23.2791 6.11796C22.8649 6.11796 22.5291 6.45374 22.5291 6.86796V7.94323C22.5291 8.35745 22.8649 8.69323 23.2791 8.69323C23.6934 8.69323 24.0291 8.35745 24.0291 7.94323V6.86796ZM3.90137 10.6947C3.90137 10.2805 3.56558 9.94473 3.15137 9.94473C2.73715 9.94473 2.40137 10.2805 2.40137 10.6947V11.7068C2.40137 12.121 2.73715 12.4568 3.15137 12.4568C3.56558 12.4568 3.90137 12.121 3.90137 11.7068V10.6947ZM24.0291 11.1691C24.0291 10.7548 23.6934 10.4191 23.2791 10.4191C22.8649 10.4191 22.5291 10.7548 22.5291 11.1691V11.7067C22.5291 12.1209 22.8649 12.4567 23.2791 12.4567C23.6934 12.4567 24.0291 12.1209 24.0291 11.7067V11.1691ZM3.90137 14.7429C3.90137 14.3286 3.56558 13.9929 3.15137 13.9929C2.73715 13.9929 2.40137 14.3286 2.40137 14.7429V15.7549C2.40137 16.1691 2.73715 16.5049 3.15137 16.5049C3.56558 16.5049 3.90137 16.1691 3.90137 15.7549V14.7429ZM3.90137 18.791C3.90137 18.3768 3.56558 18.041 3.15137 18.041C2.73715 18.041 2.40137 18.3768 2.40137 18.791V19.803C2.40137 20.2172 2.73715 20.553 3.15137 20.553C3.56558 20.553 3.90137 20.2172 3.90137 19.803V18.791ZM3.15137 22.0891C3.5045 22.0891 3.80063 22.3332 3.88029 22.6618C4.14004 22.7797 4.3207 23.0413 4.3207 23.3451C4.3207 23.7593 3.98491 24.0951 3.5707 24.0951H3.15137C2.73715 24.0951 2.40137 23.7593 2.40137 23.3451V22.8391C2.40137 22.4249 2.73715 22.0891 3.15137 22.0891ZM6.08667 22.5951C5.67245 22.5951 5.33667 22.9309 5.33667 23.3451C5.33667 23.7593 5.67245 24.0951 6.08667 24.0951H6.92532C7.33954 24.0951 7.67532 23.7593 7.67532 23.3451C7.67532 22.9309 7.33954 22.5951 6.92532 22.5951H6.08667ZM9.4413 22.5951C9.02708 22.5951 8.6913 22.9309 8.6913 23.3451C8.6913 23.7593 9.02708 24.0951 9.4413 24.0951H9.86062C10.2748 24.0951 10.6106 23.7593 10.6106 23.3451C10.6106 22.9309 10.2748 22.5951 9.86062 22.5951H9.4413ZM12.5028 7.49994C12.5028 7.08572 12.8386 6.74994 13.2528 6.74994C13.667 6.74994 14.0028 7.08573 14.0028 7.49994V13.1468C14.0028 13.5515 14.3239 13.8832 14.7284 13.8964C15.1329 13.9095 15.4749 13.5994 15.5012 13.1955C15.5266 12.805 15.8523 12.4957 16.2496 12.4957C16.6638 12.4957 16.9996 12.8314 16.9996 13.2457V14.2187C16.9996 14.6297 17.3304 14.9641 17.7414 14.9686C18.1524 14.9731 18.4904 14.646 18.4994 14.2351C18.5083 13.8287 18.8409 13.5018 19.2496 13.5018C19.664 13.5018 19.9999 13.8377 19.9999 14.2521V15.177C19.9999 15.5834 20.3235 15.9158 20.7297 15.9267C21.1359 15.9377 21.477 15.6231 21.4988 15.2174C21.5201 14.8223 21.848 14.5079 22.2488 14.5079C22.6637 14.5079 23 14.8442 23 15.2591L22.9999 20.7499C22.9999 22.5449 21.5449 23.9999 19.7499 23.9999H15.9999C14.7314 23.9999 13.6312 23.2733 13.0954 22.2101C13.0814 22.1822 13.0656 22.1552 13.0482 22.1293L8.15274 14.8439C7.92172 14.5001 8.01315 14.0341 8.35696 13.8031C8.70076 13.5721 9.16675 13.6635 9.39777 14.0073L11.1303 16.5856C11.3143 16.8595 11.6558 16.9809 11.9714 16.8847C12.2871 16.7885 12.5028 16.4973 12.5028 16.1673V7.49994ZM13.2528 5.24994C12.0102 5.24994 11.0028 6.2573 11.0028 7.49994V13.7064L10.6428 13.1707C9.94974 12.1393 8.55177 11.865 7.52035 12.558C6.48894 13.2511 6.21465 14.6491 6.90771 15.6805L11.7781 22.9286C12.5669 24.4544 14.1607 25.4999 15.9999 25.4999H19.7499C22.3733 25.4999 24.4999 23.3733 24.4999 20.7499L24.5 15.2591C24.5 14.0158 23.4921 13.0079 22.2488 13.0079C21.8934 13.0079 21.5573 13.0903 21.2584 13.2369C20.8874 12.5041 20.1271 12.0018 19.2496 12.0018C18.8939 12.0018 18.5575 12.0843 18.2585 12.2312C17.8876 11.4982 17.1273 10.9957 16.2496 10.9957C15.9878 10.9957 15.7365 11.0404 15.5028 11.1225V7.49994C15.5028 6.2573 14.4954 5.24994 13.2528 5.24994Z" fill="#333333"/>
</svg>
