<svg width="26" height="26" viewBox="0 0 26 26" fill="none" xmlns="http://www.w3.org/2000/svg">
<path fill-rule="evenodd" clip-rule="evenodd" d="M18.75 10.5C18.75 9.5335 19.5335 8.75 20.5 8.75H22.5C23.4665 8.75 24.25 9.5335 24.25 10.5V15.5C24.25 16.4665 23.4665 17.25 22.5 17.25H20.5C19.5335 17.25 18.75 16.4665 18.75 15.5V10.5ZM20.5 10.25C20.3619 10.25 20.25 10.3619 20.25 10.5V15.5C20.25 15.6381 20.3619 15.75 20.5 15.75H22.5C22.6381 15.75 22.75 15.6381 22.75 15.5V10.5C22.75 10.3619 22.6381 10.25 22.5 10.25H20.5Z" fill="#333333"/>
<path fill-rule="evenodd" clip-rule="evenodd" d="M1.75 10.5C1.75 9.5335 2.5335 8.75 3.5 8.75H5.5C6.4665 8.75 7.25 9.5335 7.25 10.5V15.5C7.25 16.4665 6.4665 17.25 5.5 17.25H3.5C2.5335 17.25 1.75 16.4665 1.75 15.5V10.5ZM3.5 10.25C3.36193 10.25 3.25 10.3619 3.25 10.5V15.5C3.25 15.6381 3.36193 15.75 3.5 15.75H5.5C5.63807 15.75 5.75 15.6381 5.75 15.5V10.5C5.75 10.3619 5.63807 10.25 5.5 10.25H3.5Z" fill="#333333"/>
<path fill-rule="evenodd" clip-rule="evenodd" d="M8.75 20.5C8.75 19.5335 9.5335 18.75 10.5 18.75H15.5C16.4665 18.75 17.25 19.5335 17.25 20.5V22.5C17.25 23.4665 16.4665 24.25 15.5 24.25H10.5C9.5335 24.25 8.75 23.4665 8.75 22.5V20.5ZM10.5 20.25C10.3619 20.25 10.25 20.3619 10.25 20.5V22.5C10.25 22.6381 10.3619 22.75 10.5 22.75H15.5C15.6381 22.75 15.75 22.6381 15.75 22.5V20.5C15.75 20.3619 15.6381 20.25 15.5 20.25H10.5Z" fill="#333333"/>
<path fill-rule="evenodd" clip-rule="evenodd" d="M8.75 3.5C8.75 2.5335 9.5335 1.75 10.5 1.75H15.5C16.4665 1.75 17.25 2.5335 17.25 3.5V5.5C17.25 6.4665 16.4665 7.25 15.5 7.25H10.5C9.5335 7.25 8.75 6.4665 8.75 5.5V3.5Z" fill="#333333"/>
</svg>
