<svg width="24" height="24" viewBox="0 0 24 24" fill="none" xmlns="http://www.w3.org/2000/svg">
<path fill-rule="evenodd" clip-rule="evenodd" d="M4.25 5C4.25 4.58579 4.58579 4.25 5 4.25H10C15.3848 4.25 19.75 8.61522 19.75 14V19C19.75 19.4142 19.4142 19.75 19 19.75C18.5858 19.75 18.25 19.4142 18.25 19V14C18.25 9.44365 14.5563 5.75 10 5.75H5C4.58579 5.75 4.25 5.41421 4.25 5Z" fill="#333333"/>
<path fill-rule="evenodd" clip-rule="evenodd" d="M5 7.375C5.34518 7.375 5.625 7.65482 5.625 8V8.6875C5.625 9.03268 5.34518 9.3125 5 9.3125C4.65482 9.3125 4.375 9.03268 4.375 8.6875V8C4.375 7.65482 4.65482 7.375 5 7.375ZM5 10.3542C5.34518 10.3542 5.625 10.634 5.625 10.9792V12.3542C5.625 12.6993 5.34518 12.9792 5 12.9792C4.65482 12.9792 4.375 12.6993 4.375 12.3542V10.9792C4.375 10.634 4.65482 10.3542 5 10.3542ZM5 14.0208C5.34518 14.0208 5.625 14.3007 5.625 14.6458V16.0208C5.625 16.366 5.34518 16.6458 5 16.6458C4.65482 16.6458 4.375 16.366 4.375 16.0208V14.6458C4.375 14.3007 4.65482 14.0208 5 14.0208ZM5 17.6875C5.34518 17.6875 5.625 17.9673 5.625 18.3125V18.375H5.6875C6.03268 18.375 6.3125 18.6548 6.3125 19C6.3125 19.3452 6.03268 19.625 5.6875 19.625H5C4.65482 19.625 4.375 19.3452 4.375 19V18.3125C4.375 17.9673 4.65482 17.6875 5 17.6875ZM7.35417 19C7.35417 18.6548 7.63399 18.375 7.97917 18.375H9.35417C9.69935 18.375 9.97917 18.6548 9.97917 19C9.97917 19.3452 9.69935 19.625 9.35417 19.625H7.97917C7.63399 19.625 7.35417 19.3452 7.35417 19ZM11.0208 19C11.0208 18.6548 11.3007 18.375 11.6458 18.375H13.0208C13.366 18.375 13.6458 18.6548 13.6458 19C13.6458 19.3452 13.366 19.625 13.0208 19.625H11.6458C11.3007 19.625 11.0208 19.3452 11.0208 19ZM14.6875 19C14.6875 18.6548 14.9673 18.375 15.3125 18.375H16C16.3452 18.375 16.625 18.6548 16.625 19C16.625 19.3452 16.3452 19.625 16 19.625H15.3125C14.9673 19.625 14.6875 19.3452 14.6875 19Z" fill="#333333"/>
</svg>
