<svg width="12" height="11" viewBox="0 0 12 11" fill="none" xmlns="http://www.w3.org/2000/svg">
<path opacity="0.5" d="M1.50171 3.5C1.50171 4.17904 1.56779 4.6849 1.69995 5.01758C1.83211 5.35026 2.04858 5.5166 2.34937 5.5166C2.95093 5.5166 3.25171 4.8444 3.25171 3.5C3.25171 2.1556 2.95093 1.4834 2.34937 1.4834C2.04858 1.4834 1.83211 1.64974 1.69995 1.98242C1.56779 2.3151 1.50171 2.82096 1.50171 3.5ZM4.57788 3.48633C4.57788 4.53451 4.38875 5.32292 4.0105 5.85156C3.6368 6.37565 3.08309 6.6377 2.34937 6.6377C1.65666 6.6377 1.1189 6.36654 0.736084 5.82422C0.357829 5.27734 0.168701 4.49805 0.168701 3.48633C0.168701 1.40365 0.895589 0.362305 2.34937 0.362305C3.06486 0.362305 3.61401 0.633464 3.99683 1.17578C4.3842 1.71354 4.57788 2.48372 4.57788 3.48633ZM8.00952 7.49219C8.00952 8.17122 8.0756 8.67936 8.20776 9.0166C8.34448 9.35384 8.56323 9.52246 8.86401 9.52246C9.46102 9.52246 9.75952 8.8457 9.75952 7.49219C9.75952 6.1569 9.46102 5.48926 8.86401 5.48926C8.56323 5.48926 8.34448 5.65332 8.20776 5.98145C8.0756 6.30957 8.00952 6.81315 8.00952 7.49219ZM11.0857 7.49219C11.0857 8.54036 10.8966 9.3265 10.5183 9.85059C10.1401 10.3747 9.58862 10.6367 8.86401 10.6367C8.17131 10.6367 7.63354 10.3678 7.25073 9.83008C6.86792 9.28776 6.67651 8.50846 6.67651 7.49219C6.67651 5.40951 7.40568 4.36816 8.86401 4.36816C9.56584 4.36816 10.1104 4.63704 10.4978 5.1748C10.8897 5.71257 11.0857 6.48503 11.0857 7.49219ZM9.05542 0.505859L3.51147 10.5H2.1853L7.72925 0.505859H9.05542Z" fill="#334444"/>
</svg>
