<svg width="26" height="26" viewBox="0 0 26 26" fill="none" xmlns="http://www.w3.org/2000/svg">
<mask id="mask0" mask-type="alpha" maskUnits="userSpaceOnUse" x="2" y="2" width="22" height="22">
<path fill-rule="evenodd" clip-rule="evenodd" d="M20.3817 12.25L16.0052 7.87348C15.7123 7.58059 15.7123 7.10571 16.0052 6.81282C16.2981 6.51993 16.773 6.51993 17.0659 6.81282L22.7227 12.4697C23.0156 12.7626 23.0156 13.2374 22.7227 13.5303L17.0659 19.1872C16.773 19.4801 16.2981 19.4801 16.0052 19.1872C15.7123 18.8943 15.7123 18.4194 16.0052 18.1265L20.3817 13.75L3.80761 13.75C3.3934 13.75 3.05761 13.4142 3.05761 13C3.05761 12.5858 3.3934 12.25 3.80761 12.25L20.3817 12.25Z" fill="white"/>
</mask>
<g mask="url(#mask0)">
<rect y="26" width="26" height="26" transform="rotate(-90 0 26)" fill="#333333"/>
</g>
</svg>
