<svg width="26" height="26" viewBox="0 0 26 26" fill="none" xmlns="http://www.w3.org/2000/svg">
    <path fill-rule="evenodd" clip-rule="evenodd" d="M2.75 5.5C2.75 3.98122 3.98122 2.75 5.5 2.75H18.5C20.0188 2.75 21.25 3.98122 21.25 5.5V18.5C21.25 18.6989 21.171 18.8897 21.0303 19.0303L19.0303 21.0303C18.8897 21.171 18.6989 21.25 18.5 21.25H5.5C3.98122 21.25 2.75 20.0188 2.75 18.5V5.5ZM5.5 4.25C4.80964 4.25 4.25 4.80964 4.25 5.5V18.5C4.25 19.1904 4.80964 19.75 5.5 19.75H18.1893L19.75 18.1893V5.5C19.75 4.80964 19.1904 4.25 18.5 4.25H5.5Z" fill="#333333"/>
    <path fill-rule="evenodd" clip-rule="evenodd" d="M24.0303 10.9697C24.3232 11.2626 24.3232 11.7374 24.0303 12.0303L21.0303 15.0303C20.7374 15.3232 20.2626 15.3232 19.9697 15.0303C19.6768 14.7374 19.6768 14.2626 19.9697 13.9697L22.9697 10.9697C23.2626 10.6768 23.7374 10.6768 24.0303 10.9697ZM15.0303 19.9697C15.3232 20.2626 15.3232 20.7374 15.0303 21.0303L12.0303 24.0303C11.7374 24.3232 11.2626 24.3232 10.9697 24.0303C10.6768 23.7374 10.6768 23.2626 10.9697 22.9697L13.9697 19.9697C14.2626 19.6768 14.7374 19.6768 15.0303 19.9697Z" fill="#333333"/>
    <path fill-rule="evenodd" clip-rule="evenodd" d="M24.0303 6.96967C24.3232 7.26256 24.3232 7.73744 24.0303 8.03033L21.0303 11.0303C20.7374 11.3232 20.2626 11.3232 19.9697 11.0303C19.6768 10.7374 19.6768 10.2626 19.9697 9.96967L22.9697 6.96967C23.2626 6.67678 23.7374 6.67678 24.0303 6.96967ZM11.0303 19.9697C11.3232 20.2626 11.3232 20.7374 11.0303 21.0303L8.03033 24.0303C7.73744 24.3232 7.26256 24.3232 6.96967 24.0303C6.67678 23.7374 6.67678 23.2626 6.96967 22.9697L9.96967 19.9697C10.2626 19.6768 10.7374 19.6768 11.0303 19.9697Z" fill="#333333"/>
    <path fill-rule="evenodd" clip-rule="evenodd" d="M24.0303 14.9697C24.3232 15.2626 24.3232 15.7374 24.0303 16.0303L21.0303 19.0303C20.7374 19.3232 20.2626 19.3232 19.9697 19.0303C19.6768 18.7374 19.6768 18.2626 19.9697 17.9697L22.9697 14.9697C23.2626 14.6768 23.7374 14.6768 24.0303 14.9697ZM19.0303 19.9697C19.3232 20.2626 19.3232 20.7374 19.0303 21.0303L16.0303 24.0303C15.7374 24.3232 15.2626 24.3232 14.9697 24.0303C14.6768 23.7374 14.6768 23.2626 14.9697 22.9697L17.9697 19.9697C18.2626 19.6768 18.7374 19.6768 19.0303 19.9697Z" fill="#333333"/>
    <path fill-rule="evenodd" clip-rule="evenodd" d="M24.0303 18.9697C24.3232 19.2626 24.3232 19.7374 24.0303 20.0303L20.0303 24.0303C19.7374 24.3232 19.2626 24.3232 18.9697 24.0303C18.6768 23.7374 18.6768 23.2626 18.9697 22.9697L22.9697 18.9697C23.2626 18.6768 23.7374 18.6768 24.0303 18.9697Z" fill="#333333"/>
    <path d="M24.25 23.5C24.25 23.9142 23.9142 24.25 23.5 24.25C23.0858 24.25 22.75 23.9142 22.75 23.5C22.75 23.0858 23.0858 22.75 23.5 22.75C23.9142 22.75 24.25 23.0858 24.25 23.5Z" fill="#333333"/>
</svg>
