<svg width="26" height="26" viewBox="0 0 26 26" fill="none" xmlns="http://www.w3.org/2000/svg">
    <path fill-rule="evenodd" clip-rule="evenodd" d="M8.75 4.5C8.75 4.08579 9.08579 3.75 9.5 3.75H10C10.4142 3.75 10.75 4.08579 10.75 4.5C10.75 4.91421 10.4142 5.25 10 5.25H9.5C9.08579 5.25 8.75 4.91421 8.75 4.5ZM12.25 4.5C12.25 4.08579 12.5858 3.75 13 3.75H14C14.4142 3.75 14.75 4.08579 14.75 4.5C14.75 4.91421 14.4142 5.25 14 5.25H13C12.5858 5.25 12.25 4.91421 12.25 4.5ZM16.25 4.5C16.25 4.08579 16.5858 3.75 17 3.75H18C18.4142 3.75 18.75 4.08579 18.75 4.5C18.75 4.91421 18.4142 5.25 18 5.25H17C16.5858 5.25 16.25 4.91421 16.25 4.5ZM20.25 4.5C20.25 4.08579 20.5858 3.75 21 3.75H21.5C21.9142 3.75 22.25 4.08579 22.25 4.5V5C22.25 5.41421 21.9142 5.75 21.5 5.75C21.1616 5.75 20.8755 5.52583 20.7821 5.21787C20.4742 5.12453 20.25 4.83844 20.25 4.5ZM21.5 7.25C21.9142 7.25 22.25 7.58579 22.25 8V9C22.25 9.41421 21.9142 9.75 21.5 9.75C21.0858 9.75 20.75 9.41421 20.75 9V8C20.75 7.58579 21.0858 7.25 21.5 7.25ZM21.5 11.25C21.9142 11.25 22.25 11.5858 22.25 12V13C22.25 13.4142 21.9142 13.75 21.5 13.75C21.0858 13.75 20.75 13.4142 20.75 13V12C20.75 11.5858 21.0858 11.25 21.5 11.25ZM21.5 15.25C21.9142 15.25 22.25 15.5858 22.25 16V16.5C22.25 16.9142 21.9142 17.25 21.5 17.25C21.0858 17.25 20.75 16.9142 20.75 16.5V16C20.75 15.5858 21.0858 15.25 21.5 15.25Z" fill="#333333"/>
    <path fill-rule="evenodd" clip-rule="evenodd" d="M4.96967 3.96967C5.26256 3.67678 5.73744 3.67678 6.03033 3.96967L9.03033 6.96967C9.32322 7.26256 9.32322 7.73744 9.03033 8.03033C8.73744 8.32322 8.26256 8.32322 7.96967 8.03033L6.25 6.31066V19.75H19.6893L17.9697 18.0303C17.6768 17.7374 17.6768 17.2626 17.9697 16.9697C18.2626 16.6768 18.7374 16.6768 19.0303 16.9697L22.0303 19.9697C22.3232 20.2626 22.3232 20.7374 22.0303 21.0303L19.0303 24.0303C18.7374 24.3232 18.2626 24.3232 17.9697 24.0303C17.6768 23.7374 17.6768 23.2626 17.9697 22.9697L19.6893 21.25H5.5C5.08579 21.25 4.75 20.9142 4.75 20.5V6.31066L3.03033 8.03033C2.73744 8.32322 2.26256 8.32322 1.96967 8.03033C1.67678 7.73744 1.67678 7.26256 1.96967 6.96967L4.96967 3.96967Z" fill="#333333"/>
</svg>
