<svg width="18" height="18" viewBox="0 0 18 18" fill="none" xmlns="http://www.w3.org/2000/svg">
    <g filter="url(#filter0_d)">
        <path fill-rule="evenodd" clip-rule="evenodd" d="M9 15C12.866 15 16 11.866 16 8C16 4.13401 12.866 1 9 1C5.13401 1 2 4.13401 2 8C2 11.866 5.13401 15 9 15Z" fill="white"/>
    </g>
    <path fill-rule="evenodd" clip-rule="evenodd" d="M7.75 10L7.75 6C7.75 5.30964 8.30964 4.75 9 4.75C9.69036 4.75 10.25 5.30964 10.25 6L10.25 10C10.25 10.6904 9.69036 11.25 9 11.25C8.30964 11.25 7.75 10.6904 7.75 10Z" fill="#29BC50"/>
    <defs>
        <filter id="filter0_d" x="0" y="0" width="18" height="18" filterUnits="userSpaceOnUse" color-interpolation-filters="sRGB">
            <feFlood flood-opacity="0" result="BackgroundImageFix"/>
            <feColorMatrix in="SourceAlpha" type="matrix" values="0 0 0 0 0 0 0 0 0 0 0 0 0 0 0 0 0 0 127 0"/>
            <feOffset dy="1"/>
            <feGaussianBlur stdDeviation="1"/>
            <feColorMatrix type="matrix" values="0 0 0 0 0 0 0 0 0 0 0 0 0 0 0 0 0 0 0.35 0"/>
            <feBlend mode="normal" in2="BackgroundImageFix" result="effect1_dropShadow"/>
            <feBlend mode="normal" in="SourceGraphic" in2="effect1_dropShadow" result="shape"/>
        </filter>
    </defs>
</svg>
