<svg width="26" height="26" fill="none" xmlns="http://www.w3.org/2000/svg"><path d="M4.75 7.914c0-1.559 1.885-2.34 2.987-1.237l9.44 9.44c.787.787.23 2.133-.884 2.133H10.81l-3.927 3.927c-.788.787-2.134.23-2.134-.884V7.914zM8.75 5.5a.75.75 0 01.75-.75h.5a.75.75 0 010 1.5h-.5a.75.75 0 01-.75-.75zm3.5 0a.75.75 0 01.75-.75h1a.75.75 0 010 1.5h-1a.75.75 0 01-.75-.75zm4 0a.75.75 0 01.75-.75h1a.75.75 0 010 1.5h-1a.75.75 0 01-.75-.75zm4 0a.75.75 0 01.75-.75h.5a.75.75 0 01.75.75v.531a.75.75 0 01-1.477.184.75.75 0 01-.523-.715zm1.25 2.969a.75.75 0 01.75.75v1.062a.75.75 0 11-1.5 0V9.22a.75.75 0 01.75-.75zm0 4.25a.75.75 0 01.75.75v1.062a.75.75 0 11-1.5 0V13.47a.75.75 0 01.75-.75zm0 4.25a.75.75 0 01.75.75v1.062a.75.75 0 11-1.5 0V17.72a.75.75 0 01.75-.75zm0 4.25a.75.75 0 01.75.75v.531a.75.75 0 01-.75.75h-.458a.75.75 0 01-.273-1.449.75.75 0 01.731-.582zM9.75 22.5a.75.75 0 01.75-.75h.458a.75.75 0 010 1.5H10.5a.75.75 0 01-.75-.75zm3.208 0a.75.75 0 01.75-.75h.917a.75.75 0 010 1.5h-.917a.75.75 0 01-.75-.75zm3.667 0a.75.75 0 01.75-.75h.917a.75.75 0 010 1.5h-.917a.75.75 0 01-.75-.75zM8.53 1.47a.75.75 0 010 1.06l-1.5 1.5a.75.75 0 01-1.06-1.06l1.5-1.5a.75.75 0 011.06 0zM1.47 1.47a.75.75 0 000 1.06l1.5 1.5a.75.75 0 001.06-1.06l-1.5-1.5a.75.75 0 00-1.06 0zM4.03 5.97a.75.75 0 010 1.06l-2 2A.75.75 0 01.97 7.97l2-2a.75.75 0 011.06 0z" fill="#333"/></svg>
