<svg width="26" height="26" viewBox="0 0 26 26" fill="none" xmlns="http://www.w3.org/2000/svg">
<mask id="mask0" mask-type="alpha" maskUnits="userSpaceOnUse" x="2" y="2" width="22" height="22">
<path fill-rule="evenodd" clip-rule="evenodd" d="M12.25 5.61827L7.87348 9.9948C7.58059 10.2877 7.10571 10.2877 6.81282 9.9948C6.51993 9.7019 6.51993 9.22703 6.81282 8.93414L12.4697 3.27728C12.7626 2.98439 13.2374 2.98439 13.5303 3.27728L19.1872 8.93414C19.4801 9.22703 19.4801 9.7019 19.1872 9.9948C18.8943 10.2877 18.4194 10.2877 18.1265 9.9948L13.75 5.61827L13.75 22.1924C13.75 22.6066 13.4142 22.9424 13 22.9424C12.5858 22.9424 12.25 22.6066 12.25 22.1924L12.25 5.61827Z" fill="white"/>
</mask>
<g mask="url(#mask0)">
<rect x="26" y="26" width="26" height="26" transform="rotate(-180 26 26)" fill="#333333"/>
</g>
</svg>
